<svg xmlns="http://www.w3.org/2000/svg" xmlns:xlink="http://www.w3.org/1999/xlink" width="154.746" height="148.681" viewBox="0 0 154.746 148.681">
  <defs>
    <clipPath id="clip-path">
      <rect id="Rectángulo_454929" data-name="Rectángulo 454929" width="154.746" height="148.681" fill="none"/>
    </clipPath>
    <clipPath id="clip-path-2">
      <rect id="Rectángulo_458286" data-name="Rectángulo 458286" width="100.068" height="132.892" fill="none" stroke="#707070" stroke-width="5"/>
    </clipPath>
  </defs>
  <g id="Grupo_1210319" data-name="Grupo 1210319" transform="translate(-468.059 -2012.999)">
    <g id="Grupo_1203490" data-name="Grupo 1203490" transform="translate(468.059 2012.999)">
      <g id="Grupo_1203489" data-name="Grupo 1203489" clip-path="url(#clip-path)">
        <path id="Trazado_1258858" data-name="Trazado 1258858" d="M131.807,139.184c24.187-15.469,25.139-41.25,20.623-67-2.307-13.151-2.672-26.091-4.271-39.23-.737-6.055-2.2-12.172-5.575-17.255-9.64-14.528-28.33-9.384-42.481-6.653C77.715,14.642,52.582,14.6,31.6,24.806,15.391,32.688-2.073,50.505.2,70.032c1.124,9.655,7.1,18.218,14.53,24.48,13.435,11.32,30.921,17.256,45.489,27,10.5,7.028,18.4,19.612,30.5,24.089,12.765,4.721,29.4.888,40.572-6.1q.258-.161.512-.324" transform="translate(0 0.991)" fill="#f3f9ff"/>
        <path id="Trazado_1264097" data-name="Trazado 1264097" d="M79.592,79.592h0Z" transform="translate(65.272 9.881)" fill="#fee383"/>
      </g>
    </g>
    <g id="Grupo_1210300" data-name="Grupo 1210300" transform="translate(496.711 2016.916)">
      <g id="Grupo_1210299" data-name="Grupo 1210299" clip-path="url(#clip-path-2)">
        <path id="Trazado_1264098" data-name="Trazado 1264098" d="M16.169,29.886,6.775,34.5l10.57,28.738s11.769,2.656,17.047,13.146c6.081,12.086,2.82,25.433-2.355,36.2L21.781,133.623H72.657V33.118S52.713,34.5,46.681,14.9l-10.22,5.02Z" transform="translate(-4.18 -9.191)" fill="#ffce69" stroke="#707070" stroke-width="5"/>
        <path id="Trazado_1264099" data-name="Trazado 1264099" d="M16.169,29.886,6.775,34.5l10.57,28.738s11.769,2.656,17.047,13.146c6.081,12.086,2.82,25.433-2.355,36.2L21.781,133.623H72.657V33.118S52.713,34.5,46.681,14.9l-10.22,5.02" transform="translate(-4.18 -9.191)" fill="none" stroke="#000" stroke-linecap="round" stroke-linejoin="round" stroke-width="5"/>
        <line id="Línea_3417" data-name="Línea 3417" y2="89.32" transform="translate(55.518 32.72)" fill="none" stroke="#000" stroke-linecap="round" stroke-linejoin="round" stroke-width="5" stroke-dasharray="20.326 27.779 20.326 27.779"/>
        <path id="Trazado_1264100" data-name="Trazado 1264100" d="M195.2,6.775h0a14.82,14.82,0,0,1,14.82,14.82V51.372a26.276,26.276,0,0,0,7.7,18.58l.178.178a26.277,26.277,0,0,0-7.7,18.581v30.946a14.82,14.82,0,0,1-14.82,14.82H195.2" transform="translate(-120.423 -4.18)" fill="none" stroke="#000" stroke-linecap="round" stroke-linejoin="round" stroke-width="5"/>
        <line id="Línea_3418" data-name="Línea 3418" transform="translate(22.166 15.772)" fill="none" stroke="#000" stroke-linecap="round" stroke-linejoin="round" stroke-width="5"/>
      </g>
    </g>
  </g>
</svg>
