<svg xmlns="http://www.w3.org/2000/svg" xmlns:xlink="http://www.w3.org/1999/xlink" width="154.746" height="148.681" viewBox="0 0 154.746 148.681">
  <defs>
    <clipPath id="clip-path">
      <rect id="Rectángulo_454929" data-name="Rectángulo 454929" width="154.746" height="148.681" fill="none"/>
    </clipPath>
    <clipPath id="clip-path-2">
      <rect id="Rectángulo_458287" data-name="Rectángulo 458287" width="73" height="142" transform="translate(0 -0.464)" fill="#dcbfdc"/>
    </clipPath>
  </defs>
  <g id="Grupo_1210320" data-name="Grupo 1210320" transform="translate(-976.059 -2012.999)">
    <g id="Grupo_1203672" data-name="Grupo 1203672" transform="translate(0 -6813.941)">
      <g id="Grupo_1203671" data-name="Grupo 1203671" transform="translate(987.059 8826.94)">
        <g id="Grupo_1203490" data-name="Grupo 1203490" transform="translate(-11 0)">
          <g id="Grupo_1203489" data-name="Grupo 1203489" clip-path="url(#clip-path)">
            <path id="Trazado_1258858" data-name="Trazado 1258858" d="M131.807,139.184c24.187-15.469,25.139-41.25,20.623-67-2.307-13.151-2.672-26.091-4.271-39.23-.737-6.055-2.2-12.172-5.575-17.255-9.64-14.528-28.33-9.384-42.481-6.653C77.715,14.642,52.582,14.6,31.6,24.806,15.391,32.688-2.073,50.505.2,70.032c1.124,9.655,7.1,18.218,14.53,24.48,13.435,11.32,30.921,17.256,45.489,27,10.5,7.028,18.4,19.612,30.5,24.089,12.765,4.721,29.4.888,40.572-6.1q.258-.161.512-.324" transform="translate(0 0.991)" fill="#fec872"/>
          </g>
        </g>
      </g>
    </g>
    <g id="Grupo_1210302" data-name="Grupo 1210302" transform="translate(1030.711 2019.233)">
      <g id="Grupo_1210301" data-name="Grupo 1210301" transform="translate(0 0.231)" clip-path="url(#clip-path-2)">
        <path id="Trazado_1264101" data-name="Trazado 1264101" d="M128.247,42.781l-2.309-.846A24.576,24.576,0,0,1,103,57.688V168.936h42.235V72.043c-23.464-8.005-16.989-29.261-16.989-29.261" transform="translate(-74.567 -30.614)" fill="#dcbfdc"/>
        <path id="Trazado_1264102" data-name="Trazado 1264102" d="M2.76,251.522A2.76,2.76,0,1,0,.809,246.81a2.76,2.76,0,0,0,1.952,4.712" transform="translate(0 -178.348)"/>
        <path id="Trazado_1264103" data-name="Trazado 1264103" d="M71.56,39.071c-20.575-7.02-15.465-25.087-15.24-25.844a2.761,2.761,0,0,0-1.691-3.4L28.279.169a2.759,2.759,0,0,0-3.71,2.591A21.832,21.832,0,0,1,2.761,24.569,2.761,2.761,0,0,0,0,27.329v30.66a2.761,2.761,0,0,0,5.521,0V29.951a27.386,27.386,0,0,0,24.3-23.337L50.48,14.19a29.165,29.165,0,0,0,.192,10.424c1.281,6.153,5.335,14.3,17.236,19v54.8a2.76,2.76,0,1,0,5.521,0V41.684a2.762,2.762,0,0,0-1.869-2.613" transform="translate(0 -0.255)"/>
        <path id="Trazado_1264104" data-name="Trazado 1264104" d="M248.76,388.8a2.76,2.76,0,0,0-2.76,2.76v.316a2.76,2.76,0,1,0,5.521,0v-.316a2.76,2.76,0,0,0-2.76-2.76" transform="translate(-178.092 -281.726)"/>
        <path id="Trazado_1264105" data-name="Trazado 1264105" d="M70.668,326.422a2.76,2.76,0,0,0-2.76,2.76v15.045H5.521V290.641a2.76,2.76,0,1,0-5.521,0v56.347a2.76,2.76,0,0,0,2.76,2.76H70.668a2.76,2.76,0,0,0,2.76-2.76V329.183a2.76,2.76,0,0,0-2.76-2.76" transform="translate(0 -208.666)"/>
        <path id="Trazado_1264106" data-name="Trazado 1264106" d="M89,454.762a2.761,2.761,0,0,0,2.76,2.761h2.76a2.76,2.76,0,1,0,0-5.521H91.76a2.76,2.76,0,0,0-2.76,2.76" transform="translate(-64.432 -327.482)"/>
        <path id="Trazado_1264107" data-name="Trazado 1264107" d="M40,247.995a2.76,2.76,0,0,0,5.521,0v-2.76a2.76,2.76,0,0,0-5.521,0Z" transform="translate(-28.958 -175.795)"/>
        <path id="Trazado_1264108" data-name="Trazado 1264108" d="M40,296.995a2.76,2.76,0,0,0,5.521,0v-2.76a2.76,2.76,0,1,0-5.521,0Z" transform="translate(-28.958 -211.268)"/>
        <path id="Trazado_1264109" data-name="Trazado 1264109" d="M40,394.995a2.76,2.76,0,1,0,5.521,0v-2.76a2.76,2.76,0,0,0-5.521,0Z" transform="translate(-28.958 -282.215)"/>
        <path id="Trazado_1264110" data-name="Trazado 1264110" d="M58.683,118.361a2.758,2.758,0,0,0,1.2-.275c.887-.429,1.771-.9,2.625-1.4a2.761,2.761,0,0,0-2.78-4.77c-.731.426-1.487.828-2.247,1.2a2.761,2.761,0,0,0,1.2,5.246" transform="translate(-40.483 -81.007)"/>
        <path id="Trazado_1264111" data-name="Trazado 1264111" d="M42.76,447.729h2.76a2.76,2.76,0,1,0,0-5.521v-.974a2.76,2.76,0,1,0-5.521,0v2.76a2.773,2.773,0,0,1,0,.974,2.76,2.76,0,0,0,2.76,2.76" transform="translate(-28.958 -317.689)"/>
        <path id="Trazado_1264112" data-name="Trazado 1264112" d="M40,147.234v2.76a2.76,2.76,0,1,0,5.521,0v-2.76a2.76,2.76,0,0,0-5.521,0" transform="translate(-28.958 -104.847)"/>
        <path id="Trazado_1264113" data-name="Trazado 1264113" d="M40,198.995a2.76,2.76,0,0,0,5.521,0v-2.76a2.76,2.76,0,0,0-5.521,0Z" transform="translate(-28.958 -140.321)"/>
        <path id="Trazado_1264114" data-name="Trazado 1264114" d="M99.8,86.29c.667-.728,1.316-1.49,1.925-2.266a2.761,2.761,0,0,0-4.343-3.41c-.522.663-1.076,1.317-1.65,1.941A2.761,2.761,0,0,0,99.8,86.29" transform="translate(-68.778 -57.852)"/>
        <path id="Trazado_1264115" data-name="Trazado 1264115" d="M40,345.995a2.76,2.76,0,0,0,5.521,0v-2.76a2.76,2.76,0,1,0-5.521,0Z" transform="translate(-28.958 -246.742)"/>
        <path id="Trazado_1264116" data-name="Trazado 1264116" d="M151.451,94.917a2.76,2.76,0,0,0-5.322,1.466c.264.961.571,1.92.914,2.848a2.761,2.761,0,1,0,5.181-1.907c-.29-.784-.549-1.594-.773-2.407" transform="translate(-105.718 -67.502)"/>
        <path id="Trazado_1264117" data-name="Trazado 1264117" d="M173.3,137.067a2.761,2.761,0,1,0-4.259,3.513c.63.763,1.3,1.512,2,2.224a2.761,2.761,0,0,0,3.954-3.854c-.589-.6-1.158-1.238-1.691-1.884" transform="translate(-121.922 -98.758)"/>
        <path id="Trazado_1264118" data-name="Trazado 1264118" d="M143.521,452h-2.76a2.76,2.76,0,0,0,0,5.521h2.76a2.76,2.76,0,0,0,0-5.521" transform="translate(-99.905 -327.482)"/>
        <path id="Trazado_1264119" data-name="Trazado 1264119" d="M131.325,56.931l-2.592-.95a2.76,2.76,0,0,0-1.9,5.183l2.591.95a2.761,2.761,0,0,0,1.9-5.183" transform="translate(-90.509 -40.659)"/>
        <path id="Trazado_1264120" data-name="Trazado 1264120" d="M187,454.762a2.761,2.761,0,0,0,2.76,2.761h2.76a2.76,2.76,0,0,0,0-5.521h-2.76a2.76,2.76,0,0,0-2.76,2.76" transform="translate(-135.379 -327.482)"/>
        <path id="Trazado_1264121" data-name="Trazado 1264121" d="M206,270.522a2.76,2.76,0,1,0,5.521,0v-2.76a2.76,2.76,0,1,0-5.521,0Z" transform="translate(-149.134 -192.103)"/>
        <path id="Trazado_1264122" data-name="Trazado 1264122" d="M208.76,175.282a2.76,2.76,0,0,0,2.76-2.76v-2.76a2.76,2.76,0,0,0-5.521,0v2.76a2.76,2.76,0,0,0,2.76,2.76" transform="translate(-149.134 -121.156)"/>
        <path id="Trazado_1264123" data-name="Trazado 1264123" d="M206,221.522a2.76,2.76,0,0,0,5.521,0v-2.76a2.76,2.76,0,0,0-5.521,0Z" transform="translate(-149.134 -156.629)"/>
        <path id="Trazado_1264124" data-name="Trazado 1264124" d="M206,368.522a2.76,2.76,0,0,0,5.521,0v-2.76a2.76,2.76,0,0,0-5.521,0Z" transform="translate(-149.134 -263.05)"/>
        <path id="Trazado_1264125" data-name="Trazado 1264125" d="M206,319.522a2.76,2.76,0,1,0,5.521,0v-2.76a2.76,2.76,0,1,0-5.521,0Z" transform="translate(-149.134 -227.577)"/>
        <path id="Trazado_1264126" data-name="Trazado 1264126" d="M206,417.522a2.76,2.76,0,1,0,5.521,0v-2.76a2.76,2.76,0,1,0-5.521,0Z" transform="translate(-149.134 -298.524)"/>
      </g>
    </g>
  </g>
</svg>
