<svg xmlns="http://www.w3.org/2000/svg" xmlns:xlink="http://www.w3.org/1999/xlink" width="116" height="116" viewBox="0 0 116 116">
  <defs>
    <clipPath id="clip-path">
      <rect id="Rectángulo_458288" data-name="Rectángulo 458288" width="52.102" height="59.974" fill="#752092"/>
    </clipPath>
  </defs>
  <g id="Grupo_1210319" data-name="Grupo 1210319" transform="translate(-742.711 -2647.247)">
    <circle id="Elipse_11507" data-name="Elipse 11507" cx="58" cy="58" r="58" transform="translate(742.711 2647.247)" fill="#fec872"/>
    <circle id="Elipse_13623" data-name="Elipse 13623" cx="44.5" cy="44.5" r="44.5" transform="translate(756.711 2661.247)" fill="#fff"/>
    <g id="Grupo_1210304" data-name="Grupo 1210304" transform="translate(775.602 2675.663)">
      <g id="Grupo_1210303" data-name="Grupo 1210303" clip-path="url(#clip-path)">
        <path id="Trazado_1264127" data-name="Trazado 1264127" d="M51.728,27.207l-4.434-3.547L49.009,2.215A2.049,2.049,0,0,0,47.133.007C47.078,0,47.022,0,46.966,0H45.95a2.061,2.061,0,0,0-2.043,1.887L42.273,22.315a33.959,33.959,0,0,0-10.625,3.24l-2.894,1.433H23.23l-2.559-1.3A33.911,33.911,0,0,0,9.7,22.293L8.072,1.887A2.062,2.062,0,0,0,6.028,0H5.012a2.049,2.049,0,0,0-2.05,2.048c0,.055,0,.111.007.166L4.68,23.619.36,27.22a1,1,0,0,0-.351.9L3.691,56.653a3.816,3.816,0,0,0,3.776,3.321H44.521a3.819,3.819,0,0,0,3.773-3.3l3.8-28.55a1,1,0,0,0-.365-.913m-2.519,7.439a10.973,10.973,0,0,1-8.755,5.2c-.2.011-.4.016-.6.016A11.013,11.013,0,0,1,29.6,32.83l18.087-6.292,2.347,1.877ZM24.988,28.988h0V57.975H15.341L12.652,41.84A13.011,13.011,0,0,0,24.988,28.988m2,1.672A13.015,13.015,0,0,0,39.325,41.845l-2.688,16.13H26.988ZM45.9,2.046A.052.052,0,0,1,45.95,2h1.016A.048.048,0,0,1,47,2.016a.046.046,0,0,1,.012.039L45.379,22.52a5.578,5.578,0,0,0-1.1-.268ZM29.432,28.883l3.1-1.537a31.973,31.973,0,0,1,10.15-3.07l.4-.051a3.528,3.528,0,0,1,2.639.741l.122.1L29.053,30.905a10.949,10.949,0,0,1-.189-1.917h.123a1,1,0,0,0,.444-.1Zm-6.894,0a1,1,0,0,0,.451.108,10.986,10.986,0,0,1-.182,1.877L6.088,25.049l.073-.061A3.53,3.53,0,0,1,8.8,24.2a31.933,31.933,0,0,1,10.969,3.276ZM4.974,2.016A.049.049,0,0,1,5.012,2H6.028a.052.052,0,0,1,.051.047L7.693,22.225a5.553,5.553,0,0,0-1.1.261L4.96,2.052A.044.044,0,0,1,4.974,2.016ZM4.3,26.543l17.968,6.249a11.013,11.013,0,0,1-10.269,7.066c-.16,0-.321,0-.48-.01a11.021,11.021,0,0,1-8.594-4.775L2.061,28.4ZM5.674,56.4l-2.3-17.816a13.027,13.027,0,0,0,7.241,3.2l2.7,16.191H7.466A1.811,1.811,0,0,1,5.674,56.4Zm40.64.007a1.813,1.813,0,0,1-1.793,1.569H38.664l2.7-16.2a12.949,12.949,0,0,0,7.348-3.4Z" transform="translate(0 0)" fill="#752092"/>
      </g>
    </g>
  </g>
</svg>
