<svg xmlns="http://www.w3.org/2000/svg" xmlns:xlink="http://www.w3.org/1999/xlink" width="396" height="315" viewBox="0 0 396 315">
  <defs>
    <clipPath id="clip-path">
      <rect id="Rectángulo_457968" data-name="Rectángulo 457968" width="396" height="315" transform="translate(1017.711 3231)" fill="#cdbfdc"/>
    </clipPath>
    <clipPath id="clip-path-2">
      <rect id="Rectángulo_457967" data-name="Rectángulo 457967" width="509.712" height="317.797" fill="none"/>
    </clipPath>
  </defs>
  <g id="Grupo_1210318" data-name="Grupo 1210318" transform="translate(-1017.711 -3220.584)">
    <rect id="Rectángulo_457969" data-name="Rectángulo 457969" width="396" height="315" transform="translate(1017.711 3220.584)" fill="#cdbfdc"/>
    <g id="Enmascarar_grupo_1119167" data-name="Enmascarar grupo 1119167" transform="translate(0 -10.416)" clip-path="url(#clip-path)">
      <g id="Grupo_1209995" data-name="Grupo 1209995" transform="translate(939.711 3260.203)">
        <rect id="Rectángulo_457944" data-name="Rectángulo 457944" width="362.706" height="202.477" transform="translate(92.353)" fill="#fff4e3"/>
        <g id="Grupo_1209994" data-name="Grupo 1209994">
          <g id="Grupo_1209993" data-name="Grupo 1209993" clip-path="url(#clip-path-2)">
            <path id="Trazado_1263104" data-name="Trazado 1263104" d="M286.54,62.316a9.384,9.384,0,0,1,2.2-1.305,6.271,6.271,0,0,1,8.2,4.133c.538,2.07.807,5.252.152,10.08-1.575,11.616-10.307,10.106-12.548,8.356s-2.788-18.019,1.992-21.264" fill="#752092"/>
            <path id="Trazado_1263105" data-name="Trazado 1263105" d="M284.489,62.489a8.907,8.907,0,0,1,2-1.319,5.279,5.279,0,0,1,7.254,3.809,27.77,27.77,0,0,1-.108,9.774c-1.693,11.3-9.484,10.051-11.451,8.408s-2.063-17.408,2.3-20.672" fill="#e2a4db"/>
            <rect id="Rectángulo_457945" data-name="Rectángulo 457945" width="187.834" height="5.66" transform="translate(95.36 82.742)" fill="#ffe9c7"/>
            <rect id="Rectángulo_457946" data-name="Rectángulo 457946" width="187.834" height="5.66" transform="translate(91.493 48.405)" fill="#ffe9c7"/>
            <path id="Trazado_1263106" data-name="Trazado 1263106" d="M198.089,187.177H262.01l1.817-76.167-31.961,16.149-31.96-16.149Z" fill="#ffe9c7"/>
            <rect id="Rectángulo_457947" data-name="Rectángulo 457947" width="10.496" height="36.872" transform="translate(260.699 46.707)" fill="#ffe9c7"/>
            <rect id="Rectángulo_457948" data-name="Rectángulo 457948" width="10.496" height="36.872" transform="translate(199.906 88.402)" fill="#ffe9c7"/>
            <rect id="Rectángulo_457949" data-name="Rectángulo 457949" width="7.484" height="36.872" transform="translate(159.936 86.198)" fill="#ffe9c7"/>
            <rect id="Rectángulo_457950" data-name="Rectángulo 457950" width="7.484" height="36.872" transform="translate(125.831 86.198)" fill="#ffe9c7"/>
            <path id="Trazado_1263107" data-name="Trazado 1263107" d="M185.41,204.216S176.7,168.962,175.1,151.665c-.936-10.112,11.046-30.174,0-40.655-14.543-7.383-19.912,6.207-26.753,6.305-8.848.127-18.758-13.069-29.677-4.06-9.1,7.505-.263,29.018-1.2,39.131-1.6,17.3-7.4,52.078-7.4,52.078Z" fill="#ffe9c7"/>
            <rect id="Rectángulo_457951" data-name="Rectángulo 457951" width="52.146" height="39.482" transform="translate(307.926 26.815)" fill="#ffe9c7"/>
            <rect id="Rectángulo_457952" data-name="Rectángulo 457952" width="18.853" height="6.487" transform="translate(324.573 24.501)" fill="#fdb700"/>
            <rect id="Rectángulo_457953" data-name="Rectángulo 457953" width="35.497" height="29.696" transform="translate(121.898 18.709)" fill="#ffe9c7"/>
            <rect id="Rectángulo_457954" data-name="Rectángulo 457954" width="35.497" height="29.696" transform="translate(196.762 18.709)" fill="#ffe9c7"/>
            <path id="Trazado_1263108" data-name="Trazado 1263108" d="M394.379,285.724h-8.7l1.087-38.983h8.7Z" fill="#e2521d"/>
            <path id="Trazado_1263109" data-name="Trazado 1263109" d="M411.728,62.581c.785,2.354,1.831,15.168,6.8,17.261s23.8,4.446,27.46,9.938,10.756,22.5,10.2,25.106c-.689,3.232-26.937,19.091-27.46,21.707s-4.446,23.537-3.4,35.567,9.767,39.653,12.03,46.552c2.423,7.383,1.326,28.471-1.289,29.518s-84.473.261-85-1.831-1.326-24.811-.541-28.733,7.846-34,7.846-42.106-3.923-41.844-3.923-41.844-10.338-7.342-10.723-9.677c-.35-2.127,14.066-38.631,17.523-40.274,2.892-1.375,23.014-3.662,23.275-5.231s0-15.953,0-15.953Z" fill="#ffe9c7"/>
            <path id="Trazado_1263110" data-name="Trazado 1263110" d="M424.019,113.055c.262,4.707,4.707,23.537,4.707,23.537" fill="none" stroke="#400727" stroke-linecap="round" stroke-linejoin="round" stroke-width="1.176" stroke-dasharray="4.081 4.081"/>
            <path id="Trazado_1263111" data-name="Trazado 1263111" d="M357.853,103.641c-1.308,3.923-3.231,21.612-3.214,31.69" fill="none" stroke="#400727" stroke-linecap="round" stroke-linejoin="round" stroke-width="1.176" stroke-dasharray="4.081 4.081"/>
            <path id="Trazado_1263112" data-name="Trazado 1263112" d="M383.518,80.243a8.68,8.68,0,0,0-.318,2.012" fill="none" stroke="#400727" stroke-linecap="round" stroke-linejoin="round" stroke-width="1.176"/>
            <path id="Trazado_1263113" data-name="Trazado 1263113" d="M384.175,86.581c2.06,4.025,7.244,6.971,14.423,6.191,6.59-.716,11.942-4.44,15.071-7.184" fill="none" stroke="#400727" stroke-linecap="round" stroke-linejoin="round" stroke-width="1.176" stroke-dasharray="4.484 4.484"/>
            <path id="Trazado_1263114" data-name="Trazado 1263114" d="M415.306,84.057c.9-.9,1.389-1.494,1.389-1.494" fill="none" stroke="#400727" stroke-linecap="round" stroke-linejoin="round" stroke-width="1.176"/>
            <path id="Trazado_1263115" data-name="Trazado 1263115" d="M426.749,148.545c-.31,6.462-1.55,15.509-1.553,18.468s2.864,19.648,3.2,21" fill="none" stroke="#400727" stroke-linecap="round" stroke-linejoin="round" stroke-width="1.176"/>
            <path id="Trazado_1263116" data-name="Trazado 1263116" d="M357.853,247.367c5.6.732,49.1,1.324,49.1,1.324" fill="none" stroke="#400727" stroke-linecap="round" stroke-linejoin="round" stroke-width="1.176"/>
            <path id="Trazado_1263117" data-name="Trazado 1263117" d="M432.286,83.235c3.895.779,12.909,4.044,14.4,6.545s7.525,15.741,7.525,15.741" fill="none" stroke="#400727" stroke-linecap="round" stroke-linejoin="round" stroke-width="1.176"/>
            <path id="Trazado_1263118" data-name="Trazado 1263118" d="M361.253,83.765c-1.222,24.631,11.907,104.871,43,142.185,21.423,25.713,32.576,26.669,34.664,24.275s3.8-9.354,3.639-13.3A8.189,8.189,0,0,0,439.841,231s1.856.391,1.392-3.569-3.876-11.037-3.876-11.037,2.563.8,1.676-5c-.7-4.553-4.03-9.761-5.688-9.761,0-1.164-.377-5.655-3.425-8.065-2.517-1.989-33.174-32.447-52.256-88.931-6.02-17.816-3.278-22.6-4.357-23.316-2.54-1.679-9.176-.584-10.55.423a3.385,3.385,0,0,0-1.5,2.021" fill="#ff7f36"/>
            <path id="Trazado_1263119" data-name="Trazado 1263119" d="M439.841,231c-14.616-1.73-38.049-29.892-51.505-67.78" fill="none" stroke="#400727" stroke-linecap="round" stroke-linejoin="round" stroke-width="1.176"/>
            <path id="Trazado_1263120" data-name="Trazado 1263120" d="M437.357,216.394c-13.272-4.06-25.452-20.88-28.6-26.565" fill="none" stroke="#400727" stroke-linecap="round" stroke-linejoin="round" stroke-width="1.176"/>
            <path id="Trazado_1263121" data-name="Trazado 1263121" d="M433.345,201.633a69.871,69.871,0,0,1-11.107-9.28" fill="none" stroke="#400727" stroke-linecap="round" stroke-linejoin="round" stroke-width="1.176"/>
            <path id="Trazado_1263122" data-name="Trazado 1263122" d="M369.022,104.277c3.422,17.632,5.394,22.226,8.178,28.136" fill="none" stroke="#400727" stroke-linecap="round" stroke-linejoin="round" stroke-width="1.176"/>
            <path id="Trazado_1263123" data-name="Trazado 1263123" d="M231.008,264.082c.516,14.973.8,2.177,2.177,18.7,0,0,81.937,3.734,82.25,1.669a157.144,157.144,0,0,0,.391-22.959c-.516-12.134-8.2-46.926-8.2-46.926l-73.5,12.047s-3.628,22.5-3.112,37.47" fill="#987844"/>
            <path id="Trazado_1263124" data-name="Trazado 1263124" d="M296.034,239.031c-1.119,12.133-5.544,42.445-5.544,42.445" fill="none" stroke="#400727" stroke-linecap="round" stroke-linejoin="round" stroke-width="1.176"/>
            <path id="Trazado_1263125" data-name="Trazado 1263125" d="M250.255,267.342c11.359-15.833,14.457-22.373,14.457-22.373" fill="none" stroke="#400727" stroke-linecap="round" stroke-linejoin="round" stroke-width="1.176"/>
            <path id="Trazado_1263126" data-name="Trazado 1263126" d="M236.3,29.038c-5.473,3.031-13.119,11.818-14.232,20.439-1.434,11.112,5.15,22.638,1.62,33.271-1.617,4.87-5.169,8.819-8.688,12.554s-7.181,7.536-9.112,12.291-1.717,10.774,1.924,14.39c2.811,2.791,7.253,3.832,9.325,7.209,2.2,3.579.82,8.174-.442,12.178s-2.192,8.855.579,12.009c2.13,2.424,5.668,2.887,8.88,3.19,11.55,1.093,23.28,2.178,34.684.049s22.644-7.935,28.707-17.825a22.429,22.429,0,0,0,3.62-12.822c-.381-6.538-4.359-12.225-7.957-17.7-6.485-9.862-12.373-21.2-10.814-32.9.872-6.549,4.063-12.906,3.173-19.453-.96-7.06-6.254-12.388-10.145-18-.992-1.431-4.179,2.112-4.968.558-.7-1.383-1.306-10.085-11.979-11.709A21.639,21.639,0,0,0,236.3,29.038" fill="#400727"/>
            <path id="Trazado_1263127" data-name="Trazado 1263127" d="M239.948,42.435c-.518-3.946,1.451-7.551,5.267-9.645,4.16-2.282,9.219-2.227,12.029.129l-2.776,3.311c-1.249-1.047-4.43-1.157-7.175.349a5.252,5.252,0,0,0-3.06,5.293Z" fill="#fdb700"/>
            <path id="Trazado_1263128" data-name="Trazado 1263128" d="M275.147,100.551c-.215-9.767,8.429-17.988,14.2-31.444a23.926,23.926,0,0,0-1.484-21.924c-3.162-5.178-14.72-19.9-33.218-15.542-7.492,1.766-10.884,7.07-14.54,10.611-6.8,6.584-10.151,12.958-11.774,20.621C226.159,73.152,232.2,83.442,235.1,88.7c4.952,8.953,40.309,23.951,40.042,11.847" fill="#400727"/>
            <path id="Trazado_1263129" data-name="Trazado 1263129" d="M282.266,94.895a79.524,79.524,0,0,0-9.926.12,62.1,62.1,0,0,1,3.838,9.814c11.058-1.611,22.091-.43,32.462-4.092-.981-.234-23.009-5.5-26.374-5.842" fill="#752092"/>
            <path id="Trazado_1263130" data-name="Trazado 1263130" d="M285.936,72.168c-.1,5.214.19,10.144-1.327,15.548s-5.034,10.919-9.461,12.835h0l1.03,4.278,16.477,13-11.08,20.122L245.17,136.54l-2.143-24.434,4.276-4.892s1.849-16.428.9-19.652-8.033-3.975-9.1-9.29c-1.115-5.551,5.2-9.372,8.2-5.639,6.6-14.511,18.725-7.67,25.73-21.977,0,0,5.79,4.205,8.5,7.889a23.118,23.118,0,0,1,4.4,13.623" fill="#febf9c"/>
            <path id="Trazado_1263131" data-name="Trazado 1263131" d="M276.349,91.136c-2.012,1.943-8.3,1.073-10.722-1.482" fill="none" stroke="#400727" stroke-linecap="round" stroke-linejoin="round" stroke-width="1.176"/>
            <path id="Trazado_1263132" data-name="Trazado 1263132" d="M253.561,120.344c10.092,2.61,26.295,2.436,28.3-7.308,1.442-6.993,12.644,26.87,12.644,26.87l-12.7,2.462Z" fill="#ffe9c7"/>
            <path id="Trazado_1263133" data-name="Trazado 1263133" d="M273.8,85.851s2.97-1.058,2.686-2.931-1.39-2.188-1.959-5.759a22.333,22.333,0,0,1,.126-7.016" fill="none" stroke="#400727" stroke-linecap="round" stroke-linejoin="round" stroke-width="1.176"/>
            <path id="Trazado_1263134" data-name="Trazado 1263134" d="M267.955,65.758c-3.243-.676-6.373-.921-8.749.106-1.83.791-2.861,1.63-3.447,1.156s1.245-2.013,3.258-2.863a14.3,14.3,0,0,1,7.869-.9c1.99.474,2.275.806,2.37,1.707s-.928.873-1.3.8" fill="#400727"/>
            <path id="Trazado_1263135" data-name="Trazado 1263135" d="M279.082,65.483c-1.651.349-2.631-.357-1.85-1.518.837-1.246,5.3-1.356,8.043-.68,2.608.642,4.334,1.691,4.14,2.255s-1.613-.145-4.078-.509a13.627,13.627,0,0,0-6.255.452" fill="#400727"/>
            <path id="Trazado_1263136" data-name="Trazado 1263136" d="M285.527,71c-1.05.155-2.08-.874-3.117-.83a1.092,1.092,0,0,0-.262-.023c-1.005.043-1.763,1.408-1.694,3.049s.942,2.937,1.947,2.9,1.764-1.408,1.694-3.05a4.408,4.408,0,0,0-.359-1.6,4.555,4.555,0,0,0,.825.245c.356.062,1.436.233,1.375-.4a.355.355,0,0,0-.409-.292" fill="#400727"/>
            <path id="Trazado_1263137" data-name="Trazado 1263137" d="M261.66,71c1.05.155,2.08-.874,3.117-.83a1.092,1.092,0,0,1,.262-.023c1.005.043,1.763,1.408,1.694,3.049s-.942,2.937-1.947,2.9-1.764-1.408-1.694-3.05a4.408,4.408,0,0,1,.359-1.6,4.555,4.555,0,0,1-.825.245c-.356.062-1.436.233-1.375-.4A.355.355,0,0,1,261.66,71" fill="#400727"/>
            <path id="Trazado_1263138" data-name="Trazado 1263138" d="M260.166,99.828c9.66,3.577,14.981.723,14.981.723,1.031,4.278,1.7,5.38,1.7,5.38s-10.8,1.844-16.685-6.1" fill="#400727"/>
            <path id="Trazado_1263139" data-name="Trazado 1263139" d="M308.807,102.378c-.074-1-.129-1.631-.129-1.631l-.021-.005-1.378.689c.581.387,1.007.62,1.528.947" fill="#752092"/>
            <path id="Trazado_1263140" data-name="Trazado 1263140" d="M307.279,101.431l1.378-.689-.017,0c-10.371,3.661-21.4,2.48-32.462,4.091,3.679,5.249,8.763,26,5.457,27.585-5.6,2.681-38.608-20.308-38.608-20.308-5.852,6.539-15.154,18.852-16.178,27.88-1.185,10.448,10.671,45.436,11.359,51.975s-4.087,34.651-4.087,34.651,22.216,8.95,44.245,3.787,29.258-15.834,29.258-15.834-2.64-34.307-1.607-41.191,3.442-18.587,2.409-25.815-5.507-19.964-5.507-19.964,4.634-8.605,5.759-11.359c.876-2.143.388-10.332.129-13.858-.52-.327-.947-.56-1.528-.947" fill="#752092"/>
            <path id="Trazado_1263141" data-name="Trazado 1263141" d="M296.034,118.989c5.784,4.669,10.163,18.963,10.163,18.963" fill="none" stroke="#400727" stroke-linecap="round" stroke-linejoin="round" stroke-width="1.176"/>
            <path id="Trazado_1263142" data-name="Trazado 1263142" d="M377.228,129.723a17.652,17.652,0,0,0-1.819-.321s.829-2.5.8-2.7a33.751,33.751,0,0,0-3.731-4.151c-.312-.055-3.7.834-3.7.834s1.4-2.406.462-3.346-3.6-.832-3.826-.677-7.346,9.375-8.187,9.744-8.717,2.858-12.746,8.1a52.239,52.239,0,0,1-7.455,8.376c-10.89,9.455-37.015,28.018-39.44,29.863-1.734,1.319-19.925-12.05-19.925-12.05l-24.68,16.5s10.582,8.946,14.842,12.278c14.3,11.187,25.6,13.716,31.664,11.735,8.728-2.851,35.084-29.2,46.767-42.461l.038.049c.729-.86,1.372-1.633,1.919-2.31l0,0c.511-.63.94-1.179,1.274-1.627,0,0,15.744-6.806,19.41-8.11,3.144-1.119,8.78-5.408,9.4-6.009s.387-5.494.254-5.84.778-2.58.889-3.207-1.915-4.541-2.216-4.66" fill="#febf9c"/>
            <path id="Trazado_1263143" data-name="Trazado 1263143" d="M365.909,130.829c.17-.228,4.689-5.315,4.689-5.315l-2.132-.376" fill="none" stroke="#400727" stroke-linecap="round" stroke-linejoin="round" stroke-width="1.176"/>
            <path id="Trazado_1263144" data-name="Trazado 1263144" d="M369.166,136.19l6.4-4.368-1.239-.671" fill="none" stroke="#400727" stroke-linecap="round" stroke-linejoin="round" stroke-width="1.176"/>
            <path id="Trazado_1263145" data-name="Trazado 1263145" d="M371.5,141.647l5.132-2.328-.314-1.154" fill="none" stroke="#400727" stroke-linecap="round" stroke-linejoin="round" stroke-width="1.176"/>
            <path id="Trazado_1263146" data-name="Trazado 1263146" d="M279.857,159.95C279.512,157.2,268,144.117,268,144.117" fill="none" stroke="#400727" stroke-linecap="round" stroke-linejoin="round" stroke-width="1.176"/>
            <path id="Trazado_1263147" data-name="Trazado 1263147" d="M237.519,167.732c6.2,11.149,11.015,14.591,11.015,14.591s3.313-2.053,7.786-4.924" fill="none" stroke="#400727" stroke-linecap="round" stroke-linejoin="round" stroke-width="1.176"/>
            <path id="Trazado_1263148" data-name="Trazado 1263148" d="M368.227,86.223c-.843-.648-13.133-3.577-15.948-3.077-2.045.363-17.051,12.721-19.529,13.918-2.524,1.219-10.728,3.253-10.728,3.253l-13.215,2.061a85.863,85.863,0,0,1-.764,9.211,117.168,117.168,0,0,1-3.038,12.07c.172-.33,17.927-4.173,23.052-5.677,5.316-1.56,14.854-11.148,14.854-11.148l1.588-1.616s9.141,1.3,11.28,1.362,10.373-3.695,12.9-4.927,4.019-3.047,3.436-4.085-6.872.778-6.872.778l2.01-6.483s5.316,4.02,5.769,4.344,2.594-.324,2.594-1.361-6.548-7.975-7.391-8.623" fill="#febf9c"/>
            <path id="Trazado_1263149" data-name="Trazado 1263149" d="M325.808,111.589c-2.5-3.1-3.442-9.035-3.442-9.035" fill="none" stroke="#400727" stroke-linecap="round" stroke-linejoin="round" stroke-width="1.176"/>
            <path id="Trazado_1263150" data-name="Trazado 1263150" d="M352.278,98.289c1.3-.072,10.114.317,10.114.317" fill="none" stroke="#400727" stroke-linecap="round" stroke-linejoin="round" stroke-width="1.176"/>
            <path id="Trazado_1263151" data-name="Trazado 1263151" d="M358.048,90.7c1.279,3.688-1.331,7.375-1.331,7.375" fill="none" stroke="#400727" stroke-linecap="round" stroke-linejoin="round" stroke-width="1.176"/>
            <path id="Trazado_1263152" data-name="Trazado 1263152" d="M362.392,90.7c.934,3.315-.673,7.584-.673,7.584" fill="none" stroke="#400727" stroke-linecap="round" stroke-linejoin="round" stroke-width="1.176"/>
            <path id="Trazado_1263153" data-name="Trazado 1263153" d="M354.353,93.549a7.21,7.21,0,0,1,6.451-3.436,17.8,17.8,0,0,1,6.45,1.75" fill="none" stroke="#400727" stroke-linecap="round" stroke-linejoin="round" stroke-width="1.176"/>
            <path id="Trazado_1263154" data-name="Trazado 1263154" d="M347.513,105.633c-4.571-.95-5.5-1.993-5.5-1.993" fill="none" stroke="#400727" stroke-linecap="round" stroke-linejoin="round" stroke-width="1.176"/>
            <rect id="Rectángulo_457955" data-name="Rectángulo 457955" width="509.712" height="8.483" transform="translate(0 278.54)" fill="#400727"/>
            <rect id="Rectángulo_457956" data-name="Rectángulo 457956" width="34.812" height="6.126" transform="matrix(0.324, -0.946, 0.946, 0.324, 37.759, 315.813)" fill="#400727"/>
            <rect id="Rectángulo_457957" data-name="Rectángulo 457957" width="6.126" height="34.812" transform="translate(452.982 284.86) rotate(-18.893)" fill="#400727"/>
            <rect id="Rectángulo_457958" data-name="Rectángulo 457958" width="2.41" height="22.237" transform="translate(242.594 225.949)" fill="#400727"/>
            <rect id="Rectángulo_457959" data-name="Rectángulo 457959" width="6.764" height="2.162" transform="translate(235.829 234.102)" fill="#400727"/>
            <path id="Trazado_1263155" data-name="Trazado 1263155" d="M264.369,219.874V188.652a6.775,6.775,0,0,0-6.775-6.775H145.866a6.775,6.775,0,0,0-6.775,6.775v89.554a1.918,1.918,0,0,0,1.918,1.918H266.652a1.918,1.918,0,0,0,1.918-1.918V252.143a1.918,1.918,0,0,0-1.918-1.918H191.91a1.917,1.917,0,0,1-1.917-1.918V217.465a6.775,6.775,0,0,1,6.775-6.775h26.726a6.776,6.776,0,0,1,6.776,6.775v2.856a6.776,6.776,0,0,0,6.922,6.774l20.549-.447a6.775,6.775,0,0,0,6.628-6.774" fill="#400727"/>
            <path id="Trazado_1263156" data-name="Trazado 1263156" d="M258.35,227.43H230.406a6.174,6.174,0,0,1-6.174-6.174V188.05a6.174,6.174,0,0,1,6.174-6.174H258.35a6.174,6.174,0,0,1,6.174,6.174v33.206a6.174,6.174,0,0,1-6.174,6.174" fill="#fdb700"/>
            <path id="Trazado_1263157" data-name="Trazado 1263157" d="M273.531,268.177H131.845V255.416a5.192,5.192,0,0,1,5.192-5.191h131.3a5.191,5.191,0,0,1,5.191,5.191Z" fill="#fdb700"/>
            <path id="Trazado_1263158" data-name="Trazado 1263158" d="M152.156,199.261a8.988,8.988,0,1,0,8.988-8.988,8.988,8.988,0,0,0-8.988,8.988" fill="#ffe9c7"/>
            <path id="Trazado_1263159" data-name="Trazado 1263159" d="M150.149,233.2a11,11,0,1,0,11-11,11,11,0,0,0-11,11" fill="#ffe9c7"/>
            <path id="Trazado_1263160" data-name="Trazado 1263160" d="M133.839,214.55h5.252V191.014h-5.252a2.9,2.9,0,0,0-2.9,2.9v17.732a2.9,2.9,0,0,0,2.9,2.9" fill="#fdb700"/>
            <line id="Línea_3265" data-name="Línea 3265" y2="21.868" transform="translate(215.568 253.931)" fill="none" stroke="#400727" stroke-linecap="round" stroke-linejoin="round" stroke-width="1.176"/>
            <path id="Trazado_1263161" data-name="Trazado 1263161" d="M246.887,185.925V222H241.08V185.925" fill="none" stroke="#400727" stroke-linecap="round" stroke-linejoin="round" stroke-width="1.176"/>
            <rect id="Rectángulo_457960" data-name="Rectángulo 457960" width="3.253" height="6.851" transform="translate(153.958 175.025)" fill="#400727"/>
            <rect id="Rectángulo_457961" data-name="Rectángulo 457961" width="3.892" height="4.669" transform="translate(237.875 177.207)" fill="#400727"/>
            <rect id="Rectángulo_457962" data-name="Rectángulo 457962" width="8.212" height="4.901" transform="translate(252.091 192.265)" fill="#f1eed6"/>
            <line id="Línea_3266" data-name="Línea 3266" y2="3.274" transform="translate(161.144 224.156)" fill="none" stroke="#400727" stroke-linecap="round" stroke-linejoin="round" stroke-width="1.176"/>
            <line id="Línea_3267" data-name="Línea 3267" x2="2.315" y2="2.315" transform="translate(154.753 226.803)" fill="none" stroke="#400727" stroke-linecap="round" stroke-linejoin="round" stroke-width="1.176"/>
            <line id="Línea_3268" data-name="Línea 3268" x2="3.274" transform="translate(152.106 233.195)" fill="none" stroke="#400727" stroke-linecap="round" stroke-linejoin="round" stroke-width="1.176"/>
            <line id="Línea_3269" data-name="Línea 3269" y1="2.315" x2="2.315" transform="translate(154.753 237.271)" fill="none" stroke="#400727" stroke-linecap="round" stroke-linejoin="round" stroke-width="1.176"/>
            <line id="Línea_3270" data-name="Línea 3270" y1="3.274" transform="translate(161.144 238.96)" fill="none" stroke="#400727" stroke-linecap="round" stroke-linejoin="round" stroke-width="1.176"/>
            <line id="Línea_3271" data-name="Línea 3271" x1="2.315" y1="2.315" transform="translate(165.221 237.271)" fill="none" stroke="#400727" stroke-linecap="round" stroke-linejoin="round" stroke-width="1.176"/>
            <line id="Línea_3272" data-name="Línea 3272" x1="3.274" transform="translate(166.909 233.195)" fill="none" stroke="#400727" stroke-linecap="round" stroke-linejoin="round" stroke-width="1.176"/>
            <line id="Línea_3273" data-name="Línea 3273" x1="2.315" y2="2.315" transform="translate(165.221 226.803)" fill="none" stroke="#400727" stroke-linecap="round" stroke-linejoin="round" stroke-width="1.176"/>
            <rect id="Rectángulo_457963" data-name="Rectángulo 457963" width="17.815" height="20.424" transform="translate(310.899 255.143)" fill="#752092"/>
            <path id="Trazado_1263162" data-name="Trazado 1263162" d="M328.9,255.143H310.715a1.538,1.538,0,1,1,0-3.075H328.9a1.538,1.538,0,1,1,0,3.075" fill="#400727"/>
            <path id="Trazado_1263163" data-name="Trazado 1263163" d="M328.9,278.642H310.715a1.538,1.538,0,1,1,0-3.075H328.9a1.538,1.538,0,1,1,0,3.075" fill="#400727"/>
            <rect id="Rectángulo_457964" data-name="Rectángulo 457964" width="17.816" height="20.424" transform="translate(330.947 274.371) rotate(-76.103)" fill="#fdb700"/>
            <path id="Trazado_1263164" data-name="Trazado 1263164" d="M335.269,256.9l-4.367,17.65a1.538,1.538,0,0,1-2.985-.739l4.367-17.65a1.538,1.538,0,0,1,2.985.739" fill="#400727"/>
            <path id="Trazado_1263165" data-name="Trazado 1263165" d="M358.081,262.543l-4.367,17.65a1.538,1.538,0,1,1-2.985-.739L355.1,261.8a1.538,1.538,0,0,1,2.985.739" fill="#400727"/>
            <rect id="Rectángulo_457965" data-name="Rectángulo 457965" width="5.497" height="22.02" transform="translate(152.836 157.522)" fill="#400727"/>
            <rect id="Rectángulo_457966" data-name="Rectángulo 457966" width="8.03" height="14.827" transform="translate(151.57 161.119)" fill="#752092"/>
            <path id="Trazado_1263166" data-name="Trazado 1263166" d="M280.358,278.642H125.842v-5.617a4.848,4.848,0,0,1,4.848-4.848H275.51a4.847,4.847,0,0,1,4.848,4.848Z" fill="#400727"/>
            <path id="Trazado_1263167" data-name="Trazado 1263167" d="M241,65.24a8.925,8.925,0,0,1,1.54-1.839,5.279,5.279,0,0,1,8.044,1.563,27.78,27.78,0,0,1,2.706,9.392c1.628,11.313-6.2,12.353-8.551,11.345S237.76,69.62,241,65.24" fill="#e2a4db"/>
            <path id="Trazado_1263168" data-name="Trazado 1263168" d="M237.158,64.98s-3.482,1.644-2.846,9.4c.491,5.984,3.858,10.768,8.651,11.311s5.983-5.179,5.77-8c-.326-4.314.244-10.906-6.43-14.081,0,0-1.854-9.633,4.771-20.036s15.837-11.249,22.259-11.355c0,0-7.6-.828-11.656.265s-21.025,3.829-20.519,32.494" fill="#752092"/>
            <path id="Trazado_1263169" data-name="Trazado 1263169" d="M242.688,64.125a1.222,1.222,0,0,1-1.212-1.166c-.016-.288-1.2-28.824,24.793-31.014.216-.023,23.692-2.049,26.831,28.611a1.215,1.215,0,1,1-2.417.254c-2.884-28.163-23.322-26.5-24.2-26.411-9.908.835-16.706,5.816-20.22,14.807A37.013,37.013,0,0,0,243.9,62.829a1.225,1.225,0,0,1-1.149,1.294c-.023,0-.044,0-.065,0" fill="#fe9554"/>
          </g>
        </g>
      </g>
    </g>
  </g>
</svg>
