<svg xmlns="http://www.w3.org/2000/svg" xmlns:xlink="http://www.w3.org/1999/xlink" width="332" height="292" viewBox="0 0 332 292">
  <defs>
    <clipPath id="clip-path">
      <rect id="Rectángulo_458042" data-name="Rectángulo 458042" width="292" height="292" transform="translate(601.711 4506)" fill="#fff" stroke="#707070" stroke-width="1"/>
    </clipPath>
    <clipPath id="clip-path-2">
      <rect id="Rectángulo_458039" data-name="Rectángulo 458039" width="292" height="292" fill="none"/>
    </clipPath>
  </defs>
  <g id="Grupo_1210318" data-name="Grupo 1210318" transform="translate(-685.711 -4727)">
    <rect id="Rectángulo_458044" data-name="Rectángulo 458044" width="332" height="292" transform="translate(685.711 4727)" fill="#dee4f0"/>
    <g id="Enmascarar_grupo_1119178" data-name="Enmascarar grupo 1119178" transform="translate(115 221)" clip-path="url(#clip-path)">
      <g id="Grupo_1210131" data-name="Grupo 1210131" transform="translate(602 4506)">
        <path id="Trazado_1263380" data-name="Trazado 1263380" d="M292,292h0Z" transform="translate(0 0.002)" fill="#fff"/>
        <g id="Grupo_1210130" data-name="Grupo 1210130">
          <g id="Grupo_1210129" data-name="Grupo 1210129" clip-path="url(#clip-path-2)">
            <path id="Trazado_1263293" data-name="Trazado 1263293" d="M253.092,198.972H121.6c-.032.019-.066.035-.1.052l.013-.052H86.341c-.013.039-.029.074-.04.111-.03-.037-.059-.074-.088-.111H23.169c-4.619-10.755-22.123-48.939-.332-91.8C39.8,73.8,70.769,79.3,83.577,54.737,98.988,25.174,153.879,21,186.668,65.28c29.613,40,44.75,11.491,71.8,48.981,17.234,23.882,2.452,75.788-5.379,84.711" transform="translate(8.335 22.144)" fill="#f3f9ff"/>
            <path id="Trazado_1263294" data-name="Trazado 1263294" d="M28.08,181.581s-24.221-70.967,0-98.545c39.763-45.274,97.506-21,147.221-35.875s89.378,12.9,64.925,133.808" transform="translate(11.884 29.859)" fill="none" stroke="#bfc0dc" stroke-linecap="round" stroke-miterlimit="10" stroke-width="2" stroke-dasharray="1.039 1.039"/>
            <rect id="Rectángulo_458034" data-name="Rectángulo 458034" width="292" height="83.252" transform="translate(0 208.748)" fill="#fff1db"/>
            <path id="Trazado_1263295" data-name="Trazado 1263295" d="M24.3,126.771l9.067,40.18S61.4,167.184,72.7,169.3c15.266,2.857,16.241,16.43,16.241,16.43l153.207-1.879-25.131-57.077Z" transform="translate(16.677 87.006)" fill="#fec872"/>
            <path id="Trazado_1263296" data-name="Trazado 1263296" d="M59.514,126.771s3.263,6.037-4.98,12.679c-8.944,7.211-20.772,7.486-20.772,7.486l3.669,10.044s38.258-3.172,51.4,3.587,13.145,15.772,13.145,15.772l111.491-3.145L189.5,126.771Z" transform="translate(23.172 87.006)" fill="#fff"/>
            <path id="Trazado_1263297" data-name="Trazado 1263297" d="M52.307,126.947a6.974,6.974,0,0,1,.159.86" transform="translate(35.899 87.126)" fill="none" stroke="#f4a086" stroke-linecap="round" stroke-miterlimit="10" stroke-width="0.433"/>
            <path id="Trazado_1263298" data-name="Trazado 1263298" d="M62.45,128.479c-.054,4.828-2.841,15.089-24.543,19.057" transform="translate(26.016 88.178)" fill="none" stroke="#f4a086" stroke-linecap="round" stroke-miterlimit="10" stroke-width="0.433" stroke-dasharray="1.024 1.024"/>
            <path id="Trazado_1263299" data-name="Trazado 1263299" d="M37.753,139.869q-.427.073-.865.143l.393.784" transform="translate(25.317 95.995)" fill="none" stroke="#f4a086" stroke-linecap="round" stroke-miterlimit="10" stroke-width="0.433"/>
            <path id="Trazado_1263300" data-name="Trazado 1263300" d="M37.628,141.435l.391.784s.3-.047.867-.125" transform="translate(25.825 97.07)" fill="none" stroke="#f4a086" stroke-linecap="round" stroke-miterlimit="10" stroke-width="0.433"/>
            <path id="Trazado_1263301" data-name="Trazado 1263301" d="M39.426,142.177c11.632-1.406,57.969-5.506,63.03,17.73" transform="translate(27.059 96.76)" fill="none" stroke="#f4a086" stroke-linecap="round" stroke-miterlimit="10" stroke-width="0.433" stroke-dasharray="1.06 1.06"/>
            <path id="Trazado_1263302" data-name="Trazado 1263302" d="M76.9,152.727c.047.285.089.573.126.867l.875-.019" transform="translate(52.78 104.82)" fill="none" stroke="#f4a086" stroke-linecap="round" stroke-miterlimit="10" stroke-width="0.433"/>
            <line id="Línea_3284" data-name="Línea 3284" y1="1.992" x2="92.574" transform="translate(132.415 256.367)" fill="none" stroke="#f4a086" stroke-linecap="round" stroke-miterlimit="10" stroke-width="0.433" stroke-dasharray="1.026 1.026"/>
            <path id="Trazado_1263303" data-name="Trazado 1263303" d="M133.933,152.342l.875-.019-.393-.782" transform="translate(91.921 104.006)" fill="none" stroke="#f4a086" stroke-linecap="round" stroke-miterlimit="10" stroke-width="0.433"/>
            <line id="Línea_3285" data-name="Línea 3285" x1="18.76" y1="37.337" transform="translate(206.778 216.62)" fill="none" stroke="#f4a086" stroke-linecap="round" stroke-miterlimit="10" stroke-width="0.433" stroke-dasharray="1.054 1.054"/>
            <line id="Línea_3286" data-name="Línea 3286" x1="0.393" y1="0.782" transform="translate(205.986 215.043)" fill="none" stroke="#f4a086" stroke-linecap="round" stroke-miterlimit="10" stroke-width="0.433"/>
            <path id="Trazado_1263304" data-name="Trazado 1263304" d="M79.005,57.617S41.818,93.829,40.978,106.458c-.884,13.288,3.882,31.3,3.882,35.541s-3.889,21.877,0,27.568c2.005,2.938,14.371,1.567,17.494-.135,4.131-2.251,3.378-8.852,2.472-13.47C64.091,152.211,57.584,142,57.584,142s.41-27.312,3.17-36.817c2.3-7.939,13.843-21.44,13.843-21.44Z" transform="translate(28.049 39.544)" fill="#fcc39c"/>
            <path id="Trazado_1263305" data-name="Trazado 1263305" d="M78.561,15.481s-7.792,14.371-13.646,27.63c-4.209,9.538-5.462,14.651-5.513,18.8-.422,34.806,65.028,43.755,84.319,13.4,7.55-11.882-2.351-20.288-4.921-32.091-4.759-21.853-9.074-26.88-9.074-26.88Z" transform="translate(40.768 10.625)" fill="#66491f"/>
            <path id="Trazado_1263306" data-name="Trazado 1263306" d="M75.946,34.106s-24.5,36.885,5.246,41.984,46.856,4.2,49.988-10.222-10.949-34.3-10.949-34.3Z" transform="translate(45.612 21.667)" fill="#66491f"/>
            <path id="Trazado_1263307" data-name="Trazado 1263307" d="M157.458,146.477l-29.7-66.217-19.824-1.978,16.41,36.038,24.61,39.364c2.531,7.7-1.243,20.688,2.922,20.688,3.189,0,3.351-10.605,3.351-10.605s5.75.395,7.658,5.624c1.246,3.422,11.779-1.825,12.7-4.152.89-2.256.621-4.428-2.221-7.3-5.4-5.46-15.909-11.464-15.909-11.464" transform="translate(74.079 53.727)" fill="#fcc39c"/>
            <path id="Trazado_1263308" data-name="Trazado 1263308" d="M192.166,135.39l-.875.288-21.344,7.039c-1.793-3.273-3.708-6.457-5.5-9.305-3.975-6.317-7.349-10.99-7.443-11.335.209,2.868,4.568,56.864,4.568,56.864H73.2l1.452-71.126s-7.239,6.226-9.094,9.346c-.067.111-.126.219-.179.32-.946,1.872-1.329,7.69-1.266,8.29-8.13.553-18.288-1.388-25.222-3.189-.32-1.486-.079-4.916.6-8.565a35.319,35.319,0,0,1,2.836-9.177c11.209-21.485,24.43-35.2,34.31-43.2q1.341-1.085,2.6-2.029.936-.706,1.816-1.337A46.125,46.125,0,0,1,88.4,54.347c.2-.091.4-.18.605-.27.663-.3,1.349-.59,2.046-.885,11.5-4.865,27.119-9.762,27.119-9.762l3.443,1.575L146.57,56.421l4.093,1.874a27.114,27.114,0,0,1,2.185,2.605c.477.622.993,1.327,1.55,2.1.739,1.035,1.541,2.2,2.4,3.476a340.127,340.127,0,0,1,25.372,45.649c1.887,4.241,3.7,8.41,5.248,12.022,2.533,5.9,4.369,10.32,4.7,11.113.035.083.052.126.052.126" transform="translate(26.594 29.807)" fill="#482370"/>
            <path id="Trazado_1263309" data-name="Trazado 1263309" d="M70.555,54.2,70.6,179.226h52.07L121.868,54.6,96.614,43.015Z" transform="translate(48.423 29.522)" fill="#f6f7ed"/>
            <path id="Trazado_1263310" data-name="Trazado 1263310" d="M65.378,88.769c-.946,1.872-1.331,7.69-1.268,8.29-8.13.553-18.286-1.388-25.221-3.189-.322-1.486-.081-4.916.6-8.567,5.543-.334,20.809,1.676,26.067,3.145a3.472,3.472,0,0,0-.179.32" transform="translate(26.594 58.521)" fill="#bfc0dc"/>
            <path id="Trazado_1263311" data-name="Trazado 1263311" d="M37.652,98.736c8.545,2.936,18.163,3.762,28.681,2.823,0,0,2.4-7.838,1.443-9.43s-28.02-5.248-29.8-3.467-.324,10.074-.324,10.074" transform="translate(25.456 60.523)" fill="#cdbfdc"/>
            <path id="Trazado_1263312" data-name="Trazado 1263312" d="M64.238,116.991c-2.7-1.13-6.19,1.737-7.43,2.653a12.743,12.743,0,0,0,.777-7.1c-1.4-5.025-6.233-4.486-8.32-3.273-7.347,4.268-4.956,23.846-4.956,23.846s4.545,1.7,6.282,2.282l2.707-5.514c.334.538,3.941-6.855,3.941-6.855s3.814-4.809,5.732-4.029c2.2.894,2.11,3.59,1.305,4.771a8.188,8.188,0,0,1-4.868,3.015l.975,3.024s3.855-1.492,5.459-4.287c1.87-3.258,1.223-7.354-1.6-8.536m-15.693,4.464c-4.019-7.683,3.518-13.077,6.263-9.369,2.8,3.787-2.622,16.329-6.263,9.369" transform="translate(30.155 74.433)" fill="#1a1a1a"/>
            <path id="Trazado_1263313" data-name="Trazado 1263313" d="M151,133.076s-.931-5.228-3.369-7.26c-1.051-.877-2.648-.641-1.4,2.833s2.981,7.993,3.791,8.329,1.492-1.191.976-3.9" transform="translate(100.049 86.054)" fill="#fcc39c"/>
            <path id="Trazado_1263314" data-name="Trazado 1263314" d="M151.172,138.6s-2.182-9.486-3.472-10.781-5.28-1.715-3.582,2.855,4.054,10.514,5.153,10.958,2.6.535,1.9-3.032" transform="translate(98.627 87.126)" fill="#fcc39c"/>
            <path id="Trazado_1263315" data-name="Trazado 1263315" d="M116.292,62.12a13.4,13.4,0,0,0-11.443,4.958,40.292,40.292,0,0,0-3.9-8.093c-1.386-2.2-4.116-4.248-2.862-7.079a3.529,3.529,0,0,1,5.349-1.41q1.358.761,2.629,1.567a69.62,69.62,0,0,1,6.28,4.477c1.11,1.455,2.449,3.346,3.948,5.58" transform="translate(67.099 34.167)" fill="#dee4f0"/>
            <path id="Trazado_1263316" data-name="Trazado 1263316" d="M150.111,140.68s-3.472-10.809-4.764-12.1-4.325.145-2.627,4.713,4.054,10.516,5.153,10.958,2.939,0,2.238-3.567" transform="translate(97.606 87.932)" fill="#fcc39c"/>
            <path id="Trazado_1263317" data-name="Trazado 1263317" d="M79.016,67.5c-4.536-4.477-13-7.678-20.779-5.858C68.962,52.09,71.947,51.4,75.021,50.014c.2-.091.4-.18.607-.27-.358.445-.626.806-.541.836a11.742,11.742,0,0,1,6.206,4.661c-2.862,4.3-2.324,12.082-2.277,12.254" transform="translate(39.969 34.14)" fill="#dee4f0"/>
            <path id="Trazado_1263318" data-name="Trazado 1263318" d="M149.055,142.617s-4.567-12.538-5.858-13.833-4.027,2.207-2.329,6.777,4.825,9.745,5.924,10.187,2.965.435,2.263-3.131" transform="translate(96.31 88.2)" fill="#fcc39c"/>
            <path id="Trazado_1263319" data-name="Trazado 1263319" d="M142.1,64.084a17.485,17.485,0,0,0-4.1-.266,13.182,13.182,0,0,0-9.9,4.944c-5.255-14.877-17.148-22.437-25.641-22.288C97.16,46.566,88.5,51.8,83.452,55.918a15.863,15.863,0,0,0-2.594,2.745,33.973,33.973,0,0,0-4.87,10.1c-3.4-4.8-8.032-5.509-13.352-3.907A63.649,63.649,0,0,1,72,55.158a21.589,21.589,0,0,1,1.963-1.374A13.436,13.436,0,0,1,75.4,53c8.027-3.695,20.167-10.725,27.565-10.755,6.432-.027,16.17,5.69,23.73,9.927A70.729,70.729,0,0,1,142.1,64.084" transform="translate(42.988 28.996)" fill="#cdbfdc"/>
            <path id="Trazado_1263320" data-name="Trazado 1263320" d="M56.65,123.775l-5.357-.693s-13.5,15.05-16.047,19.44a28.492,28.492,0,0,0-1.484,5.442L51.721,129.33l4.494-.027,1.361-3.939Z" transform="translate(23.172 84.474)" fill="#ccc"/>
            <path id="Trazado_1263321" data-name="Trazado 1263321" d="M101.647,38.929V57.785c0,5.185-22.285,5.185-22.285,0V38.929Z" transform="translate(54.468 26.718)" fill="#fcc39c"/>
            <path id="Trazado_1263322" data-name="Trazado 1263322" d="M52.3,129.871s4.747-7.917,4.971-9.732-1.9-5.216-4.454-1.064-5.787,9.671-5.459,10.809,2.563,2.735,4.941-.014" transform="translate(32.487 80.368)" fill="#fcc39c"/>
            <path id="Trazado_1263323" data-name="Trazado 1263323" d="M122.342,174.2a2.191,2.191,0,0,1-1.789-3.45,24.86,24.86,0,0,0,3.113-7.993c1.051-4.7,1.6-12.32-1.74-21.934-6.465-18.592-4.59-26.615-1.754-38.762,1.1-4.718,3.651-10.066,4.651-17.012a37.858,37.858,0,0,0-8.035-29.56,23.566,23.566,0,0,0-16.737-8.907c-5.787-.293-10.929,1.69-14.69,7.73C81.857,59.94,80.3,68.169,78.3,75.4c-1.573,5.681-4.614,10.287-6.137,14.351-3.98,10.624-5.54,18.3-2.212,35.858a62.638,62.638,0,0,0,21.3,36.48c.927.776.224,3.182-.551,4.11a2.19,2.19,0,0,1-3.086.275,60.312,60.312,0,0,1-9.209-10.42,75.41,75.41,0,0,1-12.759-29.63c-3.558-18.76-.342-27.344,3.728-38.209,1.491-3.98,3.18-8.489,4.7-13.985a77.553,77.553,0,0,1,8.993-20.41,24.483,24.483,0,0,1,7.884-7.553c3.138-2.01,6.636-2.074,10.561-1.877a26.735,26.735,0,0,1,19.769,9.681c6.825,8.292,8.438,18.63,6.572,31.6-1.027,7.133-2.3,12.58-3.422,17.384-2.757,11.806-2.686,18.932,3.363,36.327,3.723,10.713,1.309,19.281.083,24.585a28.3,28.3,0,0,1-3.747,9.3,2.186,2.186,0,0,1-1.793.931" transform="translate(44.005 30.416)" fill="#fdd247"/>
            <path id="Trazado_1263324" data-name="Trazado 1263324" d="M78.61,112.762a13.064,13.064,0,0,0-2.191,2.813.219.219,0,0,0,.378.223,12.6,12.6,0,0,1,2.123-2.725c.2-.2-.108-.508-.31-.31" transform="translate(52.427 77.347)" fill="#1a1a1a"/>
            <path id="Trazado_1263325" data-name="Trazado 1263325" d="M76.555,110.5a.224.224,0,0,0-.31,0,15.108,15.108,0,0,0-1.907,1.965.225.225,0,0,0,0,.309.22.22,0,0,0,.31,0,15.2,15.2,0,0,1,1.907-1.963.222.222,0,0,0,0-.31" transform="translate(50.977 75.794)" fill="#1a1a1a"/>
            <path id="Trazado_1263326" data-name="Trazado 1263326" d="M74.827,108.54a.222.222,0,0,0-.27-.153,4.555,4.555,0,0,0-2.128,1.776c-.15.239.229.46.379.223a4.018,4.018,0,0,1,1.865-1.575.228.228,0,0,0,.153-.27" transform="translate(49.686 74.38)" fill="#1a1a1a"/>
            <path id="Trazado_1263327" data-name="Trazado 1263327" d="M73.381,106.21A4.914,4.914,0,0,0,71,107.544a.218.218,0,0,0,.309.309,4.514,4.514,0,0,1,2.194-1.221c.275-.062.159-.486-.116-.422" transform="translate(48.681 72.889)" fill="#1a1a1a"/>
            <path id="Trazado_1263328" data-name="Trazado 1263328" d="M71.364,103.706a.221.221,0,0,0-.27-.153,3.151,3.151,0,0,0-1.583,1.324.223.223,0,0,0,.079.3.22.22,0,0,0,.3-.079,2.641,2.641,0,0,1,.58-.681,1.827,1.827,0,0,1,.153-.12c.062-.044.126-.086.191-.125s.14-.079.211-.115l.1-.047c.019-.008-.01,0,.022-.008l.062-.025a.225.225,0,0,0,.153-.27" transform="translate(47.687 71.063)" fill="#1a1a1a"/>
            <path id="Trazado_1263329" data-name="Trazado 1263329" d="M69.22,96.5a6.741,6.741,0,0,0-2.745.482.225.225,0,0,0-.153.268.222.222,0,0,0,.27.153,6.4,6.4,0,0,1,2.629-.465c.282.008.282-.428,0-.438" transform="translate(45.512 66.227)" fill="#1a1a1a"/>
            <path id="Trazado_1263330" data-name="Trazado 1263330" d="M68.659,94.176a7.286,7.286,0,0,0-2.814.062c-.275.062-.159.484.116.423a6.719,6.719,0,0,1,2.582-.064.226.226,0,0,0,.27-.152.222.222,0,0,0-.153-.27" transform="translate(45.083 64.561)" fill="#1a1a1a"/>
            <path id="Trazado_1263331" data-name="Trazado 1263331" d="M101.746,98.808l-3.2,1.093c-.265.091-.152.514.116.423q1.6-.546,3.2-1.094c.265-.089.152-.513-.116-.422" transform="translate(67.528 67.805)" fill="#1a1a1a"/>
            <path id="Trazado_1263332" data-name="Trazado 1263332" d="M102.824,102.039a.221.221,0,0,0-.27-.153l-2.927,1.162a.224.224,0,0,0-.152.27.218.218,0,0,0,.268.152l2.927-1.16a.227.227,0,0,0,.153-.27" transform="translate(68.266 69.919)" fill="#1a1a1a"/>
            <path id="Trazado_1263333" data-name="Trazado 1263333" d="M100.459,95.816a4.592,4.592,0,0,1-2.651.415.227.227,0,0,0-.27.153.221.221,0,0,0,.153.27,5.119,5.119,0,0,0,2.988-.46c.253-.123.032-.5-.221-.378" transform="translate(66.938 65.744)" fill="#1a1a1a"/>
            <path id="Trazado_1263334" data-name="Trazado 1263334" d="M103.527,105.452l-3.261.393a.228.228,0,0,0-.219.219.222.222,0,0,0,.219.219q1.632-.2,3.261-.393a.228.228,0,0,0,.219-.219.22.22,0,0,0-.219-.219" transform="translate(68.664 72.374)" fill="#1a1a1a"/>
            <path id="Trazado_1263335" data-name="Trazado 1263335" d="M102.031,118.656A11.534,11.534,0,0,0,99,117.59c-.275-.054-.393.368-.116.423a11.068,11.068,0,0,1,2.929,1.02c.25.13.472-.248.221-.378" transform="translate(67.756 80.701)" fill="#1a1a1a"/>
            <path id="Trazado_1263336" data-name="Trazado 1263336" d="M100.556,120.623a6.965,6.965,0,0,0-2.174-1.266.22.22,0,0,0-.268.153.223.223,0,0,0,.152.27,6.31,6.31,0,0,1,1.98,1.153.227.227,0,0,0,.31,0,.222.222,0,0,0,0-.31" transform="translate(67.332 81.911)" fill="#1a1a1a"/>
            <path id="Trazado_1263337" data-name="Trazado 1263337" d="M101.808,70.211h-1.191a.222.222,0,0,0-.219.219.224.224,0,0,0,.219.219h1.191a.219.219,0,0,0,0-.438" transform="translate(68.905 48.187)" fill="#1a1a1a"/>
            <path id="Trazado_1263338" data-name="Trazado 1263338" d="M102.4,68.535h-1.786a.219.219,0,0,0,0,.438H102.4a.219.219,0,0,0,0-.438" transform="translate(68.908 47.037)" fill="#1a1a1a"/>
            <path id="Trazado_1263339" data-name="Trazado 1263339" d="M101.984,66.947h-1.191a.222.222,0,0,0-.219.219.224.224,0,0,0,.219.219h1.191a.219.219,0,1,0,0-.438" transform="translate(69.026 45.947)" fill="#1a1a1a"/>
            <path id="Trazado_1263340" data-name="Trazado 1263340" d="M101.566,65.1h-.6a.219.219,0,0,0,0,.438h.6a.219.219,0,0,0,0-.438" transform="translate(69.147 44.676)" fill="#1a1a1a"/>
            <path id="Trazado_1263341" data-name="Trazado 1263341" d="M73.28,60.711a5.7,5.7,0,0,0-2-.292c-.282.01-.283.449,0,.438a5.311,5.311,0,0,1,1.88.275.221.221,0,0,0,.27-.152.224.224,0,0,0-.153-.27" transform="translate(48.778 41.465)" fill="#1a1a1a"/>
            <path id="Trazado_1263342" data-name="Trazado 1263342" d="M73.534,59.165l-1.636-.45a.219.219,0,0,0-.116.423l1.636.449a.219.219,0,1,0,.116-.422" transform="translate(49.156 40.292)" fill="#1a1a1a"/>
            <path id="Trazado_1263343" data-name="Trazado 1263343" d="M73.841,57.439l-1.191-.594a.224.224,0,0,0-.3.079.221.221,0,0,0,.079.3c.4.2.794.4,1.191.594a.219.219,0,1,0,.221-.378" transform="translate(49.637 38.996)" fill="#1a1a1a"/>
            <path id="Trazado_1263344" data-name="Trazado 1263344" d="M74.578,56.129l-1.334-.9a.222.222,0,0,0-.3.079.227.227,0,0,0,.079.3l1.334.9a.222.222,0,0,0,.3-.078.227.227,0,0,0-.079-.3" transform="translate(50.044 37.884)" fill="#1a1a1a"/>
            <path id="Trazado_1263345" data-name="Trazado 1263345" d="M140.955,102.411c-.261.137-.536.275-.821.417l-21.345,7.039c-1.793-3.273-3.707-6.459-5.5-9.307,4.678-3.6,17.622-7.878,22.969-9.261,2.533,5.906,4.369,10.32,4.7,11.113" transform="translate(77.752 62.66)" fill="#bfc0dc"/>
            <path id="Trazado_1263346" data-name="Trazado 1263346" d="M54.656,130.423s4.747-7.917,4.971-9.732-1.9-5.216-4.454-1.064-5.787,9.671-5.459,10.809,2.563,2.735,4.941-.014" transform="translate(34.105 80.747)" fill="#fcc39c"/>
            <path id="Trazado_1263347" data-name="Trazado 1263347" d="M113.6,105.085s3.148,9.76,6.669,9.1,24.727-8.649,25.367-10.76-3.509-9.486-5.432-9.486-23.743,6.634-26.605,11.145" transform="translate(77.966 64.473)" fill="#cdbfdc"/>
            <path id="Trazado_1263348" data-name="Trazado 1263348" d="M46.464,116.617s3.809,6.575,5.1,7.868,5.282,1.7,3.577-2.862-4.191-9.72-4.536-11.334c-.248-1.159-4.848,2.762-4.142,6.327" transform="translate(31.839 75.552)" fill="#fcc39c"/>
            <path id="Trazado_1263349" data-name="Trazado 1263349" d="M101.647,41.163V53.085c-3.592,1.6-7.42,3.008-10.916,3.008-3.725,0-7.7-1.447-11.369-3.121V41.163Z" transform="translate(54.468 28.251)" fill="#f9b180"/>
            <path id="Trazado_1263350" data-name="Trazado 1263350" d="M73.491,16.5v31.7c0,6.135,11.614,21.367,21.236,21.367,9.234,0,21.234-15.233,21.234-21.367V16.5Z" transform="translate(50.438 11.321)" fill="#fcc39c"/>
            <path id="Trazado_1263351" data-name="Trazado 1263351" d="M108.386,8.291c-5.949-2.347-16.226-2.282-22.17.078-15.4,6.11-22.018,29.659-14.725,32.672.555.228,5.41,4.674,5.41,4.674s10.927-7.97,15.126-14.58c-.025,2.212-.737,9.836-.737,9.836a13.913,13.913,0,0,0,5.336-6.658,15.916,15.916,0,0,0,1.558-6.14c.374.5.809,1.143,1.327,1.924,4.879,7.341,19.86,15.047,19.86,15.047s1.11-3.357,2.548-4.332c7.314-4.956,4.872-25.264-13.533-32.522" transform="translate(47.029 4.505)" fill="#66491f"/>
            <path id="Trazado_1263352" data-name="Trazado 1263352" d="M77.386,31.022s-5.157-3.966-6.739.669c-2.147,6.292,6.739,11.281,6.739,11.281Z" transform="translate(48.257 20.207)" fill="#fcc39c"/>
            <path id="Trazado_1263353" data-name="Trazado 1263353" d="M97.356,31.022s5.157-3.966,6.739.669c2.147,6.292-6.739,11.281-6.739,11.281Z" transform="translate(66.817 20.207)" fill="#fcc39c"/>
            <path id="Trazado_1263354" data-name="Trazado 1263354" d="M79.675,32.619c1.285,0,1.467,3.513,0,3.513s-1.513-3.513,0-3.513" transform="translate(53.916 22.387)"/>
            <path id="Trazado_1263355" data-name="Trazado 1263355" d="M93.444,32.619c1.357,0,1.55,3.513,0,3.513s-1.6-3.513,0-3.513" transform="translate(63.322 22.387)"/>
            <path id="Trazado_1263356" data-name="Trazado 1263356" d="M85.75,33.579c-.506,1.648-2.172,6.283-1.025,7.231s3.341.54,3.341.54" transform="translate(57.877 23.046)" fill="none" stroke="#c4715b" stroke-linecap="round" stroke-miterlimit="10" stroke-width="0.433"/>
            <path id="Trazado_1263357" data-name="Trazado 1263357" d="M83.58,13.97S55.109,40.062,60.252,62.949" transform="translate(40.926 9.588)" fill="none" stroke="#36566f" stroke-linecap="round" stroke-miterlimit="10" stroke-width="0.433"/>
            <path id="Trazado_1263358" data-name="Trazado 1263358" d="M94.954,36.76c-3.207,0-3.239,5.855-.012,5.818,3-.032,3.931-5.818.012-5.818" transform="translate(63.508 25.229)" fill="#fba181"/>
            <path id="Trazado_1263359" data-name="Trazado 1263359" d="M80.015,37.61c-3.986.059-3.946,5.764-.125,5.819,3.1.044,3.437-5.868.125-5.819" transform="translate(52.864 25.812)" fill="#fba181"/>
            <path id="Trazado_1263360" data-name="Trazado 1263360" d="M71.57,31.305s-.2,4.236,3.243,5.965" transform="translate(49.118 21.485)" fill="none" stroke="#c4715b" stroke-linecap="round" stroke-miterlimit="10" stroke-width="0.433"/>
            <path id="Trazado_1263361" data-name="Trazado 1263361" d="M101.914,31.57s-.292,4.224-3.568,5.8" transform="translate(67.497 21.667)" fill="none" stroke="#c4715b" stroke-linecap="round" stroke-miterlimit="10" stroke-width="0.433"/>
            <path id="Trazado_1263362" data-name="Trazado 1263362" d="M83.2,41.529c2.612,1.678,7.585,1.615,9.727-.051" transform="translate(57.102 28.467)" fill="none" stroke="#c4715b" stroke-linecap="round" stroke-miterlimit="10" stroke-width="0.433"/>
            <path id="Trazado_1263363" data-name="Trazado 1263363" d="M77.591,30.1s1.629-1.889,4.641-.4" transform="translate(53.252 19.992)" fill="none" stroke="#c4715b" stroke-linecap="round" stroke-miterlimit="10" stroke-width="0.433"/>
            <path id="Trazado_1263364" data-name="Trazado 1263364" d="M96.283,30.1s-1.629-1.889-4.641-.4" transform="translate(62.896 19.992)" fill="none" stroke="#c4715b" stroke-linecap="round" stroke-miterlimit="10" stroke-width="0.433"/>
            <path id="Trazado_1263365" data-name="Trazado 1263365" d="M142.3,129.076s5.465,11.088,5.546,14.069" transform="translate(97.666 88.588)" fill="none" stroke="#c4715b" stroke-linecap="round" stroke-miterlimit="10" stroke-width="0.433"/>
            <path id="Trazado_1263366" data-name="Trazado 1263366" d="M143.949,128.121s4.074,8.062,4.806,12.045" transform="translate(98.795 87.932)" fill="none" stroke="#c4715b" stroke-linecap="round" stroke-miterlimit="10" stroke-width="0.433"/>
            <path id="Trazado_1263367" data-name="Trazado 1263367" d="M145.594,126.947a16.38,16.38,0,0,1,2.774,5.852" transform="translate(99.924 87.126)" fill="none" stroke="#c4715b" stroke-linecap="round" stroke-miterlimit="10" stroke-width="0.433"/>
            <path id="Trazado_1263368" data-name="Trazado 1263368" d="M50.008,130.365s8.384-10.669,5.666-13.644" transform="translate(34.322 80.108)" fill="none" stroke="#c4715b" stroke-linecap="round" stroke-miterlimit="10" stroke-width="0.433"/>
            <path id="Trazado_1263369" data-name="Trazado 1263369" d="M52.757,129.781s6.513-9.024,4.069-11.7" transform="translate(36.208 81.044)" fill="none" stroke="#c4715b" stroke-linecap="round" stroke-miterlimit="10" stroke-width="0.433"/>
            <path id="Trazado_1263370" data-name="Trazado 1263370" d="M51.181,124.038c.594.545,5.568,2.223-1.654-12.089" transform="translate(33.991 76.833)" fill="none" stroke="#c4715b" stroke-linecap="round" stroke-miterlimit="10" stroke-width="0.433"/>
            <line id="Línea_3287" data-name="Línea 3287" y1="4.771" x2="4.298" transform="translate(75.122 208.797)" fill="none" stroke="#999" stroke-linecap="round" stroke-miterlimit="10" stroke-width="0.433"/>
            <path id="Trazado_1263371" data-name="Trazado 1263371" d="M7.857,158.175s-1.01-3.6,17.393-3.6,17.7,3.6,17.7,3.6-3.7,3.7-17.634,3.7-17.46-3.7-17.46-3.7" transform="translate(5.386 106.087)" fill="#603813"/>
            <path id="Trazado_1263372" data-name="Trazado 1263372" d="M9,160.828s1.744-8.823,15.609-8.823c13.394,0,15.435,8.88,15.435,8.88l-16.155,9.74Z" transform="translate(6.178 104.324)" fill="#c7b299"/>
            <path id="Trazado_1263373" data-name="Trazado 1263373" d="M7.853,156.709s4.2,2.921,17.546,2.921c13.295,0,17.548-2.921,17.548-2.921v11.283s-4.516,2.919-17.548,2.919c-13.084,0-17.546-2.919-17.546-2.919Z" transform="translate(5.39 107.553)" fill="#754c24"/>
            <path id="Trazado_1263374" data-name="Trazado 1263374" d="M14.063,160.007l-.519.1-1.9-10.138.519-.1Z" transform="translate(7.995 102.858)" fill="#999"/>
            <rect id="Rectángulo_458035" data-name="Rectángulo 458035" width="0.53" height="10.314" transform="translate(26.647 249.886)" fill="#999"/>
            <rect id="Rectángulo_458036" data-name="Rectángulo 458036" width="0.53" height="10.314" transform="translate(31.494 251.737)" fill="#999"/>
            <rect id="Rectángulo_458037" data-name="Rectángulo 458037" width="10.314" height="0.529" transform="translate(36.546 262.843) rotate(-78.403)" fill="#999"/>
            <rect id="Rectángulo_458038" data-name="Rectángulo 458038" width="10.314" height="0.529" transform="translate(40.796 264.156) rotate(-78.403)" fill="#999"/>
            <path id="Trazado_1263375" data-name="Trazado 1263375" d="M12.09,148.961a1.1,1.1,0,0,0,0,2.191,1.1,1.1,0,0,0,0-2.191" transform="translate(7.571 102.235)" fill="#239180"/>
            <path id="Trazado_1263376" data-name="Trazado 1263376" d="M16.4,147.2a1.1,1.1,0,0,0,0,2.191,1.1,1.1,0,0,0,0-2.191" transform="translate(10.531 101.024)" fill="#96c1c0"/>
            <path id="Trazado_1263377" data-name="Trazado 1263377" d="M19.225,148.216a1.1,1.1,0,0,0,0,2.191,1.1,1.1,0,0,0,0-2.191" transform="translate(12.468 101.724)" fill="#fdd247"/>
            <path id="Trazado_1263378" data-name="Trazado 1263378" d="M23.538,149a1.1,1.1,0,0,0,0,2.191,1.1,1.1,0,0,0,0-2.191" transform="translate(15.428 102.262)" fill="#239180"/>
            <path id="Trazado_1263379" data-name="Trazado 1263379" d="M25.89,149.981a1.1,1.1,0,0,0,0,2.191,1.1,1.1,0,0,0,0-2.191" transform="translate(17.042 102.935)" fill="#fdd247"/>
          </g>
        </g>
      </g>
    </g>
  </g>
</svg>
