<svg xmlns="http://www.w3.org/2000/svg" xmlns:xlink="http://www.w3.org/1999/xlink" width="84" height="84" viewBox="0 0 84 84">
  <defs>
    <clipPath id="clip-path">
      <rect id="Rectángulo_458262" data-name="Rectángulo 458262" width="61.201" height="61.699" fill="#752092"/>
    </clipPath>
  </defs>
  <g id="Grupo_1210318" data-name="Grupo 1210318" transform="translate(-186 -979)">
    <g id="Grupo_1210097" data-name="Grupo 1210097" transform="translate(-520 -699.92)">
      <g id="Grupo_1119665" data-name="Grupo 1119665" transform="translate(534.111 -3840.08)">
        <rect id="Rectángulo_402006" data-name="Rectángulo 402006" width="84" height="84" rx="5" transform="translate(171.889 5519)" fill="#cdbfdc"/>
      </g>
    </g>
    <g id="Grupo_1210291" data-name="Grupo 1210291" transform="translate(196.711 988.017)">
      <g id="Grupo_1210290" data-name="Grupo 1210290" clip-path="url(#clip-path)">
        <path id="Trazado_1264079" data-name="Trazado 1264079" d="M28.17,41.911c-.015-.073-.037-.139-.057-.208,2.732-1.143,2.512-4.654,1.4-6.923-.986-2.474-3.979-3.622-4.243-6.437.314-8.462-8.886-13.791-15.606-8.177a9.388,9.388,0,0,0-2.691,3.976c-.689,1.975-.212,4.272-1.271,6.115a5.232,5.232,0,0,1-1.3,1.565,8.508,8.508,0,0,0-2.27,2.929c-1.129,2.289-1.37,5.8,1.389,6.962C3.37,42.048.195,57.039.081,57.343A3.349,3.349,0,0,0,3.346,61.42H28.282a3.375,3.375,0,0,0,3.275-4.074S28.17,41.911,28.17,41.911m-4.111-12.9a7.136,7.136,0,0,0,2.384,3.863,7.234,7.234,0,0,1,1.88,2.462c.734,1.62,1.295,4.3-.746,5.184A5.485,5.485,0,0,0,24.3,38.449c-1.542-.385-3.01-1.494-4.645-1.265L19.4,35.908a8.511,8.511,0,0,0,3.161-7.316A13.589,13.589,0,0,0,24.059,29.008Zm-8.1,7.04c-3.248-.133-5.588-3.568-5.57-6.637V27.625c0-.045,1.956-.521,2.129-.578a22.1,22.1,0,0,0,4.7-2.216,11.8,11.8,0,0,0,4.032,3.227v1.353c.015,2.971-2.187,6.331-5.3,6.638m2.476,1.678-2.6,1.516-2.607-1.518.2-1.009a4.821,4.821,0,0,0,4.8-.008Zm-2.907,2.856a.456.456,0,0,0,.342.064.387.387,0,0,0,.314-.093L19.5,38.621a1.344,1.344,0,0,1,.249-.1c-.244,6.838-7.639,6.8-7.862-.021.092.034.182.076.272.118l3.37,1.961m.3,4.4c2.837,0,5.155-2.816,5.237-6.317.16.065.259.059.379.2h.156l.752.274c-.873,11.669-12.185,11.65-13.055,0l1.286-.467c.082,3.5,2.4,6.316,5.246,6.316m4.928-24.085A8.623,8.623,0,0,1,23.9,27.624a10.36,10.36,0,0,1-5.634-3.6,15.733,15.733,0,0,0,2.486-3.127m-10.227.259a8.037,8.037,0,0,1,9.135-1c-2.405,4.2-7.285,6.064-11.9,6.541A8.084,8.084,0,0,1,10.521,21.153ZM2.636,38.369A7.207,7.207,0,0,1,5.253,32.82a6.906,6.906,0,0,0,2.463-4.793c.452-.047.908-.093,1.358-.166v1.549a8.3,8.3,0,0,0,3.171,6.506l-.252,1.259c-1.265-.249-2.45.468-3.6.878-1.552.6-3.385.958-4.344,2.466A2.366,2.366,0,0,1,2.636,38.369ZM29.879,59.341a2.033,2.033,0,0,1-1.594.767H24.067V54.934a.656.656,0,1,0-1.311,0v5.174H8.9V54.934a.656.656,0,0,0-1.312,0v5.174H3.347a2.05,2.05,0,0,1-1.987-2.482L4.754,42.171a2.845,2.845,0,0,1,1.772-2.039l1.482-.538c1.152,12.792,14.465,12.793,15.615,0l1.472.535a2.936,2.936,0,0,1,1.792,2.048L30.28,57.627A2.026,2.026,0,0,1,29.879,59.341ZM61.094,49.63,55.486,33.242a1.808,1.808,0,0,0,1.078-1.65V30.366a1.8,1.8,0,0,0-.841-1.521,25.568,25.568,0,0,0,5.171-15.38.655.655,0,0,0-.246-.51,20.666,20.666,0,0,0-4.986-2.969,19.558,19.558,0,0,0-3-.994.658.658,0,0,0-.444.062A8.368,8.368,0,0,1,50.547,5.03a.655.655,0,0,0-.65-.569H48.217V3.348a1.739,1.739,0,1,0-1.311,0V4.461H45.231a.653.653,0,0,0-.65.576,8.58,8.58,0,0,1-1.668,4.017.658.658,0,0,0-.446-.062,20.008,20.008,0,0,0-3,.993,20.848,20.848,0,0,0-4.988,2.969.656.656,0,0,0-.247.516A25.691,25.691,0,0,0,39.4,28.846a1.8,1.8,0,0,0-.838,1.52v1.226a1.808,1.808,0,0,0,1.076,1.65L34.035,49.63a1.889,1.889,0,0,0,1.775,2.483h9.334v5.523H40.756a2.031,2.031,0,1,0,0,4.063H54.373a2.031,2.031,0,0,0,0-4.063H49.986V52.113h9.334A1.89,1.89,0,0,0,61.094,49.63ZM47.563,1.309a.429.429,0,0,1,0,.858.429.429,0,0,1,0-.858M45,8.194a9.756,9.756,0,0,0,.8-2.422h3.547a9.879,9.879,0,0,0,2.236,4.567c-1.517,2.92-6.51,2.94-8.019,0A9.968,9.968,0,0,0,45,8.194M36.18,18.933a24.438,24.438,0,0,1-.634-5.154,19.413,19.413,0,0,1,6.615-3.353c1.532,4.5,9.221,4.575,10.816,0a19.464,19.464,0,0,1,6.605,3.352A24.355,24.355,0,0,1,54.3,28.559H40.824a24.678,24.678,0,0,1-4.644-9.625M55.253,30.366v1.226a.5.5,0,0,1-.5.5H40.374a.5.5,0,0,1-.5-.5V30.366a.5.5,0,0,1,.5-.5H54.757a.5.5,0,0,1,.5.5m-.882,28.58a.721.721,0,0,1,0,1.442H40.757a.721.721,0,0,1,0-1.442Zm-7.916-6.834h2.219v5.523H46.456Zm13.323-1.547a.56.56,0,0,1-.46.237H35.813a.569.569,0,0,1-.535-.749l5.7-16.655H54.155l5.7,16.656a.557.557,0,0,1-.075.51" transform="translate(0 0.001)" fill="#752092"/>
      </g>
    </g>
  </g>
</svg>
