<svg xmlns="http://www.w3.org/2000/svg" xmlns:xlink="http://www.w3.org/1999/xlink" width="160.175" height="300.594" viewBox="0 0 160.175 300.594">
  <defs>
    <clipPath id="clip-path">
      <rect id="Rectángulo_458109" data-name="Rectángulo 458109" width="160.175" height="300.594" fill="none"/>
    </clipPath>
    <clipPath id="clip-path-3">
      <rect id="Rectángulo_458106" data-name="Rectángulo 458106" width="70.063" height="20.317" fill="none"/>
    </clipPath>
  </defs>
  <g id="Grupo_1210320" data-name="Grupo 1210320" transform="translate(-290 -5976)">
    <g id="Grupo_1210197" data-name="Grupo 1210197" transform="translate(290 5976)">
      <g id="Grupo_1210196" data-name="Grupo 1210196" clip-path="url(#clip-path)">
        <g id="Grupo_1210195" data-name="Grupo 1210195">
          <g id="Grupo_1210194" data-name="Grupo 1210194" clip-path="url(#clip-path)">
            <g id="Grupo_1210193" data-name="Grupo 1210193" transform="translate(44.372 280.277)" opacity="0.38" style="mix-blend-mode: color-burn;isolation: isolate">
              <g id="Grupo_1210192" data-name="Grupo 1210192">
                <g id="Grupo_1210191" data-name="Grupo 1210191" clip-path="url(#clip-path-3)">
                  <path id="Trazado_1263498" data-name="Trazado 1263498" d="M175.991,679.25c0,5.61-15.684,10.159-35.031,10.159s-35.031-4.548-35.031-10.159,15.684-10.159,35.031-10.159,35.031,4.548,35.031,10.159" transform="translate(-105.928 -669.092)" fill="#bfbfbf"/>
                </g>
              </g>
            </g>
            <path id="Trazado_1263499" data-name="Trazado 1263499" d="M179.867,678.365c0,3.515-7.617,6.365-17.014,6.365s-17.013-2.85-17.013-6.365S153.457,672,162.853,672s17.014,2.85,17.014,6.365" transform="translate(-84.749 -390.505)" fill="#886283"/>
            <rect id="Rectángulo_458107" data-name="Rectángulo 458107" width="6.473" height="165.92" transform="translate(74.868 121.94)" fill="#b583af"/>
            <path id="Trazado_1263500" data-name="Trazado 1263500" d="M154.912,113.046c5.15-.516,23.538-1.2,28.514.532a16.751,16.751,0,0,1,10.882,12.431c1.477,7.588-2.357,15-5.515,21.744-4.772,10.2-8.335,23.025-3.995,33.516,2.5,6.053,7.207,10.154,10.713,15.383,5.583,8.326,8,19.8,6.42,30.458s-11.768,46.158-20.392,47.759a82.326,82.326,0,0,1-28.418,0l-7.162-87.246Z" transform="translate(-84.818 -65.356)" fill="#e5cfe3"/>
            <path id="Trazado_1263501" data-name="Trazado 1263501" d="M146.432,113.046c-5.15-.516-23.538-1.2-28.514.532a16.749,16.749,0,0,0-10.882,12.431c-1.477,7.588,2.357,15,5.515,21.744,4.772,10.2,8.335,23.025,3.995,33.516-2.5,6.053-7.207,10.154-10.713,15.383-5.583,8.326-8,19.8-6.42,30.458s11.767,46.158,20.392,47.759a82.326,82.326,0,0,0,28.418,0l7.162-87.246Z" transform="translate(-57.494 -65.356)" fill="#f6e4f4"/>
            <path id="Trazado_1263502" data-name="Trazado 1263502" d="M208.117,91.529c-13.323-4.023-13.323-17-13.323-17h-6.345V96.159c10.96,2.844,19.668-4.63,19.668-4.63" transform="translate(-109.509 -43.308)" fill="#f6e4f4"/>
            <path id="Trazado_1263503" data-name="Trazado 1263503" d="M144.382,91.529c13.323-4.023,13.323-17,13.323-17h6.345V96.159c-10.96,2.844-19.668-4.63-19.668-4.63" transform="translate(-83.902 -43.308)" fill="#f6e4f4"/>
            <path id="Trazado_1263504" data-name="Trazado 1263504" d="M80.318,454.784c-21.071,0-40.9-2.03-55.831-5.717-11.038-2.725-24.2-7.584-24.2-15.259s13.157-12.534,24.2-15.259c14.933-3.687,34.76-5.717,55.831-5.717s40.9,2.03,55.831,5.717c11.038,2.725,24.2,7.585,24.2,15.259s-13.157,12.534-24.2,15.259c-14.933,3.687-34.76,5.717-55.831,5.717m0-38.716c-45.254,0-76.791,9.349-76.791,17.74s31.537,17.74,76.791,17.74,76.791-9.349,76.791-17.74-31.537-17.74-76.791-17.74" transform="translate(-0.169 -239.9)" fill="#e4864b"/>
            <path id="Trazado_1263505" data-name="Trazado 1263505" d="M103.534,397.861c1.867,7.163,5.123,17.516,5.123,17.516l61.467,1.644c4.129-12.105,6.564-20.468,4.8-20.682-45.2-5.464-71.387,1.522-71.387,1.522" transform="translate(-60.164 -229.103)" fill="#f6e4f4"/>
            <path id="Trazado_1263506" data-name="Trazado 1263506" d="M139.3,308.868c-16.372,0-33.992-3.007-33.992-9.61s17.62-9.611,33.992-9.611,33.992,3.007,33.992,9.611-17.621,9.61-33.992,9.61m0-15.985a98.43,98.43,0,0,0-22.5,2.294c-6.769,1.671-8.252,3.512-8.252,4.081s1.483,2.409,8.252,4.08a98.43,98.43,0,0,0,22.5,2.294,98.433,98.433,0,0,0,22.5-2.294c6.769-1.671,8.252-3.512,8.252-4.08s-1.482-2.41-8.252-4.081a98.433,98.433,0,0,0-22.5-2.294" transform="translate(-61.195 -168.316)" fill="#e4864b"/>
            <path id="Trazado_1263507" data-name="Trazado 1263507" d="M129.586,268.31c-2.283,7.851-9.735,15.841-9.735,15.841-1.371,1.829,1.725,2.48,1.725,2.48,21.2,3.527,56.556-.6,56.556-.6s-3.876-6.45-4.1-6.736c-4.88-6.21-5.8-11.378-5.8-11.378Z" transform="translate(-69.443 -155.689)" fill="#f6e4f4"/>
            <path id="Trazado_1263508" data-name="Trazado 1263508" d="M309.16,374.089a131.351,131.351,0,0,0-10.953-23.8c-6.914-11.909-18.838-28.211-36.384-38.24l1.606-2.81c18.2,10.4,30.5,27.22,37.618,39.5a131.9,131.9,0,0,1,11.2,24.392Z" transform="translate(-152.148 -179.699)" fill="#e4864b"/>
            <path id="Trazado_1263509" data-name="Trazado 1263509" d="M258.193,398.746c-.057-.487-5.97-48.976-27.3-71.486l2.349-2.226c9.293,9.8,16.86,25.14,22.49,45.578a209.451,209.451,0,0,1,5.68,27.757Z" transform="translate(-134.171 -188.88)" fill="#e4864b"/>
            <path id="Trazado_1263510" data-name="Trazado 1263510" d="M204.632,405.434l-3.236-.067c.01-.476.911-47.965-4.806-73.833l3.16-.7c5.8,26.246,4.891,74.118,4.881,74.6" transform="translate(-114.241 -192.252)" fill="#e4864b"/>
            <path id="Trazado_1263511" data-name="Trazado 1263511" d="M3.539,373.934.37,373.279a111.843,111.843,0,0,1,8.919-24.452c6.081-12.307,17.159-29.167,35.4-39.593l1.606,2.81c-17.5,10-28.181,26.259-34.061,38.134a110.887,110.887,0,0,0-8.692,23.755" transform="translate(-0.215 -179.699)" fill="#e4864b"/>
            <path id="Trazado_1263512" data-name="Trazado 1263512" d="M71.29,398.746l-3.215-.377a209.455,209.455,0,0,1,5.68-27.757c5.63-20.439,13.2-35.773,22.49-45.578l2.349,2.226c-21.345,22.523-27.248,71-27.3,71.486" transform="translate(-39.559 -188.88)" fill="#e4864b"/>
            <path id="Trazado_1263513" data-name="Trazado 1263513" d="M155.953,405.434c-.01-.48-.919-48.352,4.881-74.6l3.16.7c-5.716,25.868-4.815,73.357-4.806,73.833Z" transform="translate(-90.592 -192.252)" fill="#e4864b"/>
            <path id="Trazado_1263514" data-name="Trazado 1263514" d="M91.862,427.843a90.4,90.4,0,0,1-14.058-.9c-39.185-2.064-57.976-13.05-58.758-13.517l1.66-2.778c.184.109,19.009,11.063,57.363,13.067l.2.023c.083.015,8.532,1.473,22.77.571,13.137-.83,34.032-3.894,58.966-13.777l1.193,3.009C135.8,423.6,114.5,426.712,101.1,427.547c-3.426.214-6.516.3-9.241.3" transform="translate(-11.068 -238.563)" fill="#e4864b"/>
            <path id="Trazado_1263515" data-name="Trazado 1263515" d="M113.7,368.081q-6.38,0-12.888-.624a161.25,161.25,0,0,1-45.617-11.644l1.227-2.994c34.078,13.97,61.555,13.233,78.6,10.154,18.387-3.321,28.808-9.95,28.911-10.017l1.756,2.719c-.443.287-11.075,7.048-30.092,10.482a123.207,123.207,0,0,1-21.9,1.924" transform="translate(-32.073 -205.026)" fill="#e4864b"/>
            <path id="Trazado_1263516" data-name="Trazado 1263516" d="M181.985,26.131a58.507,58.507,0,0,1-7.382-3.617,13.669,13.669,0,0,0-2.391-1.054,15.6,15.6,0,0,0-6.8-18.381,20.111,20.111,0,0,0-3.955-1.763A22.884,22.884,0,0,0,146.73,1.13a17.162,17.162,0,0,0-8.982,7.237c-1.264-.191-2.523-.42-3.772-.654-5.008-.94-10.118-1.981-15.143-1.152s-10.048,3.938-11.84,9.007a8.344,8.344,0,0,0-.468,4.1c.476,2.867,2.8,4.931,5.08,6.54a28.5,28.5,0,0,0,5.807,3.294,64.881,64.881,0,0,0,8.168,2.184,90.5,90.5,0,0,1,10.176,3.47l10.714,4.132c2.473.954,4.948,1.909,7.345,3.062,2.158,1.039,4.247,2.236,6.412,3.26A53.409,53.409,0,0,0,172,49.5c4.137.879,8.543,1.327,12.48-.287a11.3,11.3,0,0,0,6.691-10.28c.053-4.174.053-8.921-9.185-12.8" transform="translate(-61.852 0)" fill="#fe9554"/>
            <path id="Trazado_1263517" data-name="Trazado 1263517" d="M180.135,254.044c-17.844,8.511-39.162,7.009-39.162,7.009,1.091-3.292,1.684-11.03,1.684-11.03,22.8,6.476,37.156-.257,37.156-.257Z" transform="translate(-81.921 -145.141)" fill="#ffdc8d"/>
            <path id="Trazado_1263518" data-name="Trazado 1263518" d="M59.052,271.886C57.86,293.241,28.7,322.779,28.7,322.779,6.257,349.533,0,404.552,0,404.552H7.336c7.983-76.163,46.014-105.9,46.014-105.9C64.08,291.926,64.3,268.408,64.3,268.408Z" transform="translate(0 -155.974)" fill="#ffdc8d"/>
            <path id="Trazado_1263519" data-name="Trazado 1263519" d="M226.033,257.624c-.262-.149-.225-1.018-.256-1.285-.054-.452-.1-.905-.132-1.359-.041-.516-.85-.52-.809,0q.08,1.019.219,2.031c.069.506.085,1.036.57,1.312a.4.4,0,0,0,.408-.7" transform="translate(-130.653 -147.946)" fill="#e4864b"/>
            <path id="Trazado_1263520" data-name="Trazado 1263520" d="M214.044,255.961a28.55,28.55,0,0,0,.79,4.649.4.4,0,0,0,.78-.215,27.184,27.184,0,0,1-.762-4.434c-.045-.515-.855-.519-.809,0" transform="translate(-124.382 -148.516)" fill="#e4864b"/>
            <path id="Trazado_1263521" data-name="Trazado 1263521" d="M203.554,259.813a27.822,27.822,0,0,0,.615,3.754c.119.506.9.292.78-.215a26.327,26.327,0,0,1-.586-3.539c-.049-.514-.858-.519-.809,0" transform="translate(-118.286 -150.755)" fill="#e4864b"/>
            <path id="Trazado_1263522" data-name="Trazado 1263522" d="M190.471,260.409q.286,2.467.571,4.935c.059.511.869.517.809,0q-.286-2.467-.571-4.935c-.059-.511-.869-.517-.809,0" transform="translate(-110.682 -151.102)" fill="#e4864b"/>
            <path id="Trazado_1263523" data-name="Trazado 1263523" d="M181.484,265.614q.2,1.678.526,3.337c.1.511.879.294.78-.215q-.3-1.553-.5-3.122c-.062-.51-.873-.516-.809,0" transform="translate(-105.46 -154.127)" fill="#e4864b"/>
            <path id="Trazado_1263524" data-name="Trazado 1263524" d="M168.7,258.86a22.8,22.8,0,0,0,.709,7.226.405.405,0,0,0,.78-.215,22.107,22.107,0,0,1-.68-7.011c.032-.52-.777-.518-.809,0" transform="translate(-98.007 -150.199)" fill="#e4864b"/>
            <path id="Trazado_1263525" data-name="Trazado 1263525" d="M160.362,265.327q.366,2.272.75,4.541c.086.512.866.295.78-.215q-.384-2.269-.75-4.541c-.083-.513-.862-.295-.78.215" transform="translate(-93.184 -153.889)" fill="#e4864b"/>
            <path id="Trazado_1263526" data-name="Trazado 1263526" d="M149.642,261.45a44.436,44.436,0,0,0,1.459,6.493c.152.5.933.285.78-.215a44.382,44.382,0,0,1-1.459-6.493c-.076-.514-.855-.3-.78.215" transform="translate(-86.955 -151.636)" fill="#e4864b"/>
            <path id="Trazado_1263527" data-name="Trazado 1263527" d="M147.2,282.047a15.368,15.368,0,0,1-1.758-.173c-.509-.081-.729.7-.215.78a17.217,17.217,0,0,0,1.973.2c.521.022.519-.787,0-.809" transform="translate(-84.22 -163.796)" fill="#e4864b"/>
            <path id="Trazado_1263528" data-name="Trazado 1263528" d="M144.1,290.348a10.279,10.279,0,0,0-3.578-.438c-.518.027-.521.837,0,.809a9.646,9.646,0,0,1,3.363.409c.5.152.713-.628.215-.78" transform="translate(-81.434 -168.46)" fill="#e4864b"/>
            <path id="Trazado_1263529" data-name="Trazado 1263529" d="M145.575,298.979l-2.348-.311c-.515-.068-.51.741,0,.809l2.348.31c.515.068.51-.741,0-.809" transform="translate(-83.007 -173.556)" fill="#e4864b"/>
            <path id="Trazado_1263530" data-name="Trazado 1263530" d="M140.67,306.558l-4.122-.909c-.508-.112-.724.668-.215.78l4.122.909c.507.112.724-.668.215-.78" transform="translate(-79.056 -177.609)" fill="#e4864b"/>
            <path id="Trazado_1263531" data-name="Trazado 1263531" d="M138.611,315.3c-1.165-.493-2.345-.937-3.55-1.325-.5-.16-.71.621-.215.78,1.136.366,2.257.778,3.356,1.244.474.2.887-.5.408-.7" transform="translate(-78.197 -182.439)" fill="#e4864b"/>
            <path id="Trazado_1263532" data-name="Trazado 1263532" d="M132.589,322.426a43.909,43.909,0,0,0-3.927-2.185c-.466-.229-.876.469-.408.7a43.911,43.911,0,0,1,3.927,2.185c.443.277.85-.423.408-.7" transform="translate(-74.409 -186.069)" fill="#e4864b"/>
            <path id="Trazado_1263533" data-name="Trazado 1263533" d="M129.609,332.226a7.367,7.367,0,0,0-2.265-1.43c-.482-.2-.692.586-.215.78a6.3,6.3,0,0,1,1.908,1.223c.382.353.955-.218.572-.573" transform="translate(-73.719 -192.21)" fill="#e4864b"/>
            <path id="Trazado_1263534" data-name="Trazado 1263534" d="M120.956,337.764a12.5,12.5,0,0,0-2.272-1.432c-.467-.226-.877.471-.408.7a11.589,11.589,0,0,1,2.109,1.306c.405.318.981-.25.572-.572" transform="translate(-68.61 -195.42)" fill="#e4864b"/>
            <path id="Trazado_1263535" data-name="Trazado 1263535" d="M114.208,347.081a4.714,4.714,0,0,0-1.306-1.108.4.4,0,0,0-.408.7,4.093,4.093,0,0,1,1.142.982.407.407,0,0,0,.572,0,.414.414,0,0,0,0-.572" transform="translate(-65.257 -201.014)" fill="#e4864b"/>
            <path id="Trazado_1263536" data-name="Trazado 1263536" d="M108.331,354.266a6.693,6.693,0,0,0-1.347-1.233c-.428-.3-.832.4-.408.7a5.933,5.933,0,0,1,1.183,1.107c.331.4.9-.173.572-.572" transform="translate(-61.828 -205.108)" fill="#e4864b"/>
            <path id="Trazado_1263537" data-name="Trazado 1263537" d="M100.153,364.356l-.884-.735a.416.416,0,0,0-.572,0,.408.408,0,0,0,0,.572l.884.735a.417.417,0,0,0,.572,0,.408.408,0,0,0,0-.573" transform="translate(-57.285 -211.237)" fill="#e4864b"/>
            <path id="Trazado_1263538" data-name="Trazado 1263538" d="M93.681,370.969a8.993,8.993,0,0,0-1.031-.9.407.407,0,0,0-.553.145.415.415,0,0,0,.145.554,7.7,7.7,0,0,1,.867.772c.364.373.936-.2.572-.572" transform="translate(-53.486 -215.017)" fill="#e4864b"/>
            <path id="Trazado_1263539" data-name="Trazado 1263539" d="M88.361,378.232l-.881-.9c-.365-.373-.937.2-.572.572l.881.9c.365.373.937-.2.572-.572" transform="translate(-50.435 -219.201)" fill="#e4864b"/>
            <path id="Trazado_1263540" data-name="Trazado 1263540" d="M81.407,387.4l-1.464-1.367c-.38-.355-.954.216-.572.572l1.464,1.367c.38.355.954-.216.572-.572" transform="translate(-46.05 -224.26)" fill="#e4864b"/>
            <path id="Trazado_1263541" data-name="Trazado 1263541" d="M75.706,395.333l-1.793-1.111c-.444-.275-.85.424-.408.7l1.793,1.112c.444.275.851-.425.408-.7" transform="translate(-42.603 -229.049)" fill="#e4864b"/>
            <path id="Trazado_1263542" data-name="Trazado 1263542" d="M70.445,404.3l-1.755-1.17c-.434-.29-.84.411-.408.7L70.037,405c.434.289.84-.411.408-.7" transform="translate(-39.572 -234.221)" fill="#e4864b"/>
            <path id="Trazado_1263543" data-name="Trazado 1263543" d="M62.735,412.955a18.5,18.5,0,0,0-3.445-1.839c-.482-.2-.692.586-.215.78a17.576,17.576,0,0,1,3.251,1.757c.431.294.837-.407.408-.7" transform="translate(-34.173 -238.885)" fill="#e4864b"/>
            <path id="Trazado_1263544" data-name="Trazado 1263544" d="M58.447,423.216a16.778,16.778,0,0,1-3.158-1.041c-.472-.21-.883.486-.408.7A17.778,17.778,0,0,0,58.232,424c.507.115.723-.665.215-.78" transform="translate(-31.769 -245.307)" fill="#e4864b"/>
            <path id="Trazado_1263545" data-name="Trazado 1263545" d="M51.359,434.923a11.365,11.365,0,0,0-3.822-1.906.4.4,0,0,0-.215.78,10.763,10.763,0,0,1,3.628,1.825c.414.316.817-.387.408-.7" transform="translate(-27.334 -251.62)" fill="#e4864b"/>
            <path id="Trazado_1263546" data-name="Trazado 1263546" d="M48.371,447.381a6.566,6.566,0,0,0-2.384-1.217.4.4,0,0,0-.215.78,5.58,5.58,0,0,1,2.027,1.009c.4.32.98-.249.572-.572" transform="translate(-26.432 -259.26)" fill="#e4864b"/>
            <path id="Trazado_1263547" data-name="Trazado 1263547" d="M40.706,455.35a20.679,20.679,0,0,0-4.549-1.918.4.4,0,0,0-.215.78,19.784,19.784,0,0,1,4.355,1.836.4.4,0,0,0,.408-.7" transform="translate(-20.721 -263.483)" fill="#e4864b"/>
            <path id="Trazado_1263548" data-name="Trazado 1263548" d="M39.132,467.287a8.054,8.054,0,0,0-3.8-1.876c-.509-.1-.726.681-.215.78a7.237,7.237,0,0,1,3.44,1.668c.39.341.965-.229.572-.572" transform="translate(-20.239 -270.449)" fill="#e4864b"/>
            <path id="Trazado_1263549" data-name="Trazado 1263549" d="M32.916,477.547a30.1,30.1,0,0,0-4.748-2.045c-.5-.165-.708.617-.215.78a28.843,28.843,0,0,1,4.555,1.964c.459.246.868-.452.408-.7" transform="translate(-16.081 -276.305)" fill="#e4864b"/>
            <path id="Trazado_1263550" data-name="Trazado 1263550" d="M31.112,491.453a9.1,9.1,0,0,0-3.105-1.385c-.506-.12-.723.66-.215.781a8.45,8.45,0,0,1,2.912,1.3c.429.3.834-.4.408-.7" transform="translate(-15.982 -284.775)" fill="#e4864b"/>
            <path id="Trazado_1263551" data-name="Trazado 1263551" d="M25.089,501.927l-2.162-.9a7.109,7.109,0,0,1-2.309-1.054c-.336-.4-.905.176-.572.572a5.2,5.2,0,0,0,2,.984l2.828,1.181c.48.2.689-.582.215-.78" transform="translate(-11.59 -290.458)" fill="#e4864b"/>
            <path id="Trazado_1263552" data-name="Trazado 1263552" d="M24.01,513.445l-3.481-1.29c-.489-.181-.7.6-.215.78l3.481,1.29c.489.181.7-.6.215-.78" transform="translate(-11.645 -297.602)" fill="#e4864b"/>
            <path id="Trazado_1263553" data-name="Trazado 1263553" d="M19.092,524.07a4.339,4.339,0,0,0-1.988-.995q-1.5-.459-3.011-.914l.1.74.229-.114c.467-.231.057-.929-.408-.7l-.229.114a.409.409,0,0,0,.1.739l2.342.71a5.123,5.123,0,0,1,2.3.99c.365.372.937-.2.572-.572" transform="translate(-7.894 -303.364)" fill="#e4864b"/>
            <path id="Trazado_1263554" data-name="Trazado 1263554" d="M20.367,534.82a9.491,9.491,0,0,0-2.58-.987c-.507-.113-.724.667-.215.78a8.736,8.736,0,0,1,2.387.906c.455.254.864-.444.408-.7" transform="translate(-10.043 -310.209)" fill="#e4864b"/>
            <path id="Trazado_1263555" data-name="Trazado 1263555" d="M15.176,543.817a12.633,12.633,0,0,0-5.173-.73l.39.3-.006.009c.21-.471-.487-.883-.7-.408a.837.837,0,0,0-.075.614.406.406,0,0,0,.39.3,12.078,12.078,0,0,1,4.958.7c.491.177.7-.6.215-.78" transform="translate(-5.57 -315.411)" fill="#e4864b"/>
            <path id="Trazado_1263556" data-name="Trazado 1263556" d="M17.922,555.22a5.671,5.671,0,0,0-2.279-.606c-.516-.059-.512.751,0,.809a4.667,4.667,0,0,1,1.87.5.4.4,0,0,0,.408-.7" transform="translate(-8.866 -322.289)" fill="#e4864b"/>
            <path id="Trazado_1263557" data-name="Trazado 1263557" d="M12.319,563.874a29.149,29.149,0,0,0-5.15-.87c-.515-.065-.511.745,0,.809a27.924,27.924,0,0,1,4.935.841c.5.157.711-.624.215-.78" transform="translate(-3.942 -327.164)" fill="#e4864b"/>
            <path id="Trazado_1263558" data-name="Trazado 1263558" d="M13.358,574.576a8.642,8.642,0,0,0-2.632-.54c-.52-.026-.519.783,0,.809a7.923,7.923,0,0,1,2.417.511c.488.183.7-.6.215-.78" transform="translate(-6.007 -333.577)" fill="#e4864b"/>
            <path id="Trazado_1263559" data-name="Trazado 1263559" d="M8.267,583.293a41.742,41.742,0,0,0-5.856-.389c-.521-.021-.52.787,0,.809a40.2,40.2,0,0,1,5.641.36c.509.093.727-.686.215-.78" transform="translate(-1.175 -338.731)" fill="#e4864b"/>
            <path id="Trazado_1263560" data-name="Trazado 1263560" d="M177.313,23.656v.108a.809.809,0,0,0,1.618,0v-.108a.809.809,0,0,0-1.618,0" transform="translate(-103.038 -13.276)" fill="#ffdc8d"/>
            <path id="Trazado_1263561" data-name="Trazado 1263561" d="M177.33,23.7c-.777,8.313,7.113,13.291,14.133,15.138a41.966,41.966,0,0,0,13.067,1.725c3.615-.23,8.019-1.37,10.211-4.5.6-.855-.8-1.664-1.4-.816-2.11,3.014-6.928,3.747-10.319,3.741a44.675,44.675,0,0,1-11.131-1.71c-6.357-1.672-13.655-5.985-12.945-13.578.1-1.036-1.522-1.03-1.618,0" transform="translate(-103.017 -13.321)" fill="#ffdc8d"/>
            <path id="Trazado_1263562" data-name="Trazado 1263562" d="M221.828,110.755a1.681,1.681,0,0,0-1.144-.474h-.162a1.67,1.67,0,0,0-1.144.474,1.619,1.619,0,0,0,0,2.288,1.682,1.682,0,0,0,1.144.474h.162a1.669,1.669,0,0,0,1.144-.474,1.619,1.619,0,0,0,0-2.288" transform="translate(-127.206 -64.085)" fill="#752092"/>
            <path id="Trazado_1263563" data-name="Trazado 1263563" d="M209.4,125.733a1.619,1.619,0,0,0,0,3.236,1.619,1.619,0,0,0,0-3.236" transform="translate(-120.774 -73.065)" fill="#752092"/>
            <path id="Trazado_1263564" data-name="Trazado 1263564" d="M194.627,137.408a1.619,1.619,0,0,0-2.288,0,1.682,1.682,0,0,0-.474,1.144v.162a1.67,1.67,0,0,0,.474,1.144,1.619,1.619,0,0,0,2.288,0,1.681,1.681,0,0,0,.474-1.144v-.162a1.671,1.671,0,0,0-.474-1.144" transform="translate(-111.494 -79.573)" fill="#752092"/>
            <path id="Trazado_1263565" data-name="Trazado 1263565" d="M175.015,141.185a1.619,1.619,0,0,0,0,3.236,1.619,1.619,0,0,0,0-3.236" transform="translate(-100.794 -82.044)" fill="#752092"/>
            <path id="Trazado_1263566" data-name="Trazado 1263566" d="M135.522,128.523a1.619,1.619,0,0,0-2.288,0,1.682,1.682,0,0,0-.474,1.144v.162a1.67,1.67,0,0,0,.474,1.144,1.619,1.619,0,0,0,2.288,0,1.681,1.681,0,0,0,.474-1.144v-.162a1.671,1.671,0,0,0-.474-1.144" transform="translate(-77.147 -74.41)" fill="#752092"/>
            <path id="Trazado_1263567" data-name="Trazado 1263567" d="M153.383,140.413a1.619,1.619,0,0,0,0,3.236,1.619,1.619,0,0,0,0-3.236" transform="translate(-88.224 -81.595)" fill="#752092"/>
            <path id="Trazado_1263568" data-name="Trazado 1263568" d="M144.328,135.648a1.457,1.457,0,0,0,0,2.913,1.457,1.457,0,0,0,0-2.913" transform="translate(-83.053 -78.826)" fill="#752092"/>
            <path id="Trazado_1263569" data-name="Trazado 1263569" d="M165.446,142.344a1.457,1.457,0,0,0,0,2.913,1.457,1.457,0,0,0,0-2.913" transform="translate(-95.325 -82.717)" fill="#752092"/>
            <path id="Trazado_1263570" data-name="Trazado 1263570" d="M184.246,140.026a1.457,1.457,0,0,0,0,2.913,1.457,1.457,0,0,0,0-2.913" transform="translate(-106.25 -81.37)" fill="#752092"/>
            <path id="Trazado_1263571" data-name="Trazado 1263571" d="M202.531,133.073a1.457,1.457,0,0,0,0,2.913,1.457,1.457,0,0,0,0-2.913" transform="translate(-116.875 -77.33)" fill="#752092"/>
            <path id="Trazado_1263572" data-name="Trazado 1263572" d="M215.923,119.166a1.457,1.457,0,0,0,0,2.913,1.457,1.457,0,0,0,0-2.913" transform="translate(-124.657 -69.248)" fill="#752092"/>
            <path id="Trazado_1263573" data-name="Trazado 1263573" d="M127.588,122.256a1.457,1.457,0,0,0,0,2.913,1.457,1.457,0,0,0,0-2.913" transform="translate(-73.325 -71.044)" fill="#752092"/>
            <path id="Trazado_1263574" data-name="Trazado 1263574" d="M228.248,177.884a53,53,0,0,0-9.1,29.613c-3.6,2.347-10.482,2.908-10.482,2.908a65.123,65.123,0,0,1,19.58-32.521" transform="translate(-121.259 -103.37)" fill="#e5cfe3"/>
            <path id="Trazado_1263575" data-name="Trazado 1263575" d="M219.471,259.979c.36,6.309,6.718,15.241,6.718,15.241,2.954,4.865,3.432,6.8,3.432,6.8-1.5,2.8-10.861,4.376-10.861,4.376-10.447,2.373-10.094-22.215-10.094-22.215a50.745,50.745,0,0,0,10.805-4.2" transform="translate(-121.257 -151.076)" fill="#e5cfe3"/>
          </g>
        </g>
      </g>
    </g>
  </g>
</svg>
