<svg id="Grupo_1204005" data-name="Grupo 1204005" xmlns="http://www.w3.org/2000/svg" xmlns:xlink="http://www.w3.org/1999/xlink" width="134.138" height="192.108" viewBox="0 0 134.138 192.108">
  <defs>
    <clipPath id="clip-path">
      <rect id="Rectángulo_411333" data-name="Rectángulo 411333" width="134.138" height="192.109" fill="none"/>
    </clipPath>
  </defs>
  <g id="Grupo_1203297" data-name="Grupo 1203297" clip-path="url(#clip-path)">
    <path id="Trazado_1255814" data-name="Trazado 1255814" d="M92.612,128.835c-2.615-6.855-5.14-11.455-9.921-13.078s-6.265-7.111,4.354-9.688c0,0,.606-7.629-.386-10.605,0,0-8.117,2.074-11.454,6.4s-9.741,15.512-12.447,35.354-4.871,39.234-1.894,42.391,7.937,3.337,11.094,2.8,6.854-.18,10.913-3.337,7.666-8.026,8.929-16.054,3.428-27.328.812-34.182m-6.4,36.076c-1.623,4.059-2.435,7.216-4.239,8.208a15.172,15.172,0,0,1-9.5,1.32c-3.848-.779-4.66-4.116-4.751-7.273s2.165-27.779,2.436-31.837,2.435-13.53,3.788-14.792a6.63,6.63,0,0,1,2.9-1.573,9.176,9.176,0,0,1,6.3,1.483c2.975,2.074,4.6,5.321,5.5,10.372s-.812,30.034-2.435,34.093" transform="translate(5.487 8.814)" fill="#752092"/>
    <path id="Trazado_1255815" data-name="Trazado 1255815" d="M67.183,89.028,66.5,87.675,64.1,92.364,58.565,99.64l-5.35,4.882L47.863,106.8l-5.111,1.563-9.862-2.525-6.314-.12-5.231.482-7.035,2.646-7.937,5.411L1.8,120.263l-1.8,8.3,3.253,10.632L11.3,146s4.329-.36,4.93-.962,6.614-4.81,6.735-5.171a26.633,26.633,0,0,1,5.171-2.766c.36,0,5.784,2.613,5.784,2.613l.166-1.113-1.261-3.785,1.443-5.05,16.114-15.513L70.831,99.821ZM39.264,118.46s-3.788,4.209-3.608,4.149-11.485,8.9-11.485,8.9l-8.423,6.415-3.482,1.4-1.8-.421L7.636,136.2l-.782-2.766-.541-4.449,1.022-5.231,2.044-3.608,3.608-3.367,5.892-3.668s8.539-2.525,8.839-2.586,6.7.46,6.7.46a34.139,34.139,0,0,1,3.944,1.344c.18.24,1.443,3.187,1.443,3.187Z" transform="translate(0 8.095)" fill="#752092"/>
    <path id="Trazado_1255816" data-name="Trazado 1255816" d="M61.991,167.626a.35.35,0,0,0-.014.036l.047-.038c-.012,0-.022,0-.033,0" transform="translate(5.722 15.476)" fill="#e2a4db"/>
    <path id="Trazado_1255817" data-name="Trazado 1255817" d="M62.7,167.1a.35.35,0,0,0-.062-.507,1.844,1.844,0,0,0-.4-.2,3.708,3.708,0,0,1-.306.267c-.385.285-.781.555-1.161.844-.121.093-.272.238-.178.4.113.191.312.187.529.128a3.03,3.03,0,0,1,1-.285c.106-.289.417-.4.58-.641" transform="translate(5.592 15.362)" fill="#e2a4db"/>
    <path id="Trazado_1255818" data-name="Trazado 1255818" d="M62.095,166.389l.005,0,.043-.04Z" transform="translate(5.733 15.359)" fill="#e2a4db"/>
    <path id="Trazado_1255819" data-name="Trazado 1255819" d="M62.1,166.388l.048-.037h-.017c-.011.012-.021.025-.031.038" transform="translate(5.733 15.359)" fill="#e2a4db"/>
    <path id="Trazado_1255820" data-name="Trazado 1255820" d="M62.518,165.465a2.367,2.367,0,0,0-2.028,1.067c-.031.034.011.15.042.217a.252.252,0,0,0,.3.141c.485-.139.888-.535,1.443-.458.138-.173.279-.342.407-.52.145-.2.058-.427-.165-.448" transform="translate(5.584 15.276)" fill="#e2a4db"/>
    <path id="Trazado_1255821" data-name="Trazado 1255821" d="M61.977,167.662l.02.008c.009-.015.019-.028.026-.045l-.046.037" transform="translate(5.722 15.476)" fill="#e2a4db"/>
    <path id="Trazado_1255822" data-name="Trazado 1255822" d="M62.111,167.666c-.249.456-.741.654-1.079,1.013-.133.141-.364.3-.264.492.142.267.334.02.495-.056.326-.153.662-.291.969-.474.258-.155.682-.224.639-.624-.049-.458-.506-.221-.759-.351" transform="translate(5.608 15.48)" fill="#e2a4db"/>
    <path id="Trazado_1255823" data-name="Trazado 1255823" d="M65.458,171.96c0-.058-.08-.119-.123-.178a.292.292,0,0,0-.329.072c-.3.326-.6.652-.9.975-.157.169-.4.286-.341.581.04.193.39.147.73-.125a2.676,2.676,0,0,0,.866-.984,1.028,1.028,0,0,0,.093-.342" transform="translate(5.887 15.858)" fill="#e2a4db"/>
    <path id="Trazado_1255824" data-name="Trazado 1255824" d="M62.5,164.321c-.02-.059-.118-.091-.272-.2-.477.405-1.2.521-1.559,1.168a.119.119,0,0,0,.009.113c.055.051.129.129.186.122a3.013,3.013,0,0,0,1.663-.874c.052-.047.01-.226-.026-.331" transform="translate(5.6 15.153)" fill="#e2a4db"/>
    <path id="Trazado_1255825" data-name="Trazado 1255825" d="M62.263,169.267A3.288,3.288,0,0,0,61.25,170.3a1.823,1.823,0,0,0-.127.322c.028.054.044.116.068.12.073.013.176.034.221,0,.4-.338.807-.678,1.193-1.037.193-.18.543-.244.506-.611-.021-.212-.379-.133-.847.174" transform="translate(5.643 15.601)" fill="#e2a4db"/>
    <path id="Trazado_1255826" data-name="Trazado 1255826" d="M63.737,170.117c-.067-.138-.2-.118-.307-.06a8.72,8.72,0,0,0-1.557,1.3c-.025.022-.026.072-.038.109.007.036,0,.082.02.108a.226.226,0,0,0,.319.058c.529-.422,1.046-.857,1.56-1.3.037-.032.033-.155,0-.215" transform="translate(5.709 15.697)" fill="#e2a4db"/>
    <path id="Trazado_1255827" data-name="Trazado 1255827" d="M64.252,171.253c-.044-.063-.074-.15-.134-.182a.256.256,0,0,0-.222-.009,2.9,2.9,0,0,0-1.1,1.254.213.213,0,0,0,.284.25,2.818,2.818,0,0,0,1.168-1.194c.016-.032,0-.079,0-.119" transform="translate(5.797 15.792)" fill="#e2a4db"/>
    <path id="Trazado_1255828" data-name="Trazado 1255828" d="M66.208,172.355a1.763,1.763,0,0,0-1.19,1.372.282.282,0,0,0,.143.179c.062.035.192.061.222.028a3.455,3.455,0,0,0,1.008-1.329.187.187,0,0,0-.184-.25" transform="translate(6.003 15.913)" fill="#e2a4db"/>
    <path id="Trazado_1255829" data-name="Trazado 1255829" d="M67.833,172.952a.705.705,0,0,0-.182-.147c-.037,0-.082-.007-.111.01a1.562,1.562,0,0,0-.857.951.455.455,0,0,0,.106.322.185.185,0,0,0,.3-.011c.268-.3.531-.6.782-.906.032-.039,0-.158-.037-.22" transform="translate(6.156 15.955)" fill="#e2a4db"/>
    <path id="Trazado_1255830" data-name="Trazado 1255830" d="M61.386,162.05c.223-.171.452-.336.665-.52a.234.234,0,0,0,.042-.318.25.25,0,0,0-.2-.1,2.43,2.43,0,0,0-1.062.542c-.178.157-.117.363.1.485.068.038.139.071.208.106l.253-.2-.005,0" transform="translate(5.606 14.875)" fill="#e2a4db"/>
    <path id="Trazado_1255831" data-name="Trazado 1255831" d="M62.046,163.3a.289.289,0,0,0-.2-.119,1.414,1.414,0,0,0-1.109.615c.044.094.058.193.113.226a.532.532,0,0,0,.334.111,1.427,1.427,0,0,0,.872-.617.241.241,0,0,0-.012-.216" transform="translate(5.608 15.066)" fill="#e2a4db"/>
    <path id="Trazado_1255832" data-name="Trazado 1255832" d="M61.738,162.079c-.113-.039-.226-.071-.34-.107l-.253.2c-.012.01-.024.02-.037.028l.045-.024c-.081.284-.459.4-.5.765a1.967,1.967,0,0,0,1.183-.392c.185-.133.153-.379-.1-.466" transform="translate(5.6 14.954)" fill="#e2a4db"/>
    <path id="Trazado_1255833" data-name="Trazado 1255833" d="M61.364,161.952l-.034.021h.005l.028-.022" transform="translate(5.662 14.953)" fill="#e2a4db"/>
    <path id="Trazado_1255834" data-name="Trazado 1255834" d="M68.9,173.411a.445.445,0,0,0-.146-.3.208.208,0,0,0-.316.044,4.106,4.106,0,0,0-.284.44c.005.244.029.413.205.476s.291-.082.366-.218a1.261,1.261,0,0,0,.175-.441" transform="translate(6.292 15.978)" fill="#e2a4db"/>
    <path id="Trazado_1255835" data-name="Trazado 1255835" d="M61.783,159.131a.619.619,0,0,0-.679.335.265.265,0,0,0-.005.217.228.228,0,0,0,.292.129.926.926,0,0,0,.547-.419c.064-.122-.015-.216-.154-.262" transform="translate(5.639 14.691)" fill="#e2a4db"/>
    <path id="Trazado_1255836" data-name="Trazado 1255836" d="M70.134,173.219c-.03-.057-.118-.083-.179-.123-.249.044-.438.415-.375.76a.316.316,0,0,0,.129.176c.119.084.223.008.308-.071a.571.571,0,0,0,.117-.742" transform="translate(6.423 15.982)" fill="#e2a4db"/>
    <path id="Trazado_1255837" data-name="Trazado 1255837" d="M71.423,173.419a.26.26,0,0,0-.091-.192.227.227,0,0,0-.309.049,1.586,1.586,0,0,0-.162.251c.013.2.028.377.212.4.084.01.211-.094.27-.18a.637.637,0,0,0,.08-.326" transform="translate(6.543 15.99)" fill="#e2a4db"/>
    <path id="Trazado_1255838" data-name="Trazado 1255838" d="M61.884,158.16c-.011-.033-.047-.057-.091-.109-.24.093-.49.186-.737.288-.025.01-.055.086-.043.1a.348.348,0,0,0,.156.131.693.693,0,0,0,.7-.3.128.128,0,0,0,.012-.1" transform="translate(5.633 14.592)" fill="#e2a4db"/>
    <path id="Trazado_1255839" data-name="Trazado 1255839" d="M61.537,160.4a.539.539,0,0,0-.589.237c.034.054.06.141.1.153.21.054.358-.086.507-.2a.1.1,0,0,0-.023-.189" transform="translate(5.627 14.807)" fill="#e2a4db"/>
    <path id="Trazado_1255840" data-name="Trazado 1255840" d="M20.473,133.889a.213.213,0,0,0-.2.052.362.362,0,0,0,.214.462c.06-.044.149-.074.165-.127a.3.3,0,0,0-.178-.388" transform="translate(1.869 12.361)" fill="#e2a4db"/>
    <path id="Trazado_1255841" data-name="Trazado 1255841" d="M18.645,135.29c-.061.038-.153.063-.177.118a.31.31,0,0,0,.106.4.2.2,0,0,0,.19-.035.383.383,0,0,0-.119-.484" transform="translate(1.702 12.491)" fill="#e2a4db"/>
    <path id="Trazado_1255842" data-name="Trazado 1255842" d="M19.4,134.614a.642.642,0,0,0-.09.193.2.2,0,0,0,.166.244c.046.007.146-.058.147-.092a.358.358,0,0,0-.224-.345" transform="translate(1.783 12.429)" fill="#e2a4db"/>
    <path id="Trazado_1255843" data-name="Trazado 1255843" d="M21.4,133.13a1.3,1.3,0,0,0-.159-.121c-.013-.007-.08.05-.079.054.028.052.052.123.1.145.084.039.137,0,.139-.078" transform="translate(1.954 12.28)" fill="#e2a4db"/>
    <path id="Trazado_1255844" data-name="Trazado 1255844" d="M61.57,157.072l-.227.039c.017.072.035.143.051.215a.621.621,0,0,0,.221-.067c.085-.069.059-.145-.045-.188" transform="translate(5.664 14.502)" fill="#e2a4db"/>
    <path id="Trazado_1255845" data-name="Trazado 1255845" d="M72.23,59.552c.008.019.015.038.024.057,0-.027,0-.055.01-.083Z" transform="translate(6.669 5.496)" fill="#e2a4db"/>
    <path id="Trazado_1255846" data-name="Trazado 1255846" d="M28.255,145.646a4.118,4.118,0,0,1,1.3.322c.947.464,1.959.781,2.883,1.306a5.989,5.989,0,0,0,1.481.532.878.878,0,0,0,.983-1.121c-.182-.495-.39-.98-.6-1.464a7.95,7.95,0,0,1-.729-4.619,5.579,5.579,0,0,1,1.184-3,8.077,8.077,0,0,1,2.082-2.027c.1-.051.17-.171.253-.26a13.243,13.243,0,0,1,1.974-1.79,7.338,7.338,0,0,0,.95-.938c.2-.2.378-.422.582-.618,1.459-1.4,3.164-2.525,4.524-4.037a1.539,1.539,0,0,1,.193-.149c1.259-1.026,2.508-2.063,3.782-3.069a9.492,9.492,0,0,0,1.425-1.327,5.589,5.589,0,0,1,1.392-1.159,3.431,3.431,0,0,0,.794-.56,17.542,17.542,0,0,1,2.463-1.987c.288-.225.585-.439.862-.677,1.971-1.7,4.072-3.229,6.188-4.737a19.515,19.515,0,0,0,1.964-1.428,5.85,5.85,0,0,1,1.025-.652c1.119-.658,2.284-1.246,3.351-1.979a36.108,36.108,0,0,1,4.827-2.813,5.97,5.97,0,0,0,.631-.367,27.306,27.306,0,0,1,4.967-2.582A4.679,4.679,0,0,0,81.316,103c.208-.281.443-.213.708.085a20.925,20.925,0,0,1,1.678,2.544c.754,1.156.418,1.07-.2,1.879a1.639,1.639,0,0,1-.368.318,19.285,19.285,0,0,0-2.387,2.078,27.131,27.131,0,0,0-3.181,3.683c-1.1,1.566-1.773,3.376-2.735,5.025a1.57,1.57,0,0,0-.09.226c-.545,1.4-1.146,2.779-1.624,4.2a41.177,41.177,0,0,0-1.8,6.072,10.892,10.892,0,0,1-.826,2.8,6.037,6.037,0,0,0-.416,1.526c-.191,1.081-.4,2.16-.614,3.235-.271,1.357-.542,2.712-.835,4.065-.483,2.229-.783,4.487-1.086,6.745a13.344,13.344,0,0,1-.274,1.438,29.463,29.463,0,0,0-.678,3.844c-.346,3.03-.672,6.064-1.117,10.109-.1,1.416-.26,3.849-.447,6.281-.193,2.513-.419,5.025-.619,7.537a60.33,60.33,0,0,0-.179,6.942,7.676,7.676,0,0,0,1.112,4.057,7.957,7.957,0,0,0,5.414,3.81c.8.142,1.6.273,2.412.348a3.188,3.188,0,0,1,.6.055,9.831,9.831,0,0,0,3.264.152,20.485,20.485,0,0,0,5.722-1.085,16.7,16.7,0,0,0,3.8-1.587,8.249,8.249,0,0,1,1.278-.707,11.775,11.775,0,0,0,3.346-2.407,15.6,15.6,0,0,0,3.3-4.64,24.931,24.931,0,0,0,1.755-4.408c.341-1.21.689-2.421.981-3.643.566-2.373,1.039-4.764,1.448-7.17q.675-3.972,1-7.982c.237-2.96.177-5.932.235-8.9a20.841,20.841,0,0,0-.079-2.91,29,29,0,0,0-.642-4.576,4.331,4.331,0,0,1-.137-.718,30.7,30.7,0,0,0-.744-4.181,23.505,23.505,0,0,0-1.589-4.722,13.928,13.928,0,0,0-2.45-4.025,34.379,34.379,0,0,0-3.083-2.754,20.972,20.972,0,0,0-3.305-1.815,1.511,1.511,0,0,0-.466-.135,14.221,14.221,0,0,1-2.411-.83,3.135,3.135,0,0,1-.839-.489,1.762,1.762,0,0,1-.485-2.379,4.974,4.974,0,0,1,1.515-1.727c.235-.161.483-.306.7-.488a9.993,9.993,0,0,1,3.3-1.779c1.117-.375,2.235-.749,3.358-1.109a1.076,1.076,0,0,0,.813-.808,7.248,7.248,0,0,0,.34-2.5c-.186-2.058-.166-4.132-.413-6.189a5.288,5.288,0,0,1,.034-.85,2.069,2.069,0,0,0,.012-.6,30.9,30.9,0,0,1-.443-4.108c-.256-1.891-.233-3.813-.653-5.686a4.659,4.659,0,0,1-.045-.607c-.146-1.655-.286-3.31-.443-4.964a3.525,3.525,0,0,1,.688-2.867,8.259,8.259,0,0,0,.685-1.008c.989-1.537,2-3.062,2.953-4.619.871-1.418,1.677-2.876,2.519-4.311.721-1.227,1.545-2.4,2.153-3.681.559-1.176,1.246-2.278,1.854-3.423.739-1.4,1.651-2.7,2.482-4.054a4.738,4.738,0,0,0,.466-.853,11.782,11.782,0,0,1,1.152-2.145c1.252-2.045,2.583-4.045,3.741-6.141,1.494-2.709,3.18-5.293,4.824-7.907.282-.447.565-.892.841-1.342.532-.865,1.07-1.727,1.587-2.6,1.117-1.889,2.4-3.675,3.41-5.63.8-1.552,1.665-3.073,2.611-4.545a45.452,45.452,0,0,0,3.557-6.384,9.734,9.734,0,0,1,.735-1.4,37.785,37.785,0,0,0,2.207-4.208c1.008-2.085,2.086-4.137,3.1-6.221a20.6,20.6,0,0,0,.811-2.167,1.207,1.207,0,0,0,.023-.478.44.44,0,0,0-.52-.377,4.006,4.006,0,0,0-1.888,1.073c-1.291,1.181-2.615,2.321-4.009,3.381a5.118,5.118,0,0,0-.543.489c-1.427,1.451-2.97,2.775-4.5,4.107-2.181,1.9-4.233,3.926-6.242,6-1.638,1.693-3.261,3.4-4.884,5.113q-1.594,1.679-3.172,3.375c-.608.655-1.2,1.329-1.8,1.992-1.116,1.237-2.284,2.429-3.339,3.716-1.653,2.012-3.347,3.986-5.134,5.877a27.161,27.161,0,0,0-2.376,2.934c-1.345,1.886-2.745,3.728-4.161,5.56-.15.193-.295.389-.449.578q-.387.472-.781.936c-.1.122-.211.263-.394.222-.206-.045-.2-.233-.2-.39-.116-2.232-.221-4.462-.343-6.694-.054-.973-.132-1.944-.211-2.917-.129-1.577-.277-3.154-.4-4.732-.155-2.021-.285-4.045-.441-6.067-.126-1.619-.277-3.235-.41-4.854q-.143-1.758-.264-3.517c-.132-1.865-.273-3.728-.383-5.594-.117-1.987-.263-3.97-.534-5.943-.067-.488-.25-.94-.315-1.423a29.158,29.158,0,0,0-.486-4.221,2.254,2.254,0,0,1,0-.486c-.034-.8-.051-1.61-.113-2.412-.1-1.335-.234-2.667-.353-4-.069-.768-.11-1.54-.213-2.3A13.6,13.6,0,0,0,84.9.332c-.1-.4-.332-.428-.6-.152a4.037,4.037,0,0,0-.746,1.249,55.586,55.586,0,0,0-2.326,5.755c-.65,2.055-1.243,4.119-1.713,6.223-.233,1.036-.31,2.09-.478,3.132-.473,2.927-.962,5.854-1.415,8.784-.465,3.016-.765,6.051-1.063,9.087-.318,3.237-.6,6.478-.924,9.713-.271,2.674-.353,5.358-.368,8.04-.017,3.127.1,6.256.151,9.384.046,2.721.188,5.438.481,8.143.192,1.776.436,3.547.7,5.315a1.581,1.581,0,0,1-.3,1.247c-.806,1.123-1.564,2.279-2.376,3.4a20.173,20.173,0,0,0-1.563,2.469c-.283.54-.606,1.057-.9,1.592a25.112,25.112,0,0,0-1.849,3.838c-.275.807-.481,1.637-.708,2.46a13.963,13.963,0,0,1-1.45,3.608,2.283,2.283,0,0,1-.764.932,2.375,2.375,0,0,0-1,1.334c-.371.9-.72,1.814-1.149,2.688a34.723,34.723,0,0,1-5.25,7.449,6.747,6.747,0,0,1-.714.663C57,108.03,55.5,109.47,53.9,110.784a21.548,21.548,0,0,1-4.294,2.755c-.439.212-.875.429-1.313.642a10.9,10.9,0,0,1-2.466,1.03c-.874.185-1.746.387-2.626.535a4.722,4.722,0,0,1-1.453.076,20.143,20.143,0,0,1-2.86-.6,68.463,68.463,0,0,0-6.72-1.754,23.551,23.551,0,0,0-8.118-.208,21.223,21.223,0,0,0-5.882,1.5c-.257.12-.53.2-.8.3a28.431,28.431,0,0,0-5.3,2.448,33.133,33.133,0,0,0-7.856,6.5,14.987,14.987,0,0,0-1.789,2.464,13,13,0,0,0-1.486,3.063,24.364,24.364,0,0,0-.855,6.384,16.237,16.237,0,0,0,.7,5.168c.173.5.295,1.015.418,1.528a14.76,14.76,0,0,0,2.044,4.666c.693,1.055,1.54,1.985,2.315,2.973a11.786,11.786,0,0,0,7.167,4.251,4.232,4.232,0,0,0,2.851-.338,16.077,16.077,0,0,0,3.568-2.321c.362-.327.767-.6,1.126-.933,1.081-.987,2.335-1.775,3.337-2.851a9.57,9.57,0,0,1,3.694-2.3,1.89,1.89,0,0,1,.953-.128M92.432,113.18a.854.854,0,0,1-.134,1,1.465,1.465,0,0,1-.417.245,18.7,18.7,0,0,1-2.772.9,6.851,6.851,0,0,0-2.768,1.2c-.666.464-1.32.948-1.983,1.417a3.866,3.866,0,0,0-.88,1c-.139.2-.277.4-.433.581-.027.034-.135.01-.2-.005-.022-.005-.029-.069-.045-.109a2.279,2.279,0,0,1,.653-1.277,15.842,15.842,0,0,1,3.473-2.844,36.111,36.111,0,0,1,4.154-2.013,4.335,4.335,0,0,1,.69-.229c.232-.052.5-.128.664.129m-1.064-8.215c.449-.147.577-.068.605.442.086,1.542.153,3.086.233,4.628.023.446.073.89.088,1.337.024.744-.058.868-.761.986-.566.1-1.095.3-1.644.439a12.176,12.176,0,0,0-2.682,1.138,17.167,17.167,0,0,0-4.824,3.671,3.449,3.449,0,0,0-.931,3.367,2.154,2.154,0,0,0,1.493,1.6,16.847,16.847,0,0,1,2.7,1.095,5.256,5.256,0,0,0,1.251.465,15.475,15.475,0,0,1,3.388,1.632,2.889,2.889,0,0,1,.549.472,8.145,8.145,0,0,0,.727.649,12.113,12.113,0,0,1,3.623,4.52,26.559,26.559,0,0,1,2.755,9.29,73.181,73.181,0,0,1,.56,13.5c-.049.771-.046,1.545-.068,2.317a75.815,75.815,0,0,1-1.4,11.49q-.459,2.518-.971,5.028a25.066,25.066,0,0,1-1.081,3.872c-.53,1.406-.993,2.84-1.661,4.191a2.912,2.912,0,0,1-.134.339c-1.3,1.952-2.44,4.053-4.528,5.332-.9.552-1.846,1.025-2.753,1.565a9.791,9.791,0,0,1-2.716,1.032c-.671.165-1.336.352-2,.548a28.178,28.178,0,0,1-7.09,1,15.479,15.479,0,0,1-2.918-.141,8.15,8.15,0,0,1-3.565-1.487,4.525,4.525,0,0,1-1.519-2.146,11.266,11.266,0,0,1-.69-4.42c.009-.364-.05-.727-.063-1.092a16.566,16.566,0,0,1-.06-2.779c.17-1.252.171-2.5.267-3.754.117-1.533.092-3.071.283-4.6.186-1.484.144-3,.257-4.493s.26-2.988.454-4.473a11.7,11.7,0,0,1,.514-3.061c.212-1.676.46-3.529.676-5.387.206-1.783.655-3.518,1.019-5.268a50.179,50.179,0,0,0,.877-5.17,63.187,63.187,0,0,1,1.529-7.984q.457-1.956.912-3.914a28.294,28.294,0,0,1,1.333-4.168c.511-1.279.865-2.622,1.381-3.9a20.148,20.148,0,0,1,1.961-4.177,4.059,4.059,0,0,0,.577-1.069,13.7,13.7,0,0,1,2.343-3.807c.839-1.158,1.918-2.085,2.821-3.178a6.7,6.7,0,0,1,1.082-.98,13.766,13.766,0,0,0,2.086-1.858,1.507,1.507,0,0,1,.38-.3,17.341,17.341,0,0,1,4.406-2.034c.313-.08.615-.206.923-.308m.025-9.133c.174,2.063.391,4.122.537,6.187.113,1.584.081,1.618-1.4,2.244a17.939,17.939,0,0,0-1.963.962,14.545,14.545,0,0,1-2.737,1.01c-.218.073-.369-.045-.5-.228-.936-1.266-1.713-2.646-2.75-3.84-.277-.319-.3-.652-.107-.723.3-.109.445.125.6.294.658.7,1.305,1.416,2.137,2.322a7.012,7.012,0,0,0-1.357-2.11,3.565,3.565,0,0,1-.69-.992c-.035-.1-.023-.175.068-.2a.346.346,0,0,1,.221,0,.521.521,0,0,1,.171.17,11.457,11.457,0,0,0,2.412,2.336c.06-.73-.452-1.181-.862-1.655a11.747,11.747,0,0,1-1.112-1.446,1.339,1.339,0,0,1-.157-.446c-.011-.058.063-.138.111-.2.013-.017.078-.016.1,0a1.372,1.372,0,0,1,.287.213c.454.519.894,1.051,1.351,1.566.342.387.7.756,1.064,1.139a.363.363,0,0,0,.013-.5,14.839,14.839,0,0,0-2.2-3.049.379.379,0,0,1-.055-.451.388.388,0,0,1,.67-.155c.2.251.372.531.568.789q.516.68,1.046,1.346c.1.12.177.274.413.276a5.381,5.381,0,0,0-.589-1.4,6.784,6.784,0,0,0-.721-1.266,2.514,2.514,0,0,1-.47-.842.368.368,0,0,1,.223-.393.242.242,0,0,1,.315.1c.564.744,1.1,1.505,1.684,2.236a3.5,3.5,0,0,0,.978,1.042.578.578,0,0,0-.108-.537q-.993-1.457-1.979-2.92a1.291,1.291,0,0,1-.352-.758.287.287,0,0,1,.1-.2c.052-.036.182-.047.212-.013.26.311.513.629.752.956.5.69.994,1.387,1.492,2.081a3.174,3.174,0,0,0,.226.286c.1.115.205.288.382.156.049-.036.021-.22-.017-.319a19.969,19.969,0,0,0-1.822-3.151c-.149-.244-.328-.468-.463-.717a.975.975,0,0,1-.12-.457.4.4,0,0,1,.173-.293.339.339,0,0,1,.322.025c.232.281.434.585.642.885.647.935,1.289,1.872,1.942,2.8.083.118.147.3.351.279a4.312,4.312,0,0,0-.63-1.758q-.811-1.289-1.616-2.583c-.1-.163-.247-.319-.175-.545.209-.1.275.087.366.2.624.749,1.242,1.5,1.862,2.256.158.192.33.359.611.3A10.947,10.947,0,0,0,88.865,93c-.2-.24-.461-.478-.422-.844a.3.3,0,0,1,.127-.2.237.237,0,0,1,.215,0,1.767,1.767,0,0,1,.332.35A20.357,20.357,0,0,0,90.9,94.623a1.917,1.917,0,0,1,.49,1.209M91.187,93.3a.232.232,0,0,1-.137.163.243.243,0,0,1-.208-.07q-.513-.678-1.006-1.371a2.692,2.692,0,0,1-.607-1.037.285.285,0,0,1,.088-.21.646.646,0,0,1,.21-.094.3.3,0,0,1,.11.032A8.983,8.983,0,0,1,91.07,92.36a1.314,1.314,0,0,1,.117.945m-.849-3.911a.634.634,0,0,1,.2.109,1.953,1.953,0,0,1,.475.823c.086.382.032.756-.133.749-.3-.011-.35-.3-.5-.471-.181-.208-.417-.407-.426-.707a.9.9,0,0,1,.168-.428c.028-.05.138-.052.211-.075M132.873,13.75a.2.2,0,0,1,.085.18,16.29,16.29,0,0,1-.673,1.7c-.887,1.737-1.818,3.451-2.716,5.181-1.235,2.378-2.473,4.755-3.677,7.148a49.286,49.286,0,0,1-2.836,4.97c-1.162,1.766-2.167,3.625-3.154,5.5-.968,1.835-2.152,3.54-3.249,5.3-1.869,3-3.763,5.985-5.6,9.005-1.012,1.667-1.957,3.375-2.867,5.1a31.218,31.218,0,0,1-1.746,2.783c-.271.405-.563.8-.8,1.223-1.576,2.8-3.308,5.5-5.084,8.174-.583.878-1.067,1.822-1.617,2.724-1.161,1.908-2.338,3.809-3.5,5.716-.359.59-.719,1.18-1.04,1.79a9.8,9.8,0,0,1-2.066,2.545,4.227,4.227,0,0,1-4.729.945,20.8,20.8,0,0,1-3.7-1.819c-.545-.35-1.132-.636-1.691-.963-.4-.232-.457-.437-.165-.766a25.356,25.356,0,0,0,1.652-2.1c1.23-1.716,2.5-3.4,3.736-5.114.878-1.219,1.725-2.462,2.577-3.7q.657-.954,1.282-1.929c1.1-1.711,2.344-3.314,3.6-4.907a37.337,37.337,0,0,0,2.241-3.034,13.753,13.753,0,0,1,1.841-2.424,2.338,2.338,0,0,0,.369-.483c1.194-2.035,2.665-3.88,3.986-5.829.73-1.074,1.572-2.071,2.347-3.114,1.742-2.35,3.466-4.711,5.215-7.055.7-.944,1.447-1.859,2.182-2.78,1.091-1.365,2.2-2.716,3.281-4.09a3.363,3.363,0,0,1,.86-.788.85.85,0,0,1,.267-.646c.273-.354.56-.7.841-1.044.564-.7.722-.69,1.169.149s.844,1.666,1.27,2.5a.225.225,0,0,0,.291.129.255.255,0,0,0,.1-.208,5.819,5.819,0,0,0-1.4-3.556c-.323-.367-.326-.429,0-.793a2.146,2.146,0,0,1,.177-.168c.09-.081.18-.161.283-.251a2.946,2.946,0,0,1,.945,1.266c.317.567.584,1.162.871,1.747a.433.433,0,0,0,.493.257h0l.021.036a7.938,7.938,0,0,0-1.4-3.952.658.658,0,0,1,.378-.963c.2-.081.307.064.387.2.394.663.774,1.335,1.164,2a1.11,1.11,0,0,0,.223.284c.024.022.162-.029.189-.079a.678.678,0,0,0,.1-.34,4.1,4.1,0,0,0-.669-2.182c-.14-.2-.3-.384-.436-.588a.546.546,0,0,1,.277-.8c.235-.13.379.025.489.2.365.585.719,1.176,1.088,1.76a.248.248,0,0,0,.214.073.256.256,0,0,0,.145-.163,1.615,1.615,0,0,0-.141-1.292c-.26-.46-.485-.939-.758-1.389-.168-.276-.057-.451.123-.634.234-.238.434-.242.6,0,.25.37.482.753.733,1.122a.253.253,0,0,0,.312.118c.059-.027.1-.121.122-.192a2.3,2.3,0,0,0-.405-1.956c-.225-.405-.21-.561.092-.812.168-.14.353-.2.52.017s.344.453.525.672a.336.336,0,0,0,.433.106c.149-.086.157-.265.144-.435a2.012,2.012,0,0,0-.308-.789,3.506,3.506,0,0,1-.209-.439.739.739,0,0,1,.368-.809c.242-.068.344.139.449.311.084.139.171.276.269.406a.371.371,0,0,0,.529.13.463.463,0,0,0,.181-.532,2.884,2.884,0,0,0-.58-1.058c-.194-.27.047-.445.2-.62a.341.341,0,0,1,.525-.067.944.944,0,0,0,.286.2.419.419,0,0,0,.331-.043.383.383,0,0,0,.109-.313,3.107,3.107,0,0,0-.194-.44.559.559,0,0,1,.535-.828c.118,0,.235.072.355.079.253.015.371-.147.217-.375-.19-.281-.229-.512,0-.76.271-.287.452-.691.938-.706.2-.007.253-.166.244-.341a.711.711,0,0,1,.194-.558,7.776,7.776,0,0,0,1.218-1.658.245.245,0,0,1,.214-.07m-6.391,5.233-.008,0,.031-.032-.023.035M77.96,73.78c-.284.1-.332-.176-.37-.347-.214-.949-.433-1.9-.6-2.859-.2-1.119-.336-2.248-.509-3.371a9.121,9.121,0,0,1-.143-1.942.919.919,0,0,0,.016-.243,33.056,33.056,0,0,1-.213-4.614c-.054-.647-.139-1.291-.174-1.939-.054-.971-.1-1.944-.1-2.917,0-2.518-.005-5.038.061-7.555.036-1.379.22-2.754.326-4.131.156-2.022.291-4.046.457-6.068q.139-1.7.353-3.4c.184-1.451.469-2.89.591-4.345.157-1.864.511-3.7.715-5.554.133-1.2.4-2.39.543-3.593.221-1.894.818-3.72.968-5.624.01-.119.1-.244.084-.351a7.363,7.363,0,0,1,.477-3.348,57.928,57.928,0,0,1,1.689-5.851c.551-1.44,1.188-2.847,1.8-4.264a2.619,2.619,0,0,1,.326-.51.2.2,0,0,1,.367.051,3.038,3.038,0,0,1,.117.589c.157,1.942.315,3.883.459,5.826.1,1.294.168,2.59.257,3.885.02.282.06.564.1.843a4.274,4.274,0,0,1,.126.719c-.046,1.836.336,3.636.45,5.458.133,2.148.241,4.3.363,6.446q.11,1.947.227,3.891c.147,2.432.294,4.863.52,7.29.273,2.91.46,5.829.689,8.743.194,2.47.415,4.937.59,7.409.106,1.5.14,3,.218,4.5.038.73.092,1.459.165,2.187a.855.855,0,0,1-.1.58c-.087.137-.172.276-.368.257-.145-.014-.205-.126-.237-.24a5.112,5.112,0,0,1-.2-.825c-.078-.726-.146-1.455-.178-2.185a1.829,1.829,0,0,0-.386-1.127c-.261.084-.181.323-.187.487-.026.771-.054,1.545-.026,2.316a4.809,4.809,0,0,0,.489,2c.091.18.213.391.109.578a2.86,2.86,0,0,1-1.1,1.329,16.163,16.163,0,0,1-.295-2.944,3.681,3.681,0,0,0-.573-2.018,25.539,25.539,0,0,0,.182,5.289,1.139,1.139,0,0,1-.2,1.138c-.154.161-.429.163-.489-.037a5.874,5.874,0,0,1-.257-1.057c-.157-1.493-.517-2.961-.547-4.471a.8.8,0,0,0-.171-.569.336.336,0,0,0-.1-.063.114.114,0,0,0-.176.1,8.866,8.866,0,0,0-.131,1.33A14.118,14.118,0,0,0,84.7,63.7a1.386,1.386,0,0,1-.35,1.647c-.167.171-.277.405-.573.492a2.842,2.842,0,0,1-.449-1.338c-.287-1.1-.534-2.208-.764-3.32a2.577,2.577,0,0,0-.722-1.354,24.629,24.629,0,0,0,.247,2.669c.086.643.205,1.282.3,1.925a6.018,6.018,0,0,0,.556,2.109.754.754,0,0,1-.1.9,2.686,2.686,0,0,1-.715.777c-.316-.12-.332-.386-.383-.605a20.222,20.222,0,0,1-.417-2.027c-.168-1.338-.76-2.547-1.088-4.009a13.412,13.412,0,0,0,.258,3.057c.222,1.362.474,2.719.72,4.077a1.138,1.138,0,0,1-.073.938c-.139.2-.241.485-.531.406-.2-.052-.218-.319-.268-.512-.031-.118-.038-.241-.062-.36A20.71,20.71,0,0,0,78.915,65.1a2.992,2.992,0,0,0,.059,1c.288,1.6.553,3.2.84,4.8a.767.767,0,0,1-.117.687c-.078.091-.173.209-.275.226a.343.343,0,0,1-.358-.257,5.506,5.506,0,0,1-.205-.572c-.391-1.407-.774-2.816-1.164-4.223a.72.72,0,0,0-.116-.21.2.2,0,0,0-.1-.058.128.128,0,0,0-.19.1,2.586,2.586,0,0,0-.045,1.086,34.477,34.477,0,0,0,.92,5.029,2.274,2.274,0,0,1,.12.591.527.527,0,0,1-.328.477m-2.991,6.5c.058-.106.126-.208.193-.308,1.3-1.912,2.574-3.846,4.032-5.646a4.011,4.011,0,0,0,.442-.582,43.125,43.125,0,0,1,3.19-4.6c1.114-1.549,2.137-3.163,3.251-4.712,1.375-1.912,2.805-3.784,4.208-5.676.532-.718,1.05-1.447,1.583-2.164.557-.748,1.125-1.49,1.69-2.233a7.233,7.233,0,0,0,.452-.573,45.7,45.7,0,0,1,3.375-4.462,36.005,36.005,0,0,1,2.605-2.9,45.376,45.376,0,0,0,3.151-3.55c.74-.919,1.517-1.8,2.334-2.649,1.1-1.14,2.177-2.3,3.2-3.509.765-.9,1.585-1.74,2.413-2.578,1.141-1.153,2.243-2.349,3.377-3.509,1.022-1.045,2.092-2.043,3.02-3.178a6.579,6.579,0,0,1,.792-.757,31.209,31.209,0,0,0,3.3-3.231,20.829,20.829,0,0,1,2.8-2.534,18.875,18.875,0,0,0,2.077-1.93,1.121,1.121,0,0,1-.343.828c-1.87,2.143-3.726,4.3-5.6,6.443-1.47,1.684-2.847,3.441-4.177,5.237-1.885,2.547-3.79,5.079-5.688,7.618-1.776,2.376-3.56,4.746-5.326,7.129q-1.16,1.566-2.263,3.174c-2.422,3.512-4.814,7.043-7.252,10.543-1.625,2.333-3.312,4.623-4.965,6.937-.377.529-.71,1.088-1.085,1.619q-2.736,3.886-5.489,7.76c-.471.66-.992,1.285-1.505,1.914a9.688,9.688,0,0,1-2.545,2.062,2,2,0,0,1-.923.284c-1.336.088-2.671.184-4.008.269-.379.024-.5-.2-.316-.539M69.548,92.1c.646-1.622,1.152-3.288,1.661-4.954a7.345,7.345,0,0,1,.551-1.219c.6-1.152,1.221-2.291,1.81-3.448a1.176,1.176,0,0,1,1.134-.756c.689,0,1.382-.069,2.068-.029a7.05,7.05,0,0,0,3.336-.522,1.232,1.232,0,0,1,1.243.117,35.417,35.417,0,0,1,3.392,2.133,5.328,5.328,0,0,0,.943.545c.852.38,1.714.738,2.576,1.1a3.756,3.756,0,0,0,2.132.33,1.3,1.3,0,0,1,.437.052,16.793,16.793,0,0,1-1.939,3.468c-.456.719-.987,1.388-1.46,2.1q-.642.96-1.23,1.955c-1.056,1.779-2.2,3.5-3.36,5.215a31.679,31.679,0,0,1-2.586,3.533,4.392,4.392,0,0,1-1.325,1.042,64.411,64.411,0,0,0-6.57,3.712,3.516,3.516,0,0,1-.435.218c-.374.173-.521.145-.672-.218q-.77-1.852-1.5-3.719a35.871,35.871,0,0,1-1.6-5.481,15.858,15.858,0,0,0-.706-1.954,6.917,6.917,0,0,0,2.1-3.21M26.249,145a17.849,17.849,0,0,0-2.946,1.94c-.566.4-1.116.813-1.661,1.237a12.249,12.249,0,0,0-1.31,1.093A26.652,26.652,0,0,1,16,152.63a4.7,4.7,0,0,1-3.477.792,2.766,2.766,0,0,1-.7-.184c-.511-.233-1.008-.5-1.506-.747-.059-.264.118-.264.279-.272.182-.008.359-.092.331-.269-.115-.706.307-1.242.524-1.843a.233.233,0,0,0-.061-.212.229.229,0,0,0-.211.037,3.141,3.141,0,0,0-.644,1.3c-.258.66-.473.8-1.18.746-.383-.031-.549-.25-.489-.663a5.231,5.231,0,0,1,.428-1.518A7.327,7.327,0,0,0,9.614,149a.225.225,0,0,0-.093-.194.221.221,0,0,0-.211.022,3.918,3.918,0,0,0-.843,2.21c-.021.172-.228.282-.338.174-.289-.284-.577-.571-.85-.872a36.417,36.417,0,0,0-2.65-3,13.484,13.484,0,0,1-2.272-4.676,34.529,34.529,0,0,0-.906-3.409,3.812,3.812,0,0,1-.2-1.312c.05-.853-.263-1.678-.167-2.546.111-1.008.1-2.03.186-3.04a5.324,5.324,0,0,1,.323-1.3c.286-.8.636-1.577.919-2.379a8.667,8.667,0,0,1,1.19-2.255,18.865,18.865,0,0,1,2.3-2.665,63.365,63.365,0,0,1,5.134-4.084,21.777,21.777,0,0,1,5.471-2.884c1.364-.519,2.7-1.1,4.065-1.616a19.322,19.322,0,0,1,3.448-.735c.593-.1,1.2-.2,1.8-.273a17.7,17.7,0,0,1,3.892.009c1.448.157,2.885.451,4.318.731a17.223,17.223,0,0,1,1.855.547,35.5,35.5,0,0,0,5.66,1.419,9.348,9.348,0,0,0,5.814-.821c1.548-.812,3.067-1.678,4.582-2.549a10.857,10.857,0,0,0,1.161-.888c1.157-.9,2.3-1.815,3.475-2.682a17.078,17.078,0,0,0,2.811-2.519,61.783,61.783,0,0,0,4.381-5.379,22.39,22.39,0,0,0,2.963-5.279c.007-.017.06-.019.091-.027.175.073.21.238.247.393a15.768,15.768,0,0,1,.346,1.546,26.432,26.432,0,0,0,1.784,5.931c.32.835.629,1.673.951,2.507a.554.554,0,0,1-.242.733c-.236.158-.464.331-.71.472-1.3.747-2.62,1.468-3.913,2.232-1.505.888-3.039,1.74-4.471,2.738-1.667,1.162-3.4,2.221-5.048,3.414A56.576,56.576,0,0,0,49.5,121.8c-1.163,1.132-2.46,2.126-3.646,3.234-.979.915-1.9,1.9-2.816,2.873a14.121,14.121,0,0,1-1.578,1.521c-1.19.926-2.168,2.078-3.278,3.091-.778.711-1.494,1.491-2.279,2.195-.911.817-1.664,1.775-2.5,2.658a1.949,1.949,0,0,0-.723,1.348c-.005.348-.284.637-.271,1.04a15.336,15.336,0,0,0,.206,3.877,5.559,5.559,0,0,0,.828,1.75,3.975,3.975,0,0,1,.635,1.306.336.336,0,0,1-.378.455,2.67,2.67,0,0,1-1.115-.461,16.929,16.929,0,0,0-2.108-1.214,9.591,9.591,0,0,0-3.424-.684,1.812,1.812,0,0,0-.808.209" transform="translate(0.007 0)" fill="#752092"/>
    <path id="Trazado_1255847" data-name="Trazado 1255847" d="M107.35,30.035h0l0,0c-.011.007-.022.015-.033.023v.009l.031-.029" transform="translate(9.908 2.773)" fill="#e2a4db"/>
    <path id="Trazado_1255848" data-name="Trazado 1255848" d="M83.178,88.022l0,.017v-.02h-.007l0,0,0,0" transform="translate(7.679 8.127)" fill="#e2a4db"/>
    <path id="Trazado_1255849" data-name="Trazado 1255849" d="M78.794,94.564l-.031-.024a.045.045,0,0,1,0,.012l.031.012" transform="translate(7.272 8.729)" fill="#e2a4db"/>
    <path id="Trazado_1255850" data-name="Trazado 1255850" d="M81.206,91.729l.012-.01a.086.086,0,0,1-.016-.011.293.293,0,0,1-.008.029l.012-.009" transform="translate(7.496 8.467)" fill="#e2a4db"/>
    <path id="Trazado_1255851" data-name="Trazado 1255851" d="M69.337,122.383a19.013,19.013,0,0,0-1.134,3.724c-.333,2.173-1.021,4.263-1.4,6.426s-.828,4.308-1.234,6.4c-.18,2.327-.607,4.562-.717,6.842-.154,3.244-.456,6.483-.713,9.722a86.877,86.877,0,0,0-.192,10.1,19.85,19.85,0,0,0,.7,4.929,4.33,4.33,0,0,0,3.534,3.128c1.345.292,2.732.392,4.1.557a8.657,8.657,0,0,0,2.185-.054c.8-.109,1.6-.3,2.4-.357a8.669,8.669,0,0,0,3.691-1.107A14.162,14.162,0,0,0,82,171.584a7.2,7.2,0,0,0,2.426-3.133c.3-.753.672-1.482.922-2.251a36.72,36.72,0,0,0,1.289-4.059c.184-.915.368-1.832.525-2.752.376-2.2.737-4.406,1.1-6.611a3.977,3.977,0,0,0,.046-.73,36.224,36.224,0,0,1,.44-6.073c.336-2.3.316-4.622.556-6.925.016-.162.008-.326.009-.487.007-1.056-.014-2.114.025-3.169a44.694,44.694,0,0,0-.646-7.272c-.01-.08-.048-.155-.062-.235a30.651,30.651,0,0,0-2.09-5.958,4.655,4.655,0,0,0-.659-1.019,13.973,13.973,0,0,0-2.743-2.391,11.625,11.625,0,0,0-4.414-1.963,9.248,9.248,0,0,0-2.022-.4c-1.132-.013-2.267.118-3.4.2a1.991,1.991,0,0,0-1,.428,5.013,5.013,0,0,0-1.776,2.271c-.428,1.1-.784,2.221-1.2,3.324m2.37-2.977c.037-.2.079-.381.236-.445a4.2,4.2,0,0,1,.8-.239.363.363,0,0,1,.415.174.7.7,0,0,1-.163.664,1.645,1.645,0,0,1-1.163.12c-.063-.011-.094-.2-.127-.274M70.49,123.76a.221.221,0,0,1-.152-.149,1.038,1.038,0,0,1,1.2-1,.254.254,0,0,1,.167.285,1.073,1.073,0,0,1-1.212.862m-.53,1.667c-.118,0-.2-.109-.2-.34a1.061,1.061,0,0,1,1.09-.781c.153,0,.21.107.225.224a.627.627,0,0,1-.139.557,1.286,1.286,0,0,1-.978.34m-.336,1.393c-.144-.1-.126-.307-.06-.452a.924.924,0,0,1,.891-.488c.2.042.307.163.288.343-.046.43-.773.825-1.12.6m-.15,1.218c-.028,0-.1-.143-.088-.2a.987.987,0,0,1,.98-.533c.117.016.163.3.082.423-.239.376-.625.289-.973.309m-.383,1.413c-.048-.019-.059-.133-.086-.2a.93.93,0,0,1,1.116-.652c.07.016.158.2.141.288a1.158,1.158,0,0,1-1.171.567m-.347,1.735c-.056-.014-.09-.115-.133-.175.1-.486.216-.953.816-1.072.194-.039.407-.186.563-.022a.583.583,0,0,1,0,.684,1.552,1.552,0,0,1-1.249.584m-.405,1.646c-.12-.026-.108-.512.005-.685a1.939,1.939,0,0,1,1.181-.62c.062.069.19.145.205.24a.7.7,0,0,1-.268.755,2.773,2.773,0,0,1-.663.293.941.941,0,0,1-.461.017m-.352,1.131c-.028-.029.01-.161.055-.216a2.283,2.283,0,0,1,1.289-.6c.05.141.125.248.113.345a.4.4,0,0,1-.166.291,7.487,7.487,0,0,1-1.009.346c-.078.02-.208-.086-.281-.165m-.271,1.212a1.37,1.37,0,0,1,1.373-.693.319.319,0,0,1,.169.283.545.545,0,0,1-.312.585,6.79,6.79,0,0,1-.9.287c-.243.061-.426-.209-.33-.463m-.27,1.553a.46.46,0,0,1,.12-.309,1.706,1.706,0,0,1,.868-.375c.221-.055.5-.174.619.133a.5.5,0,0,1-.229.623c-.055.038-.114.071-.171.1-.317.005-.635.015-.951.014-.126,0-.25-.066-.256-.191m-.237,1.466a.854.854,0,0,1,.394-.711c.321-.226.743-.264,1.027-.555.237.055.465.131.49.43a.58.58,0,0,1-.3.614c-.4.2-.805.379-1.216.549a.307.307,0,0,1-.391-.328m-.186,1.751a.974.974,0,0,1,.693-.972,3.73,3.73,0,0,1,.45-.177c.245-.057.534-.376.736-.017a.784.784,0,0,1-.146.9,2.86,2.86,0,0,1-1.477.767c-.161.04-.288-.191-.256-.5m-.062,2.282a.985.985,0,0,1,.636-1.376c.11-.049.222-.1.334-.145.469-.186.69-.18.757.016a.821.821,0,0,1-.27.974,3.1,3.1,0,0,1-1.457.531m-.093,1.15c-.021.007-.075-.115-.115-.177.028-.073.035-.179.087-.212a3.578,3.578,0,0,1,1.321-.525.337.337,0,0,1,.281.165c.034.081-.024.286-.086.307-.489.168-.989.307-1.488.442m-.275,1.323c.007-.038,0-.09.023-.113a4.833,4.833,0,0,1,1.491-1c.145-.066.31.1.285.286-.016.116-.021.275-.1.335a3.657,3.657,0,0,1-1.5.731c-.126.028-.2-.1-.206-.238m.064,1.7c-.121-.027-.163-.163-.158-.322a.591.591,0,0,1,.268-.483,2.174,2.174,0,0,1,1.01-.382.441.441,0,0,1,.319.074.379.379,0,0,1,.042.453,2.287,2.287,0,0,1-1.48.66m-.256,2.069c-.2-.109-.157-.345-.174-.517a.609.609,0,0,1,.364-.589c.36-.168.7-.381,1.053-.569.106-.056.241-.094.322.02a.677.677,0,0,1,.108.332.585.585,0,0,1-.261.511c-.32.239-.657.457-.983.685-.132.093-.285.2-.429.127m-.265,1.5c-.114-.149-.048-.3.02-.448a.2.2,0,0,1,.087-.081c.4-.18.793-.362,1.2-.531.058-.024.142.014.211.023.023.081.08.17.056.223a.608.608,0,0,1-.212.265c-.342.206-.694.4-1.044.586a.227.227,0,0,1-.312-.037m-.2,1.393c-.019-.024,0-.076,0-.117s.015-.087.04-.1a4.472,4.472,0,0,1,1.36-.711.231.231,0,0,1,.275.164c.021.063,0,.2-.042.217q-.731.362-1.479.689c-.027.013-.113-.082-.156-.138m-.17,3.329c-.435-.211-.1-.719-.128-1.042.043-.368-.052-.744.24-.958a3,3,0,0,1,1.262-.676c.132-.021.179.122.184.249a.515.515,0,0,1-.206.416c-.279.233-.569.451-.844.688a.229.229,0,0,0-.033.212c.023.05.117.076.185.1.032.009.074-.022.113-.034.226-.071.485-.2.584.147a.427.427,0,0,1-.273.489c-.353.178-.729.582-1.082.411m-.327,1.145a.555.555,0,0,1,.23-.509c.294-.2.606-.371.92-.541a.293.293,0,0,1,.419.059.447.447,0,0,1,.013.453.627.627,0,0,1-.187.294c-.334.211-.679.406-1.031.588-.175.091-.388-.113-.365-.344m-.034,1.409a.572.572,0,0,1,.256-.389c.323-.213.7-.141,1.028-.222.079.064.185.108.189.162a.466.466,0,0,1-.06.338,2.328,2.328,0,0,1-1.075.51c-.168.043-.376-.212-.338-.4m.02,2.182c-.07-.061-.072-.21-.084-.322a.946.946,0,0,1,.025-.223c-.04-.552.393-.649.748-.812.213-.1.448-.221.654,0a.579.579,0,0,1-.138.75,8.48,8.48,0,0,1-.89.6.342.342,0,0,1-.316,0m-.18,1.479a.527.527,0,0,1,.085-.572,3.068,3.068,0,0,1,1.229-.75c.028-.014.078.016.117.026.044.061.117.12.126.186a.716.716,0,0,1-.293.749,7.169,7.169,0,0,1-.746.411c-.174.085-.385.21-.518-.049m1.281.95c-.218.179-.457.335-.69.495-.134.091-.3.176-.445.084-.2-.126-.117-.368-.155-.507a.443.443,0,0,1,.229-.446c.214-.113.434-.216.656-.311.175-.076.347-.246.551-.079.15.123.068.588-.146.764m-.35,1.859c-.268.118-.473.488-.825.277-.245-.147.02-.581.548-.873a4.6,4.6,0,0,1,.5-.206c.113.092.2.129.222.191a.345.345,0,0,1-.014.228.724.724,0,0,1-.435.382m-.086,1.552a1.273,1.273,0,0,1-.414.212c-.129.037-.21-.061-.24-.262-.008-.168.177-.269.332-.385.494-.366.872-.452.9-.217.058.427-.35.471-.582.652m-.057,1.806c-.084.073-.2.152-.318.05a.568.568,0,0,1-.161-.469,1,1,0,0,1,.171-.263,7.161,7.161,0,0,1,.584-.416c.131-.088.3-.2.4-.012a.61.61,0,0,1,0,.454c-.12.314-.441.448-.679.655m-.045,1.937c-.066-.039-.157-.063-.193-.121a.734.734,0,0,1,.063-.877,4.1,4.1,0,0,1,.726-.388c.153-.068.405.158.4.336a1.549,1.549,0,0,1-1,1.05m.362,1.168c-.168.043-.374-.227-.318-.412a1.647,1.647,0,0,1,1.088-.836.34.34,0,0,1,.113.031.437.437,0,0,1,.144.622,2.011,2.011,0,0,1-1.027.6m.5,1.216a.381.381,0,0,1-.32-.067.4.4,0,0,1-.137-.438,1.467,1.467,0,0,1,1.3-.761c.059.068.174.144.2.245a.371.371,0,0,1-.061.323,9.692,9.692,0,0,1-.983.7m1.918.463a6.6,6.6,0,0,1-.9.588.519.519,0,0,1-.642-.186.782.782,0,0,1-.083-.217.418.418,0,0,1,.046-.11,1.65,1.65,0,0,1,1.316-.715.606.606,0,0,1,.391.232c.12.153,0,.315-.127.41m.436,1.211c-.272.1-.735-.047-.742-.215-.01-.256.216-.319.374-.43.2-.141.4-.273.612-.4a.5.5,0,0,1,.46-.038.292.292,0,0,1,.235.249.3.3,0,0,1-.047.222,2.273,2.273,0,0,1-.891.612m2.543-.09a.963.963,0,0,1-1,.192c-.063-.017-.111-.094-.167-.143,0-.039-.025-.1-.008-.116a2.388,2.388,0,0,1,.864-.6c.232-.072.579.047.612.215.049.252-.174.322-.306.453m2.815.091a5.013,5.013,0,0,1-1.784.318.383.383,0,0,1-.279-.193.388.388,0,0,1,.111-.322,1.77,1.77,0,0,1,1.585-.329,2.739,2.739,0,0,1,.352.156.281.281,0,0,1,.123.193.217.217,0,0,1-.109.177m1.131.418a.4.4,0,0,1-.531-.091.278.278,0,0,1-.04-.326.8.8,0,0,1,.825-.4c.066.06.211.129.218.212.034.332-.222.481-.472.6m1.221-.108a.268.268,0,0,1-.192-.363.551.551,0,0,1,.582-.321c.131.022.184.125.194.251a.485.485,0,0,1-.584.433m1.541-.343a.243.243,0,0,1-.137-.3.283.283,0,0,1,.374-.182.238.238,0,0,1,.171.364.278.278,0,0,1-.409.117m1.786-.742a.332.332,0,0,1-.416.283.269.269,0,0,1-.209-.35.338.338,0,0,1,.353-.241.3.3,0,0,1,.272.308M76.522,117.03l.048.073c-.028.008-.062.028-.085.021s-.034-.046-.05-.07l.087-.024m-1.867,1.327a1.069,1.069,0,0,1,.394-.277c.793-.164,1.549-.47,2.366-.556,2.064-.22,2.827.187,4.9,1.381a10.846,10.846,0,0,1,3.483,3.517,9.877,9.877,0,0,1,1.352,3.249,19.828,19.828,0,0,1,.481,2.882c.165,1.819.387,3.632.566,5.45a15.868,15.868,0,0,1-.019,3.649c-.159,1.209-.023,2.44-.268,3.714-.133,1.592-.267,3.251-.415,4.91-.322,3.6-.924,7.171-1.534,10.735-.117.681-.2,1.368-.3,2.051a32.814,32.814,0,0,1-2.894,9.4,4.456,4.456,0,0,1-.906,1.289,8.779,8.779,0,0,1-4.193,2.571,2.7,2.7,0,0,1-.592.1c-.688-.005-1.375-.038-2.063-.051a22.717,22.717,0,0,1-3.838-.643,2.406,2.406,0,0,1-1.626-1.176,8.53,8.53,0,0,1-1.352-4.362,19.387,19.387,0,0,0-.154-2.664.824.824,0,0,1-.01-.243c.3-2.011.015-4.056.336-6.068a6.007,6.007,0,0,0-.024-1.092,3.194,3.194,0,0,1,.111-1.206,5.686,5.686,0,0,0,.232-1.8,21.187,21.187,0,0,1,.223-2.671,50.708,50.708,0,0,0,.468-6.195c.021-.568.062-1.137.128-1.7.376-3.27.75-6.542,1.148-9.811q.377-3.085.827-6.161a17.072,17.072,0,0,1,.492-1.881,20.659,20.659,0,0,1,1.3-3.8c.178-.362.288-.757.431-1.137a3.3,3.3,0,0,1,.946-1.4m-2.784,3.157c.059.013.113.084.154.14.014.019-.008.088-.033.108a.877.877,0,0,1-.661.216c-.057-.008-.1-.09-.154-.138.014-.038.017-.087.044-.11a.729.729,0,0,1,.65-.216m-.285-.613c-.046-.015-.055-.138-.081-.211.081-.38.443-.52.851-.33.1.045.125.111.063.2a.91.91,0,0,1-.833.343m3.5-3.539c-.788.584-1.45,1.186-2.519.744.672-.8,1.546-.74,2.519-.744" transform="translate(5.898 10.724)" fill="#e2a4db"/>
    <path id="Trazado_1255852" data-name="Trazado 1255852" d="M71.006,112.853c.008.037,0,.092.024.107.059.044.141.11.194.1.529-.137.828-.627,1.3-.857s.926-.49,1.381-.75c.05-.028.094-.181.073-.2-.083-.07-.217-.178-.286-.151a9,9,0,0,0-2.661,1.641c-.024.021-.02.074-.028.113" transform="translate(6.556 10.257)" fill="#e2a4db"/>
    <path id="Trazado_1255853" data-name="Trazado 1255853" d="M72.026,113.96c.028.052.121.076.191.1.029.009.076-.017.108-.038.741-.49,1.481-.98,2.219-1.477a.512.512,0,0,0,.132-.194.143.143,0,0,0,0-.108c-.014-.033-.051-.056-.08-.083-.04,0-.088-.012-.12.005a18.081,18.081,0,0,0-2.427,1.589.218.218,0,0,0-.024.209" transform="translate(6.649 10.355)" fill="#e2a4db"/>
    <path id="Trazado_1255854" data-name="Trazado 1255854" d="M71.464,111.147c.046.117.163.21.263.163.647-.3,1.285-.617,1.92-.94a.235.235,0,0,0,.087-.2.194.194,0,0,0-.252-.17,8.883,8.883,0,0,0-2,1.026c-.022.014-.012.075-.017.119" transform="translate(6.598 10.155)" fill="#e2a4db"/>
    <path id="Trazado_1255855" data-name="Trazado 1255855" d="M73.019,108.4a.33.33,0,0,0,.416.145c.267-.084.523-.2.781-.309.153-.063.316-.165.256-.346-.09-.27.142-.449.141-.682,0-.141-.118-.19-.244-.208-.166.017-.369.079-.345.251.076.552-.257.7-.686.774a.47.47,0,0,0-.116.034c-.142.068-.3.14-.2.34" transform="translate(6.739 9.879)" fill="#e2a4db"/>
    <path id="Trazado_1255856" data-name="Trazado 1255856" d="M73.993,114.344a.121.121,0,0,0,.192.075,6.152,6.152,0,0,0,1.467-1.221.109.109,0,0,0-.009-.1c-.064-.036-.152-.093-.205-.073a4.855,4.855,0,0,0-1.265.918,1.235,1.235,0,0,0-.2.261.907.907,0,0,0,.019.143" transform="translate(6.83 10.435)" fill="#e2a4db"/>
    <path id="Trazado_1255857" data-name="Trazado 1255857" d="M76.646,115.006a.557.557,0,0,0,.525-.2,6.855,6.855,0,0,0,.527-.64c.032-.043,0-.143-.025-.212-.007-.024-.06-.035-.1-.052-.342.037-.533.31-.766.512s-.319.561-.166.593" transform="translate(7.07 10.516)" fill="#e2a4db"/>
    <path id="Trazado_1255858" data-name="Trazado 1255858" d="M75.573,114.6c.066.022.168.055.2.024.374-.334.738-.679,1.167-1.079-.553-.214-.8.159-1.09.374a.63.63,0,0,0-.334.582c0,.036.028.091.056.1" transform="translate(6.972 10.477)" fill="#e2a4db"/>
    <path id="Trazado_1255859" data-name="Trazado 1255859" d="M72.643,109.225c-.056.038-.071.134-.1.2.026.069.062.2.08.2a2.55,2.55,0,0,0,1.411-.537c.023-.021.037-.1.022-.111-.05-.054-.118-.13-.177-.129a2.177,2.177,0,0,0-1.231.376" transform="translate(6.697 10.05)" fill="#e2a4db"/>
    <path id="Trazado_1255860" data-name="Trazado 1255860" d="M77.785,115.583a.154.154,0,0,0,.1-.056c.287-.332.577-.664.852-1.006.033-.042,0-.146-.023-.218,0-.017-.081-.039-.1-.025a5.792,5.792,0,0,0-1.126,1c.036.12.037.214.085.262a.344.344,0,0,0,.21.045" transform="translate(7.154 10.551)" fill="#e2a4db"/>
    <path id="Trazado_1255861" data-name="Trazado 1255861" d="M80.726,116.493a1.051,1.051,0,0,0,.888-.671c.019-.044-.059-.128-.123-.253a1.911,1.911,0,0,0-.866.75c-.016.036.073.177.1.174" transform="translate(7.444 10.67)" fill="#e2a4db"/>
    <path id="Trazado_1255862" data-name="Trazado 1255862" d="M78.8,115.523c.062.043.146.11.2.1a1.167,1.167,0,0,0,.7-.622.148.148,0,0,0-.005-.114c-.013-.031-.05-.051-.09-.09a1.63,1.63,0,0,0-.83.62.113.113,0,0,0,.017.109" transform="translate(7.273 10.599)" fill="#e2a4db"/>
    <path id="Trazado_1255863" data-name="Trazado 1255863" d="M83.225,118.129c.074,0,.167.017.218-.019a1.678,1.678,0,0,0,.333-.307.253.253,0,0,0,.033-.22c-.058-.132-.188-.107-.3-.079a.451.451,0,0,0-.344.415.562.562,0,0,0,.06.209" transform="translate(7.678 10.847)" fill="#e2a4db"/>
    <path id="Trazado_1255864" data-name="Trazado 1255864" d="M82.1,117.128c-.046.1-.083.211-.125.317.106.038.224.126.316.1a1.61,1.61,0,0,0,.815-.47.166.166,0,0,0-.184-.265c-.259.073-.512.164-.768.25a.2.2,0,0,0-.055.064" transform="translate(7.569 10.785)" fill="#e2a4db"/>
    <path id="Trazado_1255865" data-name="Trazado 1255865" d="M82.145,117.044l.024-.023-.044.029.02-.007" transform="translate(7.582 10.804)" fill="#e2a4db"/>
    <path id="Trazado_1255866" data-name="Trazado 1255866" d="M79.972,116.042a1.229,1.229,0,0,0,.584-.544.211.211,0,0,0-.045-.2c-.252-.091-.686.309-.7.628.012.1.067.15.156.114" transform="translate(7.369 10.644)" fill="#e2a4db"/>
    <path id="Trazado_1255867" data-name="Trazado 1255867" d="M82.168,117.022l-.044-.008c0,.012,0,.025,0,.038l.045-.031" transform="translate(7.582 10.804)" fill="#e2a4db"/>
    <path id="Trazado_1255868" data-name="Trazado 1255868" d="M82.143,116.333h0v0c0,.013,0,.026,0,.039l.019-.005-.016-.032" transform="translate(7.584 10.741)" fill="#e2a4db"/>
    <path id="Trazado_1255869" data-name="Trazado 1255869" d="M81.763,116.973a1.571,1.571,0,0,0,.411.1q.008-.352.019-.707a1.987,1.987,0,0,0-.423.154c-.226.14-.228.341-.007.452" transform="translate(7.534 10.744)" fill="#e2a4db"/>
    <path id="Trazado_1255870" data-name="Trazado 1255870" d="M84.012,118.807a.4.4,0,0,0,.51-.324c0-.055-.074-.114-.116-.173a.458.458,0,0,0-.49.218.185.185,0,0,0,.1.279" transform="translate(7.745 10.922)" fill="#e2a4db"/>
    <path id="Trazado_1255871" data-name="Trazado 1255871" d="M84.832,119.342a.487.487,0,0,0,.277-.162c.082-.116-.079-.287-.25-.269a.251.251,0,0,0-.244.205c-.008.086.119.247.216.225" transform="translate(7.812 10.979)" fill="#e2a4db"/>
    <path id="Trazado_1255872" data-name="Trazado 1255872" d="M82.25,116.32l-.078.038c.058.04.084.03.078-.038" transform="translate(7.587 10.74)" fill="#e2a4db"/>
    <path id="Trazado_1255873" data-name="Trazado 1255873" d="M82.159,116.365l.015-.008c-.01-.008-.02-.013-.032-.024l.016.032" transform="translate(7.584 10.741)" fill="#e2a4db"/>
    <path id="Trazado_1255874" data-name="Trazado 1255874" d="M39.061,111.286a2.073,2.073,0,0,1-.277-.4,3.564,3.564,0,0,0-1.2-1.176,20.972,20.972,0,0,0-5.3-2.405,9.124,9.124,0,0,0-1.9-.445c-.486-.012-.974-.052-1.458-.028-.811.039-1.619.09-2.433.1a9.332,9.332,0,0,0-3.926.685,3.724,3.724,0,0,1-.47.13,38.307,38.307,0,0,0-5.775,2.278c-.433.222-.85.474-1.273.714s-.832.653-1.268.684c-.642.045-.676.665-1.1.86-.073.033-.134.108-.209.122a4.035,4.035,0,0,0-1.424.9c-.866.6-1.7,1.237-2.527,1.89a14.265,14.265,0,0,0-2.215,2.73,6.4,6.4,0,0,0-.871,1.315,32.812,32.812,0,0,0-1.131,3.213,9.764,9.764,0,0,0-.2,2.17,16.8,16.8,0,0,0,.038,2.918,14.737,14.737,0,0,0,1.836,5.517A13,13,0,0,0,9.7,137.332a2.092,2.092,0,0,0,1.224.469,5.148,5.148,0,0,0,2.7-.537c.607-.333,1.148-.771,1.743-1.108a54.457,54.457,0,0,0,5.771-3.848c1.527-1.144,3.078-2.256,4.559-3.459.5-.409.935-.9,1.444-1.3,1.659-1.3,3.379-2.536,5-3.889a43.333,43.333,0,0,0,3.637-3.017c1.178-1.221,2.491-2.315,3.622-3.587a3.521,3.521,0,0,0,.89-2.785,4.921,4.921,0,0,0-1.234-2.979m-4.789-2.1a.863.863,0,0,1-.151.091c-.017.007-.081-.051-.078-.058a1.457,1.457,0,0,1,.1-.161l.128.128M33,108.22a.434.434,0,0,1,.377.5.392.392,0,0,1-.387.37c-.227.021-.393-.218-.358-.511.043-.188.122-.366.368-.36m-1.087-.436a.349.349,0,0,1,.356.252.656.656,0,0,1-.245.732.431.431,0,0,1-.545.014.416.416,0,0,1-.161-.519c.107-.259.258-.494.594-.48m-1.275-.324a.491.491,0,0,1,.391.517.879.879,0,0,1-.69.725c-.248,0-.549-.405-.518-.7a.792.792,0,0,1,.817-.54m-1.8.166a.4.4,0,0,1,.451,0c.137.093.264.21.246.382a1.128,1.128,0,0,1-.149.445.461.461,0,0,1-.6.249.475.475,0,0,1-.284-.524.677.677,0,0,1,.338-.555m-2.414.115a.946.946,0,0,1,.575-.087.454.454,0,0,1,.407.607.814.814,0,0,1-.585.555.607.607,0,0,1-.764-.4.574.574,0,0,1,.367-.674m-1.471-.034a.386.386,0,0,1,.326.319.946.946,0,0,1-.519.993.721.721,0,0,1-.235.014.845.845,0,0,1-.211-.113c-.2-.193-.2-.454-.02-.779.144-.262.328-.473.659-.435m-2.236.554a1.1,1.1,0,0,1,.308-.08.389.389,0,0,1,.292.387,1.171,1.171,0,0,1-.625.982.563.563,0,0,1-.581,0c-.217-.152-.092-.359.007-.535a1.81,1.81,0,0,1,.6-.753m-1.758.847c.242.059.271.248.246.461a.622.622,0,0,1-.4.541.715.715,0,0,1-.448.048c-.167-.056-.135-.253-.126-.462a1.989,1.989,0,0,1,.116-.4c.132-.264.378-.242.614-.185m-1.693.3c.194.047.223.206.22.37,0,.2-.017.4-.037.6a.514.514,0,0,1-.252.388c-.169.109-.352.222-.546.082-.138-.1-.164-.264-.123-.577a4.135,4.135,0,0,1,.227-.649.433.433,0,0,1,.512-.213m-1.7.676c.287.167.226.481.265.745a.742.742,0,0,1-.509.842c-.264.121-.488,0-.487-.289,0-.119.005-.237.008-.333.035-.139.061-.256.1-.37.109-.375.446-.7.628-.594m-1.692.784c.059-.014.192.046.2.085a1.854,1.854,0,0,1-.2,1.474.425.425,0,0,1-.3.132c-.134,0-.189-.129-.181-.249.011-.2.046-.393.08-.666a3.949,3.949,0,0,1,.125-.615c.027-.08.18-.134.285-.161m-1.549.99a.22.22,0,0,1,.26.179,1.714,1.714,0,0,1-.059,1.285.423.423,0,0,1-.4.224c-.205,0-.235-.169-.24-.334a2.2,2.2,0,0,1,0-.24c.009-.159.024-.319.047-.611a1.052,1.052,0,0,1,.1-.329.461.461,0,0,1,.292-.174M12.687,112.9a.56.56,0,0,1,.338-.044c.051.008.123.115.126.179.01.281,0,.563-.011,1.055a.718.718,0,0,1-.037.261.437.437,0,0,1-.36.288c-.192.033-.294-.1-.307-.277-.025-.32-.046-.642-.043-.962a.581.581,0,0,1,.295-.5m-1.327.982c.106-.058.282.021.274.134a1.27,1.27,0,0,0,.312,1.086c.084.084,0,.235-.1.308-.192.139-.4.263-.7.463a9.333,9.333,0,0,0-.3-1.057c-.167-.391.025-.666.516-.934M10.1,116.667c-.025-.052-.073-.106-.07-.156a.481.481,0,0,1,.057-.164.451.451,0,0,1,.09.166c.007.047-.049.1-.076.154M10.144,115a1.07,1.07,0,0,1-.051,1.292,1.025,1.025,0,0,1-.061-1.312.14.14,0,0,1,.113.02m-1.093.872a4.645,4.645,0,0,1,.072,2.039,1.157,1.157,0,0,1-.312.5.153.153,0,0,1-.273-.059,10.835,10.835,0,0,1-.261-1.791c0-.381.326-.63.774-.687m-1.336,2.107c.092.469.182.937.247,1.41a.357.357,0,0,1-.14.3c-.115.061-.2-.061-.237-.173a10.362,10.362,0,0,1-.224-1.741c.268,0,.332.1.354.208m-1.467,2.285c.008-.429-.057-.883.471-1.2.22.813.648,1.57.156,2.414a.471.471,0,0,1-.152.179c-.056.031-.191.034-.205.005a2.986,2.986,0,0,1-.27-1.4m-.571,1.978c-.052-.114-.048-.263.1-.271a.316.316,0,0,1,.234.2c.055.293.306.578.076.892-.142-.271-.285-.544-.414-.823m.109,2.566a2.818,2.818,0,0,1-.557-1.312c-.01-.057.062-.153.122-.19s.186-.055.217-.021a2.26,2.26,0,0,1,.489,1.432c0,.042-.106.092-.163.139-.037-.016-.087-.021-.109-.048m.308-1.735.075-.016-.067.034-.009-.017m-.507,3.883c-.026.008-.073-.032-.1-.06a1.357,1.357,0,0,1-.224-1.25.235.235,0,0,1,.147-.152.334.334,0,0,1,.217.064c.368.245.354.594.185,1.2.043-.123.017,0-.042.1-.029.051-.118.076-.185.094m.072,1.434c.363.438.363.438.433,1.345a1.473,1.473,0,0,1-.433-1.345m29.173-8.509c-2.033,1.869-4.227,3.548-6.363,5.3-1.477,1.209-2.972,2.394-4.409,3.657s-3,2.365-4.5,3.541c-.576.45-1.157.895-1.714,1.368a9.086,9.086,0,0,1-1.621,1.077,15,15,0,0,0-2.11,1.188,16.938,16.938,0,0,1-1.734.855,1.515,1.515,0,0,1-1.621-.056,3.541,3.541,0,0,1-1.144-.887,1.8,1.8,0,0,0-.336-.352,8.127,8.127,0,0,1-2.5-5.013,4.575,4.575,0,0,0-.115-.59,7.635,7.635,0,0,1-.2-3.725c.024-.159.04-.321.061-.482a21.034,21.034,0,0,1,.83-4.161c.118-.4.466-.634.653-1a8.263,8.263,0,0,1,1.6-2.27,21.17,21.17,0,0,0,1.557-1.851,2.965,2.965,0,0,1,.937-.753,12.506,12.506,0,0,0,1.63-1.061,13.652,13.652,0,0,1,2.927-1.717,3.551,3.551,0,0,0,.647-.342,24.151,24.151,0,0,1,3.408-1.589,9.226,9.226,0,0,1,2.906-.861,4.947,4.947,0,0,0,1.065-.248,17.422,17.422,0,0,1,5.174-.622,15.6,15.6,0,0,1,5.613.968,5.354,5.354,0,0,1,3.235,3.114,4.127,4.127,0,0,1-.553,3.131,27.873,27.873,0,0,1-3.323,3.384" transform="translate(0.373 9.863)" fill="#e2a4db"/>
    <path id="Trazado_1255875" data-name="Trazado 1255875" d="M58.991,100.907c.016.029.064.042.1.061.034,0,.075.015.1,0s.075-.059.075-.088a1.327,1.327,0,0,0-.035-.464c-.346-.853-.712-1.7-1.068-2.547-.039-.1-.093-.132-.19-.1a.232.232,0,0,0-.178.265,10.9,10.9,0,0,0,1.2,2.87" transform="translate(5.335 9.026)" fill="#e2a4db"/>
    <path id="Trazado_1255876" data-name="Trazado 1255876" d="M59.784,96.586A11.68,11.68,0,0,0,61.4,99.3a13.274,13.274,0,0,0-1.47-3.326.513.513,0,0,0-.15.616" transform="translate(5.516 8.861)" fill="#e2a4db"/>
    <path id="Trazado_1255877" data-name="Trazado 1255877" d="M57.8,101.894c.256-.169.25-.3.232-.415a6.941,6.941,0,0,0-.883-2.469.239.239,0,0,0-.182-.109.2.2,0,0,0-.169.255,16.106,16.106,0,0,0,1,2.738" transform="translate(5.243 9.131)" fill="#e2a4db"/>
    <path id="Trazado_1255878" data-name="Trazado 1255878" d="M55.239,102.565a.208.208,0,0,0,.313.025.4.4,0,0,0,.094-.312c-.147-.494-.32-.981-.488-1.468a.61.61,0,0,0-.121-.2.245.245,0,0,0-.317-.064c-.063.036-.1.113-.177.2a2.668,2.668,0,0,0,.7,1.824" transform="translate(5.036 9.28)" fill="#e2a4db"/>
    <path id="Trazado_1255879" data-name="Trazado 1255879" d="M58.809,97.254a17.41,17.41,0,0,0,1.1,2.569.2.2,0,0,0,.192.037.245.245,0,0,0,.056-.211q-.526-1.294-1.078-2.581c-.014-.033-.132-.028-.2-.024-.023,0-.043.058-.063.09a.347.347,0,0,0,0,.12" transform="translate(5.429 8.96)" fill="#e2a4db"/>
    <path id="Trazado_1255880" data-name="Trazado 1255880" d="M52.867,104.2c.028.058.126.082.191.121.039-.007.092,0,.116-.023.054-.052.146-.138.133-.176q-.313-.845-.658-1.677a.222.222,0,0,0-.208-.043.256.256,0,0,0-.1.2,4.167,4.167,0,0,0,.528,1.6" transform="translate(4.832 9.453)" fill="#e2a4db"/>
    <path id="Trazado_1255881" data-name="Trazado 1255881" d="M54.233,103.22a.236.236,0,0,0,.2-.249,2,2,0,0,0-.79-1.409.144.144,0,0,0-.11-.029c-.062.026-.171.094-.166.106.21.506.426,1.009.656,1.506.022.048.138.051.208.075" transform="translate(4.927 9.374)" fill="#e2a4db"/>
    <path id="Trazado_1255882" data-name="Trazado 1255882" d="M55.732,99.887c.229.679.474,1.353.719,2.028.008.022.072.023.11.034.045-.054.131-.109.128-.161a5.745,5.745,0,0,0-.632-2.045c-.027-.06-.128-.135-.181-.127a.2.2,0,0,0-.143.27" transform="translate(5.145 9.197)" fill="#e2a4db"/>
    <path id="Trazado_1255883" data-name="Trazado 1255883" d="M51.459,104.646a.264.264,0,0,0,.047.108c.067.1.153.217.277.168a.377.377,0,0,0,.209-.241,1.511,1.511,0,0,0-.481-1.4c-.044-.039-.138-.022-.387-.054a2.756,2.756,0,0,1,.334,1.415" transform="translate(4.72 9.531)" fill="#e2a4db"/>
    <path id="Trazado_1255884" data-name="Trazado 1255884" d="M49.71,105.878a.234.234,0,0,0,.389-.04.779.779,0,0,0-.276-.958.255.255,0,0,0-.323.093,1.336,1.336,0,0,0,.211.906" transform="translate(4.57 9.681)" fill="#e2a4db"/>
    <path id="Trazado_1255885" data-name="Trazado 1255885" d="M61.694,97.082l-.068-.064c.013.028.025.059.038.087Z" transform="translate(5.69 8.957)" fill="#e2a4db"/>
    <path id="Trazado_1255886" data-name="Trazado 1255886" d="M61.707,97.206a6.847,6.847,0,0,0-.473-.993c-.214-.328-.236-.732-.483-1.245a2.611,2.611,0,0,0,.956,2.238" transform="translate(5.609 8.768)" fill="#e2a4db"/>
    <path id="Trazado_1255887" data-name="Trazado 1255887" d="M50.772,105.02a.685.685,0,0,0,.23.033c.055-.052.163-.122.152-.153a1.806,1.806,0,0,0-.626-.953c-.032-.023-.181.038-.191.081a.846.846,0,0,0,.435.992" transform="translate(4.645 9.597)" fill="#e2a4db"/>
    <path id="Trazado_1255888" data-name="Trazado 1255888" d="M63.05,97.567c.084-.023.1-.1.031-.166-.1-.09-.144-.249-.3-.277.057.127.113.253.175.377.016.031.067.073.091.067" transform="translate(5.797 8.967)" fill="#e2a4db"/>
    <path id="Trazado_1255889" data-name="Trazado 1255889" d="M62.789,97.127c-.005-.013-.012-.026-.019-.039l-.025.028a.183.183,0,0,1,.044.011" transform="translate(5.793 8.964)" fill="#e2a4db"/>
    <path id="Trazado_1255890" data-name="Trazado 1255890" d="M62.607,96.206l-.675-.431c.226.142.382.394.675.431" transform="translate(5.718 8.843)" fill="#e2a4db"/>
    <path id="Trazado_1255891" data-name="Trazado 1255891" d="M62.554,96.172h0l0,0" transform="translate(5.775 8.879)" fill="#e2a4db"/>
    <path id="Trazado_1255892" data-name="Trazado 1255892" d="M61.933,95.776l-.015-.012v0l.016.01" transform="translate(5.717 8.842)" fill="#e2a4db"/>
    <path id="Trazado_1255893" data-name="Trazado 1255893" d="M61.689,97.078l-.028.022.023.029.005-.051" transform="translate(5.693 8.963)" fill="#e2a4db"/>
    <path id="Trazado_1255894" data-name="Trazado 1255894" d="M62.145,97.7h0Z" transform="translate(5.738 9.021)" fill="#e2a4db"/>
    <path id="Trazado_1255895" data-name="Trazado 1255895" d="M62.188,97.755l-.5-.63c-.054.51-.012.552.5.63" transform="translate(5.694 8.967)" fill="#e2a4db"/>
    <path id="Trazado_1255896" data-name="Trazado 1255896" d="M61.609,94.528l.12.068c0-.067.014-.149-.12-.068" transform="translate(5.688 8.724)" fill="#e2a4db"/>
    <path id="Trazado_1255897" data-name="Trazado 1255897" d="M61.724,94.633l.032-.025-.037-.022a.124.124,0,0,0,.005.047" transform="translate(5.698 8.733)" fill="#e2a4db"/>
    <path id="Trazado_1255898" data-name="Trazado 1255898" d="M61.938,95.047l-.189-.369a.339.339,0,0,0,.189.369" transform="translate(5.701 8.741)" fill="#e2a4db"/>
    <path id="Trazado_1255899" data-name="Trazado 1255899" d="M61.755,94.607l-.031.024c.009.019.017.036.027.054,0-.026,0-.05,0-.078" transform="translate(5.699 8.735)" fill="#e2a4db"/>
    <path id="Trazado_1255900" data-name="Trazado 1255900" d="M61.971,95.047h0l0,0a.294.294,0,0,1-.052-.027l.028.055.021-.024" transform="translate(5.717 8.773)" fill="#e2a4db"/>
    <path id="Trazado_1255901" data-name="Trazado 1255901" d="M61.966,95.113q-.026.357-.049.711a1.219,1.219,0,0,0,.049-.711" transform="translate(5.717 8.782)" fill="#e2a4db"/>
    <path id="Trazado_1255902" data-name="Trazado 1255902" d="M61.917,95.764h0" transform="translate(5.717 8.842)" fill="#e2a4db"/>
    <path id="Trazado_1255903" data-name="Trazado 1255903" d="M61.948,95.067c.009.017.009.035.016.052,0-.025,0-.05,0-.076l-.021.024" transform="translate(5.719 8.775)" fill="#e2a4db"/>
    <path id="Trazado_1255904" data-name="Trazado 1255904" d="M62.412,96.9c.162-.217.109-.481.155-.723h0q-.079.36-.155.723" transform="translate(5.762 8.879)" fill="#e2a4db"/>
    <path id="Trazado_1255905" data-name="Trazado 1255905" d="M62.408,96.854h0l0,0Z" transform="translate(5.762 8.942)" fill="#e2a4db"/>
    <path id="Trazado_1255906" data-name="Trazado 1255906" d="M62.409,96.851l0-.016-.008.014,0,0" transform="translate(5.762 8.941)" fill="#e2a4db"/>
    <path id="Trazado_1255907" data-name="Trazado 1255907" d="M62.151,98.336c0-.211,0-.422,0-.632-.063.213-.215.429,0,.632" transform="translate(5.728 9.021)" fill="#e2a4db"/>
    <path id="Trazado_1255908" data-name="Trazado 1255908" d="M62.145,97.7h0v0" transform="translate(5.738 9.021)" fill="#e2a4db"/>
    <path id="Trazado_1255909" data-name="Trazado 1255909" d="M62.17,98.311c-.012-.01-.017-.019-.028-.028v.05Z" transform="translate(5.737 9.074)" fill="#e2a4db"/>
    <path id="Trazado_1255910" data-name="Trazado 1255910" d="M62.773,97.091l-.058-.038a.262.262,0,0,1,.033.066l.025-.027" transform="translate(5.79 8.961)" fill="#e2a4db"/>
    <path id="Trazado_1255911" data-name="Trazado 1255911" d="M62.408,96.852l0,0,.333.217c-.071-.127-.221-.152-.335-.222l0,0,0,0" transform="translate(5.762 8.942)" fill="#e2a4db"/>
    <path id="Trazado_1255912" data-name="Trazado 1255912" d="M62.177,98.413c.008.015.072.024.073.021.027-.066,0-.1-.083-.1a.2.2,0,0,0,.01.082" transform="translate(5.74 9.079)" fill="#e2a4db"/>
    <path id="Trazado_1255913" data-name="Trazado 1255913" d="M62.17,98.309l-.028.022.028,0v-.024" transform="translate(5.737 9.077)" fill="#e2a4db"/>
    <path id="Trazado_1255914" data-name="Trazado 1255914" d="M72.159,59.4c.02.025.039.049.058.074l0-.013a.225.225,0,0,0-.056-.061" transform="translate(6.662 5.484)" fill="#e2a4db"/>
    <path id="Trazado_1255915" data-name="Trazado 1255915" d="M72.232,59.557l.034-.025-.054-.068a.637.637,0,0,1,.02.093" transform="translate(6.667 5.49)" fill="#e2a4db"/>
    <path id="Trazado_1255916" data-name="Trazado 1255916" d="M107.515,31.061c.487.932.983,1.859,1.48,2.785.07.131.141.289.374.194A3.06,3.06,0,0,0,109,32.312a10.723,10.723,0,0,1-.649-1.3,1.558,1.558,0,0,0-1.011-.94c-.178.37.014.684.176.993" transform="translate(9.904 2.776)" fill="#e2a4db"/>
    <path id="Trazado_1255917" data-name="Trazado 1255917" d="M107.319,30.064l.015.007c.007-.012.009-.023.015-.035h0l-.031.029" transform="translate(9.908 2.773)" fill="#e2a4db"/>
    <path id="Trazado_1255918" data-name="Trazado 1255918" d="M106.96,31.939a.368.368,0,0,0-.229-.034.238.238,0,0,0-.169.272,1.166,1.166,0,0,0,.078.351,19.184,19.184,0,0,0,1.666,3.187c.014.023.069.019.1.026.025-.032.073-.064.071-.094a7.765,7.765,0,0,0-1.341-3.554.435.435,0,0,0-.178-.154" transform="translate(9.838 2.945)" fill="#e2a4db"/>
    <path id="Trazado_1255919" data-name="Trazado 1255919" d="M109,29.293a.85.85,0,0,0-.288-.216.253.253,0,0,0-.33.007.286.286,0,0,0-.07.329,12.72,12.72,0,0,0,1.768,3.018A4.858,4.858,0,0,0,109,29.293" transform="translate(9.998 2.679)" fill="#e2a4db"/>
    <path id="Trazado_1255920" data-name="Trazado 1255920" d="M105.9,33.481a.2.2,0,0,0-.143.273,14.019,14.019,0,0,0,1.052,2.423c.2.334.279.76.818,1.048a8.233,8.233,0,0,0-1.528-3.645.246.246,0,0,0-.2-.1" transform="translate(9.763 3.091)" fill="#e2a4db"/>
    <path id="Trazado_1255921" data-name="Trazado 1255921" d="M106.394,37.606h0c-.014-.007-.029-.012-.045-.017l.01.036.032-.017" transform="translate(9.819 3.47)" fill="#e2a4db"/>
    <path id="Trazado_1255922" data-name="Trazado 1255922" d="M106.473,37.817a6.452,6.452,0,0,0-1.024-2.533c-.092-.109-.174-.3-.412-.087a12.514,12.514,0,0,0,1.173,2.488c.044.071.163.1.262.132" transform="translate(9.698 3.241)" fill="#e2a4db"/>
    <path id="Trazado_1255923" data-name="Trazado 1255923" d="M104.992,40.205c-.189-.321-.378-.642-.678-1.15a1.059,1.059,0,0,0,.678,1.15" transform="translate(9.631 3.606)" fill="#e2a4db"/>
    <path id="Trazado_1255924" data-name="Trazado 1255924" d="M104.948,37.656c0,.016.005.031.005.047l.025-.017-.031-.029" transform="translate(9.69 3.477)" fill="#e2a4db"/>
    <path id="Trazado_1255925" data-name="Trazado 1255925" d="M104.991,37.769a2.8,2.8,0,0,0-.512-1.336c.007.839.01.861.512,1.336" transform="translate(9.646 3.364)" fill="#e2a4db"/>
    <path id="Trazado_1255926" data-name="Trazado 1255926" d="M105.26,38.462l-.015-.022a.47.47,0,0,1-.021.049Z" transform="translate(9.715 3.549)" fill="#e2a4db"/>
    <path id="Trazado_1255927" data-name="Trazado 1255927" d="M104.953,37.7l.019.016a.185.185,0,0,1,.007-.034l-.025.017" transform="translate(9.69 3.479)" fill="#e2a4db"/>
    <path id="Trazado_1255928" data-name="Trazado 1255928" d="M104.971,37.715c-.084.331.131.554.3.793.153-.352-.052-.58-.3-.793" transform="translate(9.69 3.482)" fill="#e2a4db"/>
    <path id="Trazado_1255929" data-name="Trazado 1255929" d="M105.5,38.666a.123.123,0,0,0-.005-.1.178.178,0,0,0-.227-.09,1.857,1.857,0,0,0,.081.178c.047.083.108.087.152.013" transform="translate(9.719 3.551)" fill="#e2a4db"/>
    <path id="Trazado_1255930" data-name="Trazado 1255930" d="M105.262,38.459l-.038.029a.408.408,0,0,1,.046-.012l-.008-.017" transform="translate(9.715 3.551)" fill="#e2a4db"/>
    <path id="Trazado_1255931" data-name="Trazado 1255931" d="M106.366,37.886c.008.007.076-.038.074-.048a1.906,1.906,0,0,0-.069-.206c-.078.078-.118.159-.005.255" transform="translate(9.814 3.474)" fill="#e2a4db"/>
    <path id="Trazado_1255932" data-name="Trazado 1255932" d="M106.361,37.621l0,.011.027-.028h0l-.032.017" transform="translate(9.82 3.472)" fill="#e2a4db"/>
    <path id="Trazado_1255933" data-name="Trazado 1255933" d="M112.2,29.521l-.023-.036-.047.052Z" transform="translate(10.353 2.722)" fill="#e2a4db"/>
    <path id="Trazado_1255934" data-name="Trazado 1255934" d="M71.275,84.83a2.933,2.933,0,0,0,3.5.246.54.54,0,0,1,.114-.042A4.638,4.638,0,0,0,77.5,82.488a3.834,3.834,0,0,0,.04-3.27,3.176,3.176,0,0,0-.71-1.092,5.078,5.078,0,0,0-2.77-1.394A3.508,3.508,0,0,0,71,77.518a5.773,5.773,0,0,0-1.672,3.423,3.947,3.947,0,0,0,1.951,3.889M70.12,82.967c-.072.014-.035-.007,0,0m.118.12c.005.028,0,.051,0,0m.413-.016h0c0,.017,0,.034,0,.05,0-.016,0-.034-.005-.05m4.965.828a.226.226,0,0,1-.237.147.331.331,0,0,1,.237-.147m-.293.189a.2.2,0,0,1-.248.193.329.329,0,0,1,.248-.193m-.619.19a.917.917,0,0,1,.328.025.486.486,0,0,1-.274.343,5.268,5.268,0,0,1-.56.218c-1.446.514-2.145.3-3.143-.979a5.139,5.139,0,0,0,3.649.392m1.216-4.371a.592.592,0,0,1,.448-.091c.22.078.218.312.2.52-.01.121-.029.241-.045.363a3.746,3.746,0,0,1-2.594,3.079,2.011,2.011,0,0,1-2.156-.386.346.346,0,0,1-.016-.534,4.087,4.087,0,0,1,.36-.326,44.749,44.749,0,0,1,3.8-2.626m-.7-1.5a.809.809,0,0,1,.446-.138.709.709,0,0,1,.381.263.335.335,0,0,1-.058.439,1.3,1.3,0,0,1-.281.228,38.461,38.461,0,0,0-4.152,3.147.824.824,0,0,1-.3.191.287.287,0,0,1-.384-.189.689.689,0,0,1,.365-.919c1.328-.6,2.178-1.775,3.281-2.642.044-.035.05-.115.066-.186a1.11,1.11,0,0,0,.64-.2m-3.184-.455a2.76,2.76,0,0,0,.653-.318,1.7,1.7,0,0,1,1.512-.11c.875.275.9.309.356,1.054a10.059,10.059,0,0,0-2.209,1.4c-.437.292-.844.627-1.264.944-.133.1-.3.194-.431.082a.63.63,0,0,1-.181-.428,2.642,2.642,0,0,1,1.564-2.62" transform="translate(6.398 7.078)" fill="#752092"/>
    <path id="Trazado_1255935" data-name="Trazado 1255935" d="M83.181,88.024c-.008.008-.062.049-.062.049l.069-.034,0-.017,0,0" transform="translate(7.674 8.127)" fill="#e2a4db"/>
    <path id="Trazado_1255936" data-name="Trazado 1255936" d="M81.558,91.871h0l.019.04Z" transform="translate(7.53 8.482)" fill="#e2a4db"/>
    <path id="Trazado_1255937" data-name="Trazado 1255937" d="M81.563,91.872l-.1-.011.087.04.01-.029" transform="translate(7.522 8.481)" fill="#e2a4db"/>
    <path id="Trazado_1255938" data-name="Trazado 1255938" d="M81.193,91.738l.062.028a.243.243,0,0,1-.037-.048l-.012.01-.012.009h0" transform="translate(7.496 8.468)" fill="#e2a4db"/>
    <path id="Trazado_1255939" data-name="Trazado 1255939" d="M81.574,91.91Z" transform="translate(7.532 8.486)" fill="#e2a4db"/>
    <path id="Trazado_1255940" data-name="Trazado 1255940" d="M81.487,91.87l-.236-.108a.316.316,0,0,0,.236.108" transform="translate(7.502 8.472)" fill="#e2a4db"/>
    <path id="Trazado_1255941" data-name="Trazado 1255941" d="M81.549,91.9l-.044-.014c.008.071.022.073.044.014" transform="translate(7.525 8.484)" fill="#e2a4db"/>
    <path id="Trazado_1255942" data-name="Trazado 1255942" d="M81.545,91.9l.032.011v0l-.02-.042h0a.31.31,0,0,1-.01.029v0" transform="translate(7.529 8.482)" fill="#e2a4db"/>
    <path id="Trazado_1255943" data-name="Trazado 1255943" d="M78.827,94.6c.073-.025.062-.04-.029-.032h0l-.031-.012c.022.015.05.05.064.045" transform="translate(7.272 8.73)" fill="#e2a4db"/>
  </g>
</svg>
