<svg xmlns="http://www.w3.org/2000/svg" xmlns:xlink="http://www.w3.org/1999/xlink" width="84" height="84" viewBox="0 0 84 84">
  <defs>
    <clipPath id="clip-path">
      <rect id="Rectángulo_455175" data-name="Rectángulo 455175" width="56.547" height="65.384" fill="#752092"/>
    </clipPath>
  </defs>
  <g id="Grupo_1210321" data-name="Grupo 1210321" transform="translate(-184.63 -331)">
    <g id="Grupo_1210320" data-name="Grupo 1210320">
      <g id="Grupo_1177230" data-name="Grupo 1177230" transform="translate(-521.37 -1347.92)">
        <g id="Grupo_1119665" data-name="Grupo 1119665" transform="translate(534.111 -3840.08)">
          <rect id="Rectángulo_402006" data-name="Rectángulo 402006" width="84" height="84" rx="5" transform="translate(171.889 5519)" fill="#cdbfdc"/>
        </g>
      </g>
    </g>
    <g id="Grupo_1204068" data-name="Grupo 1204068" transform="translate(198.63 340)">
      <g id="Grupo_1204067" data-name="Grupo 1204067" transform="translate(0 0)" clip-path="url(#clip-path)">
        <path id="Trazado_1261665" data-name="Trazado 1261665" d="M32.694,46.616a1.019,1.019,0,0,0-1.214.785,31.478,31.478,0,0,0-.628,4.443,1.021,1.021,0,0,0,1.019,1.093c.322,0,.447.11.8.457a2.908,2.908,0,0,0,4.474,0c.35-.347.476-.457.8-.457s.447.11.8.457a2.909,2.909,0,0,0,4.475,0c.349-.347.475-.457.8-.457s.45.11.8.458a2.915,2.915,0,0,0,4.479,0c.35-.348.477-.458.8-.458a1.023,1.023,0,0,0,1.017-1.114,37.056,37.056,0,0,0-4.382-14.268,19.492,19.492,0,0,0,2.6-10.607,1.973,1.973,0,0,0-.654-1.409A6.59,6.59,0,0,0,45.8,24V20.057a1.021,1.021,0,1,0-2.043,0V23.93a5.933,5.933,0,0,0-2.739,1.286,5.934,5.934,0,0,0-2.739-1.283V20.056a1.022,1.022,0,0,0-2.044,0V24a6.631,6.631,0,0,0-2.879,1.524A1.947,1.947,0,0,0,32.694,27a21.787,21.787,0,0,0,2.588,10.525A39.607,39.607,0,0,0,33.1,42.1a1.021,1.021,0,0,0,1.9.756,37.732,37.732,0,0,1,2.051-4.307h7.9a35.215,35.215,0,0,1,4.028,12.566,3.606,3.606,0,0,0-1.129.831c-.35.349-.477.458-.8.458s-.451-.11-.8-.458a2.911,2.911,0,0,0-4.476,0c-.35.347-.476.457-.8.457s-.447-.11-.8-.457a2.909,2.909,0,0,0-4.475,0c-.349.347-.475.457-.8.457s-.449-.11-.8-.457a3.588,3.588,0,0,0-1.143-.838,29.524,29.524,0,0,1,.513-3.277,1.021,1.021,0,0,0-.784-1.214M37.043,36.5a20.067,20.067,0,0,1-2.33-9.452c1.06-.939,3.2-2.157,5.579.259a1.056,1.056,0,0,0,1.454,0c2.37-2.4,4.485-1.215,5.543-.274a17.5,17.5,0,0,1-2.3,9.468Z" transform="translate(-11.049 -6.818)" fill="#752092"/>
        <path id="Trazado_1261666" data-name="Trazado 1261666" d="M17.035,79.875H2.043V47.182a1.021,1.021,0,1,0-2.043,0V80.9a1.02,1.02,0,0,0,1.021,1.021H17.035a1.021,1.021,0,1,0,0-2.043" transform="translate(0 -16.533)" fill="#752092"/>
        <path id="Trazado_1261667" data-name="Trazado 1261667" d="M56.479,12.914a.971.971,0,0,0-.034-.094,1.04,1.04,0,0,0-.2-.3L44.006.3a1.009,1.009,0,0,0-.291-.2c-.034-.015-.069-.024-.1-.037a.992.992,0,0,0-.255-.051C43.33.012,43.309,0,43.283,0H6.559A1.02,1.02,0,0,0,5.538,1.022v4.52H1.021A1.021,1.021,0,0,0,0,6.564V25.541a1.021,1.021,0,0,0,2.043,0V7.586h3.5V58.821a1.02,1.02,0,0,0,1.021,1.022h42.4v3.5H21.122a1.022,1.022,0,1,0,0,2.044H49.979A1.021,1.021,0,0,0,51,64.362v-4.52h4.525a1.021,1.021,0,0,0,1.022-1.022V29.627a1.022,1.022,0,1,0-2.044,0V41.644L38.348,57.8H7.581V20.329l7.348-7.348a1.021,1.021,0,0,0-1.445-1.444l-5.9,5.9V6.583c0-.007,0-.013,0-.019s0-.013,0-.019v-4.5h15.4L17.334,7.686A1.021,1.021,0,1,0,18.779,9.13l7.089-7.087H42.262V13.249a1.021,1.021,0,0,0,1.022,1.022H54.5V25.54a1.022,1.022,0,1,0,2.044,0V13.249c0-.022-.012-.04-.012-.062a1.045,1.045,0,0,0-.055-.273M54.5,44.534V57.8H49.989s-.006,0-.01,0-.006,0-.01,0H41.237ZM44.3,12.227V3.486l8.751,8.741Z" transform="translate(0 0)" fill="#752092"/>
      </g>
    </g>
  </g>
</svg>
