<svg xmlns="http://www.w3.org/2000/svg" xmlns:xlink="http://www.w3.org/1999/xlink" width="331.61" height="309.956" viewBox="0 0 331.61 309.956">
  <defs>
    <clipPath id="clip-path">
      <rect id="Rectángulo_458291" data-name="Rectángulo 458291" width="233.336" height="305.199" fill="none"/>
    </clipPath>
  </defs>
  <g id="Grupo_1210318" data-name="Grupo 1210318" transform="translate(-273.58 -5694.974)">
    <path id="Trazado_1264185" data-name="Trazado 1264185" d="M295.495,257.115c39.345-42.342,28.2-93.069,6.42-140.982-11.124-24.468-18.358-49.506-28.1-74.306C269.329,30.4,263.39,19.213,254.256,11.006,228.143-12.448,194.31,7,168.1,19.452,127.293,41.647,78.288,54.228,42.529,84.7,14.922,108.231-10.134,151.761,4.138,188.672,11.2,206.923,27.151,220.6,44.8,229.062c31.893,15.289,68.964,18.046,102.27,29.7,24.011,8.4,45.747,28.949,71.592,31.574,27.26,2.768,57.744-13.087,76-32.334Q295.08,257.56,295.495,257.115Z" transform="matrix(0.999, -0.035, 0.035, 0.999, 273.58, 5714.453)" fill="#f3f9ff" opacity="0.54"/>
    <g id="Grupo_1210308" data-name="Grupo 1210308" transform="translate(326.711 5694.974)">
      <g id="Grupo_1210307" data-name="Grupo 1210307" clip-path="url(#clip-path)">
        <path id="Trazado_1264135" data-name="Trazado 1264135" d="M9.686,147.714c39.536-4.382,124.646-1.269,159.769-7.045C176.409,90.784,159.087,36.7,153.049,1.5,96.16.3,79.963-3.249,0,7.862,7.2,45.059,3.883,112.6,9.686,147.714" transform="translate(0 0)" fill="#fff" fill-rule="evenodd"/>
        <path id="Trazado_1264136" data-name="Trazado 1264136" d="M11.772,145.351c10.839-1.1,21.908-1.521,32.774-1.86,14.186-.442,28.384-.633,42.576-.855,15.431-.242,30.882-.477,46.3-1.11,6.633-.273,13.27-.619,19.887-1.15,4.752-.38,9.546-.846,14.269-1.56a184.181,184.181,0,0,0,1.287-28.607c-.555-19.659-3.669-39.229-7.547-58.479-1.782-8.851-3.741-17.662-5.667-26.483-1.547-7.09-3.092-14.208-4.367-21.355C133.861,3.49,116.42,2.652,99,2.463,85.5,2.316,72.14,2.732,58.67,3.728,40.022,5.1,21.379,7.391,2.853,9.943A274.224,274.224,0,0,1,6.1,39.217C6.93,51.452,7.354,63.726,7.736,75.981c.409,13.035.733,26.082,1.39,39.106.5,10,1.141,20.324,2.646,30.265" transform="translate(-0.167 -0.142)" fill="#ffdb59" fill-rule="evenodd"/>
        <path id="Trazado_1264137" data-name="Trazado 1264137" d="M9.86,127.455a151.9,151.9,0,0,0,30.587,3.082c58.809,0,108.084-33.176,121.082-77.765l-.208-1.041c-1.783-8.851-3.742-17.662-5.667-26.483-1.547-7.09-3.092-14.208-4.367-21.355C133.862,3.49,116.421,2.652,99,2.463,85.5,2.316,72.14,2.732,58.67,3.728,40.023,5.1,21.379,7.391,2.854,9.943A274.221,274.221,0,0,1,6.1,39.217c.829,12.234,1.253,24.508,1.636,36.763.408,13.035.733,26.082,1.389,39.106.205,4.085.434,8.224.734,12.368" transform="translate(-0.167 -0.142)" fill="#ffe586" fill-rule="evenodd"/>
        <path id="Trazado_1264138" data-name="Trazado 1264138" d="M16.086,144.951l.687-.058v-4.306h5.633v3.887l.686-.044v-3.843h5.634v3.52l.686-.034v-3.486h5.633v3.236l.686-.027v-3.209h5.634v3.008l.686-.023v-2.985h5.633V143.4l.687-.02v-2.792H54v2.646l.686-.017v-2.629h5.633v2.5l.687-.014v-2.489h5.633v2.381l.686-.012v-2.369h5.633v2.272l.686-.011v-2.26h5.634v2.172l.686-.01v-2.162h5.618v2.074l.7-.011v-2.063h5.618v1.975l.686-.011v-1.964h5.634v1.872l.686-.011v-1.86h5.633v1.759l.686-.013v-1.745h5.633v1.63l.687-.016v-1.614h5.633v1.478l.686-.019v-1.459h5.633v1.3l.687-.022v-1.276h5.633v1.082l.686-.025v-1.056h5.634v.826l.686-.031v-.795h5.633v.514l.686-.038v-.476h5.634v.128l.686-.047v-.081h1.14q1.368-.1,2.735-.209.878-.071,1.758-.145h.013l.085-.008.085-.008.084-.007.085-.008.085-.008.085-.008.084-.008.082-.007q1.479-.127,2.961-.274H155.79v-5.633h5.633v5.354l.687-.078v-5.276h5.633v3.529q.213-1.762.389-3.529l0-.013.01-.107v-.008l.041-.422.01-.107,0-.029q.126-1.33.231-2.66v-2.973h.209l.04-.687h-.249v-5.633h.488l.017-.686h-.5v-5.634h.557l0-.686h-.553v-5.633h.435l-.024-.687h-.411v-5.632h.138l-.042-.687h-.1v-1.453q-.144-2.091-.32-4.18l0-.028-.011-.128-.01-.127-.011-.127-.011-.128-.01-.127,0-.022q-.144-1.645-.307-3.29v3.29H162.11V90.029H167.5l-.074-.687H162.11V83.709h4.647l-.089-.686H162.11V77.389h3.779l-.1-.686H162.11V71.082h2.8L164.8,70.4h-2.69V64.763h1.725l-.122-.687h-1.6V58.443h.561l-.131-.686h-.43V55.534q-.333-1.707-.676-3.41v0l-.011-.054-.067-.336-.06-.295H155.79V45.8h4.347l-.144-.687h-4.2V39.485h3l-.148-.686H155.79V33.165h1.631l-.151-.686h-1.48V26.846h.248l-.15-.686h-.1v-.446l-.1-.465-.586-2.686v3.6h-5.633V20.525h5.191l-.148-.686h-5.043V14.206h3.853l-.142-.687h-3.71V7.886h2.59L151.93,7.2h-2.459V3.848l-.686-.017V7.2h-5.634V3.677l-.686-.021V7.2h-5.633V3.481l-.686-.023V7.2h-5.634V3.274l-.686-.023V7.2h-5.633V3.067l-.687-.023V7.2h-5.633V2.87l-.686-.021V7.2h-5.633V2.7l-.687-.017V7.2h-5.633V2.557l-.686-.013V7.2H98.914V2.462l-.686-.008V7.2H92.594V2.436l-.686,0V7.2H86.29V2.492l-.7.012V7.2H79.97V2.634l-.686.021V7.2H73.65V2.86l-.686.029V7.2H67.331V3.169l-.686.039V7.2H61.011V3.563l-.687.048V7.2H54.691V4.038L54,4.094V7.2H48.372V4.581l-.687.063V7.2H42.052V5.183l-.686.069V7.2H35.732V5.841l-.686.074V7.2H29.413V6.549l-.686.08V7.2h-4.8l-.837.1-.028,0-.087.01-.086.01-.087.01-.087.011-.087.01-.087.01-.086.011-.054.007c-1.335.164-2.674.33-4.008.5h4.008v5.633H16.774V8.093l-.687.088v5.337H10.454v-4.6l-.687.092v4.509H4.134V9.772l-.686.094v3.421l.037.232.009.064.011.073.011.073.011.074.012.073.011.074.011.074.011.073.011.074,0,.032q.291,1.906.544,3.822V14.206H9.767v5.633h-5.4l.085.686H9.767v5.634h-4.7l.068.686H9.767v5.633H5.639l.055.686H9.767V38.8H6.107l.029.419.018.267H9.767v5.633H6.5l.04.687H9.767v5.632H6.842l.033.687H9.767v5.633H7.128l.028.686H9.767v5.633H7.375l.024.687H9.767V70.4H7.593l.023.686H9.767V76.7H7.794l.022.686H9.767v5.634H7.987l.02.686H9.767v5.633H8.177l.022.687H9.767v5.632H8.378l.023.687H9.767v5.633H8.6l.024.687H9.767V108.3h-.92l.029.687h.891v5.633h-.63l.024.466.011.22h.6v5.634H9.474l.04.686h.252v4q.055.815.113,1.631l.008.105.009.135.01.133.009.134.009.134,0,.047q.208,2.817.467,5.633l.006.064.051.534v0l.008.09h5.623V139.9H11.068l.084.687h4.934Zm.687-10.685h5.633V139.9H16.774Zm0-6.319h5.633v5.633H16.774Zm0-6.32h5.633v5.633H16.774Zm0-6.32h5.633v5.633H16.774Zm0-6.319h5.633v5.633H16.774Zm0-6.319h5.633V108.3H16.774Zm0-6.32h5.633v5.633H16.774Zm0-6.319h5.633v5.633H16.774Zm0-6.32h5.633v5.633H16.774Zm0-6.32h5.633v5.633H16.774Zm0-6.307h5.633V76.7H16.774Zm0-6.319h5.633V70.4H16.774Zm0-6.32h5.633v5.633H16.774Zm0-6.319h5.633v5.633H16.774Zm0-6.319h5.633v5.633H16.774Zm0-6.32h5.633v5.633H16.774Zm0-6.32h5.633V38.8H16.774Zm0-6.319h5.633v5.633H16.774Zm0-6.32h5.633v5.633H16.774Zm0-6.319h5.633v5.633H16.774Zm-.687,5.633H10.453V14.206h5.633Zm0,6.32H10.453V20.526h5.633Zm0,6.319H10.453V26.846h5.633Zm0,6.32H10.453V33.166h5.633Zm0,6.319H10.453V39.485h5.633Zm0,6.319H10.453V45.8h5.633Zm0,6.32H10.453V52.124h5.633Zm0,6.319H10.453V58.443h5.633Zm0,6.32H10.453V64.763h5.633Zm0,6.307H10.453V71.082h5.633Zm0,6.32H10.453V77.39h5.633Zm0,6.319H10.453V83.709h5.633Zm0,6.319H10.453V90.029h5.633Zm0,6.32H10.453V96.349h5.633Zm0,6.319H10.453v-5.633h5.633Zm0,6.32H10.453v-5.633h5.633Zm0,6.32H10.453v-5.633h5.633Zm0,6.319H10.453v-5.633h5.633Zm0,6.32H10.453v-5.633h5.633ZM161.423,76.7H155.79V71.082h5.633Zm-6.319,0h-5.633V71.082H155.1Zm-6.319,0h-5.633V71.082h5.633Zm-6.32,0h-5.633V71.082h5.633Zm-6.319,0h-5.633V71.082h5.633Zm-6.32,0h-5.633V71.082h5.633Zm-6.32,0h-5.633V71.082h5.633Zm-6.319,0h-5.633V71.082h5.633Zm-6.32,0h-5.633V71.082h5.633Zm-6.319,0H98.914V71.082h5.633Zm-6.319,0H92.595V71.082h5.633Zm-6.32,0H86.29V71.082h5.618Zm-6.32,0H79.97V71.082h5.618Zm-6.3,0H73.651V71.082h5.633Zm-6.32,0H67.331V71.082h5.633Zm-6.319,0H61.011V71.082h5.633Zm-6.32,0H54.691V71.082h5.633ZM54,76.7H48.372V71.082H54Zm-6.32,0H42.052V71.082h5.633Zm-6.319,0H35.733V71.082h5.633Zm-6.32,0H29.413V71.082h5.633Zm-6.319,0H23.094V71.082h5.633Zm-5.634-11.94h5.633V70.4H23.093Zm6.32,0h5.633V70.4H29.413Zm6.319,0h5.633V70.4H35.732Zm6.32,0h5.633V70.4H42.052Zm6.32,0H54V70.4H48.372Zm6.319,0h5.633V70.4H54.691Zm6.32,0h5.633V70.4H61.011Zm6.319,0h5.633V70.4H67.331Zm6.319,0h5.633V70.4H73.65Zm6.32,0h5.618V70.4H79.97Zm6.32,0h5.618V70.4H86.29Zm6.3,0h5.633V70.4H92.594Zm6.32,0h5.633V70.4H98.914Zm6.319,0h5.633V70.4h-5.633Zm6.32,0h5.633V70.4h-5.633Zm6.319,0h5.633V70.4h-5.633Zm6.32,0h5.633V70.4h-5.633Zm6.319,0h5.633V70.4h-5.633Zm6.32,0h5.633V70.4h-5.633Zm6.319,0h5.633V70.4h-5.633Zm6.32,0H155.1V70.4h-5.633Zm6.319,0h5.633V70.4H155.79ZM155.1,139.9h-5.633v-5.633H155.1Zm-6.319,0h-5.633v-5.633h5.633Zm-6.32,0h-5.633v-5.633h5.633Zm-6.319,0h-5.633v-5.633h5.633Zm-6.32,0h-5.633v-5.633h5.633Zm-6.32,0h-5.633v-5.633h5.633Zm-6.319,0h-5.633v-5.633h5.633Zm-6.32,0h-5.633v-5.633h5.633Zm-6.319,0H98.914v-5.633h5.633Zm-6.319,0H92.595v-5.633h5.633Zm-6.32,0H86.29v-5.633h5.618Zm-6.32,0H79.97v-5.633h5.618Zm-6.3,0H73.651v-5.633h5.633Zm-6.32,0H67.331v-5.633h5.633Zm-6.319,0H61.011v-5.633h5.633Zm-6.32,0H54.691v-5.633h5.633ZM54,139.9H48.372v-5.633H54Zm-6.32,0H42.052v-5.633h5.633Zm-6.319,0H35.733v-5.633h5.633Zm-6.32,0H29.413v-5.633h5.633Zm-6.319,0H23.094v-5.633h5.633Zm139.017-6.319H162.11v-5.633h5.633Zm-6.32,0H155.79v-5.633h5.633Zm-6.319,0h-5.633v-5.633H155.1Zm-6.319,0h-5.633v-5.633h5.633Zm-6.32,0h-5.633v-5.633h5.633Zm-6.319,0h-5.633v-5.633h5.633Zm-6.32,0h-5.633v-5.633h5.633Zm-6.32,0h-5.633v-5.633h5.633Zm-6.319,0h-5.633v-5.633h5.633Zm-6.32,0h-5.633v-5.633h5.633Zm-6.319,0H98.914v-5.633h5.633Zm-6.319,0H92.595v-5.633h5.633Zm-6.32,0H86.29v-5.633h5.618Zm-6.32,0H79.97v-5.633h5.618Zm-6.3,0H73.651v-5.633h5.633Zm-6.32,0H67.331v-5.633h5.633Zm-6.319,0H61.011v-5.633h5.633Zm-6.32,0H54.691v-5.633h5.633Zm-6.319,0H48.372v-5.633H54Zm-6.32,0H42.052v-5.633h5.633Zm-6.319,0H35.733v-5.633h5.633Zm-6.32,0H29.413v-5.633h5.633Zm-6.319,0H23.094v-5.633h5.633Zm139.017-6.32H162.11v-5.633h5.633Zm-6.32,0H155.79v-5.633h5.633Zm-6.319,0h-5.633v-5.633H155.1Zm-6.319,0h-5.633v-5.633h5.633Zm-6.32,0h-5.633v-5.633h5.633Zm-6.319,0h-5.633v-5.633h5.633Zm-6.32,0h-5.633v-5.633h5.633Zm-6.32,0h-5.633v-5.633h5.633Zm-6.319,0h-5.633v-5.633h5.633Zm-6.32,0h-5.633v-5.633h5.633Zm-6.319,0H98.914v-5.633h5.633Zm-6.319,0H92.595v-5.633h5.633Zm-6.32,0H86.29v-5.633h5.618Zm-6.32,0H79.97v-5.633h5.618Zm-6.3,0H73.651v-5.633h5.633Zm-6.32,0H67.331v-5.633h5.633Zm-6.319,0H61.011v-5.633h5.633Zm-6.32,0H54.691v-5.633h5.633Zm-6.319,0H48.372v-5.633H54Zm-6.32,0H42.052v-5.633h5.633Zm-6.319,0H35.733v-5.633h5.633Zm-6.32,0H29.413v-5.633h5.633Zm-6.319,0H23.094v-5.633h5.633Zm139.017-6.319H162.11v-5.633h5.633Zm-6.32,0H155.79v-5.633h5.633Zm-6.319,0h-5.633v-5.633H155.1Zm-6.319,0h-5.633v-5.633h5.633Zm-6.32,0h-5.633v-5.633h5.633Zm-6.319,0h-5.633v-5.633h5.633Zm-6.32,0h-5.633v-5.633h5.633Zm-6.32,0h-5.633v-5.633h5.633Zm-6.319,0h-5.633v-5.633h5.633Zm-6.32,0h-5.633v-5.633h5.633Zm-6.319,0H98.914v-5.633h5.633Zm-6.319,0H92.595v-5.633h5.633Zm-6.32,0H86.29v-5.633h5.618Zm-6.32,0H79.97v-5.633h5.618Zm-6.3,0H73.651v-5.633h5.633Zm-6.32,0H67.331v-5.633h5.633Zm-6.319,0H61.011v-5.633h5.633Zm-6.32,0H54.691v-5.633h5.633Zm-6.319,0H48.372v-5.633H54Zm-6.32,0H42.052v-5.633h5.633Zm-6.319,0H35.733v-5.633h5.633Zm-6.32,0H29.413v-5.633h5.633Zm-6.319,0H23.094v-5.633h5.633Zm139.017-6.32H162.11v-5.633h5.633Zm-6.32,0H155.79v-5.633h5.633Zm-6.319,0h-5.633v-5.633H155.1Zm-6.319,0h-5.633v-5.633h5.633Zm-6.32,0h-5.633v-5.633h5.633Zm-6.319,0h-5.633v-5.633h5.633Zm-6.32,0h-5.633v-5.633h5.633Zm-6.32,0h-5.633v-5.633h5.633Zm-6.319,0h-5.633v-5.633h5.633Zm-6.32,0h-5.633v-5.633h5.633Zm-6.319,0H98.914v-5.633h5.633Zm-6.319,0H92.595v-5.633h5.633Zm-6.32,0H86.29v-5.633h5.618Zm-6.32,0H79.97v-5.633h5.618Zm-6.3,0H73.651v-5.633h5.633Zm-6.32,0H67.331v-5.633h5.633Zm-6.319,0H61.011v-5.633h5.633Zm-6.32,0H54.691v-5.633h5.633Zm-6.319,0H48.372v-5.633H54Zm-6.32,0H42.052v-5.633h5.633Zm-6.319,0H35.733v-5.633h5.633Zm-6.32,0H29.413v-5.633h5.633Zm-6.319,0H23.094v-5.633h5.633Zm139.017-6.32H162.11v-5.633h5.633Zm-6.32,0H155.79v-5.633h5.633Zm-6.319,0h-5.633v-5.633H155.1Zm-6.319,0h-5.633v-5.633h5.633Zm-6.32,0h-5.633v-5.633h5.633Zm-6.319,0h-5.633v-5.633h5.633Zm-6.32,0h-5.633v-5.633h5.633Zm-6.32,0h-5.633v-5.633h5.633Zm-6.319,0h-5.633v-5.633h5.633Zm-6.32,0h-5.633v-5.633h5.633Zm-6.319,0H98.914v-5.633h5.633Zm-6.319,0H92.595v-5.633h5.633Zm-6.32,0H86.29v-5.633h5.618Zm-6.32,0H79.97v-5.633h5.618Zm-6.3,0H73.651v-5.633h5.633Zm-6.32,0H67.331v-5.633h5.633Zm-6.319,0H61.011v-5.633h5.633Zm-6.32,0H54.691v-5.633h5.633ZM54,108.3H48.372v-5.633H54Zm-6.32,0H42.052v-5.633h5.633Zm-6.319,0H35.733v-5.633h5.633Zm-6.32,0H29.413v-5.633h5.633Zm-6.319,0H23.094v-5.633h5.633Zm139.017-6.319H162.11V96.349h5.633Zm-6.32,0H155.79V96.349h5.633Zm-6.319,0h-5.633V96.349H155.1Zm-6.319,0h-5.633V96.349h5.633Zm-6.32,0h-5.633V96.349h5.633Zm-6.319,0h-5.633V96.349h5.633Zm-6.32,0h-5.633V96.349h5.633Zm-6.32,0h-5.633V96.349h5.633Zm-6.319,0h-5.633V96.349h5.633Zm-6.32,0h-5.633V96.349h5.633Zm-6.319,0H98.914V96.349h5.633Zm-6.319,0H92.595V96.349h5.633Zm-6.32,0H86.29V96.349h5.618Zm-6.32,0H79.97V96.349h5.618Zm-6.3,0H73.651V96.349h5.633Zm-6.32,0H67.331V96.349h5.633Zm-6.319,0H61.011V96.349h5.633Zm-6.32,0H54.691V96.349h5.633Zm-6.319,0H48.372V96.349H54Zm-6.32,0H42.052V96.349h5.633Zm-6.319,0H35.733V96.349h5.633Zm-6.32,0H29.413V96.349h5.633Zm-6.319,0H23.094V96.349h5.633Zm132.7-6.32H155.79V90.029h5.633Zm-6.319,0h-5.633V90.029H155.1Zm-6.319,0h-5.633V90.029h5.633Zm-6.32,0h-5.633V90.029h5.633Zm-6.319,0h-5.633V90.029h5.633Zm-6.32,0h-5.633V90.029h5.633Zm-6.32,0h-5.633V90.029h5.633Zm-6.319,0h-5.633V90.029h5.633Zm-6.32,0h-5.633V90.029h5.633Zm-6.319,0H98.914V90.029h5.633Zm-6.319,0H92.595V90.029h5.633Zm-6.32,0H86.29V90.029h5.618Zm-6.32,0H79.97V90.029h5.618Zm-6.3,0H73.651V90.029h5.633Zm-6.32,0H67.331V90.029h5.633Zm-6.319,0H61.011V90.029h5.633Zm-6.32,0H54.691V90.029h5.633Zm-6.319,0H48.372V90.029H54Zm-6.32,0H42.052V90.029h5.633Zm-6.319,0H35.733V90.029h5.633Zm-6.32,0H29.413V90.029h5.633Zm-6.319,0H23.094V90.029h5.633Zm132.7-6.319H155.79V83.709h5.633Zm-6.319,0h-5.633V83.709H155.1Zm-6.319,0h-5.633V83.709h5.633Zm-6.32,0h-5.633V83.709h5.633Zm-6.319,0h-5.633V83.709h5.633Zm-6.32,0h-5.633V83.709h5.633Zm-6.32,0h-5.633V83.709h5.633Zm-6.319,0h-5.633V83.709h5.633Zm-6.32,0h-5.633V83.709h5.633Zm-6.319,0H98.914V83.709h5.633Zm-6.319,0H92.595V83.709h5.633Zm-6.32,0H86.29V83.709h5.618Zm-6.32,0H79.97V83.709h5.618Zm-6.3,0H73.651V83.709h5.633Zm-6.32,0H67.331V83.709h5.633Zm-6.319,0H61.011V83.709h5.633Zm-6.32,0H54.691V83.709h5.633Zm-6.319,0H48.372V83.709H54Zm-6.32,0H42.052V83.709h5.633Zm-6.319,0H35.733V83.709h5.633Zm-6.32,0H29.413V83.709h5.633Zm-6.319,0H23.094V83.709h5.633Zm132.7-6.319H155.79V77.39h5.633Zm-6.319,0h-5.633V77.39H155.1Zm-6.319,0h-5.633V77.39h5.633Zm-6.32,0h-5.633V77.39h5.633Zm-6.319,0h-5.633V77.39h5.633Zm-6.32,0h-5.633V77.39h5.633Zm-6.32,0h-5.633V77.39h5.633Zm-6.319,0h-5.633V77.39h5.633Zm-6.32,0h-5.633V77.39h5.633Zm-6.319,0H98.914V77.39h5.633Zm-6.319,0H92.595V77.39h5.633Zm-6.32,0H86.29V77.39h5.618Zm-6.32,0H79.97V77.39h5.618Zm-6.3,0H73.651V77.39h5.633Zm-6.32,0H67.331V77.39h5.633Zm-6.319,0H61.011V77.39h5.633Zm-6.32,0H54.691V77.39h5.633Zm-6.319,0H48.372V77.39H54Zm-6.32,0H42.052V77.39h5.633Zm-6.319,0H35.733V77.39h5.633Zm-6.32,0H29.413V77.39h5.633Zm-6.319,0H23.094V77.39h5.633Zm132.7-18.947H155.79V58.443h5.633Zm-6.319,0h-5.633V58.443H155.1Zm-6.319,0h-5.633V58.443h5.633Zm-6.32,0h-5.633V58.443h5.633Zm-6.319,0h-5.633V58.443h5.633Zm-6.32,0h-5.633V58.443h5.633Zm-6.32,0h-5.633V58.443h5.633Zm-6.319,0h-5.633V58.443h5.633Zm-6.32,0h-5.633V58.443h5.633Zm-6.319,0H98.914V58.443h5.633Zm-6.319,0H92.595V58.443h5.633Zm-6.32,0H86.29V58.443h5.618Zm-6.32,0H79.97V58.443h5.618Zm-6.3,0H73.651V58.443h5.633Zm-6.32,0H67.331V58.443h5.633Zm-6.319,0H61.011V58.443h5.633Zm-6.32,0H54.691V58.443h5.633Zm-6.319,0H48.372V58.443H54Zm-6.32,0H42.052V58.443h5.633Zm-6.319,0H35.733V58.443h5.633Zm-6.32,0H29.413V58.443h5.633Zm-6.319,0H23.094V58.443h5.633Zm132.7-6.319H155.79V52.124h5.633Zm-6.319,0h-5.633V52.124H155.1Zm-6.319,0h-5.633V52.124h5.633Zm-6.32,0h-5.633V52.124h5.633Zm-6.319,0h-5.633V52.124h5.633Zm-6.32,0h-5.633V52.124h5.633Zm-6.32,0h-5.633V52.124h5.633Zm-6.319,0h-5.633V52.124h5.633Zm-6.32,0h-5.633V52.124h5.633Zm-6.319,0H98.914V52.124h5.633Zm-6.319,0H92.595V52.124h5.633Zm-6.32,0H86.29V52.124h5.618Zm-6.32,0H79.97V52.124h5.618Zm-6.3,0H73.651V52.124h5.633Zm-6.32,0H67.331V52.124h5.633Zm-6.319,0H61.011V52.124h5.633Zm-6.32,0H54.691V52.124h5.633Zm-6.319,0H48.372V52.124H54Zm-6.32,0H42.052V52.124h5.633Zm-6.319,0H35.733V52.124h5.633Zm-6.32,0H29.413V52.124h5.633Zm-6.319,0H23.094V52.124h5.633ZM155.1,51.437h-5.633V45.8H155.1Zm-6.319,0h-5.633V45.8h5.633Zm-6.32,0h-5.633V45.8h5.633Zm-6.319,0h-5.633V45.8h5.633Zm-6.32,0h-5.633V45.8h5.633Zm-6.32,0h-5.633V45.8h5.633Zm-6.319,0h-5.633V45.8h5.633Zm-6.32,0h-5.633V45.8h5.633Zm-6.319,0H98.914V45.8h5.633Zm-6.319,0H92.595V45.8h5.633Zm-6.32,0H86.29V45.8h5.618Zm-6.32,0H79.97V45.8h5.618Zm-6.3,0H73.651V45.8h5.633Zm-6.32,0H67.331V45.8h5.633Zm-6.319,0H61.011V45.8h5.633Zm-6.32,0H54.691V45.8h5.633Zm-6.319,0H48.372V45.8H54Zm-6.32,0H42.052V45.8h5.633Zm-6.319,0H35.733V45.8h5.633Zm-6.32,0H29.413V45.8h5.633Zm-6.319,0H23.094V45.8h5.633ZM155.1,45.118h-5.633V39.485H155.1Zm-6.319,0h-5.633V39.485h5.633Zm-6.32,0h-5.633V39.485h5.633Zm-6.319,0h-5.633V39.485h5.633Zm-6.32,0h-5.633V39.485h5.633Zm-6.32,0h-5.633V39.485h5.633Zm-6.319,0h-5.633V39.485h5.633Zm-6.32,0h-5.633V39.485h5.633Zm-6.319,0H98.914V39.485h5.633Zm-6.319,0H92.595V39.485h5.633Zm-6.32,0H86.29V39.485h5.618Zm-6.32,0H79.97V39.485h5.618Zm-6.3,0H73.651V39.485h5.633Zm-6.32,0H67.331V39.485h5.633Zm-6.319,0H61.011V39.485h5.633Zm-6.32,0H54.691V39.485h5.633Zm-6.319,0H48.372V39.485H54Zm-6.32,0H42.052V39.485h5.633Zm-6.319,0H35.733V39.485h5.633Zm-6.32,0H29.413V39.485h5.633Zm-6.319,0H23.094V39.485h5.633ZM155.1,38.8h-5.633V33.166H155.1Zm-6.319,0h-5.633V33.166h5.633Zm-6.32,0h-5.633V33.166h5.633Zm-6.319,0h-5.633V33.166h5.633Zm-6.32,0h-5.633V33.166h5.633Zm-6.32,0h-5.633V33.166h5.633Zm-6.319,0h-5.633V33.166h5.633Zm-6.32,0h-5.633V33.166h5.633Zm-6.319,0H98.914V33.166h5.633Zm-6.319,0H92.595V33.166h5.633Zm-6.32,0H86.29V33.166h5.618Zm-6.32,0H79.97V33.166h5.618Zm-6.3,0H73.651V33.166h5.633Zm-6.32,0H67.331V33.166h5.633Zm-6.319,0H61.011V33.166h5.633Zm-6.32,0H54.691V33.166h5.633ZM54,38.8H48.372V33.166H54Zm-6.32,0H42.052V33.166h5.633Zm-6.319,0H35.733V33.166h5.633Zm-6.32,0H29.413V33.166h5.633Zm-6.319,0H23.094V33.166h5.633ZM155.1,32.478h-5.633V26.846H155.1Zm-6.319,0h-5.633V26.846h5.633Zm-6.32,0h-5.633V26.846h5.633Zm-6.319,0h-5.633V26.846h5.633Zm-6.32,0h-5.633V26.846h5.633Zm-6.32,0h-5.633V26.846h5.633Zm-6.319,0h-5.633V26.846h5.633Zm-6.32,0h-5.633V26.846h5.633Zm-6.319,0H98.914V26.846h5.633Zm-6.319,0H92.595V26.846h5.633Zm-6.32,0H86.29V26.846h5.618Zm-6.32,0H79.97V26.846h5.618Zm-6.3,0H73.651V26.846h5.633Zm-6.32,0H67.331V26.846h5.633Zm-6.319,0H61.011V26.846h5.633Zm-6.32,0H54.691V26.846h5.633Zm-6.319,0H48.372V26.846H54Zm-6.32,0H42.052V26.846h5.633Zm-6.319,0H35.733V26.846h5.633Zm-6.32,0H29.413V26.846h5.633Zm-6.319,0H23.094V26.846h5.633Zm120.058-6.319h-5.633V20.526h5.633Zm-6.32,0h-5.633V20.526h5.633Zm-6.319,0h-5.633V20.526h5.633Zm-6.32,0h-5.633V20.526h5.633Zm-6.32,0h-5.633V20.526h5.633Zm-6.319,0h-5.633V20.526h5.633Zm-6.32,0h-5.633V20.526h5.633Zm-6.319,0H98.914V20.526h5.633Zm-6.319,0H92.595V20.526h5.633Zm-6.32,0H86.29V20.526h5.618Zm-6.32,0H79.97V20.526h5.618Zm-6.3,0H73.651V20.526h5.633Zm-6.32,0H67.331V20.526h5.633Zm-6.319,0H61.011V20.526h5.633Zm-6.32,0H54.691V20.526h5.633Zm-6.319,0H48.372V20.526H54Zm-6.32,0H42.052V20.526h5.633Zm-6.319,0H35.733V20.526h5.633Zm-6.32,0H29.413V20.526h5.633Zm-6.319,0H23.094V20.526h5.633Zm120.058-6.32h-5.633V14.206h5.633Zm-6.32,0h-5.633V14.206h5.633Zm-6.319,0h-5.633V14.206h5.633Zm-6.32,0h-5.633V14.206h5.633Zm-6.32,0h-5.633V14.206h5.633Zm-6.319,0h-5.633V14.206h5.633Zm-6.32,0h-5.633V14.206h5.633Zm-6.319,0H98.914V14.206h5.633Zm-6.319,0H92.595V14.206h5.633Zm-6.32,0H86.29V14.206h5.618Zm-6.32,0H79.97V14.206h5.618Zm-6.3,0H73.651V14.206h5.633Zm-6.32,0H67.331V14.206h5.633Zm-6.319,0H61.011V14.206h5.633Zm-6.32,0H54.691V14.206h5.633Zm-6.319,0H48.372V14.206H54Zm-6.32,0H42.052V14.206h5.633Zm-6.319,0H35.733V14.206h5.633Zm-6.32,0H29.413V14.206h5.633Zm-6.319,0H23.094V14.206h5.633Zm120.058-6.32h-5.633V7.886h5.633Zm-6.32,0h-5.633V7.886h5.633Zm-6.319,0h-5.633V7.886h5.633Zm-6.32,0h-5.633V7.886h5.633Zm-6.32,0h-5.633V7.886h5.633Zm-6.319,0h-5.633V7.886h5.633Zm-6.32,0h-5.633V7.886h5.633Zm-6.319,0H98.914V7.886h5.633Zm-6.319,0H92.595V7.886h5.633Zm-6.32,0H86.29V7.886h5.618Zm-6.32,0H79.97V7.886h5.618Zm-6.3,0H73.651V7.886h5.633Zm-6.32,0H67.331V7.886h5.633Zm-6.319,0H61.011V7.886h5.633Zm-6.32,0H54.691V7.886h5.633Zm-6.319,0H48.372V7.886H54Zm-6.32,0H42.052V7.886h5.633Zm-6.319,0H35.733V7.886h5.633Zm-6.32,0H29.413V7.886h5.633Zm-6.319,0H23.094V7.886h5.633Z" transform="translate(-0.202 -0.143)" fill="#fff" fill-rule="evenodd"/>
        <path id="Trazado_1264139" data-name="Trazado 1264139" d="M151.563,16.718a4.408,4.408,0,1,0-4.408-4.408,4.416,4.416,0,0,0,4.408,4.408" transform="translate(-8.613 -0.462)" fill="#461358" fill-rule="evenodd"/>
        <path id="Trazado_1264140" data-name="Trazado 1264140" d="M171.53,144.678a4.408,4.408,0,1,0-4.408-4.408,4.416,4.416,0,0,0,4.408,4.408" transform="translate(-9.782 -7.952)" fill="#461358" fill-rule="evenodd"/>
        <path id="Trazado_1264141" data-name="Trazado 1264141" d="M69.024,57.944,65.776,31.958a.7.7,0,0,1,.5-.767,143.755,143.755,0,0,1,31.819-7.059,225.031,225.031,0,0,1,36.421-.9.713.713,0,0,1,.676.676c.892,17.745,2.046,35.666,4.66,53.248,2.192,14.731,5.6,30.751,12.128,44.218a.712.712,0,0,1-.331.951.674.674,0,0,1-.323.071l-8.674.08c-16.524.152-33.032.33-49.548.952-18.983.716-37.912,2.007-56.8,4.073a.718.718,0,0,1-.785-.659l0-.066a138.5,138.5,0,0,0-4.379-32.945c-2.581-10.4-6.05-20.538-9.546-30.662a.717.717,0,0,1,.474-.913l.1-.024.019,0c6.283-.694,12.152-2.7,16.463-7.506,3.418-3.812,5.239-8.648,6.86-13.423a.712.712,0,0,1,.9-.445.676.676,0,0,1,.211.114q11.185,8.511,22.4,16.978m-45.8,5.592c3.412,9.887,6.775,19.791,9.3,29.951A140.519,140.519,0,0,1,36.931,126c18.715-2.027,37.473-3.3,56.285-4,16.472-.618,32.938-.795,49.42-.945l7.577-.07c-6.278-13.388-9.611-29.077-11.774-43.62-2.589-17.415-3.75-35.161-4.64-52.74a222.582,222.582,0,0,0-35.55.927,142.829,142.829,0,0,0-30.988,6.8l3.386,27.089a.713.713,0,0,1-1.136.656Q58.01,51.413,46.536,42.69c-1.615,4.667-3.484,9.248-6.828,12.98-4.351,4.854-10.158,7.037-16.485,7.866" transform="translate(-1.261 -1.34)" fill="#e2a4db" fill-rule="evenodd"/>
        <path id="Trazado_1264142" data-name="Trazado 1264142" d="M28.968,66.63a.386.386,0,0,0-.732.249l.5,1.461a.386.386,0,0,0,.732-.248ZM29.6,66.1c.491-.133.978-.281,1.462-.437a.386.386,0,0,1,.238.734c-.5.159-.993.311-1.5.447A.386.386,0,0,1,29.6,66.1m3.61-1.225a.386.386,0,0,0,.295.714c.472-.191.978-.409,1.432-.636a.386.386,0,0,0-.335-.7c-.442.221-.933.433-1.391.619m3.405-1.691a.387.387,0,0,0,.4.664c.449-.265.893-.545,1.324-.838a.386.386,0,0,0-.434-.639c-.419.284-.85.556-1.286.813M39.722,61a.387.387,0,0,0,.492.6c.4-.334.8-.676,1.179-1.034.357-.285-.09-.913-.527-.564-.372.346-.752.678-1.144,1m2.742-2.632a.386.386,0,0,0,.574.516c.346-.372.7-.8,1.013-1.2a.386.386,0,0,0-.6-.483c-.311.388-.647.8-.985,1.163m2.34-3a.387.387,0,0,0,.587.5l.052-.062c.295-.433.572-.869.849-1.311a.387.387,0,0,0-.66-.4c-.268.433-.541.861-.828,1.281M46.768,52.1a.386.386,0,0,0,.683.361c.246-.456.479-.924.7-1.39a.386.386,0,0,0-.695-.336c-.221.458-.451.917-.692,1.365m2.34-3.2a.386.386,0,1,0-.467.615c.412.3.823.624,1.23.934a.386.386,0,0,0,.483-.6c-.394-.316-.837-.649-1.247-.946m3.077,2.334a.386.386,0,0,0-.483.6c.4.324.838.626,1.247.946a.388.388,0,0,0,.526-.057.384.384,0,0,0-.06-.558Zm3.078,2.332a.386.386,0,0,0-.467.616l1.231.932a.386.386,0,1,0,.466-.616ZM58.34,55.9a.386.386,0,1,0-.466.616l1.232.932a.386.386,0,0,0,.465-.616c-.412-.307-.82-.623-1.231-.932m3.08,2.33a.386.386,0,1,0-.466.616l1.231.931a.389.389,0,0,0,.527-.056.385.385,0,0,0-.06-.558Zm3.08,2.328a.386.386,0,0,0-.465.617l1.231.932a.386.386,0,0,0,.466-.617Zm3.08,2.329a.39.39,0,0,0-.527.057.385.385,0,0,0,.061.558l1.232.932a.386.386,0,1,0,.466-.616Zm3.08,2.329a.386.386,0,0,0-.466.617l1.232.931a.386.386,0,0,0,.465-.617Zm3.08,2.328a.386.386,0,0,0-.465.617l1.231.931a.386.386,0,0,0,.466-.616Zm1.9,1.707a.386.386,0,0,0,.766-.1l-.192-1.533a.386.386,0,0,0-.765.1Zm-.479-3.833a.386.386,0,0,0,.766-.1l-.192-1.533a.386.386,0,0,0-.765.1Zm-.479-3.832a.386.386,0,0,0,.766-.1l-.192-1.532a.386.386,0,0,0-.765.1ZM74.2,57.754a.386.386,0,0,0,.766-.1l-.191-1.532a.386.386,0,0,0-.766.1Zm-.478-3.832a.386.386,0,0,0,.766-.1L74.3,52.294a.386.386,0,0,0-.766.1Zm-.479-3.831a.386.386,0,0,0,.766-.1l-.191-1.533a.386.386,0,0,0-.766.1Zm-.478-3.832a.386.386,0,0,0,.765-.1l-.191-1.532a.386.386,0,0,0-.766.1Zm-.479-3.831a.386.386,0,0,0,.766-.1L72.859,40.8a.386.386,0,0,0-.765.1ZM71.807,38.6a.386.386,0,0,0,.765-.1l-.191-1.533a.386.386,0,0,0-.766.1Zm.368-3.876a.386.386,0,0,0,.232.736c.485-.153.99-.292,1.471-.452a.386.386,0,0,0-.22-.74c-.49.134-1,.3-1.482.456m3.713-1.1a.386.386,0,0,0,.207.744l1.486-.407a.386.386,0,0,0-.2-.747Zm3.745-.989a.386.386,0,0,0,.185.749l1.5-.362a.386.386,0,0,0-.177-.752Zm3.772-.878a.386.386,0,0,0,.163.754c.5-.108,1-.22,1.506-.319a.386.386,0,0,0-.154-.757Zm3.794-.773a.386.386,0,0,0,.142.759l1.516-.28a.386.386,0,0,0-.136-.76Zm3.812-.672a.386.386,0,0,0,.123.763l1.521-.241a.387.387,0,0,0-.116-.764Zm3.827-.577a.386.386,0,0,0,.105.765l1.528-.2a.386.386,0,0,0-.1-.766Zm3.839-.486a.386.386,0,0,0,.089.767l1.532-.169a.386.386,0,0,0-.082-.767Zm3.85-.4a.387.387,0,0,0,.071.77l1.536-.137a.386.386,0,0,0-.065-.769Zm3.856-.316a.386.386,0,0,0,.056.77l1.537-.1a.386.386,0,0,0-.049-.771Zm3.862-.24a.387.387,0,0,0,.04.772l1.54-.075a.386.386,0,0,0-.035-.771Zm3.864-.165a.386.386,0,0,0,.026.771c.512-.01,1.028-.031,1.541-.045a.387.387,0,0,0-.02-.773c-.515.015-1.033.037-1.548.047m3.868-.1a.387.387,0,0,0,.012.773l1.541-.02a.386.386,0,0,0-.006-.772ZM121.845,28a.386.386,0,0,0,0,.772l1.543.007a.386.386,0,0,0,.006-.772Zm3.868.034a.386.386,0,0,0-.014.772l1.542.031a.387.387,0,0,0,.018-.773Zm3.865.094a.386.386,0,0,0-.024.772l.68.022.008.154a.386.386,0,0,0,.771-.037l-.026-.493c0-.008-.014-.027-.037-.053l.036.035-.018-.353Zm1.561,3.222a.386.386,0,0,0-.771.042l.088,1.543a.386.386,0,0,0,.77-.044Zm.221,3.853a.386.386,0,0,0-.771.046c.028.5.042,1.047.092,1.542a.386.386,0,0,0,.77-.047Zm.234,3.853a.386.386,0,0,0-.77.049c.028.514.064,1.029.1,1.542a.386.386,0,0,0,.77-.05c-.035-.513-.07-1.028-.1-1.541m.253,3.852a.386.386,0,0,0-.771.053l.106,1.54a.386.386,0,0,0,.771-.053Zm.273,3.85a.386.386,0,0,0-.77.056l.115,1.542a.386.386,0,1,0,.77-.059Zm.3,3.848a.386.386,0,1,0-.77.062l.125,1.54a.386.386,0,0,0,.77-.064Zm.321,3.846a.386.386,0,0,0-.769.067l.137,1.539a.386.386,0,0,0,.769-.07Zm.351,3.842a.386.386,0,0,0-.769.072l.15,1.539a.386.386,0,0,0,.768-.076Zm.382,3.839a.386.386,0,0,0-.768.079l.163,1.537a.386.386,0,0,0,.767-.082Zm.416,3.835a.386.386,0,0,0-.767.088l.178,1.536a.386.386,0,0,0,.766-.09Zm.454,3.831a.386.386,0,0,0-.765.1l.193,1.535a.386.386,0,0,0,.765-.1Zm.5,3.825a.386.386,0,0,0-.765.1l.21,1.533a.386.386,0,0,0,.764-.107Zm.538,3.82a.386.386,0,0,0-.764.113l.229,1.529a.386.386,0,0,0,.764-.116Zm.585,3.812a.387.387,0,0,0-.764.121c.078.507.16,1.021.249,1.527a.386.386,0,0,0,.762-.126c-.088-.5-.169-1.016-.247-1.522m.633,3.8a.386.386,0,0,0-.761.133l.269,1.523a.386.386,0,0,0,.76-.137Zm.688,3.793a.386.386,0,0,0-.758.145l.293,1.52a.386.386,0,0,0,.758-.15c-.1-.5-.2-1.01-.293-1.515m.751,3.782a.386.386,0,0,0-.756.157c.1.5.209,1.01.32,1.514a.386.386,0,0,0,.754-.163c-.11-.5-.215-1.006-.318-1.508m.819,3.766a.386.386,0,0,0-.753.17l.35,1.508a.386.386,0,1,0,.751-.178Zm.9,3.747a.386.386,0,0,0-.749.188c.115.5.251,1.007.383,1.5a.386.386,0,0,0,.747-.2c-.128-.492-.266-1-.38-1.492m.979,3.726a.386.386,0,0,0-.744.2l.419,1.491a.386.386,0,0,0,.742-.214Zm1.072,3.7a.386.386,0,0,0-.738.226c.132.484.3,1,.459,1.479a.386.386,0,0,0,.735-.234c-.153-.48-.325-.987-.457-1.471m1.174,3.667a.386.386,0,0,0-.732.247l.5,1.466a.386.386,0,0,0,.729-.256c-.171-.483-.336-.97-.5-1.456m1.282,3.628a.386.386,0,0,0-.723.271q.27.724.55,1.448a.386.386,0,0,0,.72-.279q-.278-.719-.547-1.44m-.481,3.1a.387.387,0,0,0-.008-.773l-1.545.014a.387.387,0,0,0,.008.773Zm-3.861.036a.387.387,0,0,0-.008-.773l-1.545.015a.386.386,0,0,0,.008.772Zm-3.861.037a.386.386,0,0,0-.008-.772l-1.542.015a.387.387,0,0,0,.006.773Zm-3.861.04a.386.386,0,0,0-.008-.772c-.515,0-1.031.008-1.545.017a.386.386,0,0,0,.008.772c.514-.009,1.031-.012,1.545-.017m-3.861.044a.387.387,0,0,0-.009-.773c-.513,0-1.032.012-1.545.019a.387.387,0,0,0,.009.773c.513-.008,1.032-.019,1.545-.019m-3.861.049a.387.387,0,0,0-.01-.773l-1.545.022a.386.386,0,0,0,.011.772Zm-3.861.056a.386.386,0,0,0-.011-.772l-1.545.024a.387.387,0,0,0,.013.773Zm-3.859.063a.386.386,0,0,0-.014-.772c-.514.008-1.031.013-1.544.028a.386.386,0,0,0,.013.772c.513-.015,1.031-.02,1.545-.028m-3.86.073a.387.387,0,0,0-.016-.773c-.514.006-1.03.021-1.544.032a.386.386,0,0,0,.016.772c.513-.011,1.03-.026,1.544-.031m-3.86.083a.386.386,0,0,0-.017-.772l-1.545.036a.387.387,0,0,0,.019.773Zm-3.858.1a.387.387,0,0,0-.021-.773l-1.545.042a.386.386,0,0,0,.023.772Zm-3.859.108a.387.387,0,0,0-.024-.773l-1.544.048a.386.386,0,0,0,.024.772Zm-3.858.122a.386.386,0,0,0-.025-.772l-1.545.054a.386.386,0,0,0,.027.771Zm-3.857.137a.386.386,0,0,0-.029-.772l-1.544.06a.386.386,0,0,0,.031.771Zm-3.857.153a.386.386,0,0,0-.032-.772l-1.544.066a.386.386,0,0,0,.034.772Zm-3.856.169a.386.386,0,0,0-.036-.771l-1.543.072a.386.386,0,0,0,.037.771Zm-3.855.186a.387.387,0,0,0-.039-.772l-1.544.079a.386.386,0,0,0,.041.771Zm-3.854.2a.386.386,0,0,0-.041-.771l-1.543.086a.386.386,0,0,0,.043.77Zm-3.853.219a.386.386,0,0,0-.045-.771l-1.543.092a.386.386,0,0,0,.047.771Zm-3.852.236a.386.386,0,0,0-.049-.77c-.513.031-1.03.06-1.542.1a.386.386,0,0,0,.051.77c.511-.04,1.029-.068,1.54-.1m-3.851.255a.386.386,0,0,0-.054-.771l-1.541.107a.387.387,0,0,0,.055.771Zm-3.851.273a.386.386,0,0,0-.056-.77l-1.54.114a.386.386,0,1,0,.057.77Zm-3.849.291a.386.386,0,1,0-.06-.769c-.512.036-1.027.08-1.54.121a.386.386,0,1,0,.062.77c.512-.041,1.026-.086,1.538-.122m-3.847.312a.386.386,0,0,0-.064-.77l-1.539.13a.386.386,0,0,0,.065.769Zm-3.845.33a.386.386,0,0,0-.068-.769l-1.539.137a.386.386,0,0,0,.07.769Zm-3.843.349a.386.386,0,0,0-.073-.769l-1.537.146a.386.386,0,0,0,.073.769Zm-3.842.37a.386.386,0,0,0-.076-.768l-1.538.153A.386.386,0,0,0,42,122.4Zm-3.007-1.44a.387.387,0,0,0,.772-.041c-.027-.515-.059-1.032-.093-1.547a.386.386,0,0,0-.771.051c.034.512.066,1.025.092,1.537m-.265-3.84a.386.386,0,0,0,.769-.065q-.064-.771-.139-1.543a.386.386,0,0,0-.768.074c.047.511.1,1.022.138,1.534m-.38-3.831a.386.386,0,0,0,.767-.089c-.057-.507-.108-1.036-.184-1.538a.386.386,0,0,0-.766.1c.087.463.128,1.05.183,1.529m-.49-3.82a.386.386,0,0,0,.764-.109c-.072-.511-.147-1.023-.226-1.533a.386.386,0,0,0-.764.118Zm-.593-3.805a.386.386,0,0,0,.762-.129c-.079-.507-.176-1.019-.266-1.525a.386.386,0,0,0-.761.137c.09.5.186,1.012.265,1.518m-.691-3.788a.386.386,0,0,0,.758-.149c-.1-.507-.2-1.014-.3-1.519a.386.386,0,0,0-.757.156Zm-.783-3.772a.387.387,0,0,0,.755-.166c-.1-.5-.225-1.011-.339-1.511a.386.386,0,0,0-.752.172c.113.5.236,1.005.336,1.5M36.462,94.2a.386.386,0,1,0,.751-.182l-.37-1.5a.386.386,0,0,0-.749.187Zm-.941-3.738a.386.386,0,0,0,.747-.2l-.4-1.5a.386.386,0,0,0-.746.2c.137.494.265.993.4,1.489m-1.01-3.72a.386.386,0,0,0,.744-.209l-.423-1.488a.386.386,0,0,0-.742.213Zm-1.07-3.7a.386.386,0,0,0,.74-.219l-.443-1.482a.386.386,0,0,0-.739.224c.16.478.3.991.442,1.477m-1.12-3.691a.386.386,0,0,0,.737-.229L32.6,77.641a.386.386,0,0,0-.736.233Zm-1.164-3.677a.386.386,0,0,0,.735-.237l-.476-1.471a.387.387,0,0,0-.735.24ZM29.958,72a.386.386,0,0,0,.732-.243L30.2,70.291a.386.386,0,0,0-.732.245Z" transform="translate(-1.651 -1.639)" fill="#461358" fill-rule="evenodd"/>
        <path id="Trazado_1264143" data-name="Trazado 1264143" d="M91.761,14.815a.966.966,0,0,0-1.93-.044v3.905a.966.966,0,0,0,1.93.043ZM89.83,134.521a.966.966,0,0,0,1.93.043v-3.905a.966.966,0,0,0-1.93-.043Zm0-9.654a.966.966,0,0,0,1.93.043V121a.966.966,0,0,0-1.93-.043Zm0-9.654a.966.966,0,0,0,1.93.043v-3.905a.966.966,0,0,0-1.93-.043Zm0-9.654a.966.966,0,0,0,1.93.044V101.7a.966.966,0,0,0-1.93-.044Zm0-9.654a.966.966,0,0,0,1.93.044V92.044A.966.966,0,0,0,89.831,92Zm0-9.653a.966.966,0,0,0,1.93.043V82.39a.966.966,0,0,0-1.93-.043Zm0-9.654a.966.966,0,0,0,1.93.043V72.737a.966.966,0,0,0-1.93-.043Zm0-9.654a.966.966,0,0,0,1.93.043V63.083a.966.966,0,0,0-1.93-.043Zm0-9.654a.966.966,0,0,0,1.93.043v-3.9a.966.966,0,0,0-1.93-.044Zm0-9.653a.966.966,0,0,0,1.93.043V43.776a.966.966,0,0,0-1.93-.043Zm0-9.654a.966.966,0,0,0,1.93.043V34.122a.966.966,0,0,0-1.93-.043Zm0-9.654a.966.966,0,0,0,1.93.043V24.468a.966.966,0,0,0-1.93-.043Z" transform="translate(-5.258 -0.811)" fill="#461358" fill-rule="evenodd"/>
        <path id="Trazado_1264144" data-name="Trazado 1264144" d="M155.98,79.354a.966.966,0,0,0,.044-1.93h-3.905a.966.966,0,0,0-.043,1.93ZM16.969,77.423a.966.966,0,0,0-.044,1.93h3.905a.966.966,0,0,0,.044-1.93Zm9.653,0a.966.966,0,0,0-.043,1.93h3.905a.966.966,0,0,0,.043-1.93Zm9.654,0a.966.966,0,0,0-.043,1.93h3.905a.966.966,0,0,0,.043-1.93Zm9.654,0a.966.966,0,0,0-.043,1.93h3.905a.966.966,0,0,0,.043-1.93Zm9.654,0a.966.966,0,0,0-.043,1.93h3.9a.966.966,0,0,0,.044-1.93Zm9.654,0a.966.966,0,0,0-.044,1.93H69.1a.966.966,0,0,0,.044-1.93Zm9.654,0a.966.966,0,0,0-.044,1.93h3.905a.966.966,0,0,0,.043-1.93Zm9.653,0a.966.966,0,0,0-.043,1.93h3.905a.966.966,0,0,0,.043-1.93Zm9.654,0a.966.966,0,0,0-.043,1.93h3.905a.966.966,0,0,0,.043-1.93Zm9.654,0a.966.966,0,0,0-.043,1.93h3.905a.966.966,0,0,0,.043-1.93Zm9.654,0a.966.966,0,0,0-.043,1.93h3.9a.966.966,0,0,0,.044-1.93Zm9.654,0a.966.966,0,0,0-.044,1.93h3.905a.966.966,0,0,0,.044-1.93Zm9.654,0a.966.966,0,0,0-.044,1.93h3.905a.966.966,0,0,0,.043-1.93Zm9.653,0a.966.966,0,0,0-.043,1.93h3.905a.966.966,0,0,0,.043-1.93Z" transform="translate(-0.937 -4.532)" fill="#461358" fill-rule="evenodd"/>
        <path id="Trazado_1264145" data-name="Trazado 1264145" d="M10.053,20.315a4.408,4.408,0,1,0-4.408-4.408,4.416,4.416,0,0,0,4.408,4.408" transform="translate(-0.33 -0.673)" fill="#461358" fill-rule="evenodd"/>
        <path id="Trazado_1264146" data-name="Trazado 1264146" d="M19.819,149.019a4.408,4.408,0,1,0-4.408-4.408,4.416,4.416,0,0,0,4.408,4.408" transform="translate(-0.902 -8.206)" fill="#461358" fill-rule="evenodd"/>
        <path id="Trazado_1264147" data-name="Trazado 1264147" d="M76.3,163.994H99.937c16.329,0,16.021,78.106,15.2,88.68a87.234,87.234,0,0,0-30.938,0L72.648,167.643c-.269-1.989,1.643-3.649,3.65-3.649" transform="translate(-4.251 -9.598)" fill="#e2a4db" fill-rule="evenodd"/>
        <path id="Trazado_1264148" data-name="Trazado 1264148" d="M57.028,167.9h88.386a3.66,3.66,0,0,1,3.65,3.649V173.6H53.379v-2.054a3.66,3.66,0,0,1,3.649-3.649" transform="translate(-3.124 -9.827)" fill="#752092" fill-rule="evenodd"/>
        <rect id="Rectángulo_458290" data-name="Rectángulo 458290" width="5.988" height="106.074" transform="translate(95.104 163.773)" fill="#752092"/>
        <path id="Trazado_1264149" data-name="Trazado 1264149" d="M72.3,309.877a2.155,2.155,0,0,1-4.311,0c0-6.195,3.971-11.721,10.389-15.647,6.1-3.732,14.485-6.04,23.7-6.04s17.6,2.309,23.7,6.04c6.418,3.926,10.389,9.452,10.389,15.647a2.155,2.155,0,0,1-4.311,0c0-4.592-3.179-8.834-8.318-11.976-5.456-3.338-13.042-5.4-21.463-5.4s-16.007,2.064-21.463,5.4c-5.139,3.142-8.318,7.384-8.318,11.976" transform="translate(-3.979 -16.868)" fill="#752092" fill-rule="evenodd"/>
        <path id="Trazado_1264150" data-name="Trazado 1264150" d="M103.9,288.191c2.621,0,4.759-1.8,4.759-4.011s-2.138-4.01-4.759-4.01-4.76,1.8-4.76,4.01,2.139,4.011,4.76,4.011" transform="translate(-5.803 -16.398)" fill="#752092" fill-rule="evenodd"/>
        <path id="Trazado_1264151" data-name="Trazado 1264151" d="M69.479,323.189a7.913,7.913,0,1,0-7.912-7.913,7.929,7.929,0,0,0,7.912,7.913" transform="translate(-3.603 -17.99)" fill="#752092" fill-rule="evenodd"/>
        <path id="Trazado_1264152" data-name="Trazado 1264152" d="M69.714,319.646a4.135,4.135,0,1,0-4.135-4.135,4.143,4.143,0,0,0,4.135,4.135" transform="translate(-3.838 -18.225)" fill="#e2a4db" fill-rule="evenodd"/>
        <path id="Trazado_1264153" data-name="Trazado 1264153" d="M137.928,323.189a7.913,7.913,0,1,0-7.912-7.913,7.929,7.929,0,0,0,7.912,7.913" transform="translate(-7.61 -17.99)" fill="#752092" fill-rule="evenodd"/>
        <path id="Trazado_1264154" data-name="Trazado 1264154" d="M138.163,319.646a4.135,4.135,0,1,0-4.135-4.135,4.143,4.143,0,0,0,4.135,4.135" transform="translate(-7.845 -18.225)" fill="#e2a4db" fill-rule="evenodd"/>
        <path id="Trazado_1264155" data-name="Trazado 1264155" d="M217.947,307.932h11.927a17.911,17.911,0,0,0-3.478,8.007c-.4,2.072-13.508,2.2-11.928,0a12.005,12.005,0,0,0,3.479-8.007" transform="translate(-12.545 -18.023)" fill="#feceb4" fill-rule="evenodd"/>
        <path id="Trazado_1264156" data-name="Trazado 1264156" d="M210.1,316.138c8.893,0,15.405-2.038,16.776-2.038a4.59,4.59,0,0,1,4.7,4.471,4.41,4.41,0,0,1-2.032,3.681h-24.59a3.745,3.745,0,0,1-.371-1.622c0-2.481,2.469-4.492,5.517-4.492" transform="translate(-11.974 -18.384)" fill="#752092" fill-rule="evenodd"/>
        <path id="Trazado_1264157" data-name="Trazado 1264157" d="M210.1,316.138c8.893,0,15.405-2.038,16.776-2.038a4.876,4.876,0,0,1,1.982.416c-4.566,4.836-15.054,6.679-24.175,6.969a3.68,3.68,0,0,1-.1-.855c0-2.481,2.469-4.492,5.517-4.492" transform="translate(-11.974 -18.384)" fill="#e2a4db" fill-rule="evenodd"/>
        <path id="Trazado_1264158" data-name="Trazado 1264158" d="M205.836,324.09H229a.854.854,0,0,0,.851-.851v-.479H204.985v.479a.853.853,0,0,0,.851.851" transform="translate(-11.998 -18.891)" fill="#202d5a" fill-rule="evenodd"/>
        <path id="Trazado_1264159" data-name="Trazado 1264159" d="M213.674,300.548c1.917,1.991,14.852,1.605,16.25.421,2.511-8.341,9.867-32.538,5.316-44.423-1.9-4.978-5.123-9.394-5.381-13.512-.361-5.749,1.873-18.562,2.518-24.541,1.6-14.818.409-35.235-5.762-46.517-6.305-11.527-43.8-.515-36.5,14.808,24.187,50.789,21.533,82.056,23.563,113.764" transform="translate(-11.072 -9.785)" fill="#aa7c3a" fill-rule="evenodd"/>
        <path id="Trazado_1264160" data-name="Trazado 1264160" d="M183.121,307.932h11.927a17.849,17.849,0,0,0-3.45,8.007c-.389,2.072-13.5,2.2-11.927,0a11.963,11.963,0,0,0,3.45-8.007" transform="translate(-10.508 -18.023)" fill="#feceb4" fill-rule="evenodd"/>
        <path id="Trazado_1264161" data-name="Trazado 1264161" d="M175.308,316.138c8.893,0,15.405-2.038,16.776-2.038a4.59,4.59,0,0,1,4.7,4.471,4.41,4.41,0,0,1-2.032,3.681h-24.59a3.746,3.746,0,0,1-.372-1.622c0-2.481,2.47-4.492,5.518-4.492" transform="translate(-9.938 -18.384)" fill="#752092" fill-rule="evenodd"/>
        <path id="Trazado_1264162" data-name="Trazado 1264162" d="M175.308,316.138c8.893,0,15.405-2.038,16.776-2.038a4.876,4.876,0,0,1,1.982.416c-4.566,4.836-15.054,6.679-24.175,6.969a3.68,3.68,0,0,1-.1-.855c0-2.481,2.47-4.492,5.518-4.492" transform="translate(-9.938 -18.384)" fill="#e2a4db" fill-rule="evenodd"/>
        <path id="Trazado_1264163" data-name="Trazado 1264163" d="M171.045,324.09h23.164a.854.854,0,0,0,.852-.851v-.479H170.194v.479a.853.853,0,0,0,.851.851" transform="translate(-9.961 -18.891)" fill="#202d5a" fill-rule="evenodd"/>
        <path id="Trazado_1264164" data-name="Trazado 1264164" d="M180.7,300.657c1.52,1.991,14.532,1.605,16.167.421,4.175-8.341,16.365-32.537,14.188-44.423-1.046-5.717-4.006-10.545-1.677-15.1,3.471-6.782,10.9-20.56,13.339-32.379,2.941-14.228,3.781-25.244-1.954-34.509-8.593-13.884-39.722.867-36.484,12.578,4.206,48.365.724,81.7-3.579,113.409" transform="translate(-10.576 -9.894)" fill="#cba05b" fill-rule="evenodd"/>
        <path id="Trazado_1264165" data-name="Trazado 1264165" d="M134.48,167.6H108.137c-.477-1.53.972-3.965,3.2-5.343,2.957-1.829,5.771-1.264,9.045-.806a129.26,129.26,0,0,0,14.832,1.124c10.706,0,5.132,2.26-.735,5.025" transform="translate(-6.324 -9.423)" fill="#feceb4" fill-rule="evenodd"/>
        <path id="Trazado_1264166" data-name="Trazado 1264166" d="M115.394,161.208c2.876-.794,15.19,1.363,19.52,1.363,16.022,0-15.194,3.44-20,3.084-5.554-.411-3.085-3.464.485-4.447" transform="translate(-6.534 -9.425)" fill="#fedfcd" fill-rule="evenodd"/>
        <path id="Trazado_1264167" data-name="Trazado 1264167" d="M206.806,114.922c6.638,40.825-69.18,54.91-79.275,48.7-.588-1.152-1.461-5.5-.72-6.472,10.9-4.312,33.9-17.681,41.216-30.448,5.121-8.933-4.162-23.109,11.947-29.6,11.2-4.514,24.339,2.484,26.832,17.817" transform="translate(-7.406 -5.604)" fill="#ff9e41" fill-rule="evenodd"/>
        <path id="Trazado_1264168" data-name="Trazado 1264168" d="M133.416,169.5a12.02,12.02,0,0,1-5.381-1.428l-.252-.164-.138-.281c-.768-1.566-1.745-6.394-.746-7.873l.169-.251.265-.119c1.575-.707,3.165-1.626,4.693-2.445.64-.344,1.038-.572.99.41a35.423,35.423,0,0,0,.065,4.292,33.947,33.947,0,0,0,1.242,7c.281.95.027.932-.909.856" transform="translate(-7.402 -9.168)" fill="#ffb34c" fill-rule="evenodd"/>
        <path id="Trazado_1264169" data-name="Trazado 1264169" d="M183.014,81.867c3.034,6.715-3.678,14.052-6.238,17.078,5.037-.884,16.886-2.255,20.477,2.948a80.861,80.861,0,0,0-3.131-22.768c-2.865,1.536-8.345,3.37-11.107,2.742" transform="translate(-10.347 -4.631)" fill="#fea682" fill-rule="evenodd"/>
        <path id="Trazado_1264170" data-name="Trazado 1264170" d="M192.846,99.681c-1.253-4.068-4.309-17.075-9.121-14.947.7,5.939-4.711,11.88-6.949,14.526,5.419-.952,12.286-2.566,16.07.421" transform="translate(-10.347 -4.946)" fill="#febea0" fill-rule="evenodd"/>
        <path id="Trazado_1264171" data-name="Trazado 1264171" d="M185.331,56.551c-3.576,3.266-6.336,12.3-6.823,15.412-.7,4.5-.972,5.956,2.34,7.714,4.56,2.421,12.767.912,16.036-5.242,3.784-7.125,4.078-13.4-4.135-17.482-2.726-1.354-5.709-1.962-7.419-.4" transform="translate(-10.422 -3.256)" fill="#feceb4" fill-rule="evenodd"/>
        <path id="Trazado_1264172" data-name="Trazado 1264172" d="M180.758,64.845a42.055,42.055,0,0,0-2.251,7.642c-.7,4.5-.971,5.956,2.341,7.714a10.135,10.135,0,0,0,4.223,1.084,8.178,8.178,0,0,0,3.3-3.314c2.693-5.071,2.9-9.538-2.943-12.442-1.649-.819-3.43-1.255-4.674-.684" transform="translate(-10.422 -3.78)" fill="#fedfcd" fill-rule="evenodd"/>
        <path id="Trazado_1264173" data-name="Trazado 1264173" d="M182.16,188.2c2.063.726,6.471.184,11.736-1.153l-.341-9.86,4.825,8.6c21.413,15.068,40.931,8.837,30.423-17.58-4.717-13.841-7.758-28.742-13.883-44.607-7.616-19.726-20.7-36.749-36.82-26.994-4.275,2.586-6.425,10.549-9.223,17.933-3.76,9.917.034,14.763,3.746,22.673,8.884,18.932,9.343,39.057,9.536,50.991" transform="translate(-9.793 -5.489)" fill="#ffb34c" fill-rule="evenodd"/>
        <path id="Trazado_1264174" data-name="Trazado 1264174" d="M182.426,188.955c2.063.726,6.471.184,11.736-1.152l-.34-9.861,4.824,8.6c7.688,5.41,15.13,8.074,21.028,8.045.1-3.681-.8-8.195-2.923-13.535-4.716-13.842-7.758-28.742-13.883-44.607-1.188-3.079-2.511-6.091-3.957-8.947-2.281,5.539-6.945,10.762-13.9,14.226a31.8,31.8,0,0,1-9.3,3.035c6.163,16.813,6.54,33.686,6.711,44.2m-6.184-82.306a15.291,15.291,0,0,0-4.035.3q-.168.431-.333.869a36.269,36.269,0,0,0,4.368-1.166" transform="translate(-10.06 -6.241)" fill="#ffc552" fill-rule="evenodd"/>
        <path id="Trazado_1264175" data-name="Trazado 1264175" d="M177.505,97.169c1.225-8.76,3.022-7.782,12.547-8.236,10.061-.479,6.223-2.5,11.044,10.544-7.2-3.879-15.153-4.239-23.591-2.308" transform="translate(-10.389 -5.182)" fill="#ff9e41" fill-rule="evenodd"/>
        <path id="Trazado_1264176" data-name="Trazado 1264176" d="M192.5,63.057c-3.187,3.055-1.288,4.418.648,5.333,1.5.707,2.964.979,2.167,1.727-.632,1.932-.194,4.459-.951,6.861-3.623,11.5,15.817,60.8,39.791,42.394-6.181-4.061-1.642-6.732,2.959-9.8,9.005-6.008,7.952-15.279,4.126-24.756-6.632,1.047-11.29.022-14.677-2.27,2.335-.151,3.958-1.53,3.911-4.728-20.339.652-6.794-40.568-34.171-30.812-10.41-10.552-21.36,11.369-3.8,16.051" transform="translate(-10.725 -2.585)" fill="#151e3b" fill-rule="evenodd"/>
        <path id="Trazado_1264177" data-name="Trazado 1264177" d="M200.232,74.426a5.668,5.668,0,0,1-3.751,3.8c-1.464.486-2.984.434-3.128-.752.964-1.41,1.943-5.525,2.217-6.786,2.4-.927,5.315,1.248,4.661,3.734" transform="translate(-11.317 -4.125)" fill="#feceb4" fill-rule="evenodd"/>
        <path id="Trazado_1264178" data-name="Trazado 1264178" d="M197.931,72.4c.984.44.741,4.025-2.118,4.206a5,5,0,0,0,.893-1.423,6.5,6.5,0,0,0,.56-2.535c-.035-.617-.061-.573.666-.249" transform="translate(-11.461 -4.224)" fill="#fea682" fill-rule="evenodd"/>
        <path id="Trazado_1264179" data-name="Trazado 1264179" d="M122.238,60.309s-7.1-9.854-8.3-12.381-.373-7.113,1.5-9.2c1.9-1.35,1.505-7.349.889-10.6-1-5.252,1.489-4.613,2.992-.885,2.62,6.5,8.994,26.11,7.957,31.932a6.991,6.991,0,0,1-5.034,1.132" transform="translate(-6.636 -1.423)" fill="#feceb4" fill-rule="evenodd"/>
        <path id="Trazado_1264180" data-name="Trazado 1264180" d="M182.935,192.325c2.063.726,6.471.184,11.736-1.153-10.2-1.887-8.345-2.587-14.1-26.985a164.834,164.834,0,0,1,2.367,28.139" transform="translate(-10.569 -9.61)" fill="#ffe586" fill-rule="evenodd"/>
        <path id="Trazado_1264181" data-name="Trazado 1264181" d="M184.75,141.557a31.825,31.825,0,0,1-9.3,3.035c-.832-2.27-1.769-4.54-2.825-6.792-3.712-7.91-7.506-12.756-3.747-22.673.949-2.5,1.823-5.072,2.73-7.476,8.574-1.6,18.281-8.951,25.864,2.307,6.352,9.429,1.808,24.36-12.722,31.6" transform="translate(-9.794 -6.076)" fill="#ff9e41" fill-rule="evenodd"/>
        <path id="Trazado_1264182" data-name="Trazado 1264182" d="M179.905,134.026c-39.7,11.592-62.976-61.928-58.054-72.708,1.071-.724,5.282-2.124,6.335-1.507,5.614,10.287,21.7,31.476,35.269,37.174,9.493,3.986,22.425-6.964,30.844,8.228,5.852,10.561.519,24.459-14.394,28.813" transform="translate(-7.094 -3.492)" fill="#ffb34c" fill-rule="evenodd"/>
        <path id="Trazado_1264183" data-name="Trazado 1264183" d="M132.284,77.819c8.308,10.535,19.479,21.491,29.058,25.361a14.978,14.978,0,0,0,2.32.722c4.11.93,8.232.18,12.323-.348,6.893-.891,11.044-.473,14.845,6.081a14.559,14.559,0,0,1,2,7.513c-.1,8.153-6.589,13.885-14.1,16.093a25.769,25.769,0,0,1-14.288.231c-12.028-3.269-21.462-14.838-27.527-24.965a111.873,111.873,0,0,1-11.5-26.653c-2.785-9.9-.509-13.389,6.867-4.034" transform="translate(-7.273 -4.234)" fill="#ffc552" fill-rule="evenodd"/>
        <path id="Trazado_1264184" data-name="Trazado 1264184" d="M120.223,67.439a12.021,12.021,0,0,1,.758-5.515l.132-.27.263-.171c1.459-.956,6.131-2.517,7.722-1.706l.27.137.15.249c.894,1.477,2,2.942,3,4.359.419.592.695.959-.286,1.033a35.705,35.705,0,0,0-4.253.59,33.948,33.948,0,0,0-6.8,2.091c-.909.394-.921.14-.96-.8" transform="translate(-7.035 -3.485)" fill="#ff9e41" fill-rule="evenodd"/>
      </g>
    </g>
  </g>
</svg>
