<svg xmlns="http://www.w3.org/2000/svg" xmlns:xlink="http://www.w3.org/1999/xlink" width="84" height="84" viewBox="0 0 84 84">
  <defs>
    <clipPath id="clip-path">
      <rect id="Rectángulo_458260" data-name="Rectángulo 458260" width="28.915" height="68.396" fill="#752092"/>
    </clipPath>
  </defs>
  <g id="Grupo_1210318" data-name="Grupo 1210318" transform="translate(-893.711 -5114)">
    <g id="Grupo_1210284" data-name="Grupo 1210284" transform="translate(0 -23)">
      <g id="Grupo_1210018" data-name="Grupo 1210018" transform="translate(187.711 3458.08)">
        <g id="Grupo_1119665" data-name="Grupo 1119665" transform="translate(534.111 -3840.08)">
          <rect id="Rectángulo_402006" data-name="Rectángulo 402006" width="84" height="84" rx="5" transform="translate(171.889 5519)" fill="#cdbfdc"/>
        </g>
      </g>
      <g id="Grupo_1210283" data-name="Grupo 1210283" transform="translate(921.711 5145)">
        <g id="Grupo_1210282" data-name="Grupo 1210282" clip-path="url(#clip-path)">
          <path id="Trazado_1264062" data-name="Trazado 1264062" d="M30.02,27.852a1.492,1.492,0,0,1-.6-1.623l1.051-4.084a14.348,14.348,0,0,1,1.565-3.761l1.22-2.05A5.3,5.3,0,0,0,28.7,8.323H27.321a1.436,1.436,0,0,1-1.434-1.434V1.52A1.522,1.522,0,0,0,24.366,0H16.591a1.522,1.522,0,0,0-1.52,1.52V6.889a1.436,1.436,0,0,1-1.434,1.434H12.26A5.3,5.3,0,0,0,7.7,16.335l1.472,2.474a1,1,0,1,0,1.72-1.023L9.424,15.311a3.3,3.3,0,0,1,2.836-4.987h1.377a3.439,3.439,0,0,0,3.435-3.435V2h6.813V6.889a3.439,3.439,0,0,0,3.435,3.435H28.7a3.3,3.3,0,0,1,2.836,4.987l-1.22,2.05a16.353,16.353,0,0,0-1.783,4.285L27.479,25.73a3.494,3.494,0,0,0,1.437,3.791,8.943,8.943,0,0,1,3.805,9.41l-1,4.509a1,1,0,1,0,1.953.435l1-4.509A10.946,10.946,0,0,0,30.02,27.852Z" transform="translate(-6.021)" fill="#752092"/>
          <path id="Trazado_1264063" data-name="Trazado 1264063" d="M25.279,201.1a5.1,5.1,0,0,0-2.543-2.576,19.578,19.578,0,0,0-5.627-1.587v-3.7H22.84a3.165,3.165,0,0,0,3.108-2.492l.73-3.279a1,1,0,0,0-1.953-.435l-.73,3.279a1.176,1.176,0,0,1-1.154.925H6.075a1.176,1.176,0,0,1-1.154-.925L2.215,178.173a8.943,8.943,0,0,1,3.805-9.41,3.494,3.494,0,0,0,1.437-3.791l-.9-3.51a1,1,0,1,0-1.938.5l.9,3.51a1.492,1.492,0,0,1-.6,1.623A10.944,10.944,0,0,0,.262,178.608L2.967,190.75a3.165,3.165,0,0,0,3.108,2.492h5.731v3.7a19.573,19.573,0,0,0-5.627,1.587A5.118,5.118,0,0,0,3.7,200.959a3.294,3.294,0,1,0,2.095.38,3.106,3.106,0,0,1,1.213-.991,17.831,17.831,0,0,1,6.37-1.545v2.3a3.29,3.29,0,1,0,2-.048v-2.26a17.859,17.859,0,0,1,6.521,1.553,3.1,3.1,0,0,1,1.282,1.087,3.29,3.29,0,1,0,2.094-.331ZM4.2,205.5a1.289,1.289,0,1,1,1.29-1.289A1.291,1.291,0,0,1,4.2,205.5Zm10.911-9.533h-1.3v-2.727h1.3Zm-.65,9.533a1.289,1.289,0,1,1,1.29-1.289A1.291,1.291,0,0,1,14.458,205.5Zm10.261.133a1.29,1.29,0,1,1,1.29-1.29A1.291,1.291,0,0,1,24.718,205.636Z" transform="translate(0 -139.241)" fill="#752092"/>
        </g>
      </g>
    </g>
  </g>
</svg>
