<svg xmlns="http://www.w3.org/2000/svg" xmlns:xlink="http://www.w3.org/1999/xlink" width="84" height="84" viewBox="0 0 84 84">
  <defs>
    <clipPath id="clip-path">
      <rect id="Rectángulo_458261" data-name="Rectángulo 458261" width="56.289" height="58.232" fill="none"/>
    </clipPath>
  </defs>
  <g id="Grupo_1210319" data-name="Grupo 1210319" transform="translate(-185.711 -7251)">
    <g id="Grupo_1210042" data-name="Grupo 1210042" transform="translate(-520.289 5572.08)">
      <g id="Grupo_1119665" data-name="Grupo 1119665" transform="translate(534.111 -3840.08)">
        <rect id="Rectángulo_402006" data-name="Rectángulo 402006" width="84" height="84" rx="5" transform="translate(171.889 5519)" fill="#cdbfdc"/>
      </g>
    </g>
    <g id="Grupo_1210288" data-name="Grupo 1210288" transform="translate(198.711 7263)">
      <g id="Grupo_1210287" data-name="Grupo 1210287" clip-path="url(#clip-path)">
        <path id="Trazado_1264064" data-name="Trazado 1264064" d="M53.377,13.588H39.785A8.472,8.472,0,0,0,43.6,9.825a3.531,3.531,0,0,0,.194-2.45c-1.006-3.24-5.58-3.785-8.919-4.183-.656-.078-1.249-.148-1.724-.234a.971.971,0,1,0-.341,1.911c.506.09,1.137.167,1.835.249,2.653.317,6.662.794,7.294,2.832a1.616,1.616,0,0,1-.119,1.095c-.777,1.761-2.773,2.784-4.707,3.773-.5.256-.99.51-1.456.77H22.322A2.912,2.912,0,0,0,19.41,16.5v3.857C17.843,19.664,16.5,18.5,16.5,16.5a16.919,16.919,0,0,1,.962-4.464c1.083-3.581,2.313-7.641-1.145-10.416C14.524.182,11.1-.2,8.5.649A5.844,5.844,0,0,0,5.435.012,5.718,5.718,0,0,0,1.529,1.973,6.2,6.2,0,0,0,0,6.057a48.506,48.506,0,0,0,1.128,7.725c.356,1.835.694,3.568.814,4.707L3.766,55.621v.016a3.043,3.043,0,0,0,1.605,2.484.97.97,0,0,0,.9,0,3.049,3.049,0,0,0,1.606-2.5L9.705,18.538c.124-1.192.462-2.925.818-4.755a48.452,48.452,0,0,0,1.123-7.725V5.824a5.806,5.806,0,0,0-1.273-3.633,6.87,6.87,0,0,1,4.727.944c2.265,1.818,1.669,4.483.5,8.34A18.168,18.168,0,0,0,14.557,16.5c0,3.229,2.295,5.023,4.853,5.947V55.32a2.912,2.912,0,0,0,2.912,2.912H53.377a2.912,2.912,0,0,0,2.912-2.912V16.5a2.912,2.912,0,0,0-2.912-2.912M9.705,6.057A48.757,48.757,0,0,1,8.613,13.41c-.365,1.878-.711,3.653-.848,4.983L5.941,55.508a1.105,1.105,0,0,1-.118.432,1.141,1.141,0,0,1-.118-.425L3.882,18.343c-.134-1.276-.479-3.051-.844-4.929a48.746,48.746,0,0,1-1.1-7.357,4.261,4.261,0,0,1,1.047-2.8A3.784,3.784,0,0,1,5.567,1.95a3.917,3.917,0,0,1,.621.025,4.3,4.3,0,0,0-1.2,2.068A3.363,3.363,0,0,0,2.912,7.28c0,.316,0,1.278,1.585,4.787a1.456,1.456,0,0,0,2.652,0C8.735,8.558,8.735,7.6,8.735,7.28A3.452,3.452,0,0,0,6.988,4.174a2.787,2.787,0,0,1,1.3-1.322c.091.076.194.138.277.221A3.9,3.9,0,0,1,9.705,5.824ZM5.7,5.844c.02,0,.037.015.057.016a.89.89,0,0,0,.165-.021c.476.078.873.714.873,1.44a11.177,11.177,0,0,1-.971,2.976A11.174,11.174,0,0,1,4.853,7.28,1.421,1.421,0,0,1,5.7,5.844M21.351,55.32V22.991a15.083,15.083,0,0,0,2.912.3.963.963,0,0,0,.1-1.921.76.76,0,0,0-.1-.02,15.428,15.428,0,0,1-2.912-.368V19.411h2.912a.971.971,0,0,0,0-1.941H21.351V16.5a.971.971,0,0,1,.971-.971h4.853V56.29H22.322a.971.971,0,0,1-.971-.971m33,0a.971.971,0,0,1-.971.971H29.115V15.529H53.377a.971.971,0,0,1,.971.971Z" transform="translate(0 0)" fill="#752092"/>
        <path id="Trazado_1264065" data-name="Trazado 1264065" d="M50.568,53.733a.97.97,0,1,1-.971.971.971.971,0,0,1,.971-.971" transform="translate(-26.305 -28.499)" fill="#752092"/>
        <path id="Trazado_1264066" data-name="Trazado 1264066" d="M50.568,62a.97.97,0,1,1-.971.971A.971.971,0,0,1,50.568,62" transform="translate(-26.305 -32.883)" fill="#752092"/>
        <path id="Trazado_1264067" data-name="Trazado 1264067" d="M50.568,70.265a.97.97,0,1,1-.971.971.971.971,0,0,1,.971-.971" transform="translate(-26.305 -37.267)" fill="#752092"/>
        <path id="Trazado_1264068" data-name="Trazado 1264068" d="M50.568,78.531a.97.97,0,1,1-.971.971.971.971,0,0,1,.971-.971" transform="translate(-26.305 -41.651)" fill="#752092"/>
        <path id="Trazado_1264069" data-name="Trazado 1264069" d="M50.568,86.8a.97.97,0,1,1-.971.971.971.971,0,0,1,.971-.971" transform="translate(-26.305 -46.036)" fill="#752092"/>
        <path id="Trazado_1264070" data-name="Trazado 1264070" d="M50.568,95.064a.97.97,0,1,1-.971.971.971.971,0,0,1,.971-.971" transform="translate(-26.305 -50.42)" fill="#752092"/>
        <path id="Trazado_1264071" data-name="Trazado 1264071" d="M50.568,103.33a.97.97,0,1,1-.971.971.971.971,0,0,1,.971-.971" transform="translate(-26.305 -54.804)" fill="#752092"/>
        <path id="Trazado_1264072" data-name="Trazado 1264072" d="M50.568,111.6a.97.97,0,1,1-.971.971.971.971,0,0,1,.971-.971" transform="translate(-26.305 -59.188)" fill="#752092"/>
        <path id="Trazado_1264073" data-name="Trazado 1264073" d="M85.916,41.333H74.27a1.941,1.941,0,0,0-1.941,1.941v3.882A1.941,1.941,0,0,0,74.27,49.1H85.916a1.941,1.941,0,0,0,1.941-1.941V43.274a1.941,1.941,0,0,0-1.941-1.941M74.27,43.274H85.916v3.882H74.27Z" transform="translate(-38.362 -21.922)" fill="#752092"/>
        <path id="Trazado_1264074" data-name="Trazado 1264074" d="M87.012,64.066H75.366a.97.97,0,0,0,0,1.941H87.012a.97.97,0,1,0,0-1.941" transform="translate(-39.458 -33.979)" fill="#752092"/>
        <path id="Trazado_1264075" data-name="Trazado 1264075" d="M87.012,72.332H75.366a.97.97,0,0,0,0,1.941H87.012a.97.97,0,1,0,0-1.941" transform="translate(-39.458 -38.363)" fill="#752092"/>
        <path id="Trazado_1264076" data-name="Trazado 1264076" d="M87.012,80.6H75.366a.97.97,0,0,0,0,1.941H87.012a.97.97,0,1,0,0-1.941" transform="translate(-39.458 -42.747)" fill="#752092"/>
        <path id="Trazado_1264077" data-name="Trazado 1264077" d="M68.071,111.6H67.1a.97.97,0,0,0,0,1.941h.971a.97.97,0,1,0,0-1.941" transform="translate(-35.074 -59.188)" fill="#752092"/>
        <path id="Trazado_1264078" data-name="Trazado 1264078" d="M82.16,111.6H75.366a.97.97,0,0,0,0,1.941H82.16a.97.97,0,1,0,0-1.941" transform="translate(-39.458 -59.188)" fill="#752092"/>
      </g>
    </g>
  </g>
</svg>
