<svg xmlns="http://www.w3.org/2000/svg" xmlns:xlink="http://www.w3.org/1999/xlink" width="208" height="174" viewBox="0 0 208 174">
  <defs>
    <clipPath id="clip-path">
      <rect id="Rectángulo_455174" data-name="Rectángulo 455174" width="124.217" height="136.862" fill="none"/>
    </clipPath>
    <clipPath id="clip-path-3">
      <rect id="Rectángulo_455168" data-name="Rectángulo 455168" width="9.138" height="6.819" fill="none"/>
    </clipPath>
    <clipPath id="clip-path-4">
      <path id="Trazado_1261635" data-name="Trazado 1261635" d="M168.725,89.893l-2.775-.965-3.028-.4-1.693-.723-.383-.552-.574-2.9.957-1.276,8.182,4.181Z" transform="translate(-160.272 -83.074)" fill="none"/>
    </clipPath>
    <linearGradient id="linear-gradient" x1="-4.27" y1="7.894" x2="-4.242" y2="7.894" gradientUnits="objectBoundingBox">
      <stop offset="0" stop-color="#fff"/>
      <stop offset="0.643" stop-color="#c6c0b9"/>
      <stop offset="1" stop-color="#c6c0b9"/>
    </linearGradient>
    <clipPath id="clip-path-5">
      <rect id="Rectángulo_455170" data-name="Rectángulo 455170" width="19.732" height="23.666" fill="none"/>
    </clipPath>
    <clipPath id="clip-path-6">
      <path id="Trazado_1261644" data-name="Trazado 1261644" d="M262.464,221.425l-7.919-3.476-3.115.968-8.392,2.612c1.178,4.933,2.527,9.974,3.184,11.944.414,1.247,1.287,4.425,2.183,8.143l5.422-5.446A29.5,29.5,0,0,1,252.782,229c.052-1.1.176-3.256.319-5.6,1.371,3.731,2.652,7.373,3.449,10.031l6.144-6.173.076-1.03c-.105-1.552-.206-3.189-.306-4.807" transform="translate(-243.038 -217.949)" fill="none"/>
    </clipPath>
    <linearGradient id="linear-gradient-2" x1="-2.934" y1="1.825" x2="-2.921" y2="1.825" gradientUnits="objectBoundingBox">
      <stop offset="0" stop-color="#fff"/>
      <stop offset="0.152" stop-color="#fafaf9"/>
      <stop offset="0.346" stop-color="#edebe9"/>
      <stop offset="0.561" stop-color="#d8d4cf"/>
      <stop offset="0.713" stop-color="#c6c0b9"/>
      <stop offset="1" stop-color="#c6c0b9"/>
    </linearGradient>
    <clipPath id="clip-path-7">
      <rect id="Rectángulo_455172" data-name="Rectángulo 455172" width="9.12" height="14.288" fill="none"/>
    </clipPath>
    <clipPath id="clip-path-8">
      <path id="Trazado_1261657" data-name="Trazado 1261657" d="M247.273,34.494c-.613-1.563,5.78,2.049,7.845,3.492L247.187,48.4c-1.29-.438-.738-4.508-1.189-5.049.662-1.052,2.36-6.111,1.275-8.855" transform="translate(-245.998 -34.11)" fill="none"/>
    </clipPath>
    <linearGradient id="linear-gradient-3" x1="-9.928" y1="7.924" x2="-9.887" y2="7.924" xlink:href="#linear-gradient"/>
  </defs>
  <g id="Grupo_1210324" data-name="Grupo 1210324" transform="translate(-184.63 -703)">
    <rect id="Rectángulo_455163" data-name="Rectángulo 455163" width="208" height="174" transform="translate(184.63 703)" fill="#fee383"/>
    <path id="Trazado_1261664" data-name="Trazado 1261664" d="M146.355,147.992c26.857-17.177,27.914-45.8,22.9-74.4-2.561-14.6-2.967-28.971-4.743-43.56-.818-6.724-2.444-13.516-6.189-19.16a23.006,23.006,0,0,0-8.275-7.688c-11.2-6.09-26.593-2.073-38.9.3C86.292,9.7,58.386,9.655,35.082,20.99,17.09,29.741-2.3,49.525.223,71.207,1.471,81.927,8.1,91.436,16.356,98.39c14.919,12.568,34.334,19.16,50.51,29.985,11.662,7.8,20.43,21.776,33.87,26.747,14.174,5.243,32.643.986,45.05-6.77q.286-.179.569-.359" transform="translate(199.824 712.563)" fill="#fffae6" opacity="0.651"/>
    <g id="Grupo_1204066" data-name="Grupo 1204066" transform="translate(226.521 723.785)">
      <g id="Grupo_1204065" data-name="Grupo 1204065" clip-path="url(#clip-path)">
        <g id="Grupo_1204064" data-name="Grupo 1204064">
          <g id="Grupo_1204063" data-name="Grupo 1204063" clip-path="url(#clip-path)">
            <path id="Trazado_1261593" data-name="Trazado 1261593" d="M91.618,217.167c0,.209-.322.38-.724.38s-.718-.171-.718-.38v-57.8c0-.208.322-.378.718-.378s.724.171.724.378Z" transform="translate(-54.738 -96.511)" fill="#9b8f8e"/>
            <path id="Trazado_1261594" data-name="Trazado 1261594" d="M29.293,227.055c-.043.226-.392.318-.78.2s-.665-.387-.621-.611l12.242-62.384c.044-.224.392-.318.779-.205s.666.386.623.611Z" transform="translate(-16.928 -99.558)" fill="#9b8f8e"/>
            <path id="Trazado_1261595" data-name="Trazado 1261595" d="M130.632,223.213c.044.223.392.316.782.2s.663-.387.619-.611l-12.243-62.384c-.039-.224-.392-.32-.776-.205s-.668.386-.625.61Z" transform="translate(-71.861 -97.225)" fill="#9b8f8e"/>
            <rect id="Rectángulo_455164" data-name="Rectángulo 455164" width="65.56" height="64.284" transform="translate(1.596 4.396)" fill="#d8d8d8"/>
            <path id="Trazado_1261596" data-name="Trazado 1261596" d="M68.751,9.121c0,.368-.5.665-1.126.665H1.126C.5,9.786,0,9.489,0,9.121V7.793c0-.367.5-.665,1.126-.665h66.5c.623,0,1.126.3,1.126.665Z" transform="translate(0 -4.327)" fill="#663c22"/>
            <path id="Trazado_1261597" data-name="Trazado 1261597" d="M68.751,171.351c0,.367-.5.666-1.126.666H1.126c-.623,0-1.126-.3-1.126-.666v-1.328c0-.365.5-.663,1.126-.663h66.5c.623,0,1.126.3,1.126.663Z" transform="translate(0 -102.804)" fill="#663c22"/>
            <path id="Trazado_1261598" data-name="Trazado 1261598" d="M27.279,78.722c-.057-5.448.048-8.508-.168-23.038l.012-.1c0-.007,1.762-6.389,1.752-8.1a9.841,9.841,0,0,0-1.754-5.123l.273-.2.189.282-.189-.282-.273.2a.327.327,0,0,1-.061-.258.322.322,0,0,1,.144-.222c1.256-.74,1.367-5.6,1.43-6.188.248-.483.448-.356.839-.566.373-.137.852-.283,1.331-.423.954-.279,1.9-.518,1.9-.521a.338.338,0,0,1,.362.136c.01,0,2.385,3.335,4.492,3.6a.335.335,0,0,1,.289.347c-.055,1.526-.077,2.956-.077,4.186,0,2.2.061,3.752.074,4.06l10.512,28.8a.34.34,0,0,1-.026.286.355.355,0,0,1-.239.166c-.025,0-19.516,3.283-20.47,3.292a.341.341,0,0,1-.34-.337m.677-.377c2.471-.314,17.013-2.743,19.622-3.182L37.189,46.7l-.018-.1c0-.006-.08-1.675-.08-4.148,0-1.16.016-2.5.067-3.927-2.118-.527-3.982-2.922-4.5-3.624a35.212,35.212,0,0,0-3.376,1.03c-.094.782-.024,4.813-1.44,6.288a10.32,10.32,0,0,1,1.714,5.267c-.01,1.855-1.6,7.623-1.764,8.229.211,14.162.116,17.421.168,22.627" transform="translate(-16.422 -20.746)" fill="#2f0d3a"/>
            <path id="Trazado_1261599" data-name="Trazado 1261599" d="M27.175,78.794V33.721l21.407.167V78.794Zm.356-.359H48.223V34.249l-20.692-.171Zm-.178-44.358v0Z" transform="translate(-16.496 -20.469)" fill="#2f0d3a"/>
            <rect id="Rectángulo_455165" data-name="Rectángulo 455165" width="14.563" height="0.356" transform="translate(12.907 25.994)" fill="#2f0d3a"/>
            <path id="Trazado_1261600" data-name="Trazado 1261600" d="M68.76,48.978l-.509-.874a.142.142,0,1,1,.245-.145l.245.419v-10.6h0a.14.14,0,0,1,.143-.144.145.145,0,0,1,.144.144V48.905a.148.148,0,0,1-.108.14.156.156,0,0,1-.035,0,.145.145,0,0,1-.126-.071" transform="translate(-41.417 -22.846)" fill="#2f0d3a"/>
            <path id="Trazado_1261601" data-name="Trazado 1261601" d="M69.607,65.008a.145.145,0,0,1-.058-.2l.429-.782a.143.143,0,0,1,.251.14l-.429.782a.146.146,0,0,1-.126.074.138.138,0,0,1-.067-.018" transform="translate(-42.207 -38.823)" fill="#2f0d3a"/>
            <path id="Trazado_1261602" data-name="Trazado 1261602" d="M68.3,38.064a.144.144,0,0,1-.05-.2l.51-.877a.147.147,0,0,1,.2-.051.145.145,0,0,1,.051.2l-.511.874a.148.148,0,0,1-.126.073.139.139,0,0,1-.071-.019" transform="translate(-41.416 -22.411)" fill="#2f0d3a"/>
            <path id="Trazado_1261603" data-name="Trazado 1261603" d="M70.126,37.988l-.566-.843a.143.143,0,1,1,.238-.159l.565.843a.145.145,0,0,1-.037.2.142.142,0,0,1-.2-.04" transform="translate(-42.209 -22.412)" fill="#2f0d3a"/>
            <path id="Trazado_1261604" data-name="Trazado 1261604" d="M27.344,35.319a.143.143,0,0,1,.144-.142H29l0-1.223a.142.142,0,1,1,.285,0v1.365a.144.144,0,0,1-.041.1.153.153,0,0,1-.1.042H27.488v0a.145.145,0,0,1-.144-.145" transform="translate(-16.598 -20.524)" fill="#2f0d3a"/>
            <path id="Trazado_1261605" data-name="Trazado 1261605" d="M27.783,88.791a.18.18,0,0,1,0-.359H41.154a.18.18,0,0,1,0,.359Z" transform="translate(-16.757 -53.68)" fill="#2f0d3a"/>
            <path id="Trazado_1261606" data-name="Trazado 1261606" d="M40.892,27.786h0l-.231.125-.034-.136.289-.156h.153v1.327h-.172Z" transform="translate(-24.658 -16.764)" fill="#2f0d3a"/>
            <path id="Trazado_1261607" data-name="Trazado 1261607" d="M43.772,27.77h-.506l-.05.341a.708.708,0,0,1,.108-.007.528.528,0,0,1,.285.073.374.374,0,0,1,.19.338.46.46,0,0,1-.493.453.65.65,0,0,1-.331-.082l.044-.137a.6.6,0,0,0,.286.073.291.291,0,0,0,.312-.286c0-.173-.116-.292-.38-.292a1.476,1.476,0,0,0-.185.012l.086-.637h.634Z" transform="translate(-26.087 -16.765)" fill="#2f0d3a"/>
            <path id="Trazado_1261608" data-name="Trazado 1261608" d="M79.833,28.3a.813.813,0,0,0-.135.011.533.533,0,0,0-.462.47h0a.4.4,0,0,1,.723.273.444.444,0,0,1-.443.469c-.282,0-.467-.22-.467-.566a.829.829,0,0,1,.224-.6.729.729,0,0,1,.424-.2.936.936,0,0,1,.13-.009Zm-.05.766a.27.27,0,0,0-.275-.3.294.294,0,0,0-.258.163A.173.173,0,0,0,79.23,29c0,.218.1.382.294.382.154,0,.258-.129.258-.319" transform="translate(-47.987 -17.088)" fill="#2f0d3a"/>
            <path id="Trazado_1261609" data-name="Trazado 1261609" d="M82.64,28.814c0,.451-.169.7-.461.7-.258,0-.436-.244-.439-.681s.193-.69.463-.69.438.25.438.671m-.72.021c0,.346.105.542.268.542.183,0,.27-.215.27-.553s-.081-.54-.27-.54c-.154,0-.268.191-.268.552" transform="translate(-49.617 -17.083)" fill="#2f0d3a"/>
            <path id="Trazado_1261610" data-name="Trazado 1261610" d="M32.824,53.9a.632.632,0,0,0,.294.08c.228,0,.3-.144.3-.257,0-.186-.169-.266-.343-.266h-.1V53.32h.1c.131,0,.3-.068.3-.226,0-.105-.067-.2-.233-.2a.479.479,0,0,0-.264.087l-.049-.13a.636.636,0,0,1,.349-.1c.261,0,.38.156.38.316a.333.333,0,0,1-.245.314v0a.342.342,0,0,1,.3.338c0,.212-.168.4-.484.4a.685.685,0,0,1-.344-.089Z" transform="translate(-19.895 -32.02)" fill="#2f0d3a"/>
            <path id="Trazado_1261611" data-name="Trazado 1261611" d="M36.319,53.421c0,.451-.169.7-.462.7-.258,0-.436-.243-.439-.681s.193-.69.463-.69.438.25.438.671m-.72.021c0,.346.105.542.269.542.182,0,.27-.215.27-.553s-.082-.54-.27-.54c-.154,0-.269.191-.269.552" transform="translate(-21.499 -32.02)" fill="#2f0d3a"/>
            <path id="Trazado_1261612" data-name="Trazado 1261612" d="M38.574,72.955h0l-.232.125-.034-.136.289-.156h.153v1.327h-.172Z" transform="translate(-23.251 -44.183)" fill="#2f0d3a"/>
            <path id="Trazado_1261613" data-name="Trazado 1261613" d="M41.453,72.938h-.506l-.05.341A.732.732,0,0,1,41,73.274a.527.527,0,0,1,.285.072.372.372,0,0,1,.19.338.46.46,0,0,1-.493.453.646.646,0,0,1-.331-.082l.044-.136a.6.6,0,0,0,.286.074A.292.292,0,0,0,41.3,73.7c0-.172-.116-.292-.38-.292a1.476,1.476,0,0,0-.185.012l.086-.637h.634Z" transform="translate(-24.679 -44.183)" fill="#2f0d3a"/>
            <path id="Trazado_1261614" data-name="Trazado 1261614" d="M30.175,27.786h0l-.231.125-.034-.136.289-.156h.153v1.327h-.172Z" transform="translate(-18.153 -16.764)" fill="#2f0d3a"/>
            <path id="Trazado_1261615" data-name="Trazado 1261615" d="M33.126,28.232c0,.451-.169.7-.46.7-.26,0-.438-.244-.442-.681s.195-.69.465-.69.438.25.438.671m-.72.021c0,.346.105.542.269.542.182,0,.27-.215.27-.553s-.082-.54-.27-.54c-.154,0-.269.191-.269.552" transform="translate(-19.561 -16.73)" fill="#2f0d3a"/>
            <path id="Trazado_1261616" data-name="Trazado 1261616" d="M47.469,108.836h-.506l-.05.341a.672.672,0,0,1,.108-.006.525.525,0,0,1,.285.072.369.369,0,0,1,.19.338.461.461,0,0,1-.494.453.644.644,0,0,1-.329-.082l.044-.136a.6.6,0,0,0,.285.074.292.292,0,0,0,.313-.288c0-.172-.117-.292-.38-.292a1.489,1.489,0,0,0-.185.012l.086-.637h.634Z" transform="translate(-28.331 -65.974)" fill="#2f0d3a"/>
            <path id="Trazado_1261617" data-name="Trazado 1261617" d="M105.039,78.956V33.736l16.67.172V78.956Zm.356-.358H121.35V34.261L105.4,34.1Zm-.181-44.5,0-.18Z" transform="translate(-63.76 -20.478)" fill="#2f0d3a"/>
            <rect id="Rectángulo_455166" data-name="Rectángulo 455166" width="8.207" height="0.267" transform="translate(49.564 22.135)" fill="#2f0d3a"/>
            <rect id="Rectángulo_455167" data-name="Rectángulo 455167" width="10.537" height="0.303" transform="translate(47.351 26.77)" fill="#2f0d3a"/>
            <path id="Trazado_1261618" data-name="Trazado 1261618" d="M136.284,47.964l-.509-.99a.148.148,0,0,1,.064-.206.155.155,0,0,1,.206.064l.223.431V35.25h0a.146.146,0,0,1,.149-.15.152.152,0,0,1,.152.15V47.9a.153.153,0,0,1-.117.147.134.134,0,0,1-.034,0,.154.154,0,0,1-.138-.084" transform="translate(-82.406 -21.306)" fill="#2f0d3a"/>
            <path id="Trazado_1261619" data-name="Trazado 1261619" d="M137.143,66.191a.152.152,0,0,1-.071-.2l.43-.885a.152.152,0,1,1,.275.13l-.431.888a.149.149,0,0,1-.135.087.156.156,0,0,1-.068-.016" transform="translate(-83.195 -39.465)" fill="#2f0d3a"/>
            <path id="Trazado_1261620" data-name="Trazado 1261620" d="M135.838,35.561a.154.154,0,0,1-.067-.206l.512-1a.152.152,0,0,1,.2-.067.154.154,0,0,1,.067.207l-.51,1a.158.158,0,0,1-.138.083.145.145,0,0,1-.068-.016" transform="translate(-82.405 -20.803)" fill="#2f0d3a"/>
            <path id="Trazado_1261621" data-name="Trazado 1261621" d="M137.653,35.463l-.571-.962a.152.152,0,1,1,.261-.156l.574.962a.154.154,0,0,1-.055.209.144.144,0,0,1-.077.022.152.152,0,0,1-.132-.076" transform="translate(-83.198 -20.804)" fill="#2f0d3a"/>
            <path id="Trazado_1261622" data-name="Trazado 1261622" d="M118.811,27.765h0l-.233.126-.034-.138.292-.157h.154v1.341h-.175Z" transform="translate(-71.955 -16.751)" fill="#2f0d3a"/>
            <path id="Trazado_1261623" data-name="Trazado 1261623" d="M121.7,27.748h-.512l-.052.345a.754.754,0,0,1,.11-.006.54.54,0,0,1,.29.073.378.378,0,0,1,.191.343.464.464,0,0,1-.5.457.685.685,0,0,1-.336-.081l.046-.138a.6.6,0,0,0,.289.075.294.294,0,0,0,.314-.293c0-.172-.117-.294-.383-.294a1.614,1.614,0,0,0-.188.012l.088-.644h.641Z" transform="translate(-73.383 -16.751)" fill="#2f0d3a"/>
            <path id="Trazado_1261624" data-name="Trazado 1261624" d="M144.251,28.273a.758.758,0,0,0-.135.01.538.538,0,0,0-.468.475h0a.41.41,0,0,1,.732.276.45.45,0,0,1-.448.475c-.285,0-.474-.223-.474-.571a.835.835,0,0,1,.227-.6.727.727,0,0,1,.43-.2.979.979,0,0,1,.13-.011Zm-.05.775a.272.272,0,0,0-.277-.307.3.3,0,0,0-.261.165.167.167,0,0,0-.019.079c0,.22.105.386.3.386.154,0,.26-.131.26-.322" transform="translate(-87.084 -17.072)" fill="#2f0d3a"/>
            <path id="Trazado_1261625" data-name="Trazado 1261625" d="M147.069,28.8c0,.457-.172.708-.467.708-.261,0-.441-.245-.445-.689s.2-.7.469-.7.444.251.444.678m-.729.021c0,.349.107.548.272.548.184,0,.273-.217.273-.56s-.083-.548-.273-.548c-.156,0-.272.195-.272.56" transform="translate(-88.719 -17.069)" fill="#2f0d3a"/>
            <path id="Trazado_1261626" data-name="Trazado 1261626" d="M127.009,28.063h0l-.233.126-.034-.138.292-.157h.154v1.341h-.175Z" transform="translate(-76.932 -16.932)" fill="#2f0d3a"/>
            <path id="Trazado_1261627" data-name="Trazado 1261627" d="M129.973,28.515c0,.457-.172.708-.467.708-.261,0-.441-.245-.445-.689s.2-.7.469-.7.444.251.444.678m-.729.021c0,.349.107.547.272.547.184,0,.273-.217.273-.559s-.083-.548-.273-.548c-.156,0-.272.195-.272.56" transform="translate(-78.342 -16.898)" fill="#2f0d3a"/>
            <path id="Trazado_1261628" data-name="Trazado 1261628" d="M135.31,77.16v-.111l.143-.138c.341-.326.5-.5.5-.7a.238.238,0,0,0-.264-.263.458.458,0,0,0-.285.114l-.058-.128a.592.592,0,0,1,.378-.137.377.377,0,0,1,.409.391c0,.246-.18.446-.461.72l-.105.1v0h.6v.151Z" transform="translate(-82.135 -46.009)" fill="#2f0d3a"/>
            <path id="Trazado_1261629" data-name="Trazado 1261629" d="M138.855,76.474c0,.457-.172.708-.467.708-.261,0-.441-.245-.445-.689s.2-.7.469-.7.444.251.444.678m-.729.021c0,.349.107.548.272.548.184,0,.273-.217.273-.56s-.083-.548-.273-.548c-.156,0-.272.195-.272.56" transform="translate(-83.733 -46.009)" fill="#2f0d3a"/>
            <path id="Trazado_1261630" data-name="Trazado 1261630" d="M125.407,109.076H124.9l-.052.344a.76.76,0,0,1,.11-.006.542.542,0,0,1,.289.073.378.378,0,0,1,.191.343.465.465,0,0,1-.5.457.681.681,0,0,1-.335-.082l.046-.138a.608.608,0,0,0,.289.074.294.294,0,0,0,.315-.292c0-.173-.117-.294-.383-.294a1.54,1.54,0,0,0-.189.012l.088-.644h.641Z" transform="translate(-75.634 -66.118)" fill="#2f0d3a"/>
            <path id="Trazado_1261631" data-name="Trazado 1261631" d="M104.92,79.637a.335.335,0,0,1-.27-.325c0-7.4.258-36,.258-36,.082-1.172,3.127-7.187,6.364-8.692l.306.019c1.627,1,2.1,1.328,2.112,1.334a.332.332,0,0,1,.133.214.323.323,0,0,1-.055.249s-2.363,3.452-2.321,4.589a.473.473,0,0,0,.028.175,5.141,5.141,0,0,0,1.95,1.823.338.338,0,0,1,.159.2.351.351,0,0,1-.025.252l-2.313,4.278c.749.644,3.066,3.093,4.926,9.888,2.216,8.064,5.064,18.851,5.064,18.851a.329.329,0,0,1-.036.253.319.319,0,0,1-.2.152c-.015,0-10.507,2.826-14.941,2.832a6.1,6.1,0,0,1-1.137-.089m1.137-.57c3.8.006,12.657-2.254,14.453-2.728-.488-1.84-2.986-11.28-4.978-18.527a26.89,26.89,0,0,0-3.3-7.869,6.654,6.654,0,0,0-1.592-1.829.329.329,0,0,1-.111-.436l2.294-4.244a5.122,5.122,0,0,1-1.957-1.974,1.072,1.072,0,0,1-.08-.436c.037-1.359,1.687-3.85,2.253-4.688-.273-.178-.784-.5-1.664-1.042-2.774,1.3-5.884,7.429-5.808,8.02h-.328l.328,0c0,.034-.25,27.9-.255,35.71a6.474,6.474,0,0,0,.745.039" transform="translate(-63.524 -21.014)" fill="#2f0d3a"/>
            <path id="Trazado_1261632" data-name="Trazado 1261632" d="M169.585,82.717a12.172,12.172,0,0,1-4.118-1.218,34.952,34.952,0,0,0-2.894-2.425c-.435-.163-2.886-.614-3.252-.855s-1.3-1.069-1.462-.56a1.948,1.948,0,0,0,.846,1.714,11.8,11.8,0,0,1,1.521.856c.478.237,1.764,2.229,2.327,2.575s7.57,1.644,7.57,1.644Z" transform="translate(-95.809 -47.041)" fill="#ddac9e"/>
            <path id="Trazado_1261633" data-name="Trazado 1261633" d="M160.879,87.838a9.478,9.478,0,0,0,1.96.879c.588.154,2.872.423,3.189.555s4.569,1.576,4.8,1.638.521-3.073.521-3.073-7.763-3.363-8.293-3.865a4.113,4.113,0,0,0-2.877-.419c-.248.243.7,4.284.7,4.284" transform="translate(-97.207 -50.649)" fill="#ddac9e"/>
            <g id="Grupo_1204052" data-name="Grupo 1204052" transform="translate(62.984 32.647)" style="mix-blend-mode: multiply;isolation: isolate">
              <g id="Grupo_1204051" data-name="Grupo 1204051">
                <g id="Grupo_1204050" data-name="Grupo 1204050" clip-path="url(#clip-path-3)">
                  <g id="Grupo_1204049" data-name="Grupo 1204049">
                    <g id="Grupo_1204048" data-name="Grupo 1204048" clip-path="url(#clip-path-4)">
                      <path id="Trazado_1261634" data-name="Trazado 1261634" d="M164.029,88.038,153.88,83.512l4.013-9.1,10.149,4.526Z" transform="translate(-156.392 -77.813)" fill="url(#linear-gradient)"/>
                    </g>
                  </g>
                </g>
              </g>
            </g>
            <path id="Trazado_1261636" data-name="Trazado 1261636" d="M146.534,75.691a3.66,3.66,0,0,0,.788.327A1.961,1.961,0,0,0,148.55,76a.492.492,0,0,1,.318-.066s2.011.975,2.21,1.079,4.954,2.4,4.954,2.4l-.138.591.012,0-.079.162-.031.077-.007,0-.327.374-5.185-1.889c-.214-.079-2.286-.9-2.286-.9a.487.487,0,0,1-.166-.279,1.789,1.789,0,0,0-.758-.936,3.556,3.556,0,0,0-.775-.361Z" transform="translate(-88.802 -45.946)"/>
            <path id="Trazado_1261637" data-name="Trazado 1261637" d="M145.9,75.437l-.218.518-.281-.176.04-.491Z" transform="translate(-88.263 -45.701)"/>
            <path id="Trazado_1261638" data-name="Trazado 1261638" d="M158.761,86.705l1.177-.235a.838.838,0,0,0,.73-.588c.074-.235-.438-.451-.779-.413-.113.015-1.149.1-1.149.1a2.18,2.18,0,0,0,.683-.2c.594-.309,1.128-.63.864-1.115s-1.333.166-1.8.122c.371-.141,1.449-.769,1.229-1.143s-1.586-.141-1.7-.134a3.809,3.809,0,0,1-.666-.187,5.706,5.706,0,0,0,1.094-.34.5.5,0,0,0-.009-.69c-.211-.3-1.284-.264-1.515-.248s-1.065-.387-1.37-.368-.325.944-.342,1.172.534.337.552.564-.073.868.172,1.119.674.591.674.591a3.4,3.4,0,0,0,.277.965c.222.485.6.378.626.689s1.249.338,1.249.338" transform="translate(-94.214 -49.331)" fill="#e8c8ba"/>
            <path id="Trazado_1261639" data-name="Trazado 1261639" d="M180.452,86.651l-1.906-.51-1.376,5.43,2.982.595Z" transform="translate(-107.545 -52.289)" fill="#d8d8d8"/>
            <path id="Trazado_1261640" data-name="Trazado 1261640" d="M237.736,202.376c.6,4.77,4.075,18.484,5.268,22.06s6.15,23.092,4.689,25.683-6.081,5.276-6.081,5.276,1.144,1.738,6.658-.946c3.62-1.76,4.065-.564,4.571-4.073,0,0-.347-2.139-.5-4.52s.4-10.088-.7-14.561c-.683-2.8-2.235-8.2-2.085-11.329s.894-14.907.894-14.907Z" transform="translate(-144.31 -122.846)" fill="#ddac9e"/>
            <path id="Trazado_1261641" data-name="Trazado 1261641" d="M256.451,199.057c2.385,6.359,8.049,20.865,8.943,25.439.534,2.732.2,5.911,2.686,12.221,2.148,5.463,2.036,8,2.63,9.989s.895,6.607,1.642,7.9c1.132,1.963,4.321,1.886,4.321-.3s-2.434-5.665-2.633-8.248-.1-16.794-2.285-22.958c-.716-2.017-1.591-23.652-1.987-24.646s-13.316.6-13.316.6" transform="translate(-155.67 -120.27)" fill="#e8c8ba"/>
            <path id="Trazado_1261642" data-name="Trazado 1261642" d="M256.916,319.967c.411,1.17,1.242,2.334.712,3.906a29.322,29.322,0,0,0-.515,3.449l-1.865.188-.228-2.47a16.545,16.545,0,0,0-2.541,2.58c-.064.077-7.684.794-7.684.794s-.4-2.1,2.2-2.657a17.856,17.856,0,0,0,7.474-3.615,18.453,18.453,0,0,1,2.446-2.176" transform="translate(-148.581 -194.225)" fill="#2f0d3a"/>
            <path id="Trazado_1261643" data-name="Trazado 1261643" d="M293.746,327.212c.4,1.79.785,6.379,3.33,7.65,1.391.7,1.852.043,2.186-.892.5-1.394-.149-5.319-1.837-7.3.5,2.484,1.31,4.831-.15,5.414-1.49.6-3.529-4.867-3.529-4.867" transform="translate(-178.309 -198.292)" fill="#2f0d3a"/>
            <g id="Grupo_1204057" data-name="Grupo 1204057" transform="translate(95.509 85.65)" style="mix-blend-mode: multiply;isolation: isolate">
              <g id="Grupo_1204056" data-name="Grupo 1204056">
                <g id="Grupo_1204055" data-name="Grupo 1204055" clip-path="url(#clip-path-5)">
                  <g id="Grupo_1204054" data-name="Grupo 1204054" transform="translate(0)">
                    <g id="Grupo_1204053" data-name="Grupo 1204053" clip-path="url(#clip-path-6)">
                      <rect id="Rectángulo_455169" data-name="Rectángulo 455169" width="30.685" height="29.681" transform="matrix(0.568, -0.823, 0.823, 0.568, -11.063, 16.033)" fill="url(#linear-gradient-2)"/>
                    </g>
                  </g>
                </g>
              </g>
            </g>
            <path id="Trazado_1261645" data-name="Trazado 1261645" d="M230.247,11.86c-.2,1.1-.661.942-.8,6.233-.087,3.211-1.677,3.571-1.952,3.4a1.636,1.636,0,0,0,2.1,1.16A3.48,3.48,0,0,1,226.5,22a2.8,2.8,0,0,0,2.547,2.829,3.439,3.439,0,0,1-2.921-.245c.782,1.128,1.025,4.5,7.518,3.933,1.948-.174,3.758-2.063,3.851-3.048s-2.57-13.02-2.57-13.02Z" transform="translate(-137.263 -7.199)" fill="#300901"/>
            <path id="Trazado_1261646" data-name="Trazado 1261646" d="M266.468,9.212c.327,1.076.769.861,1.529,6.1.46,3.18,2.08,3.348,2.336,3.146a1.645,1.645,0,0,1-1.959,1.4,3.479,3.479,0,0,0,3-1,2.8,2.8,0,0,1-2.2,3.109,3.46,3.46,0,0,0,2.873-.583c-.648,1.206-.831,4.82-7.346,5.012a4.35,4.35,0,0,1-3.844-2.809c-.209-.971,1.033-13.227,1.033-13.227Z" transform="translate(-158.332 -5.592)" fill="#5e2014"/>
            <path id="Trazado_1261647" data-name="Trazado 1261647" d="M201.249,60.249a4.3,4.3,0,0,0-2.446,1.91c-1.713,3.672-5.58,8.283-5.957,9.034-.5,1.014-10.528-.258-10.528-.258l-.6,6.11s8.79,1.229,12.518.931c1.361-.11,9-7.208,9.1-7.588.252-1.018-2.089-10.137-2.089-10.137" transform="translate(-110.308 -36.572)" fill="#b583af"/>
            <path id="Trazado_1261648" data-name="Trazado 1261648" d="M306.475,159.076c.825,1.083,1.938,2.925,1.891,3.789s-1.008,1.2-1.916,2.1-2.1-.2-2.45-.447.176-.059.487-.878,1.671-.154,1.569-.5-1.057-.555-1.057-.555a6.108,6.108,0,0,1-.6,1.831c-.328.361-.771.953-.7-.05.129-1.728.243-2.251-.128-2.921s-.1-2.323-.132-3.005a12.056,12.056,0,0,1,.249-2.082l2.158-.12Z" transform="translate(-184.15 -94.839)" fill="#e2a4db"/>
            <path id="Trazado_1261649" data-name="Trazado 1261649" d="M304.951,155.715l1.043,2.087-4.026,1.341v-2.831Z" transform="translate(-183.3 -94.522)" fill="#e2a4db"/>
            <path id="Trazado_1261650" data-name="Trazado 1261650" d="M285.153,61.016a2.282,2.282,0,0,1,1.7,1.686c.83,3.967,4.268,18.732,4.643,19.484.506,1.015,2.269,16.908,2.269,16.908l-3.379.846s-4.045-9.462-5.351-17.85c-.776-5-2.308-15.4-2.4-15.781-.254-1.014,2.52-5.292,2.52-5.292" transform="translate(-171.553 -37.038)" fill="#e2a4db"/>
            <path id="Trazado_1261651" data-name="Trazado 1261651" d="M246.65,38.424l-.672,5.365-2.235,2.831s2.8,10.747,5.457,11.713,9.4-11.823,7.586-11.564c-4.174.6-4.919-8.646-4.919-8.646Z" transform="translate(-147.956 -23.142)" fill="#ddac9e"/>
            <path id="Trazado_1261652" data-name="Trazado 1261652" d="M263.661,45.428c-4.249-.373-4.025-7.3-4.025-7.3l-2.681,1.045-.413,20.157c2.64.874,8.929-13.741,7.119-13.9" transform="translate(-155.725 -23.142)" fill="#e8c8ba"/>
            <path id="Trazado_1261653" data-name="Trazado 1261653" d="M234.991,54.249s-1.546.567-6.133,2.558c-1.707.738,1.4,2.435,1.19,4.374s-1.224,6.4-.8,8.545c.249,1.243,2.388,3.3,2.388,9.739,0,6.56.419,7.983.2,14.709-.073,2.149,5.231,9.94,8,5.2,0-7.954.749-29.146.319-33.449-.112-1.073-5.16-11.675-5.16-11.675" transform="translate(-138.609 -32.93)" fill="#b583af"/>
            <path id="Trazado_1261654" data-name="Trazado 1261654" d="M243.121,54.182l.4-2.784-2.756,1.417-.58,2.053L242,54.476l-1.423,1.638L247,62.951Z" transform="translate(-145.795 -31.2)" fill="#d8d8d8"/>
            <path id="Trazado_1261655" data-name="Trazado 1261655" d="M261.1,52.916s1.512.772,6.93,2.882c1.834.72.766,6.1-.2,9.344-.555,1.869-3.6,7.6-2.025,15.735,1.033,5.332.447,11.35,1.238,17.011.188,1.351-10.777,6.312-10.883,1.263a145.014,145.014,0,0,1-1.05-24.668c.051-.815-.292-4.59-.2-5.366.292-2.366.105-3.338.917-5.147.441-.98,5.27-11.055,5.27-11.055" transform="translate(-154.724 -32.121)" fill="#e2a4db"/>
            <path id="Trazado_1261656" data-name="Trazado 1261656" d="M261.132,53.1l.151-2.46,2.483.8.125,2.707-1.534-.019.01,2.763-5.326,5.7Z" transform="translate(-156.028 -30.739)" fill="#fff"/>
            <g id="Grupo_1204062" data-name="Grupo 1204062" transform="translate(96.673 13.404)" style="mix-blend-mode: multiply;isolation: isolate">
              <g id="Grupo_1204061" data-name="Grupo 1204061">
                <g id="Grupo_1204060" data-name="Grupo 1204060" clip-path="url(#clip-path-7)">
                  <g id="Grupo_1204059" data-name="Grupo 1204059" transform="translate(0 0)">
                    <g id="Grupo_1204058" data-name="Grupo 1204058" clip-path="url(#clip-path-8)">
                      <rect id="Rectángulo_455171" data-name="Rectángulo 455171" width="9.703" height="15.749" transform="matrix(1, -0.032, 0.032, 1, -0.588, -1.163)" fill="url(#linear-gradient-3)"/>
                    </g>
                  </g>
                </g>
              </g>
            </g>
            <path id="Trazado_1261658" data-name="Trazado 1261658" d="M239.162,12c.877,4.66,4.924,8.446,7.193,8.314,2.529-.148,5.629-2.913,6.254-8.98.5-4.98-1.027-9.815-7.208-9.453-5.8.342-7.164,5.23-6.239,10.12" transform="translate(-145.015 -1.129)" fill="#e8c8ba"/>
            <path id="Trazado_1261659" data-name="Trazado 1261659" d="M239.269,12.025c-.724-4.912.433-9.75,6.209-10.112l1.079,18.412c-.03,0-.067.015-.094.017-2.269.135-6.292-2.158-7.194-8.317" transform="translate(-145.123 -1.161)" fill="#ddac9e"/>
            <path id="Trazado_1261660" data-name="Trazado 1261660" d="M243.671,4.434c-1.8,1.93-5.032.583-5.59,3.8a21.444,21.444,0,0,0-.487,5.823c.313,1.791-1.46-4.532-1.46-4.532a6.6,6.6,0,0,1,2.382-8.084c2.032-1.521,5.034-1.2,5.169-.915s-.013,3.9-.013,3.9" transform="translate(-143.012 -0.177)" fill="#300901"/>
            <path id="Trazado_1261661" data-name="Trazado 1261661" d="M255.807,4.231c1.515,1.512,4.673-.1,5.54,3.038a31.6,31.6,0,0,1,1.155,4.012c.325,2.5,1.364-2.706,1.364-2.706s1.1-5.279-3.088-7.635C258.542-.319,255.593-.083,255.6.327c0,.31.2,3.9.2,3.9" transform="translate(-155.157 0)" fill="#5e2014"/>
            <path id="Trazado_1261662" data-name="Trazado 1261662" d="M233.35,125.248c-5.42,14.558-.794,27.727,1.986,45.614,13.916,2.782,19.879.5,19.879.5s3.743-32.429-3.777-46.111a121.647,121.647,0,0,1-18.087,0" transform="translate(-140.123 -76.028)" fill="#594628"/>
            <path id="Trazado_1261663" data-name="Trazado 1261663" d="M276.989,125.369c-1.425.114-2.821.191-4.179.245,4.6,15.407,3.24,38.776,2.978,46.675a18.926,18.926,0,0,0,4.978-.808s3.5-33.589-3.777-46.112" transform="translate(-165.6 -76.101)" fill="#594628"/>
          </g>
        </g>
      </g>
    </g>
  </g>
</svg>
