<svg xmlns="http://www.w3.org/2000/svg" xmlns:xlink="http://www.w3.org/1999/xlink" width="952.297" height="502.587" viewBox="0 0 952.297 502.587">
  <defs>
    <clipPath id="clip-path">
      <rect id="Rectángulo_458118" data-name="Rectángulo 458118" width="502.588" height="952.297" fill="none"/>
    </clipPath>
  </defs>
  <g id="Grupo_1210318" data-name="Grupo 1210318" transform="translate(-323.711 -7399)">
    <g id="Grupo_1210198" data-name="Grupo 1210198" transform="translate(323.711 7901.587) rotate(-90)" clip-path="url(#clip-path)">
      <path id="Trazado_1263577" data-name="Trazado 1263577" d="M102.75,102.123H340.6l82.114-7.551s30.2,112.318,29.26,186.882-2.832,109.487-2.832,109.487.944,565.364-1.887,565.364H98.031Z" transform="translate(-4.648 -4.484)" fill="none" stroke="#12263f" stroke-miterlimit="10" stroke-width="1"/>
    </g>
    <path id="Trazado_1264198" data-name="Trazado 1264198" d="M1.289,0V-17.062h5.5a8.085,8.085,0,0,1,4.066,1.025,7.208,7.208,0,0,1,2.818,2.895A8.739,8.739,0,0,1,14.7-8.953v.785a8.79,8.79,0,0,1-.99,4.2,7.239,7.239,0,0,1-2.789,2.906A7.907,7.907,0,0,1,6.9,0ZM5.4-13.887V-3.164h1.43a3.2,3.2,0,0,0,2.719-1.26A6.173,6.173,0,0,0,10.5-8.168v-.738a6.123,6.123,0,0,0-.949-3.727,3.256,3.256,0,0,0-2.766-1.254ZM22.758.234a6.518,6.518,0,0,1-4.723-1.74,6.009,6.009,0,0,1-1.8-4.529v-.328A7.787,7.787,0,0,1,16.951-9.8a5.274,5.274,0,0,1,2.1-2.3,6.35,6.35,0,0,1,3.281-.814,5.489,5.489,0,0,1,4.219,1.658A6.516,6.516,0,0,1,28.1-6.633V-5.1H20.25a2.846,2.846,0,0,0,.926,1.676,2.755,2.755,0,0,0,1.852.609,3.549,3.549,0,0,0,2.93-1.312l1.8,2.133A5.045,5.045,0,0,1,25.67-.369,7.069,7.069,0,0,1,22.758.234Zm-.445-10.1q-1.734,0-2.062,2.3h3.984v-.3a1.956,1.956,0,0,0-.48-1.471A1.912,1.912,0,0,0,22.313-9.867ZM33.855,0H29.895V-18h3.961ZM43.43,0a4.459,4.459,0,0,1-.375-1.137A3.672,3.672,0,0,1,40.008.234,4.5,4.5,0,0,1,36.961-.85a3.45,3.45,0,0,1-1.254-2.725A3.546,3.546,0,0,1,37.23-6.691a7.761,7.761,0,0,1,4.43-1.055h1.219v-.671q0-1.755-1.512-1.755a1.236,1.236,0,0,0-1.406,1.39H36.012a3.54,3.54,0,0,1,1.564-2.985,6.575,6.575,0,0,1,3.99-1.147A5.764,5.764,0,0,1,45.4-11.73,4.115,4.115,0,0,1,46.84-8.484v5.613A5.748,5.748,0,0,0,47.379-.2V0ZM40.957-2.578a2.2,2.2,0,0,0,1.225-.316,1.983,1.983,0,0,0,.7-.715V-5.637H41.73q-2.062,0-2.062,1.852a1.131,1.131,0,0,0,.363.873A1.315,1.315,0,0,0,40.957-2.578Zm11.7-10.1.129,1.488A4.3,4.3,0,0,1,56.4-12.914a3.618,3.618,0,0,1,2.959,1.184,5.635,5.635,0,0,1,1.014,3.563V0H56.414V-8a2.14,2.14,0,0,0-.387-1.412,1.789,1.789,0,0,0-1.406-.451,1.883,1.883,0,0,0-1.723.914V0H48.949V-12.68ZM67.16-15.832v3.152h2.086v2.742H67.16v5.8a1.481,1.481,0,0,0,.258,1,1.383,1.383,0,0,0,1.02.281,5.793,5.793,0,0,0,.984-.07V-.105A7.288,7.288,0,0,1,67.2.234a4.137,4.137,0,0,1-3.012-.961,3.939,3.939,0,0,1-.973-2.918V-9.937H61.594V-12.68h1.617v-3.152ZM76.934.234a6.518,6.518,0,0,1-4.723-1.74,6.009,6.009,0,0,1-1.8-4.529v-.328A7.787,7.787,0,0,1,71.127-9.8a5.274,5.274,0,0,1,2.1-2.3,6.35,6.35,0,0,1,3.281-.814,5.489,5.489,0,0,1,4.219,1.658,6.516,6.516,0,0,1,1.547,4.623V-5.1H74.426a2.846,2.846,0,0,0,.926,1.676,2.755,2.755,0,0,0,1.852.609,3.549,3.549,0,0,0,2.93-1.312l1.8,2.133A5.045,5.045,0,0,1,79.846-.369,7.069,7.069,0,0,1,76.934.234Zm-.445-10.1q-1.734,0-2.062,2.3H78.41v-.3a1.956,1.956,0,0,0-.48-1.471A1.912,1.912,0,0,0,76.488-9.867Zm15.047.762-1.3-.094a2.336,2.336,0,0,0-2.391,1.172V0H83.895V-12.68h3.7l.129,1.629A3.058,3.058,0,0,1,90.5-12.914a3.851,3.851,0,0,1,1.1.141Zm.5,2.648a7.484,7.484,0,0,1,.738-3.381A5.28,5.28,0,0,1,94.9-12.117a6.388,6.388,0,0,1,3.246-.8,5.83,5.83,0,0,1,4.488,1.764,6.768,6.768,0,0,1,1.641,4.8v.141a6.566,6.566,0,0,1-1.646,4.705A5.846,5.846,0,0,1,98.168.234,5.912,5.912,0,0,1,93.82-1.389a6.348,6.348,0,0,1-1.77-4.4Zm3.949.246a4.718,4.718,0,0,0,.551,2.578,1.835,1.835,0,0,0,1.629.82q2.109,0,2.156-3.246v-.4q0-3.41-2.18-3.41-1.98,0-2.145,2.941Z" transform="translate(937.711 7642.821)" fill="#12263f"/>
    <g id="Grupo_1210200" data-name="Grupo 1210200" transform="translate(323.711 7901.587) rotate(-90)" clip-path="url(#clip-path)">
      <line id="Línea_3358" data-name="Línea 3358" x2="320.937" transform="translate(108.942 400.614)" fill="none" stroke="#752092" stroke-miterlimit="10" stroke-width="1.357"/>
      <path id="Trazado_1263578" data-name="Trazado 1263578" d="M118.577,425.576l.882-.947-4.669-4.337,4.669-4.339-.882-.947-5.684,5.286Z" transform="translate(-5.352 -19.676)" fill="#752092"/>
      <path id="Trazado_1263579" data-name="Trazado 1263579" d="M446.735,425.576l-.881-.947,4.668-4.337-4.668-4.339.881-.947,5.684,5.286Z" transform="translate(-21.139 -19.676)" fill="#752092"/>
    </g>
    <path id="Trazado_1264196" data-name="Trazado 1264196" d="M11.3-2.9a8,8,0,0,1-2.667.462C5.775-2.436,4.1-4.221,4.1-7.056c0-3.15,1.974-4.683,4.515-4.683a6.912,6.912,0,0,1,2.688.525l.651-2.541a8.345,8.345,0,0,0-3.486-.63C4.179-14.385.735-11.7.735-6.867.735-2.835,3.255.21,8.148.21A9.123,9.123,0,0,0,11.781-.4ZM22.092,0a15.91,15.91,0,0,1-.147-2.5v-3.57c0-2.415-1.092-4.431-4.515-4.431a8.477,8.477,0,0,0-3.99.9l.588,2.058a5.775,5.775,0,0,1,2.835-.777c1.575,0,1.869.777,1.869,1.323v.147C15.1-6.867,12.7-5.586,12.7-2.919A3.148,3.148,0,0,0,16.023.231a3.7,3.7,0,0,0,2.94-1.26h.063L19.215,0ZM18.837-3.738a2.289,2.289,0,0,1-.063.546,1.744,1.744,0,0,1-1.659,1.176,1.147,1.147,0,0,1-1.26-1.218c0-1.239,1.3-1.638,2.982-1.617ZM31.227-14.91v5.565h-.042A3.128,3.128,0,0,0,28.476-10.5c-2.457,0-4.62,1.995-4.6,5.46,0,3.192,1.953,5.271,4.389,5.271a3.585,3.585,0,0,0,3.213-1.743h.042L31.668,0H34.5c-.042-.693-.084-1.911-.084-3.066V-14.91Zm0,10.332a2.717,2.717,0,0,1-.084.735A1.869,1.869,0,0,1,29.3-2.31c-1.323,0-2.184-1.092-2.184-2.835,0-1.617.756-2.919,2.2-2.919a1.918,1.918,0,0,1,1.869,1.575,5.149,5.149,0,0,1,.042.567Zm14.826.462a7.583,7.583,0,0,0,.1-1.26c0-2.541-1.26-5.124-4.578-5.124-3.57,0-5.187,2.877-5.187,5.481,0,3.213,1.995,5.229,5.481,5.229a10.136,10.136,0,0,0,3.717-.63l-.42-2.163a9.044,9.044,0,0,1-2.835.42c-1.491,0-2.793-.63-2.9-1.953ZM39.417-6.3a2.1,2.1,0,0,1,1.974-2.079A1.854,1.854,0,0,1,43.2-6.3ZM48.069,0h3.192V-5.208a3.764,3.764,0,0,1,.063-.714,2.052,2.052,0,0,1,2.184-1.617,4.576,4.576,0,0,1,.861.084v-3A3.29,3.29,0,0,0,53.7-10.5a3.016,3.016,0,0,0-2.772,2.121h-.084l-.1-1.89H47.985c.042.882.084,1.869.084,3.381ZM64.323,0a15.91,15.91,0,0,1-.147-2.5v-3.57c0-2.415-1.092-4.431-4.515-4.431a8.477,8.477,0,0,0-3.99.9l.588,2.058a5.775,5.775,0,0,1,2.835-.777c1.575,0,1.869.777,1.869,1.323v.147c-3.633-.021-6.027,1.26-6.027,3.927A3.148,3.148,0,0,0,58.254.231a3.7,3.7,0,0,0,2.94-1.26h.063L61.446,0ZM61.068-3.738a2.289,2.289,0,0,1-.063.546,1.744,1.744,0,0,1-1.659,1.176,1.147,1.147,0,0,1-1.26-1.218c0-1.239,1.3-1.638,2.982-1.617ZM72.114.84l4.494-15.225H74.487L69.993.84ZM90.4,0V-3.255h1.638V-5.649H90.4v-8H86.5L81.333-5.334v2.079h6.048V0Zm-6.09-5.649v-.042l1.827-2.982c.462-.861.819-1.659,1.26-2.541h.084c-.063.882-.105,1.722-.105,2.541v3.024Z" transform="translate(751.123 7682.672) rotate(-90)"/>
    <path id="Trazado_1264197" data-name="Trazado 1264197" d="M1.89.189a11.015,11.015,0,0,0,1.449,0A8.071,8.071,0,0,0,8.547-1.722,8.149,8.149,0,0,0,10.941-8c0-3.192-1.659-5.88-5.166-5.88A4.962,4.962,0,0,0,.63-8.967,4.112,4.112,0,0,0,4.893-4.7a3.6,3.6,0,0,0,2.73-.987l.063.021A4.243,4.243,0,0,1,5.964-3.15a5.486,5.486,0,0,1-2.688.84,7.52,7.52,0,0,1-1.386,0Zm3.8-11.739c1.449,0,1.995,1.428,1.995,2.877a1.5,1.5,0,0,1-.168.8,2.012,2.012,0,0,1-1.764.9A1.944,1.944,0,0,1,3.822-9.156C3.8-10.584,4.6-11.55,5.691-11.55ZM14.574.231A1.83,1.83,0,0,0,16.464-1.7a1.82,1.82,0,0,0-1.869-1.953A1.848,1.848,0,0,0,12.7-1.7,1.837,1.837,0,0,0,14.574.231ZM27.111-13.65H19.593l-.9,7.161a11.785,11.785,0,0,1,1.848-.126c2.73,0,3.843.861,3.843,2.268,0,1.449-1.407,2.079-2.73,2.079a7.843,7.843,0,0,1-3.087-.672L18-.546a8.675,8.675,0,0,0,3.8.777c3.675,0,5.859-2.247,5.859-4.788A3.885,3.885,0,0,0,26-7.98a6.242,6.242,0,0,0-3.591-.987,5.915,5.915,0,0,0-.882.042l.294-2.1h5.292ZM41.622-2.6a4.924,4.924,0,0,1-1.827.315,2.672,2.672,0,0,1-2.814-2.877,2.658,2.658,0,0,1,2.751-2.877,4.367,4.367,0,0,1,1.785.315l.5-2.373a7.4,7.4,0,0,0-2.436-.4c-3.822,0-5.88,2.457-5.88,5.46,0,3.234,2.121,5.25,5.439,5.25A7.787,7.787,0,0,0,42-.252ZM43.764,0h3.108V-5.985a2.117,2.117,0,0,1,.126-.8,1.625,1.625,0,0,1,1.491-1.155c1.008,0,1.47.882,1.47,2.184V0h3.108V-6.006a2.671,2.671,0,0,1,.126-.819,1.562,1.562,0,0,1,1.47-1.113c1.029,0,1.512.861,1.512,2.352V0h3.108V-6.048c0-3.066-1.491-4.452-3.465-4.452a3.7,3.7,0,0,0-1.953.5,4.6,4.6,0,0,0-1.323,1.239H52.5A2.91,2.91,0,0,0,49.686-10.5a3.561,3.561,0,0,0-3.108,1.617h-.063l-.147-1.386H43.68c.042.9.084,1.995.084,3.276Z" transform="translate(524.609 7753.458) rotate(-90)"/>
    <path id="Trazado_1264195" data-name="Trazado 1264195" d="M.8-.735A8.064,8.064,0,0,0,4.851.231c3.465,0,5.586-1.764,5.586-4.179A3.392,3.392,0,0,0,7.476-7.266v-.042a3.27,3.27,0,0,0,2.5-3.171c0-1.869-1.617-3.4-4.536-3.4a8.555,8.555,0,0,0-4.221,1.029l.651,2.31a6.231,6.231,0,0,1,2.856-.819c1.344,0,2.016.609,2.016,1.428,0,1.155-1.365,1.554-2.436,1.575H3.066v2.289h1.3c1.407,0,2.751.609,2.751,1.953,0,1.029-.84,1.827-2.5,1.827a7.525,7.525,0,0,1-3.171-.84ZM24.507-2.6a4.924,4.924,0,0,1-1.827.315,2.672,2.672,0,0,1-2.814-2.877,2.658,2.658,0,0,1,2.751-2.877,4.367,4.367,0,0,1,1.785.315l.5-2.373a7.4,7.4,0,0,0-2.436-.4c-3.822,0-5.88,2.457-5.88,5.46,0,3.234,2.121,5.25,5.439,5.25a7.787,7.787,0,0,0,2.856-.462ZM26.649,0h3.108V-5.985a2.117,2.117,0,0,1,.126-.8,1.625,1.625,0,0,1,1.491-1.155c1.008,0,1.47.882,1.47,2.184V0h3.108V-6.006a2.671,2.671,0,0,1,.126-.819,1.562,1.562,0,0,1,1.47-1.113c1.029,0,1.512.861,1.512,2.352V0h3.108V-6.048c0-3.066-1.491-4.452-3.465-4.452a3.7,3.7,0,0,0-1.953.5,4.6,4.6,0,0,0-1.323,1.239h-.042A2.91,2.91,0,0,0,32.571-10.5a3.561,3.561,0,0,0-3.108,1.617H29.4l-.147-1.386H26.565c.042.9.084,1.995.084,3.276Z" transform="translate(454.548 7693.909) rotate(-90)"/>
    <path id="Trazado_1264193" data-name="Trazado 1264193" d="M12.236-11.572H7.969V0H4.541V-11.572H.352v-2.646H12.236ZM17.842,0a3.716,3.716,0,0,1-.312-.947A3.06,3.06,0,0,1,14.99.2a3.749,3.749,0,0,1-2.539-.9,2.875,2.875,0,0,1-1.045-2.271,2.955,2.955,0,0,1,1.27-2.6,6.468,6.468,0,0,1,3.691-.879h1.016v-.559q0-1.462-1.26-1.462a1.03,1.03,0,0,0-1.172,1.158H11.66a2.95,2.95,0,0,1,1.3-2.487,5.479,5.479,0,0,1,3.325-.956,4.8,4.8,0,0,1,3.193.986,3.429,3.429,0,0,1,1.2,2.705v4.678a4.79,4.79,0,0,0,.449,2.227V0ZM15.781-2.148A1.836,1.836,0,0,0,16.8-2.412a1.653,1.653,0,0,0,.581-.6V-4.7h-.957q-1.719,0-1.719,1.543a.942.942,0,0,0,.3.728A1.1,1.1,0,0,0,15.781-2.148Zm9.834-8.418.107,1.24a3.633,3.633,0,0,1,3.018-1.436A2.675,2.675,0,0,1,31.445-9.17a3.516,3.516,0,0,1,3.105-1.592q3.213,0,3.3,3.887V0h-3.3V-6.67a2.014,2.014,0,0,0-.273-1.182,1.164,1.164,0,0,0-1-.371,1.559,1.559,0,0,0-1.455.869l.01.137V0h-3.3V-6.65a2.117,2.117,0,0,0-.264-1.2,1.161,1.161,0,0,0-1.006-.371,1.578,1.578,0,0,0-1.445.869V0H22.529V-10.566ZM45.684,0a3.716,3.716,0,0,1-.312-.947A3.06,3.06,0,0,1,42.832.2a3.749,3.749,0,0,1-2.539-.9,2.875,2.875,0,0,1-1.045-2.271,2.955,2.955,0,0,1,1.27-2.6,6.468,6.468,0,0,1,3.691-.879h1.016v-.559q0-1.462-1.26-1.462a1.03,1.03,0,0,0-1.172,1.158H39.5a2.95,2.95,0,0,1,1.3-2.487,5.479,5.479,0,0,1,3.325-.956,4.8,4.8,0,0,1,3.193.986,3.429,3.429,0,0,1,1.2,2.705v4.678a4.79,4.79,0,0,0,.449,2.227V0ZM43.623-2.148a1.836,1.836,0,0,0,1.021-.264,1.653,1.653,0,0,0,.581-.6V-4.7h-.957q-1.719,0-1.719,1.543a.942.942,0,0,0,.3.728A1.1,1.1,0,0,0,43.623-2.148Zm9.746-8.418.107,1.24a3.583,3.583,0,0,1,3.018-1.436,3.015,3.015,0,0,1,2.466.986A4.7,4.7,0,0,1,59.8-6.807V0H56.5V-6.67a1.783,1.783,0,0,0-.322-1.177,1.491,1.491,0,0,0-1.172-.376,1.569,1.569,0,0,0-1.436.762V0H50.283V-10.566Zm5.459-4.355a2.847,2.847,0,0,1-.649,1.89,2.015,2.015,0,0,1-1.606.776,3.169,3.169,0,0,1-1.436-.41,2.994,2.994,0,0,0-1.279-.41.733.733,0,0,0-.532.215.892.892,0,0,0-.22.664l-1.826-.1a2.863,2.863,0,0,1,.649-1.875,1.992,1.992,0,0,1,1.6-.791A3.3,3.3,0,0,1,54.8-14.6a7.856,7.856,0,0,0,1,.41,1.934,1.934,0,0,0,.444.049.746.746,0,0,0,.537-.217.9.9,0,0,0,.225-.671Zm2.383,9.541A6.236,6.236,0,0,1,61.826-8.2a4.4,4.4,0,0,1,1.768-1.9,5.323,5.323,0,0,1,2.705-.664,4.858,4.858,0,0,1,3.74,1.47,5.64,5.64,0,0,1,1.367,4v.117a5.472,5.472,0,0,1-1.372,3.921A4.871,4.871,0,0,1,66.318.2,4.927,4.927,0,0,1,62.7-1.157a5.29,5.29,0,0,1-1.475-3.667Zm3.291.205a3.932,3.932,0,0,0,.459,2.148,1.529,1.529,0,0,0,1.357.684q1.758,0,1.8-2.705v-.332q0-2.842-1.816-2.842-1.65,0-1.787,2.451ZM82.949.2a5.432,5.432,0,0,1-3.936-1.45,5.008,5.008,0,0,1-1.5-3.774V-5.3a6.489,6.489,0,0,1,.6-2.861,4.395,4.395,0,0,1,1.753-1.919,5.292,5.292,0,0,1,2.734-.679A4.574,4.574,0,0,1,86.113-9.38,5.43,5.43,0,0,1,87.4-5.527v1.279H80.859a2.372,2.372,0,0,0,.771,1.4,2.3,2.3,0,0,0,1.543.508,2.958,2.958,0,0,0,2.441-1.094l1.5,1.777A4.2,4.2,0,0,1,85.376-.308,5.891,5.891,0,0,1,82.949.2Zm-.371-8.418q-1.445,0-1.719,1.914h3.32v-.254a1.63,1.63,0,0,0-.4-1.226A1.593,1.593,0,0,0,82.578-8.223Zm11.68,5.254a.76.76,0,0,0-.439-.674,6.685,6.685,0,0,0-1.67-.527,7.615,7.615,0,0,1-2.031-.718A3.4,3.4,0,0,1,88.9-5.967a2.577,2.577,0,0,1-.42-1.455,2.92,2.92,0,0,1,1.2-2.4,4.948,4.948,0,0,1,3.145-.942,5.482,5.482,0,0,1,3.359.947,2.962,2.962,0,0,1,1.27,2.49h-3.3q0-1.27-1.338-1.27a1.326,1.326,0,0,0-.869.288.892.892,0,0,0-.352.718.819.819,0,0,0,.43.713,4.06,4.06,0,0,0,1.372.449,11.857,11.857,0,0,1,1.655.42,3.007,3.007,0,0,1,2.383,2.939A2.767,2.767,0,0,1,96.147-.713,5.631,5.631,0,0,1,92.822.2,5.747,5.747,0,0,1,90.4-.293a4.05,4.05,0,0,1-1.66-1.328,3.007,3.007,0,0,1-.6-1.768h3.076a1.272,1.272,0,0,0,.488,1.069,2.009,2.009,0,0,0,1.2.337,1.58,1.58,0,0,0,1.011-.273A.875.875,0,0,0,94.258-2.969ZM102.8-13.193v2.627h1.738v2.285H102.8v4.834a1.234,1.234,0,0,0,.215.83,1.152,1.152,0,0,0,.85.234,4.828,4.828,0,0,0,.82-.059V-.088A6.074,6.074,0,0,1,102.832.2a3.448,3.448,0,0,1-2.51-.8,3.282,3.282,0,0,1-.811-2.432V-8.281H98.164v-2.285h1.348v-2.627ZM111.787,0a3.716,3.716,0,0,1-.312-.947A3.06,3.06,0,0,1,108.936.2a3.749,3.749,0,0,1-2.539-.9,2.875,2.875,0,0,1-1.045-2.271,2.955,2.955,0,0,1,1.27-2.6,6.468,6.468,0,0,1,3.691-.879h1.016v-.559q0-1.462-1.26-1.462A1.03,1.03,0,0,0,108.9-7.319h-3.291a2.95,2.95,0,0,1,1.3-2.487,5.479,5.479,0,0,1,3.325-.956,4.8,4.8,0,0,1,3.193.986,3.429,3.429,0,0,1,1.2,2.705v4.678a4.79,4.79,0,0,0,.449,2.227V0Zm-2.061-2.148a1.836,1.836,0,0,0,1.021-.264,1.653,1.653,0,0,0,.581-.6V-4.7h-.957q-1.719,0-1.719,1.543a.942.942,0,0,0,.3.728A1.1,1.1,0,0,0,109.727-2.148Zm9.746-8.418.107,1.24a3.583,3.583,0,0,1,3.018-1.436,3.015,3.015,0,0,1,2.466.986,4.7,4.7,0,0,1,.845,2.969V0h-3.3V-6.67a1.783,1.783,0,0,0-.322-1.177,1.491,1.491,0,0,0-1.172-.376,1.569,1.569,0,0,0-1.436.762V0h-3.291V-10.566Zm7.842,5.205A6.455,6.455,0,0,1,128.4-9.316a3.568,3.568,0,0,1,3.027-1.445,3.035,3.035,0,0,1,2.383,1.113V-15h3.3V0H134.15l-.166-1.133A3.116,3.116,0,0,1,131.406.2a3.562,3.562,0,0,1-2.988-1.445A6.659,6.659,0,0,1,127.314-5.361Zm3.291.205q0,2.813,1.641,2.813a1.62,1.62,0,0,0,1.563-.918V-7.285a1.576,1.576,0,0,0-1.543-.937q-1.523,0-1.65,2.461ZM144.932,0a3.716,3.716,0,0,1-.312-.947A3.06,3.06,0,0,1,142.08.2a3.749,3.749,0,0,1-2.539-.9A2.875,2.875,0,0,1,138.5-2.979a2.955,2.955,0,0,1,1.27-2.6,6.468,6.468,0,0,1,3.691-.879h1.016v-.559q0-1.462-1.26-1.462a1.03,1.03,0,0,0-1.172,1.158H138.75a2.95,2.95,0,0,1,1.3-2.487,5.479,5.479,0,0,1,3.325-.956,4.8,4.8,0,0,1,3.193.986,3.429,3.429,0,0,1,1.2,2.705v4.678a4.79,4.79,0,0,0,.449,2.227V0Zm-2.061-2.148a1.836,1.836,0,0,0,1.021-.264,1.652,1.652,0,0,0,.581-.6V-4.7h-.957q-1.719,0-1.719,1.543a.942.942,0,0,0,.3.728A1.1,1.1,0,0,0,142.871-2.148Zm13.115-5.439L154.9-7.666a1.947,1.947,0,0,0-1.992.977V0h-3.291V-10.566h3.086l.107,1.357a2.548,2.548,0,0,1,2.314-1.553,3.209,3.209,0,0,1,.918.117Zm5.752,2.227a6.455,6.455,0,0,1,1.084-3.955,3.568,3.568,0,0,1,3.027-1.445,3.035,3.035,0,0,1,2.383,1.113V-15h3.3V0h-2.959l-.166-1.133A3.116,3.116,0,0,1,165.83.2a3.562,3.562,0,0,1-2.988-1.445A6.659,6.659,0,0,1,161.738-5.361Zm3.291.205q0,2.813,1.641,2.813a1.62,1.62,0,0,0,1.563-.918V-7.285a1.576,1.576,0,0,0-1.543-.937q-1.523,0-1.65,2.461ZM178.516.2a5.432,5.432,0,0,1-3.936-1.45,5.008,5.008,0,0,1-1.5-3.774V-5.3a6.489,6.489,0,0,1,.6-2.861,4.395,4.395,0,0,1,1.753-1.919,5.292,5.292,0,0,1,2.734-.679A4.574,4.574,0,0,1,181.68-9.38a5.43,5.43,0,0,1,1.289,3.853v1.279h-6.543a2.372,2.372,0,0,0,.771,1.4,2.3,2.3,0,0,0,1.543.508,2.958,2.958,0,0,0,2.441-1.094l1.5,1.777a4.2,4.2,0,0,1-1.743,1.353A5.891,5.891,0,0,1,178.516.2Zm-.371-8.418q-1.445,0-1.719,1.914h3.32v-.254a1.63,1.63,0,0,0-.4-1.226A1.593,1.593,0,0,0,178.145-8.223Zm20.938,3.018a6.372,6.372,0,0,1-1.108,3.931A3.554,3.554,0,0,1,194.98.2a3.046,3.046,0,0,1-2.393-1.064V4.063H189.3V-10.566h3.076l.1.977a3.046,3.046,0,0,1,2.49-1.172A3.582,3.582,0,0,1,198-9.321a6.45,6.45,0,0,1,1.084,3.96Zm-3.291-.205q0-2.812-1.641-2.812a1.549,1.549,0,0,0-1.562.84v4.16a1.6,1.6,0,0,0,1.582.879q1.572,0,1.621-2.715ZM204,0h-3.3V-10.566H204Zm-3.5-13.291a1.469,1.469,0,0,1,.508-1.152,1.916,1.916,0,0,1,1.318-.449,1.916,1.916,0,0,1,1.318.449,1.469,1.469,0,0,1,.508,1.152,1.469,1.469,0,0,1-.508,1.152,1.916,1.916,0,0,1-1.318.449,1.916,1.916,0,0,1-1.318-.449A1.469,1.469,0,0,1,200.508-13.291Zm8.545,2.725.107,1.24a3.583,3.583,0,0,1,3.018-1.436,3.015,3.015,0,0,1,2.466.986,4.7,4.7,0,0,1,.845,2.969V0h-3.3V-6.67a1.783,1.783,0,0,0-.322-1.177,1.491,1.491,0,0,0-1.172-.376,1.569,1.569,0,0,0-1.436.762V0h-3.291V-10.566Zm12.139,8.027h4.814V0h-8.975V-1.836l4.688-6.191h-4.482v-2.539H225.9v1.777ZM233.555,0a3.716,3.716,0,0,1-.312-.947A3.06,3.06,0,0,1,230.7.2a3.749,3.749,0,0,1-2.539-.9,2.875,2.875,0,0,1-1.045-2.271,2.955,2.955,0,0,1,1.27-2.6,6.468,6.468,0,0,1,3.691-.879H233.1v-.559q0-1.462-1.26-1.462a1.03,1.03,0,0,0-1.172,1.158h-3.291a2.95,2.95,0,0,1,1.3-2.487A5.479,5.479,0,0,1,232-10.762a4.8,4.8,0,0,1,3.193.986,3.429,3.429,0,0,1,1.2,2.705v4.678a4.79,4.79,0,0,0,.449,2.227V0Zm-2.061-2.148a1.836,1.836,0,0,0,1.021-.264,1.652,1.652,0,0,0,.581-.6V-4.7h-.957q-1.719,0-1.719,1.543a.942.942,0,0,0,.3.728A1.1,1.1,0,0,0,231.494-2.148Z" transform="translate(382.734 7754) rotate(-90)" fill="#12263f"/>
    <path id="Trazado_1264188" data-name="Trazado 1264188" d="M4.956,0H8.043V-13.65H5.4L1.785-11.97,2.31-9.576l2.6-1.239h.042ZM24.507-2.6a4.924,4.924,0,0,1-1.827.315,2.672,2.672,0,0,1-2.814-2.877,2.658,2.658,0,0,1,2.751-2.877,4.367,4.367,0,0,1,1.785.315l.5-2.373a7.4,7.4,0,0,0-2.436-.4c-3.822,0-5.88,2.457-5.88,5.46,0,3.234,2.121,5.25,5.439,5.25a7.787,7.787,0,0,0,2.856-.462ZM26.649,0h3.108V-5.985a2.117,2.117,0,0,1,.126-.8,1.625,1.625,0,0,1,1.491-1.155c1.008,0,1.47.882,1.47,2.184V0h3.108V-6.006a2.671,2.671,0,0,1,.126-.819,1.562,1.562,0,0,1,1.47-1.113c1.029,0,1.512.861,1.512,2.352V0h3.108V-6.048c0-3.066-1.491-4.452-3.465-4.452a3.7,3.7,0,0,0-1.953.5,4.6,4.6,0,0,0-1.323,1.239h-.042A2.91,2.91,0,0,0,32.571-10.5a3.561,3.561,0,0,0-3.108,1.617H29.4l-.147-1.386H26.565c.042.9.084,1.995.084,3.276Z" transform="translate(419.833 7445.767) rotate(-90)"/>
    <path id="Trazado_1264189" data-name="Trazado 1264189" d="M0,0V851.245" transform="translate(422.885 7854.5) rotate(-90)" fill="none" stroke="#752092" stroke-width="1.357"/>
    <path id="Trazado_1263580" data-name="Trazado 1263580" d="M42.9,112.866a.648.648,0,0,0,.893-.2l5.311-8.339,5.311,8.339a.647.647,0,1,0,1.091-.694l-5.857-9.194a.647.647,0,0,0-1.091,0l-5.856,9.194a.648.648,0,0,0,.2.894" transform="translate(318.852 7903.607) rotate(-90)" fill="#752092"/>
    <path id="Trazado_1263581" data-name="Trazado 1263581" d="M43.883,993.183l.947-.881,4.337,4.668,4.339-4.668.947.881-5.286,5.684Z" transform="translate(276.664 7903.668) rotate(-90)" fill="#752092"/>
    <path id="Trazado_1264190" data-name="Trazado 1264190" d="M0,0V281.459" transform="translate(422.885 7895.085) rotate(-90)" fill="none" stroke="#752092" stroke-width="1.357"/>
    <path id="Trazado_1263582" data-name="Trazado 1263582" d="M.3,112.866a.648.648,0,0,0,.893-.2L6.5,104.328l5.311,8.339a.647.647,0,1,0,1.091-.694l-5.857-9.194a.647.647,0,0,0-1.091,0L.1,111.972a.648.648,0,0,0,.2.894" transform="translate(318.852 7901.587) rotate(-90)" fill="#752092"/>
    <path id="Trazado_1263583" data-name="Trazado 1263583" d="M1.277,395.039l.947-.881,4.337,4.668,4.34-4.668.946.881-5.286,5.684Z" transform="translate(305.023 7901.648) rotate(-90)" fill="#752092"/>
    <path id="Trazado_1264191" data-name="Trazado 1264191" d="M0,0H502.588V952.3H0Z" transform="translate(323.711 7901.587) rotate(-90)" fill="none"/>
    <path id="Trazado_1264199" data-name="Trazado 1264199" d="M2.828-1.227H8.219V0H1.32V-11.375H2.828ZM14.922,0a3.036,3.036,0,0,1-.2-.891A3.225,3.225,0,0,1,12.313.156a2.984,2.984,0,0,1-2.051-.707,2.287,2.287,0,0,1-.8-1.793,2.39,2.39,0,0,1,1-2.051,4.733,4.733,0,0,1,2.824-.73H14.7v-.664A1.623,1.623,0,0,0,14.242-7a1.821,1.821,0,0,0-1.336-.449,2.107,2.107,0,0,0-1.3.391,1.151,1.151,0,0,0-.523.945H9.633a2,2,0,0,1,.449-1.223A3.066,3.066,0,0,1,11.3-8.266a4.1,4.1,0,0,1,1.691-.344,3.342,3.342,0,0,1,2.289.73,2.635,2.635,0,0,1,.859,2.012v3.891a4.757,4.757,0,0,0,.3,1.852V0Zm-2.4-1.1a2.54,2.54,0,0,0,1.289-.352,2.127,2.127,0,0,0,.883-.914V-4.1H13.563q-2.656,0-2.656,1.555a1.316,1.316,0,0,0,.453,1.063A1.742,1.742,0,0,0,12.523-1.1Zm9.969-6.055a4.331,4.331,0,0,0-.711-.055A1.9,1.9,0,0,0,19.852-6V0H18.406V-8.453h1.406l.023.977a2.251,2.251,0,0,1,2.016-1.133,1.477,1.477,0,0,1,.641.109ZM23.477-4.3a4.968,4.968,0,0,1,.914-3.145,2.923,2.923,0,0,1,2.422-1.168,2.908,2.908,0,0,1,2.414,1.094l.07-.937h1.32V-.2a3.439,3.439,0,0,1-.973,2.586,3.589,3.589,0,0,1-2.613.945,4.348,4.348,0,0,1-1.789-.391,3.08,3.08,0,0,1-1.336-1.07L24.656,1A2.826,2.826,0,0,0,26.93,2.148a2.214,2.214,0,0,0,1.645-.594,2.269,2.269,0,0,0,.59-1.672V-.844a2.971,2.971,0,0,1-2.367,1,2.887,2.887,0,0,1-2.4-1.2A5.224,5.224,0,0,1,23.477-4.3Zm1.453.164a3.79,3.79,0,0,0,.586,2.246,1.9,1.9,0,0,0,1.641.816,2.117,2.117,0,0,0,2.008-1.242V-6.172a2.142,2.142,0,0,0-1.992-1.211,1.921,1.921,0,0,0-1.648.82A4.128,4.128,0,0,0,24.93-4.133ZM32.414-4.3A4.993,4.993,0,0,1,32.9-6.539,3.643,3.643,0,0,1,34.262-8.07a3.7,3.7,0,0,1,1.988-.539,3.565,3.565,0,0,1,2.793,1.2,4.6,4.6,0,0,1,1.066,3.18v.1a5.036,5.036,0,0,1-.473,2.215A3.589,3.589,0,0,1,38.285-.391a3.743,3.743,0,0,1-2.02.547,3.556,3.556,0,0,1-2.785-1.2A4.575,4.575,0,0,1,32.414-4.2Zm1.453.172a3.616,3.616,0,0,0,.652,2.258,2.088,2.088,0,0,0,1.746.852,2.075,2.075,0,0,0,1.75-.863A3.955,3.955,0,0,0,38.664-4.3,3.61,3.61,0,0,0,38-6.559a2.1,2.1,0,0,0-1.754-.863,2.075,2.075,0,0,0-1.727.852A3.925,3.925,0,0,0,33.867-4.133ZM45.531-4.3a4.952,4.952,0,0,1,.922-3.129,2.915,2.915,0,0,1,2.414-1.184,2.932,2.932,0,0,1,2.352,1.016V-12h1.445V0H51.336l-.07-.906A2.943,2.943,0,0,1,48.852.156a2.887,2.887,0,0,1-2.395-1.2,5.008,5.008,0,0,1-.926-3.141Zm1.445.164a3.749,3.749,0,0,0,.594,2.25,1.92,1.92,0,0,0,1.641.813A2.108,2.108,0,0,0,51.219-2.3V-6.187a2.125,2.125,0,0,0-1.992-1.2,1.929,1.929,0,0,0-1.656.82A4.128,4.128,0,0,0,46.977-4.133ZM58.414.156a3.693,3.693,0,0,1-2.8-1.129,4.19,4.19,0,0,1-1.078-3.02v-.266A5.073,5.073,0,0,1,55.02-6.5a3.748,3.748,0,0,1,1.344-1.547,3.378,3.378,0,0,1,1.871-.559A3.166,3.166,0,0,1,60.8-7.523a4.7,4.7,0,0,1,.914,3.109v.6H55.984a3,3,0,0,0,.73,2.02,2.3,2.3,0,0,0,1.777.77,2.517,2.517,0,0,0,1.3-.312,3.259,3.259,0,0,0,.93-.828l.883.688A3.55,3.55,0,0,1,58.414.156Zm-.18-7.578a1.928,1.928,0,0,0-1.469.637A3.1,3.1,0,0,0,56.031-5h4.234v-.109a2.753,2.753,0,0,0-.594-1.707A1.815,1.815,0,0,0,58.234-7.422ZM68.055,0V-7.336H66.719V-8.453h1.336V-9.32a2.878,2.878,0,0,1,.727-2.1,2.745,2.745,0,0,1,2.055-.742,3.816,3.816,0,0,1,.992.132l-.078,1.165a4.151,4.151,0,0,0-.781-.07,1.41,1.41,0,0,0-1.086.411,1.669,1.669,0,0,0-.383,1.18v.893h1.8v1.117H69.5V0ZM78.117,0a3.036,3.036,0,0,1-.2-.891A3.225,3.225,0,0,1,75.508.156a2.984,2.984,0,0,1-2.051-.707,2.288,2.288,0,0,1-.8-1.793,2.39,2.39,0,0,1,1-2.051,4.733,4.733,0,0,1,2.824-.73h1.406v-.664A1.623,1.623,0,0,0,77.438-7,1.821,1.821,0,0,0,76.1-7.445a2.108,2.108,0,0,0-1.3.391,1.151,1.151,0,0,0-.523.945H72.828a2,2,0,0,1,.449-1.223A3.066,3.066,0,0,1,74.5-8.266a4.1,4.1,0,0,1,1.691-.344,3.342,3.342,0,0,1,2.289.73,2.635,2.635,0,0,1,.859,2.012v3.891a4.757,4.757,0,0,0,.3,1.852V0Zm-2.4-1.1a2.54,2.54,0,0,0,1.289-.352,2.127,2.127,0,0,0,.883-.914V-4.1H76.758Q74.1-4.1,74.1-2.547a1.316,1.316,0,0,0,.453,1.063A1.742,1.742,0,0,0,75.719-1.1ZM83.172,0H81.727V-12h1.445Zm1.961-4.3a4.952,4.952,0,0,1,.922-3.129,2.915,2.915,0,0,1,2.414-1.184A2.932,2.932,0,0,1,90.82-7.594V-12h1.445V0H90.938l-.07-.906A2.943,2.943,0,0,1,88.453.156a2.887,2.887,0,0,1-2.395-1.2,5.008,5.008,0,0,1-.926-3.141Zm1.445.164a3.749,3.749,0,0,0,.594,2.25,1.92,1.92,0,0,0,1.641.813A2.109,2.109,0,0,0,90.82-2.3V-6.187a2.125,2.125,0,0,0-1.992-1.2,1.929,1.929,0,0,0-1.656.82A4.128,4.128,0,0,0,86.578-4.133ZM99.727,0a3.036,3.036,0,0,1-.2-.891A3.225,3.225,0,0,1,97.117.156a2.984,2.984,0,0,1-2.051-.707,2.288,2.288,0,0,1-.8-1.793,2.39,2.39,0,0,1,1-2.051,4.733,4.733,0,0,1,2.824-.73H99.5v-.664A1.623,1.623,0,0,0,99.047-7a1.821,1.821,0,0,0-1.336-.449,2.108,2.108,0,0,0-1.3.391,1.151,1.151,0,0,0-.523.945H94.438a2,2,0,0,1,.449-1.223,3.066,3.066,0,0,1,1.219-.934A4.1,4.1,0,0,1,97.8-8.609a3.342,3.342,0,0,1,2.289.73,2.635,2.635,0,0,1,.859,2.012v3.891a4.757,4.757,0,0,0,.3,1.852V0Zm-2.4-1.1a2.54,2.54,0,0,0,1.289-.352,2.127,2.127,0,0,0,.883-.914V-4.1H98.367q-2.656,0-2.656,1.555a1.316,1.316,0,0,0,.453,1.063A1.742,1.742,0,0,0,97.328-1.1Z" transform="translate(938.711 7839.858)" fill="#12263f"/>
    <path id="Trazado_1264200" data-name="Trazado 1264200" d="M2.828-1.227H8.219V0H1.32V-11.375H2.828ZM14.922,0a3.036,3.036,0,0,1-.2-.891A3.225,3.225,0,0,1,12.313.156a2.984,2.984,0,0,1-2.051-.707,2.287,2.287,0,0,1-.8-1.793,2.39,2.39,0,0,1,1-2.051,4.733,4.733,0,0,1,2.824-.73H14.7v-.664A1.623,1.623,0,0,0,14.242-7a1.821,1.821,0,0,0-1.336-.449,2.107,2.107,0,0,0-1.3.391,1.151,1.151,0,0,0-.523.945H9.633a2,2,0,0,1,.449-1.223A3.066,3.066,0,0,1,11.3-8.266a4.1,4.1,0,0,1,1.691-.344,3.342,3.342,0,0,1,2.289.73,2.635,2.635,0,0,1,.859,2.012v3.891a4.757,4.757,0,0,0,.3,1.852V0Zm-2.4-1.1a2.54,2.54,0,0,0,1.289-.352,2.127,2.127,0,0,0,.883-.914V-4.1H13.563q-2.656,0-2.656,1.555a1.316,1.316,0,0,0,.453,1.063A1.742,1.742,0,0,0,12.523-1.1Zm9.969-6.055a4.331,4.331,0,0,0-.711-.055A1.9,1.9,0,0,0,19.852-6V0H18.406V-8.453h1.406l.023.977a2.251,2.251,0,0,1,2.016-1.133,1.477,1.477,0,0,1,.641.109ZM23.477-4.3a4.968,4.968,0,0,1,.914-3.145,2.923,2.923,0,0,1,2.422-1.168,2.908,2.908,0,0,1,2.414,1.094l.07-.937h1.32V-.2a3.439,3.439,0,0,1-.973,2.586,3.589,3.589,0,0,1-2.613.945,4.348,4.348,0,0,1-1.789-.391,3.08,3.08,0,0,1-1.336-1.07L24.656,1A2.826,2.826,0,0,0,26.93,2.148a2.214,2.214,0,0,0,1.645-.594,2.269,2.269,0,0,0,.59-1.672V-.844a2.971,2.971,0,0,1-2.367,1,2.887,2.887,0,0,1-2.4-1.2A5.224,5.224,0,0,1,23.477-4.3Zm1.453.164a3.79,3.79,0,0,0,.586,2.246,1.9,1.9,0,0,0,1.641.816,2.117,2.117,0,0,0,2.008-1.242V-6.172a2.142,2.142,0,0,0-1.992-1.211,1.921,1.921,0,0,0-1.648.82A4.128,4.128,0,0,0,24.93-4.133ZM32.414-4.3A4.993,4.993,0,0,1,32.9-6.539,3.643,3.643,0,0,1,34.262-8.07a3.7,3.7,0,0,1,1.988-.539,3.565,3.565,0,0,1,2.793,1.2,4.6,4.6,0,0,1,1.066,3.18v.1a5.036,5.036,0,0,1-.473,2.215A3.589,3.589,0,0,1,38.285-.391a3.743,3.743,0,0,1-2.02.547,3.556,3.556,0,0,1-2.785-1.2A4.575,4.575,0,0,1,32.414-4.2Zm1.453.172a3.616,3.616,0,0,0,.652,2.258,2.088,2.088,0,0,0,1.746.852,2.075,2.075,0,0,0,1.75-.863A3.955,3.955,0,0,0,38.664-4.3,3.61,3.61,0,0,0,38-6.559a2.1,2.1,0,0,0-1.754-.863,2.075,2.075,0,0,0-1.727.852A3.925,3.925,0,0,0,33.867-4.133ZM45.531-4.3a4.952,4.952,0,0,1,.922-3.129,2.915,2.915,0,0,1,2.414-1.184,2.932,2.932,0,0,1,2.352,1.016V-12h1.445V0H51.336l-.07-.906A2.943,2.943,0,0,1,48.852.156a2.887,2.887,0,0,1-2.395-1.2,5.008,5.008,0,0,1-.926-3.141Zm1.445.164a3.749,3.749,0,0,0,.594,2.25,1.92,1.92,0,0,0,1.641.813A2.108,2.108,0,0,0,51.219-2.3V-6.187a2.125,2.125,0,0,0-1.992-1.2,1.929,1.929,0,0,0-1.656.82A4.128,4.128,0,0,0,46.977-4.133ZM58.414.156a3.693,3.693,0,0,1-2.8-1.129,4.19,4.19,0,0,1-1.078-3.02v-.266A5.073,5.073,0,0,1,55.02-6.5a3.748,3.748,0,0,1,1.344-1.547,3.378,3.378,0,0,1,1.871-.559A3.166,3.166,0,0,1,60.8-7.523a4.7,4.7,0,0,1,.914,3.109v.6H55.984a3,3,0,0,0,.73,2.02,2.3,2.3,0,0,0,1.777.77,2.517,2.517,0,0,0,1.3-.312,3.259,3.259,0,0,0,.93-.828l.883.688A3.55,3.55,0,0,1,58.414.156Zm-.18-7.578a1.928,1.928,0,0,0-1.469.637A3.1,3.1,0,0,0,56.031-5h4.234v-.109a2.753,2.753,0,0,0-.594-1.707A1.815,1.815,0,0,0,58.234-7.422ZM72.563,0a3.036,3.036,0,0,1-.2-.891A3.225,3.225,0,0,1,69.953.156,2.984,2.984,0,0,1,67.9-.551a2.288,2.288,0,0,1-.8-1.793,2.39,2.39,0,0,1,1-2.051,4.733,4.733,0,0,1,2.824-.73h1.406v-.664A1.623,1.623,0,0,0,71.883-7a1.821,1.821,0,0,0-1.336-.449,2.108,2.108,0,0,0-1.3.391,1.151,1.151,0,0,0-.523.945H67.273a2,2,0,0,1,.449-1.223,3.066,3.066,0,0,1,1.219-.934,4.1,4.1,0,0,1,1.691-.344,3.342,3.342,0,0,1,2.289.73,2.635,2.635,0,0,1,.859,2.012v3.891a4.757,4.757,0,0,0,.3,1.852V0Zm-2.4-1.1a2.54,2.54,0,0,0,1.289-.352,2.127,2.127,0,0,0,.883-.914V-4.1H71.2q-2.656,0-2.656,1.555A1.316,1.316,0,0,0,69-1.484,1.742,1.742,0,0,0,70.164-1.1ZM77.617,0H76.172V-12h1.445Zm4.273-10.5v2.047h1.578v1.117H81.891v5.249a1.173,1.173,0,0,0,.211.763.888.888,0,0,0,.719.254,3.5,3.5,0,0,0,.688-.094V0A4.215,4.215,0,0,1,82.4.156,1.8,1.8,0,0,1,80.938-.43a2.517,2.517,0,0,1-.492-1.664V-7.336H78.906V-8.453h1.539V-10.5ZM90.375-.836A3.07,3.07,0,0,1,87.9.156,2.628,2.628,0,0,1,85.84-.629a3.4,3.4,0,0,1-.715-2.324v-5.5H86.57v5.461q0,1.922,1.563,1.922a2.163,2.163,0,0,0,2.2-1.234V-8.453h1.445V0H90.406Zm7.688-6.32a4.331,4.331,0,0,0-.711-.055A1.9,1.9,0,0,0,95.422-6V0H93.977V-8.453h1.406l.023.977a2.251,2.251,0,0,1,2.016-1.133,1.477,1.477,0,0,1,.641.109ZM104.3,0a3.036,3.036,0,0,1-.2-.891A3.225,3.225,0,0,1,101.688.156a2.984,2.984,0,0,1-2.051-.707,2.288,2.288,0,0,1-.8-1.793,2.39,2.39,0,0,1,1-2.051,4.733,4.733,0,0,1,2.824-.73h1.406v-.664A1.623,1.623,0,0,0,103.617-7a1.821,1.821,0,0,0-1.336-.449,2.108,2.108,0,0,0-1.3.391,1.151,1.151,0,0,0-.523.945H99.008a2,2,0,0,1,.449-1.223,3.066,3.066,0,0,1,1.219-.934,4.1,4.1,0,0,1,1.691-.344,3.342,3.342,0,0,1,2.289.73,2.635,2.635,0,0,1,.859,2.012v3.891a4.757,4.757,0,0,0,.3,1.852V0Zm-2.4-1.1a2.54,2.54,0,0,0,1.289-.352,2.127,2.127,0,0,0,.883-.914V-4.1h-1.133q-2.656,0-2.656,1.555a1.316,1.316,0,0,0,.453,1.063A1.742,1.742,0,0,0,101.9-1.1Zm9.492-3.2a4.952,4.952,0,0,1,.922-3.129,2.915,2.915,0,0,1,2.414-1.184,2.932,2.932,0,0,1,2.352,1.016V-12h1.445V0H117.2l-.07-.906A2.943,2.943,0,0,1,114.711.156a2.887,2.887,0,0,1-2.395-1.2,5.008,5.008,0,0,1-.926-3.141Zm1.445.164a3.749,3.749,0,0,0,.594,2.25,1.92,1.92,0,0,0,1.641.813A2.109,2.109,0,0,0,117.078-2.3V-6.187a2.125,2.125,0,0,0-1.992-1.2,1.929,1.929,0,0,0-1.656.82A4.128,4.128,0,0,0,112.836-4.133ZM124.273.156a3.693,3.693,0,0,1-2.8-1.129,4.19,4.19,0,0,1-1.078-3.02v-.266a5.073,5.073,0,0,1,.48-2.246,3.748,3.748,0,0,1,1.344-1.547,3.378,3.378,0,0,1,1.871-.559,3.166,3.166,0,0,1,2.563,1.086,4.7,4.7,0,0,1,.914,3.109v.6h-5.727a3,3,0,0,0,.73,2.02,2.3,2.3,0,0,0,1.777.77,2.517,2.517,0,0,0,1.3-.312,3.259,3.259,0,0,0,.93-.828l.883.688A3.55,3.55,0,0,1,124.273.156Zm-.18-7.578a1.928,1.928,0,0,0-1.469.637A3.1,3.1,0,0,0,121.891-5h4.234v-.109a2.753,2.753,0,0,0-.594-1.707A1.815,1.815,0,0,0,124.094-7.422Zm12.5,6.4a2.082,2.082,0,0,0,1.352-.469,1.649,1.649,0,0,0,.641-1.172h1.367a2.621,2.621,0,0,1-.5,1.383,3.293,3.293,0,0,1-1.23,1.047,3.55,3.55,0,0,1-1.629.391A3.482,3.482,0,0,1,133.848-1a4.59,4.59,0,0,1-1.02-3.152v-.242a5.089,5.089,0,0,1,.453-2.2,3.451,3.451,0,0,1,1.3-1.492,3.7,3.7,0,0,1,2-.531,3.39,3.39,0,0,1,2.363.852,3.043,3.043,0,0,1,1,2.211h-1.367a1.992,1.992,0,0,0-.621-1.348,1.932,1.932,0,0,0-1.379-.527,2.023,2.023,0,0,0-1.707.793,3.724,3.724,0,0,0-.605,2.293v.273a3.65,3.65,0,0,0,.6,2.25A2.033,2.033,0,0,0,136.594-1.023ZM146.8,0a3.036,3.036,0,0,1-.2-.891A3.225,3.225,0,0,1,144.188.156a2.984,2.984,0,0,1-2.051-.707,2.287,2.287,0,0,1-.8-1.793,2.39,2.39,0,0,1,1-2.051,4.733,4.733,0,0,1,2.824-.73h1.406v-.664A1.623,1.623,0,0,0,146.117-7a1.821,1.821,0,0,0-1.336-.449,2.107,2.107,0,0,0-1.3.391,1.151,1.151,0,0,0-.523.945h-1.453a2,2,0,0,1,.449-1.223,3.066,3.066,0,0,1,1.219-.934,4.1,4.1,0,0,1,1.691-.344,3.342,3.342,0,0,1,2.289.73,2.635,2.635,0,0,1,.859,2.012v3.891a4.757,4.757,0,0,0,.3,1.852V0Zm-2.4-1.1a2.54,2.54,0,0,0,1.289-.352,2.127,2.127,0,0,0,.883-.914V-4.1h-1.133q-2.656,0-2.656,1.555a1.316,1.316,0,0,0,.453,1.063A1.742,1.742,0,0,0,144.4-1.1Zm5.531-3.2a4.952,4.952,0,0,1,.922-3.129,2.915,2.915,0,0,1,2.414-1.184,2.932,2.932,0,0,1,2.352,1.016V-12h1.445V0h-1.328l-.07-.906A2.943,2.943,0,0,1,153.25.156a2.887,2.887,0,0,1-2.395-1.2,5.008,5.008,0,0,1-.926-3.141Zm1.445.164a3.749,3.749,0,0,0,.594,2.25,1.919,1.919,0,0,0,1.641.813A2.108,2.108,0,0,0,155.617-2.3V-6.187a2.125,2.125,0,0,0-1.992-1.2,1.929,1.929,0,0,0-1.656.82A4.128,4.128,0,0,0,151.375-4.133ZM162.813.156a3.693,3.693,0,0,1-2.8-1.129,4.19,4.19,0,0,1-1.078-3.02v-.266a5.073,5.073,0,0,1,.48-2.246,3.748,3.748,0,0,1,1.344-1.547,3.378,3.378,0,0,1,1.871-.559A3.166,3.166,0,0,1,165.2-7.523a4.7,4.7,0,0,1,.914,3.109v.6h-5.727a3,3,0,0,0,.73,2.02,2.3,2.3,0,0,0,1.777.77,2.517,2.517,0,0,0,1.3-.312,3.258,3.258,0,0,0,.93-.828l.883.688A3.55,3.55,0,0,1,162.813.156Zm-.18-7.578a1.928,1.928,0,0,0-1.469.637A3.1,3.1,0,0,0,160.43-5h4.234v-.109a2.753,2.753,0,0,0-.594-1.707A1.815,1.815,0,0,0,162.633-7.422Zm9.234.266a4.331,4.331,0,0,0-.711-.055A1.9,1.9,0,0,0,169.227-6V0h-1.445V-8.453h1.406l.023.977a2.251,2.251,0,0,1,2.016-1.133,1.477,1.477,0,0,1,.641.109ZM178.1,0a3.036,3.036,0,0,1-.2-.891A3.225,3.225,0,0,1,175.492.156a2.984,2.984,0,0,1-2.051-.707,2.287,2.287,0,0,1-.8-1.793,2.39,2.39,0,0,1,1-2.051,4.733,4.733,0,0,1,2.824-.73h1.406v-.664A1.623,1.623,0,0,0,177.422-7a1.821,1.821,0,0,0-1.336-.449,2.107,2.107,0,0,0-1.3.391,1.151,1.151,0,0,0-.523.945h-1.453a2,2,0,0,1,.449-1.223,3.066,3.066,0,0,1,1.219-.934,4.1,4.1,0,0,1,1.691-.344,3.342,3.342,0,0,1,2.289.73,2.635,2.635,0,0,1,.859,2.012v3.891a4.757,4.757,0,0,0,.3,1.852V0Zm-2.4-1.1a2.54,2.54,0,0,0,1.289-.352,2.127,2.127,0,0,0,.883-.914V-4.1h-1.133q-2.656,0-2.656,1.555a1.316,1.316,0,0,0,.453,1.063A1.742,1.742,0,0,0,175.7-1.1Z" transform="translate(472.16 7881.615)" fill="#12263f"/>
    <g id="Grupo_1210206" data-name="Grupo 1210206" transform="translate(323.711 7901.587) rotate(-90)" clip-path="url(#clip-path)">
      <path id="Trazado_1263584" data-name="Trazado 1263584" d="M359.718,103.71H465.849V274.86" transform="translate(-17.055 -4.917)" fill="none" stroke="#12263f" stroke-miterlimit="10" stroke-width="1"/>
      <path id="Trazado_1263587" data-name="Trazado 1263587" d="M25.4,0,0,3.629" transform="translate(429.262 90.822)" fill="none" stroke="#752092" stroke-width="1"/>
      <path id="Trazado_1263585" data-name="Trazado 1263585" d="M453.149,94.635l.742.6-2.954,3.651,3.858,2.68-.544.782-4.7-3.264Z" transform="translate(-21.314 -4.487)" fill="#752092" stroke="#752092" stroke-width="1"/>
      <line id="Línea_3362" data-name="Línea 3362" y1="29.772" transform="translate(267.44 82.864)" fill="none" stroke="#752092" stroke-miterlimit="10" stroke-width="2"/>
      <path id="Trazado_1263586" data-name="Trazado 1263586" d="M264.3,90.8l-.857.8-3.929-4.228-3.93,4.228-.857-.8,4.788-5.149Z" transform="translate(7.922 -4.061)" fill="#752092"/>
      <line id="Línea_3363" data-name="Línea 3363" x2="346.917" transform="translate(97.263 382.366)" fill="none" stroke="#12263f" stroke-miterlimit="10" stroke-width="1"/>
    </g>
    <path id="Trazado_1264192" data-name="Trazado 1264192" d="M0,0H502.588V952.3H0Z" transform="translate(323.711 7901.587) rotate(-90)" fill="none"/>
    <path id="Trazado_1264194" data-name="Trazado 1264194" d="M12.578-4.814a5.193,5.193,0,0,1-.8,2.622A4.833,4.833,0,0,1,9.722-.43,7,7,0,0,1,6.7.2,5.584,5.584,0,0,1,2.285-1.631,7.54,7.54,0,0,1,.674-6.787v-.7A8.607,8.607,0,0,1,1.4-11.147,5.513,5.513,0,0,1,3.5-13.569a5.844,5.844,0,0,1,3.164-.854,6.129,6.129,0,0,1,4.16,1.362,5.383,5.383,0,0,1,1.787,3.755H9.189a2.547,2.547,0,0,0-.654-1.865,2.691,2.691,0,0,0-1.875-.566,2.048,2.048,0,0,0-1.875.957A6.151,6.151,0,0,0,4.16-7.725v1.006a6.806,6.806,0,0,0,.571,3.252A2.091,2.091,0,0,0,6.7-2.49a2.632,2.632,0,0,0,1.807-.557A2.363,2.363,0,0,0,9.17-4.814ZM17.52,0h-3.3V-10.566h3.3Zm-3.5-13.291a1.469,1.469,0,0,1,.508-1.152,1.916,1.916,0,0,1,1.318-.449,1.916,1.916,0,0,1,1.318.449,1.469,1.469,0,0,1,.508,1.152,1.469,1.469,0,0,1-.508,1.152,1.916,1.916,0,0,1-1.318.449,1.916,1.916,0,0,1-1.318-.449A1.469,1.469,0,0,1,14.023-13.291Zm8.545,2.725.107,1.24a3.583,3.583,0,0,1,3.018-1.436,3.015,3.015,0,0,1,2.466.986A4.7,4.7,0,0,1,29-6.807V0H25.7V-6.67a1.783,1.783,0,0,0-.322-1.177,1.491,1.491,0,0,0-1.172-.376,1.569,1.569,0,0,0-1.436.762V0H19.482V-10.566Zm12.09-2.627v2.627H36.4v2.285H34.658v4.834a1.234,1.234,0,0,0,.215.83,1.152,1.152,0,0,0,.85.234,4.828,4.828,0,0,0,.82-.059V-.088A6.074,6.074,0,0,1,34.688.2a3.448,3.448,0,0,1-2.51-.8,3.282,3.282,0,0,1-.811-2.432V-8.281H30.02v-2.285h1.348v-2.627ZM43.984-1.143A3.393,3.393,0,0,1,41.162.2,3.328,3.328,0,0,1,38.53-.815a4.251,4.251,0,0,1-.894-2.905v-6.846h3.291V-3.7a1.183,1.183,0,0,0,1.318,1.357,1.72,1.72,0,0,0,1.611-.811v-7.412h3.311V0H44.082ZM55.361-7.588l-1.084-.078a1.947,1.947,0,0,0-1.992.977V0H48.994V-10.566H52.08l.107,1.357A2.548,2.548,0,0,1,54.5-10.762a3.209,3.209,0,0,1,.918.117ZM62.207,0a3.716,3.716,0,0,1-.312-.947A3.06,3.06,0,0,1,59.355.2a3.749,3.749,0,0,1-2.539-.9,2.875,2.875,0,0,1-1.045-2.271,2.955,2.955,0,0,1,1.27-2.6,6.468,6.468,0,0,1,3.691-.879h1.016v-.559q0-1.462-1.26-1.462a1.03,1.03,0,0,0-1.172,1.158H56.025a2.95,2.95,0,0,1,1.3-2.487,5.479,5.479,0,0,1,3.325-.956,4.8,4.8,0,0,1,3.193.986,3.429,3.429,0,0,1,1.2,2.705v4.678A4.79,4.79,0,0,0,65.5-.166V0ZM60.146-2.148a1.836,1.836,0,0,0,1.021-.264,1.653,1.653,0,0,0,.581-.6V-4.7h-.957q-1.719,0-1.719,1.543a.942.942,0,0,0,.3.728A1.1,1.1,0,0,0,60.146-2.148ZM72.979,1.221H70.645L75.5-14.219h2.344ZM87.51-5.557h1.445v2.539H87.51V0H84.219V-3.018h-5.5l-.2-2.012,5.693-9.16v-.029H87.51Zm-5.85,0h2.559V-9.932l-.205.332Zm34.648-2.51h3.33v2.822h-3.33v3.818h-3.076V-5.244h-3.34V-8.066h3.34v-3.711h3.076Zm34.482,2.861a6.372,6.372,0,0,1-1.108,3.931A3.554,3.554,0,0,1,146.689.2,3.046,3.046,0,0,1,144.3-.869V4.063h-3.291V-10.566h3.076l.1.977a3.046,3.046,0,0,1,2.49-1.172,3.582,3.582,0,0,1,3.037,1.44,6.45,6.45,0,0,1,1.084,3.96ZM147.5-5.41q0-2.812-1.641-2.812a1.549,1.549,0,0,0-1.562.84v4.16a1.6,1.6,0,0,0,1.582.879q1.572,0,1.621-2.715ZM155.713,0h-3.3V-10.566h3.3Zm-3.5-13.291a1.469,1.469,0,0,1,.508-1.152,1.916,1.916,0,0,1,1.318-.449,1.916,1.916,0,0,1,1.318.449,1.469,1.469,0,0,1,.508,1.152,1.469,1.469,0,0,1-.508,1.152,1.916,1.916,0,0,1-1.318.449,1.916,1.916,0,0,1-1.318-.449A1.469,1.469,0,0,1,152.217-13.291Zm8.545,2.725.107,1.24a3.583,3.583,0,0,1,3.018-1.436,3.015,3.015,0,0,1,2.466.986,4.7,4.7,0,0,1,.845,2.969V0h-3.3V-6.67a1.783,1.783,0,0,0-.322-1.177,1.491,1.491,0,0,0-1.172-.376,1.569,1.569,0,0,0-1.436.762V0h-3.291V-10.566ZM172.9-2.539h4.814V0H168.74V-1.836l4.688-6.191h-4.482v-2.539h8.662v1.777ZM185.264,0a3.716,3.716,0,0,1-.312-.947A3.06,3.06,0,0,1,182.412.2a3.749,3.749,0,0,1-2.539-.9,2.875,2.875,0,0,1-1.045-2.271,2.955,2.955,0,0,1,1.27-2.6,6.468,6.468,0,0,1,3.691-.879H184.8v-.559q0-1.462-1.26-1.462a1.03,1.03,0,0,0-1.172,1.158h-3.291a2.95,2.95,0,0,1,1.3-2.487,5.479,5.479,0,0,1,3.325-.956,4.8,4.8,0,0,1,3.193.986,3.429,3.429,0,0,1,1.2,2.705v4.678a4.79,4.79,0,0,0,.449,2.227V0ZM183.2-2.148a1.836,1.836,0,0,0,1.021-.264,1.652,1.652,0,0,0,.581-.6V-4.7h-.957q-1.719,0-1.719,1.543a.942.942,0,0,0,.3.728A1.1,1.1,0,0,0,183.2-2.148Z" transform="translate(341.493 7731) rotate(-90)" fill="#12263f"/>
    <path id="Trazado_1264096" data-name="Trazado 1264096" d="M-570.43-4088.1l121.492,10.811-121.492,28.194" transform="translate(992.711 11700)" fill="none" stroke="#707070" stroke-width="2"/>
  </g>
</svg>
