<svg xmlns="http://www.w3.org/2000/svg" xmlns:xlink="http://www.w3.org/1999/xlink" width="396" height="341" viewBox="0 0 396 341">
  <defs>
    <clipPath id="clip-path">
      <rect id="Rectángulo_458165" data-name="Rectángulo 458165" width="326.619" height="276.188" fill="none"/>
    </clipPath>
  </defs>
  <g id="Grupo_1210318" data-name="Grupo 1210318" transform="translate(-1017.711 -3214)">
    <rect id="Rectángulo_458166" data-name="Rectángulo 458166" width="396" height="341" rx="17" transform="translate(1017.711 3214)" fill="#fffae6"/>
    <g id="Grupo_1210247" data-name="Grupo 1210247" transform="translate(1052.711 3278.792)">
      <g id="Grupo_1210246" data-name="Grupo 1210246" clip-path="url(#clip-path)">
        <path id="Trazado_1263609" data-name="Trazado 1263609" d="M165.375,110.7s4.224-2.668,6.846-2.2c.543-.2,1.7-.657,1.409-.922-.382-.343-1.392-1.351-1.29-1.654s1.114.506,2.584.759,1.874.558,2.229,1.115,1.633.8,1.633.8h0c.75-.085,1.378-.176,1.778-.236,1.242-.52,2.919-1.232,4.767-2.049,5.306-2.375,11.978-5.557,13.436-7.177,3.377-3.767,7.416-16.39,11.219-24.723.194-.451.391-.886.587-1.315.143-.314.289-.622.433-.926a.861.861,0,0,1,.121-.216c.189-.342.342-.655.5-.934,0-.029.032-.059.062-.092a26.989,26.989,0,0,1,2.136-3.2c.838-.9,1.643-1.279,2.39-.968a9.837,9.837,0,0,1,2.189,1.681c.251.244.51.52.77.827a2.382,2.382,0,0,1,.434.528,12.972,12.972,0,0,1,2.31,4.592,16.087,16.087,0,0,1,.54,5.093c-.119,3.2-1.693,7.211-3.95,11.255a5.106,5.106,0,0,1-.309.56c-4.333,7.623-11,15.249-15.057,17.744-2.668,1.651-9.376,2.663-15.03,3.235-2.391.262-4.6.437-6.252.553-.125.019-.276.041-.451.063a59.205,59.205,0,0,0-7.132,1.732c-3.9,1.285-6.13-1.341-7.78-2.153-1.652-.787-1.118-1.764-1.118-1.764" transform="translate(62.521 25.21)" fill="#ffb29f"/>
        <path id="Trazado_1263610" data-name="Trazado 1263610" d="M158.7,249.017h75.919s-37.64-111.248-36.825-127.6c.815-16.378,19.634-96.545,19.634-96.545l-15.959-9.817L158.947,48.994l-.243-.287" transform="translate(60.029 5.693)" fill="#fe9554"/>
        <rect id="Rectángulo_458161" data-name="Rectángulo 458161" width="98.635" height="276.186" transform="translate(120.946)" fill="#ffd5bb"/>
        <path id="Trazado_1263611" data-name="Trazado 1263611" d="M179.768,247.825h-9.75v-2.437h9.75Zm-19.5,0h-9.75v-2.437h9.75Zm-19.5,0h-9.75v-2.437h9.75Zm-19.5,0h-9.75v-2.437h9.75Zm-13.694-4.205-2.314-.772c.733-2.193,1.794-5.37,3.1-9.292l2.313.766c-1.3,3.927-2.361,7.1-3.094,9.3m6.151-18.591-2.32-.757c.952-2.908,1.967-6.023,3.027-9.292l2.318.751c-1.06,3.271-2.074,6.39-3.025,9.3m6.022-18.606-2.322-.743c.97-3.032,1.961-6.148,2.958-9.311l2.324.733c-1,3.167-1.987,6.283-2.959,9.321m5.88-18.655-2.328-.724c.963-3.109,1.923-6.232,2.868-9.338l2.333.708c-.945,3.111-1.91,6.239-2.874,9.353m5.689-18.722-2.337-.691c.944-3.187,1.859-6.323,2.734-9.373l2.343.671c-.877,3.06-1.8,6.2-2.74,9.393m5.379-18.819-2.353-.642c.908-3.33,1.738-6.492,2.471-9.429l2.366.59c-.737,2.952-1.574,6.132-2.485,9.481m4.685-19.067-2.39-.485a49.879,49.879,0,0,0,1.214-8.712l-.012-.5,2.423-.327c.022.412.026.612.026.824a50.979,50.979,0,0,1-1.261,9.2m-2.422-19.43c-.466-2.861-1.042-6.1-1.7-9.594l2.4-.453c.664,3.521,1.245,6.777,1.712,9.657Zm-3.566-19.17c-.623-3.105-1.28-6.314-1.961-9.562l2.386-.5c.679,3.26,1.342,6.472,1.965,9.582ZM131.4,73.451c-.689-3.214-1.387-6.413-2.074-9.54l2.38-.524c.688,3.131,1.387,6.336,2.078,9.55Zm-4.186-19.076c-.754-3.378-1.475-6.581-2.145-9.531l2.376-.538c.668,2.948,1.395,6.157,2.149,9.535Zm52.475-2.321-2.707-2.161,1.519-1.9,1.782,1.424-.528.664.937.8Zm-10.329-8.243-7.62-6.081,1.519-1.9,7.62,6.082Zm-46.472-8.5c-1.192-5.179-1.932-8.338-1.932-8.341l-.2-.855,1.8-1.109,1.275,2.076-.3.189c.295,1.268.907,3.894,1.735,7.492Zm31.232-3.666L146.5,25.566l1.519-1.9,7.622,6.081Zm-21.984-9.671L130.866,19.9l7.029-4.325,2.51,2-1.519,1.9-1.172-.933Z" transform="translate(39.814 5.892)" fill="#714e55"/>
        <path id="Trazado_1263612" data-name="Trazado 1263612" d="M43.148,170.041l4.016,6.056a7.226,7.226,0,0,0,13.242-3.7l.291-7.261Z" transform="translate(16.32 62.46)" fill="#fff"/>
        <path id="Trazado_1263613" data-name="Trazado 1263613" d="M53.707,181a8.42,8.42,0,0,1-7.024-3.781l-4.945-7.451,20.778-5.812-.36,8.935a8.42,8.42,0,0,1-6.162,7.794,8.548,8.548,0,0,1-2.288.314m-8.083-9.788,3.091,4.661A6,6,0,0,0,59.72,172.79l.226-5.586Z" transform="translate(15.787 62.014)" fill="#ff5a19"/>
        <rect id="Rectángulo_458162" data-name="Rectángulo 458162" width="42.047" height="11.213" transform="matrix(0.963, -0.269, 0.269, 0.963, 3.963, 78.368)" fill="#003650"/>
        <path id="Trazado_1263614" data-name="Trazado 1263614" d="M70.335,146.657c.008.3.007.6-.008.9a11.394,11.394,0,0,1-.23,1.892.1.1,0,0,1-.006.036L65.465,172.12l-17.549,4.909-15.7-16.952-.023-.028a11.813,11.813,0,0,1-1.181-1.5c-.167-.247-.321-.5-.469-.759Z" transform="translate(11.552 55.472)" fill="#fff"/>
        <path id="Trazado_1263615" data-name="Trazado 1263615" d="M48.029,178.838l-16.3-17.6a12.78,12.78,0,0,1-1.234-1.584c-.176-.259-.35-.54-.514-.832l-.764-1.352L72,145.5l.05,1.555c.01.328.007.662-.01.992a12.3,12.3,0,0,1-.229,1.96l-.028.149-4.776,23.372ZM33.68,159.762,48.8,176.091l16.117-4.508L69.4,149.674c.066-.327.119-.644.154-.958L32.982,158.947c.193.245.393.481.6.71Z" transform="translate(11.051 55.035)" fill="#ff5a19"/>
        <path id="Trazado_1263616" data-name="Trazado 1263616" d="M44.479,54.269,3.979,65.6.391,52.774A10.512,10.512,0,0,1,7.684,39.817l20.251-5.665a10.513,10.513,0,0,1,12.957,7.292Z" transform="translate(0 12.77)" fill="#ff2b4b"/>
        <path id="Trazado_1263617" data-name="Trazado 1263617" d="M18.579,61.957,53.322,186.146l.542,1.945a2.789,2.789,0,0,0-1.881,1.743l-1.435,3.958a2.8,2.8,0,0,1-4.392,1.229l-5.513-4.438q-.248-.37-.469-.759a12.4,12.4,0,0,1-1.158-2.777L5.079,65.731Z" transform="translate(1.921 23.435)" fill="#ffb200"/>
        <path id="Trazado_1263618" data-name="Trazado 1263618" d="M38.168,56.476,72.1,177.792a12.331,12.331,0,0,1,.451,2.976c.01.3.007.6-.007.894l-2.409,6.651a2.8,2.8,0,0,1-4.392,1.229l-3.28-2.639a2.783,2.783,0,0,0-2.513-.514l-.542-1.946L24.669,60.254Z" transform="translate(9.331 21.362)" fill="#ffda94"/>
        <path id="Trazado_1263619" data-name="Trazado 1263619" d="M14.874,62.993,50.158,189.129a2.783,2.783,0,0,1,2.513.515l3.279,2.639a2.8,2.8,0,0,0,4.394-1.229l1.433-3.957a2.785,2.785,0,0,1,1.881-1.745L28.374,59.217Z" transform="translate(5.626 22.398)" fill="#ffcc5c"/>
        <path id="Trazado_1263620" data-name="Trazado 1263620" d="M77.138,43.45,74.9,36.537a7.225,7.225,0,0,0-13.749,0L58.915,43.45Z" transform="translate(22.284 11.928)" fill="#003650"/>
        <rect id="Rectángulo_458163" data-name="Rectángulo 458163" width="42.047" height="11.212" transform="translate(69.306 207.554)" fill="#fff"/>
        <path id="Trazado_1263621" data-name="Trazado 1263621" d="M93.887,163.358H49.4V149.709H93.887ZM51.839,160.92H91.45v-8.774H51.839Z" transform="translate(18.686 56.627)" fill="#ff5a19"/>
        <path id="Trazado_1263622" data-name="Trazado 1263622" d="M50.536,63.391c.072-.291.156-.579.249-.86a11.544,11.544,0,0,1,.73-1.761.185.185,0,0,1,.015-.033L62.084,40.181H80.309L90.861,60.736a.121.121,0,0,1,.015.033,11.76,11.76,0,0,1,.735,1.764c.094.281.174.566.245.857Z" transform="translate(19.115 15.198)" fill="#f7eedc"/>
        <path id="Trazado_1263623" data-name="Trazado 1263623" d="M50.27,158.725H92.324v13.317a10.514,10.514,0,0,1-10.513,10.515H60.783A10.514,10.514,0,0,1,50.27,172.042Z" transform="translate(19.014 60.037)" fill="#fff"/>
        <path id="Trazado_1263624" data-name="Trazado 1263624" d="M82.143,184.109H61.118a11.746,11.746,0,0,1-11.733-11.733V157.841H93.876v14.535a11.746,11.746,0,0,1-11.733,11.733m-30.32-23.83v12.1a9.307,9.307,0,0,0,9.295,9.295H82.143a9.306,9.306,0,0,0,9.295-9.295v-12.1Z" transform="translate(18.68 59.702)" fill="#ff5a19"/>
        <path id="Trazado_1263625" data-name="Trazado 1263625" d="M70.613,188.117l0-128.957,0-2.021a2.786,2.786,0,0,0,2.281-1.172l2.448-3.425a2.8,2.8,0,0,1,4.562,0L84.016,58.3c.094.281.175.568.247.857a12.351,12.351,0,0,1,.367,2.987V188.12Z" transform="translate(26.708 19.43)" fill="#ffda94"/>
        <path id="Trazado_1263626" data-name="Trazado 1263626" d="M50.27,188.119V62.146a12.35,12.35,0,0,1,.367-2.987c.072-.291.156-.579.249-.86L55,52.542a2.8,2.8,0,0,1,4.562,0l2.448,3.425a2.789,2.789,0,0,0,2.281,1.173V188.116Z" transform="translate(19.014 19.43)" fill="#ffb200"/>
        <path id="Trazado_1263627" data-name="Trazado 1263627" d="M74.459,188.117V57.14a2.785,2.785,0,0,1-2.281-1.174l-2.446-3.425a2.805,2.805,0,0,0-4.563,0l-2.446,3.425a2.783,2.783,0,0,1-2.281,1.174V188.117Z" transform="translate(22.861 19.43)" fill="#ffcc5c"/>
        <rect id="Rectángulo_458164" data-name="Rectángulo 458164" width="119.978" height="152.132" transform="translate(5.95 124.056)" fill="#fe9554"/>
        <path id="Trazado_1263628" data-name="Trazado 1263628" d="M30.187,232.74H11.928V123.707a9.129,9.129,0,1,1,18.259,0Z" transform="translate(4.512 43.338)" fill="#ffd5bb"/>
        <path id="Trazado_1263629" data-name="Trazado 1263629" d="M59.477,232.74H41.218V123.707a9.129,9.129,0,1,1,18.259,0Z" transform="translate(15.59 43.338)" fill="#ffd5bb"/>
        <path id="Trazado_1263630" data-name="Trazado 1263630" d="M88.768,232.74H70.509V123.707a9.129,9.129,0,1,1,18.259,0Z" transform="translate(26.67 43.338)" fill="#ffd5bb"/>
        <path id="Trazado_1263631" data-name="Trazado 1263631" d="M199.01,230.4l4.1,1.528s17.83-24.73,20.026-46.487a33.039,33.039,0,0,0-.587-11.124s.175-1,.48-2.755c.141-.82.316-1.81.513-2.943.58-3.322,1.378-7.866,2.289-13.041,2.1-11.907,4.816-27.129,6.927-38.319l-1.105-.356-11.969-3.86-2.473-7.856L208.3,102.84s-1.99,3.894-3.771,22.29c-.328,2.413-.626,5.075-.85,7.959a157.466,157.466,0,0,0,.848,32.225q.612,4.794,1.566,9.89a44.182,44.182,0,0,1,.342,9.765c-.9,17.786-7.427,45.428-7.427,45.428" transform="translate(75.274 38.899)" fill="#003650"/>
        <path id="Trazado_1263632" data-name="Trazado 1263632" d="M208.576,109.005l.448-3.841c7.5,1.993,27.558-5.571,27.558-5.571s7.27,6.391,6.315,21.711c-.466,7.477-1.316,39.251-2.205,48.653-.321,3.408-.6,5.833-.718,6.8v.01a1.346,1.346,0,0,0,.216.832,44.125,44.125,0,0,1,3.282,6.9c8.726,23.25-1.342,51.883-1.342,51.883l-2.613-1.054s-5.731-31.864-10.385-45.94A27.862,27.862,0,0,0,226.887,184c-2.025-3.268-3.9-8.606-5.608-14.955-3.222-12-5.816-27.617-7.543-39.67-.237.011-5.16-20.375-5.16-20.375" transform="translate(78.893 37.67)" fill="#003650"/>
        <path id="Trazado_1263633" data-name="Trazado 1263633" d="M221.9,203.589h20.675a11.345,11.345,0,0,0-.584-5.542c-1.034-2.293-2.655-3.337-2.267-6.113a7.442,7.442,0,0,1-6.443,2.466c-.367.594-2.365,3.772-3.588,4.65-1.352.972-7.376.626-7.793,4.539" transform="translate(83.932 72.598)" fill="#752092"/>
        <path id="Trazado_1263634" data-name="Trazado 1263634" d="M189.688,203.335h20.675s.773-3.3-.584-5.542c-1.2-1.986-.74-3.116.149-4.759a8.038,8.038,0,0,1-3.481.656,7.271,7.271,0,0,1-3.075-1.082,74.486,74.486,0,0,1-5.891,6.188c-1.351.972-7.376.626-7.793,4.539" transform="translate(71.748 72.853)" fill="#752092"/>
        <path id="Trazado_1263635" data-name="Trazado 1263635" d="M203.848,80a23.354,23.354,0,0,0,8.263,3.244c12.667,2.554,17.191-8.22,18.8-15.573a10.787,10.787,0,0,0-4.3-1.189c-.912-.081-1.872-.127-2.666-.143a19.766,19.766,0,0,1-2.46-3.956,20.37,20.37,0,0,1-1.867-9.364l-10.436,4.211s.543,3.141.85,6.114c.237,2.328.328,4.555-.1,5.113-.769.19-1.231.313-1.231.313l0,.008A63.952,63.952,0,0,0,203.848,80" transform="translate(77.104 20.053)" fill="#752092"/>
        <path id="Trazado_1263636" data-name="Trazado 1263636" d="M207.715,57.1s.544,3.137.85,6.114a12.034,12.034,0,0,0,9.152-9.854l-10,3.741" transform="translate(78.567 20.183)" fill="#005177"/>
        <path id="Trazado_1263637" data-name="Trazado 1263637" d="M198.145,74.561c.143-.313.289-.622.433-.925a.844.844,0,0,1,.121-.218c.189-.342.342-.653.5-.933,0-.029.032-.061.062-.094a27.112,27.112,0,0,1,2.136-3.2,5.721,5.721,0,0,1,1.469-1.251h0s2.205-1.524,7.976-2.853c-.13.292-3.663,8.4-3.08,10.311.616,1.946,17.768-1.588,18.871-2.788.875-.973,1.719-6.712,2.011-8.917.1-.551.13-.907.13-.907s6.194.065,9.435,1.945a27.112,27.112,0,0,0-2.755,5.9c-.1.325-.163.617-.26.91-.13.648-.259,1.3-.324,1.945a3.869,3.869,0,0,0,.844,2.5,19.955,19.955,0,0,0,2.172,2.4c.551.55,1.167,1.134,1.783,1.75-.163,1.362-.422,2.983-.681,4.864a105.279,105.279,0,0,0-1.232,12,11.5,11.5,0,0,0,.94,4.992,9.493,9.493,0,0,0,.973,1.783c3.016,4.573,8.2,13.555,6.1,18.353-.194,1.167-2.919,2.076-6.842,2.692-11.705,1.881-34.306,1.167-33.105-2.627,0,0-1.783-29.733-4.022-37.159-.065-.259-.13-.55-.194-.81a15.646,15.646,0,0,1,.474-7.48,11.616,11.616,0,0,0-3.925-2.171" transform="translate(74.947 23.746)" fill="#752092"/>
        <path id="Trazado_1263638" data-name="Trazado 1263638" d="M194.277,123.409c4.641-.679,28.395-7.177,30.441-8.76,1.646-1.065,6.629-5.463,11.433-14.845.667-1.3,1.3-2.594,1.923-3.856a99.687,99.687,0,0,0,5.39-13.434,39.148,39.148,0,0,0,1.577-6.486,16.3,16.3,0,0,0,.2-1.851c.029-.335.05-.664.066-.983a16.818,16.818,0,0,0-11.774-4.318q-.18.306-.36.622c-2.495,4.5-12.484,33.886-13.013,35.046-.489,1.072-20.995,11.891-26.148,14.21-2.142.979.263,4.656.263,4.656" transform="translate(73.049 26.045)" fill="#ffb29f"/>
        <path id="Trazado_1263639" data-name="Trazado 1263639" d="M218.519,81.318c8.6-3.894,16.859.943,16.859.943,3.079-16.5-6.646-18.657-6.646-18.657-2.027-1.063-13.148,9.608-10.213,17.715" transform="translate(82.468 24.03)" fill="#752092"/>
        <path id="Trazado_1263640" data-name="Trazado 1263640" d="M197.375,105.462a31.106,31.106,0,0,1-2.925-1.145c-.888-.455-2.734-.017-4.084-.258s-1.512.267-1.046.642,2.457.91,2.772,1.3-3.972.77-6,.116-2.191-.317-1.462,1.149,4.121,4.295,6.391,4.19a41.06,41.06,0,0,0,6.614-1.341Z" transform="translate(69.687 39.336)" fill="#ffb29f"/>
        <path id="Trazado_1263641" data-name="Trazado 1263641" d="M220.147,37.144a5.7,5.7,0,0,1,1.145-2.482,7.416,7.416,0,0,1,9.544-1.053,7.226,7.226,0,0,1,2.989,6.1c-.087,2.477-1.531,5.761-3.866,6a4.859,4.859,0,0,1-1.9-.273,12.791,12.791,0,0,1,.9,2.355c1.559,5.673-.721,12.838-4.6,14.607,0,0-.23.1-3.538,1.322-2.755-.673-14.489-3.775-18.233-11.711-.759-1.61-2.055-4.357-.812-6.851a6.792,6.792,0,0,1,4.337-3.175,19.324,19.324,0,0,1,3.4-2.39,20.526,20.526,0,0,1,10.632-2.445" transform="translate(76.125 12.233)" fill="#003650"/>
        <path id="Trazado_1263642" data-name="Trazado 1263642" d="M208.356,63.636c5.466,1.635,12.716-4.33,12.342-8.15-.2-2.038-2.484-2.588-6.188-6.113a34.332,34.332,0,0,1-6.563-8.636,7.032,7.032,0,0,0-3.924,2.026c-.921.987-1.721,2.511-1.789,5.592-.05,2.223-.3,13.362,6.122,15.281" transform="translate(76.488 15.409)" fill="#ffb29f"/>
      </g>
    </g>
  </g>
</svg>
