<svg xmlns="http://www.w3.org/2000/svg" width="84" height="84" viewBox="0 0 84 84">
  <g id="Grupo_1210320" data-name="Grupo 1210320" transform="translate(-706 -4357.638)">
    <g id="Grupo_1210319" data-name="Grupo 1210319">
      <rect id="Rectángulo_455132" data-name="Rectángulo 455132" width="84" height="84" rx="18" transform="translate(706 4357.638)" fill="#6e2370"/>
    </g>
    <g id="Grupo_1203971" data-name="Grupo 1203971" transform="translate(725 4369.943)">
      <g id="Grupo_1203972" data-name="Grupo 1203972" transform="translate(0)">
        <path id="Trazado_1260059" data-name="Trazado 1260059" d="M51.151,13.457A2.212,2.212,0,0,0,50.115,12.1l-2.893-1.67h0a2.23,2.23,0,0,0-3.043.815l-1.86,3.222V7.8a3.345,3.345,0,0,0-3.341-3.341H34.523V3.341a3.341,3.341,0,0,0-6.682,0V4.455H24.5V3.341a3.341,3.341,0,0,0-6.682,0V4.455H14.477V3.341a3.341,3.341,0,0,0-6.682,0V4.455H3.341A3.345,3.345,0,0,0,0,7.8v2.227a1.114,1.114,0,0,0,2.227,0V7.8A1.115,1.115,0,0,1,3.341,6.682H7.8V7.8a3.341,3.341,0,0,0,6.682,0V6.682h3.341V7.8a3.341,3.341,0,0,0,6.682,0V6.682h3.341V7.8a3.341,3.341,0,1,0,6.682,0V6.682h4.455A1.115,1.115,0,0,1,40.091,7.8V18.329L29.382,36.878a30.743,30.743,0,0,0-2.2-4.816,12.4,12.4,0,0,1,2.025-5.073,1.114,1.114,0,0,0,.188-.47l.974-6.408a1.114,1.114,0,0,0-.764-1.229L25.02,17.425a1.114,1.114,0,0,0-1.451,1.061,2.411,2.411,0,1,1-4.82,0A1.114,1.114,0,0,0,17.3,17.425l-4.583,1.457a1.114,1.114,0,0,0-.764,1.229l.974,6.408a1.119,1.119,0,0,0,.187.469,12.4,12.4,0,0,1,2.025,5.073,30.775,30.775,0,0,0-4,14.507,1.114,1.114,0,0,0,.857,1.084,41.661,41.661,0,0,0,9.166.9,47.171,47.171,0,0,0,7.077-.5,1.145,1.145,0,0,0,.112-.023l.008,0a1.1,1.1,0,0,0,.118-.04l.031-.014q.049-.021.1-.047l.018-.009,4.805-2.755a1.114,1.114,0,0,0,.411-.409L40.091,33.92V53.678a1.115,1.115,0,0,1-1.113,1.114H3.341a1.115,1.115,0,0,1-1.114-1.114V20.046a1.114,1.114,0,0,0-2.227,0V53.678a3.345,3.345,0,0,0,3.341,3.341H38.978a3.345,3.345,0,0,0,3.341-3.341V30.062l5.827-10.093h0l2.784-4.822a2.212,2.212,0,0,0,.221-1.69M12.25,7.8a1.114,1.114,0,1,1-2.227,0V3.341a1.114,1.114,0,0,1,2.227,0Zm10.023,0a1.114,1.114,0,1,1-2.227,0V3.341a1.114,1.114,0,0,1,2.227,0ZM32.3,7.8a1.114,1.114,0,1,1-2.227,0V3.341a1.115,1.115,0,0,1,1.114-1.114h0A1.115,1.115,0,0,1,32.3,3.341ZM15.09,25.94,14.3,20.717l2.452-.779a4.62,4.62,0,0,0,8.822,0l2.452.779-.794,5.223a15.03,15.03,0,0,0-2.192,5.3H17.282a15.03,15.03,0,0,0-2.192-5.3M13.382,45.671A29.3,29.3,0,0,1,16.9,33.466h1.2c-.192.787-.483,2.106-.741,3.786a1.114,1.114,0,0,0,.932,1.27,1.134,1.134,0,0,0,.17.013,1.114,1.114,0,0,0,1.1-.945,40.887,40.887,0,0,1,.837-4.124h1.508a40.853,40.853,0,0,1,.837,4.124,1.114,1.114,0,0,0,1.1.945,1.135,1.135,0,0,0,.17-.013,1.114,1.114,0,0,0,.932-1.27c-.258-1.68-.549-3-.741-3.786h1.2a30.47,30.47,0,0,1,2.471,6l-.8,1.388a1.114,1.114,0,0,0-.149.56l.014,4.568a46.8,46.8,0,0,1-5.79.343,42.719,42.719,0,0,1-7.777-.656m18.675-2.29-2.883,1.653-.01-3.323,13.6-23.562L45.66,19.82Zm14.717-25.49L43.88,16.22l2.227-3.858L49,14.033Z" transform="translate(0)" fill="#fff"/>
        <path id="Trazado_1260060" data-name="Trazado 1260060" d="M1.114,168.895a1.114,1.114,0,0,0,1.114-1.114h0a1.114,1.114,0,1,0-1.114,1.114" transform="translate(0 -152.746)"/>
      </g>
    </g>
  </g>
</svg>
