<svg xmlns="http://www.w3.org/2000/svg" xmlns:xlink="http://www.w3.org/1999/xlink" width="100.293" height="100.293" viewBox="0 0 100.293 100.293">
  <defs>
    <clipPath id="clip-path">
      <rect id="Rectángulo_411331" data-name="Rectángulo 411331" width="100.293" height="100.293" fill="none"/>
    </clipPath>
  </defs>
  <g id="Grupo_1204615" data-name="Grupo 1204615" transform="translate(13644 11972.146)">
    <g id="Grupo_1204003" data-name="Grupo 1204003" transform="translate(-13644 -11972.146)">
      <g id="Grupo_1203293" data-name="Grupo 1203293" transform="translate(0 0)" clip-path="url(#clip-path)">
        <path id="Trazado_1255791" data-name="Trazado 1255791" d="M37.5,33.032a4.959,4.959,0,1,0-4.958,4.958A4.963,4.963,0,0,0,37.5,33.032" transform="translate(9.477 9.647)" fill="#fff"/>
        <path id="Trazado_1255792" data-name="Trazado 1255792" d="M37.5,44.147A4.959,4.959,0,1,0,32.538,49.1,4.963,4.963,0,0,0,37.5,44.147" transform="translate(9.477 13.467)" fill="#fff"/>
        <path id="Trazado_1255793" data-name="Trazado 1255793" d="M49.6,33.032a4.959,4.959,0,1,0-4.958,4.958A4.964,4.964,0,0,0,49.6,33.032" transform="translate(13.636 9.647)" fill="#fff"/>
        <path id="Trazado_1255794" data-name="Trazado 1255794" d="M49.6,44.147A4.959,4.959,0,1,0,44.642,49.1,4.964,4.964,0,0,0,49.6,44.147" transform="translate(13.636 13.467)" fill="#fff"/>
        <path id="Trazado_1255795" data-name="Trazado 1255795" d="M47.149,8.722A38.427,38.427,0,1,0,85.577,47.149,38.47,38.47,0,0,0,47.149,8.722M39.018,60.709a6.093,6.093,0,1,1,6.093-6.093,6.1,6.1,0,0,1-6.093,6.093m0-14.934a6.093,6.093,0,1,1,6.093-6.093,6.1,6.1,0,0,1-6.093,6.093M55.281,60.709a6.093,6.093,0,1,1,6.093-6.093,6.1,6.1,0,0,1-6.093,6.093m0-14.934a6.093,6.093,0,1,1,6.093-6.093,6.1,6.1,0,0,1-6.093,6.093" transform="translate(2.997 2.998)" fill="#fe9554"/>
        <path id="Trazado_1255796" data-name="Trazado 1255796" d="M49.856.845A49.011,49.011,0,1,0,98.867,49.856,49.066,49.066,0,0,0,49.856.845m0,88.573A39.561,39.561,0,1,1,89.418,49.856,39.605,39.605,0,0,1,49.856,89.418" transform="translate(0.29 0.291)" fill="#fe9554"/>
        <path id="Trazado_1255797" data-name="Trazado 1255797" d="M50.146,0a50.146,50.146,0,1,0,50.146,50.146A50.2,50.2,0,0,0,50.146,0m0,99.158A49.012,49.012,0,1,1,99.158,50.146,49.067,49.067,0,0,1,50.146,99.158" transform="translate(0 0.001)" fill="#552b2c"/>
        <path id="Trazado_1255798" data-name="Trazado 1255798" d="M44.931,27.229a6.093,6.093,0,1,0,6.093,6.093,6.1,6.1,0,0,0-6.093-6.093m-4.958,6.093a4.959,4.959,0,1,1,4.958,4.958,4.963,4.963,0,0,1-4.958-4.958" transform="translate(13.346 9.357)" fill="#552b2c"/>
        <path id="Trazado_1255799" data-name="Trazado 1255799" d="M32.827,38.344a6.093,6.093,0,1,0,6.093,6.093,6.1,6.1,0,0,0-6.093-6.093m-4.958,6.093A4.959,4.959,0,1,1,32.827,49.4a4.964,4.964,0,0,1-4.958-4.958" transform="translate(9.187 13.176)" fill="#552b2c"/>
        <path id="Trazado_1255800" data-name="Trazado 1255800" d="M32.827,27.229a6.093,6.093,0,1,0,6.093,6.093,6.1,6.1,0,0,0-6.093-6.093m-4.958,6.093a4.959,4.959,0,1,1,4.958,4.958,4.964,4.964,0,0,1-4.958-4.958" transform="translate(9.187 9.357)" fill="#552b2c"/>
        <path id="Trazado_1255801" data-name="Trazado 1255801" d="M44.931,38.344a6.093,6.093,0,1,0,6.093,6.093,6.1,6.1,0,0,0-6.093-6.093m-4.958,6.093A4.959,4.959,0,1,1,44.931,49.4a4.963,4.963,0,0,1-4.958-4.958" transform="translate(13.346 13.176)" fill="#552b2c"/>
        <path id="Trazado_1255802" data-name="Trazado 1255802" d="M47.439,7.878A39.561,39.561,0,1,0,87,47.439,39.606,39.606,0,0,0,47.439,7.878m0,77.989A38.427,38.427,0,1,1,85.867,47.439,38.471,38.471,0,0,1,47.439,85.867" transform="translate(2.707 2.708)" fill="#552b2c"/>
      </g>
    </g>
  </g>
</svg>
