<svg xmlns="http://www.w3.org/2000/svg" xmlns:xlink="http://www.w3.org/1999/xlink" width="49" height="72" viewBox="0 0 49 72">
  <defs>
    <clipPath id="clip-path">
      <rect id="Rectángulo_455088" data-name="Rectángulo 455088" width="27" height="53" transform="translate(0 0)" fill="#fee383"/>
    </clipPath>
  </defs>
  <g id="Grupo_1210325" data-name="Grupo 1210325" transform="translate(-243.791 -2692.32)">
    <g id="Grupo_1204087" data-name="Grupo 1204087" transform="translate(59.42 1884.32)">
      <rect id="Rectángulo_455154" data-name="Rectángulo 455154" width="49" height="72" rx="12" transform="translate(184.371 808)" fill="#482370"/>
      <g id="Grupo_1204009" data-name="Grupo 1204009" transform="translate(195.371 816)">
        <g id="Grupo_1203876" data-name="Grupo 1203876" clip-path="url(#clip-path)">
          <path id="Trazado_1259680" data-name="Trazado 1259680" d="M26.5,52.121V9.718a.883.883,0,0,0-.535-.812c-.059-.025-5.888-2.578-8.37-8.37a.883.883,0,0,0-1.091-.49L5.905,3.579a.884.884,0,0,0-.564,1.1A26.152,26.152,0,0,1,6.3,12.236c-.138,5.4-2.119,9.358-5.886,11.756a.883.883,0,0,0-.393.914c.306,1.572.667,3.133,1.017,4.644a46.737,46.737,0,0,1,1.618,10.2A35.865,35.865,0,0,1,.936,51.823.883.883,0,0,0,1.768,53H25.62a.883.883,0,0,0,.883-.883M24.736,39.752H22.97a.883.883,0,0,0,0,1.767h1.767v9.719H15.9V49.471a.883.883,0,0,0-1.767,0v1.767H2.989A39.8,39.8,0,0,0,4.418,39.754a48.012,48.012,0,0,0-1.663-10.6c-.3-1.309-.615-2.658-.889-4.007,3.91-2.729,6.05-7.162,6.2-12.863a28.3,28.3,0,0,0-.806-7.289l9.058-3.019a19.382,19.382,0,0,0,8.423,8.3Z" transform="translate(0 0)" fill="#fee383"/>
          <path id="Trazado_1259681" data-name="Trazado 1259681" d="M128.889,43.539a.883.883,0,0,0,.883-.883V40.888a.883.883,0,1,0-1.767,0v1.767a.883.883,0,0,0,.883.883" transform="translate(-113.871 -35.587)" fill="#fee383"/>
          <path id="Trazado_1259682" data-name="Trazado 1259682" d="M35.54,232.888a.883.883,0,0,0-.883-.883H32.889a.883.883,0,0,0,0,1.767h1.767a.883.883,0,0,0,.883-.883" transform="translate(-28.472 -206.386)" fill="#fee383"/>
          <path id="Trazado_1259683" data-name="Trazado 1259683" d="M58.656,360.012H56.889a.883.883,0,0,0,0,1.767h1.767a.883.883,0,1,0,0-1.767" transform="translate(-49.821 -320.257)" fill="#fee383"/>
          <path id="Trazado_1259684" data-name="Trazado 1259684" d="M107.54,360.888a.883.883,0,0,0-.883-.883h-1.767a.883.883,0,1,0,0,1.767h1.767a.883.883,0,0,0,.883-.883" transform="translate(-92.521 -320.251)" fill="#fee383"/>
          <path id="Trazado_1259685" data-name="Trazado 1259685" d="M154.656,360h-1.767a.883.883,0,1,0,0,1.767h1.767a.883.883,0,1,0,0-1.767" transform="translate(-135.221 -320.245)" fill="#fee383"/>
          <path id="Trazado_1259686" data-name="Trazado 1259686" d="M80.889,233.772h1.767a.883.883,0,0,0,0-1.767H80.889a.883.883,0,1,0,0,1.767" transform="translate(-71.171 -206.386)" fill="#fee383"/>
          <path id="Trazado_1259687" data-name="Trazado 1259687" d="M128.889,233.772h1.767a.883.883,0,1,0,0-1.767h-1.767a.883.883,0,0,0,0,1.767" transform="translate(-113.871 -206.386)" fill="#fee383"/>
          <path id="Trazado_1259688" data-name="Trazado 1259688" d="M176.889,233.772h1.767a.883.883,0,1,0,0-1.767h-1.767a.883.883,0,0,0,0,1.767" transform="translate(-156.57 -206.386)" fill="#fee383"/>
          <path id="Trazado_1259689" data-name="Trazado 1259689" d="M128.889,91.539a.883.883,0,0,0,.883-.883V88.888a.883.883,0,1,0-1.767,0v1.767a.883.883,0,0,0,.883.883" transform="translate(-113.871 -78.287)" fill="#fee383"/>
          <path id="Trazado_1259690" data-name="Trazado 1259690" d="M128.889,139.539a.883.883,0,0,0,.883-.883v-1.767a.883.883,0,0,0-1.767,0v1.767a.883.883,0,0,0,.883.883" transform="translate(-113.871 -120.987)" fill="#fee383"/>
          <path id="Trazado_1259691" data-name="Trazado 1259691" d="M128.889,187.539a.883.883,0,0,0,.883-.883v-1.767a.883.883,0,0,0-1.767,0v1.767a.883.883,0,0,0,.883.883" transform="translate(-113.871 -163.686)" fill="#fee383"/>
          <path id="Trazado_1259692" data-name="Trazado 1259692" d="M128.889,264.005a.883.883,0,0,0-.883.883v1.767a.883.883,0,0,0,1.767,0v-1.767a.883.883,0,0,0-.883-.883" transform="translate(-113.871 -234.852)" fill="#fee383"/>
          <path id="Trazado_1259693" data-name="Trazado 1259693" d="M128.889,312.005a.883.883,0,0,0-.883.883v1.767a.883.883,0,1,0,1.767,0v-1.767a.883.883,0,0,0-.883-.883" transform="translate(-113.871 -277.552)" fill="#fee383"/>
          <path id="Trazado_1259694" data-name="Trazado 1259694" d="M128.889,392.005a.883.883,0,0,0-.883.883v1.767a.883.883,0,1,0,1.767,0v-1.767a.883.883,0,0,0-.883-.883" transform="translate(-113.871 -348.717)" fill="#fee383"/>
        </g>
      </g>
    </g>
  </g>
</svg>
